
<svg xmlns="http://www.w3.org/2000/svg" version="1.1" xmlns:xlink="http://www.w3.org/1999/xlink" preserveAspectRatio="none" x="0px" y="0px" width="160px" height="160px" viewBox="0 0 160 160">
<defs>
<g id="Layer0_0_FILL">
<path fill="#F2EAE7" stroke="none" d="
M -29.6 -51.85
Q -29.2 -51.7 -28.45 -52.1 -27.65 -52.5 -27.85 -53.05 -28 -53.4 -28.85 -53.4
L -29.9 -53.2 -29.95 -52.5
Q -29.9 -51.9 -29.6 -51.85 Z"/>
</g>

<g id="Layer0_0_MEMBER_0_FILL">
<path fill="#DDB27F" stroke="none" d="
M -28.65 -49.95
L -29.65 -49.85 -29.5 -47.65 -29.1 -45.75
Q -28.6 -45.5 -28.1 -46.55 -27.5 -47.75 -27.7 -49.45 -27.75 -49.8 -28.65 -49.95 Z"/>
</g>

<g id="Layer0_0_MEMBER_1_FILL">
<path fill="#D1C4BA" stroke="none" d="
M -19.2 -53.15
L -18.6 -55.95
Q -18.6 -56.35 -20.05 -56.7
L -21.9 -57 -22.6 -54.35 -19.2 -53.15 Z"/>
</g>

<g id="Layer0_0_MEMBER_2_FILL">
<path fill="#664114" stroke="none" d="
M -19.35 -52.45
L -19.2 -53.15 -22.6 -54.35 -22.8 -53.55 -19.35 -52.45 Z"/>
</g>

<g id="Layer0_0_MEMBER_3_FILL">
<path fill="#BA853F" stroke="none" d="
M -19.35 -52.45
L -22.8 -53.55
Q -24.15 -46.8 -26.5 -32.3
L -24.5 -32.15
Q -24.15 -32.5 -22.25 -40.05
L -19.35 -52.45 Z"/>
</g>

<g id="Layer0_0_MEMBER_4_FILL">
<path fill="#F2EAE7" stroke="none" d="
M -21.8 -54.9
L -20.55 -54.85
Q -19.65 -55.15 -19.65 -55.9 -19.65 -56.4 -20.55 -56.6 -21.35 -56.8 -21.6 -56.6
L -21.9 -55.85
Q -22.05 -55.1 -21.8 -54.9 Z"/>
</g>

<g id="Layer0_0_MEMBER_5_FILL">
<path fill="#DDB27F" stroke="none" d="
M -20.75 -51.45
Q -20.7 -51.9 -21.55 -52.3 -22.35 -52.75 -22.5 -52.45
L -23.4 -47.3
Q -23 -46.85 -22.15 -48 -21.15 -49.3 -20.75 -51.45 Z"/>
</g>

<g id="Layer0_0_MEMBER_6_FILL">
<path fill="#7F4300" stroke="none" d="
M 19.9 -162.55
L 0.3 -163.3 -19.2 -162.55
Q -22.1 -158.2 -21.2 -156.85
L 0.65 -155.9 22.85 -156.95
Q 23.75 -157.85 22.3 -160 21.05 -161.9 19.9 -162.55 Z"/>
</g>

<g id="Layer0_0_MEMBER_7_FILL">
<path fill="#7F4300" stroke="none" d="
M 3.65 -192.85
Q 2.95 -194.1 0.2 -194.2 -2.65 -194.3 -3.5 -192.85 -4.45 -191.3 -5.15 -101.4 -5.85 -11.35 -4.8 -9.85 -3.8 -8.4 0.25 -8.25 4.4 -8.1 5.05 -9.85 6 -12.35 5.25 -101.85 4.55 -191.35 3.65 -192.85 Z"/>
</g>

<g id="Layer0_0_MEMBER_8_FILL">
<path fill="#633100" stroke="none" d="
M 5.6 -48.25
L 5.35 -53.1 -5.4 -52.7 -5.4 -46 -1 -46.15
Q 3.8 -46.6 5.6 -48.25 Z"/>
</g>

<g id="Layer0_0_MEMBER_9_FILL">
<path fill="#97580B" stroke="none" d="
M 5.85 -132.65
L 0.4 -133.25
Q -4 -133.3 -5.35 -132.65 -6.8 -131.95 -7.95 -92 -9.1 -52.05 -7.45 -51.4
L 0.5 -50.7
Q 7 -50.6 8 -51.4 9.45 -52.5 8.35 -92.25 7.25 -131.95 5.85 -132.65 Z"/>
</g>

<g id="Layer0_0_MEMBER_10_FILL">
<path fill="#B3660C" stroke="none" d="
M 5.25 -206.3
Q 4.25 -207.25 0.25 -207.35 -3.85 -207.4 -5.05 -206.3 -6.4 -205.1 -7.45 -135.55 -8.45 -65.95 -6.95 -64.75 -5.5 -63.65 0.35 -63.55 6.3 -63.4 7.25 -64.75 8.6 -66.7 7.6 -135.95 6.6 -205.1 5.25 -206.3 Z"/>
</g>

<g id="Layer0_0_MEMBER_11_FILL">
<path fill="#B3660C" stroke="none" d="
M -15.05 -179.4
Q -15.9 -180.6 -19.1 -180.75 -22.45 -180.95 -24 -179.55 -25.7 -178.05 -43.85 -90.7 -62 -3.2 -60.7 -1.7 -59.45 -0.25 -54.25 -0.05 -48.95 0.2 -47.65 -1.45 -45.75 -3.9 -29.85 -90.95 -13.95 -177.9 -15.05 -179.4 Z"/>
</g>

<g id="Layer0_0_MEMBER_12_FILL">
<path fill="#B3660C" stroke="none" d="
M 20 -180.75
Q 16.8 -180.6 15.95 -179.4 14.85 -177.9 30.75 -90.95 46.65 -3.9 48.55 -1.45 49.85 0.2 55.15 -0.05 60.35 -0.25 61.6 -1.7 62.9 -3.2 44.75 -90.7 26.6 -178.05 24.9 -179.55 23.35 -180.95 20 -180.75 Z"/>
</g>

<g id="Layer0_0_MEMBER_13_FILL">
<path fill="#E5E4E3" stroke="none" d="
M 52.25 -148.6
Q 50.5 -150.45 0.05 -150.65 -50.55 -150.85 -52.15 -148.6 -54.1 -145.95 -57.6 -105.1 -61.2 -63.8 -58.7 -62.6 -55.95 -61.3 0.55 -61.2 57.2 -61.15 58.85 -62.6 60.45 -64.05 57.2 -105.5 54 -146.85 52.25 -148.6 Z"/>
</g>

<g id="Layer0_0_MEMBER_14_FILL">
<path fill="#97580B" stroke="none" d="
M -36.55 -55.95
L -35.45 -61.95 -50.25 -61.7 -51.6 -52.4 -46.45 -52.65
Q -40.5 -53.4 -36.55 -55.95 Z"/>
</g>

<g id="Layer0_0_MEMBER_15_FILL">
<path fill="#97580B" stroke="none" d="
M 44.05 -49.6
Q 50.1 -50.25 52.15 -54.05
L 50.5 -61.15 36.55 -60.6 38.45 -49.65 44.05 -49.6 Z"/>
</g>

<g id="Layer0_0_MEMBER_16_FILL">
<path fill="#F4F4F4" stroke="none" d="
M 48.55 -118.65
Q 47 -135.35 42.8 -139.7 38.95 -143.75 -1.4 -145.8 -41.75 -147.85 -45.6 -144.05 -47.5 -142.2 -50.05 -132.05 -52.55 -121.9 -54 -110.25 -57.8 -79.9 -50.5 -77.35 -43.4 -74.85 -27.85 -75.65 -13.8 -76.4 3 -79.55 19.3 -82.65 31.2 -86.6 43.8 -90.85 45.95 -94.35 50.2 -101.25 48.55 -118.65 Z"/>
</g>

<g id="Layer0_0_MEMBER_17_FILL">
<path fill="#D28624" stroke="none" d="
M -23.9 -167
Q -30.05 -167.45 -30.8 -166.55 -31.8 -165.35 -33.5 -158.45 -35.3 -151.1 -33.95 -150.4 -19.5 -150.2 -19.35 -150.6 -18.6 -152.95 -16.75 -165.15 -17.6 -166.5 -23.9 -167 Z"/>
</g>

<g id="Layer0_0_MEMBER_18_FILL">
<path fill="#97580B" stroke="none" d="
M -55.6 -31.05
L -56.5 -27.4
Q -57.35 -23.6 -57.25 -22.8 -57.1 -21.65 -50.35 -21.9 -43.5 -22.2 -42.5 -24.3
L -41 -31.6 -55.6 -31.05 Z"/>
</g>

<g id="Layer0_0_MEMBER_19_FILL">
<path fill="#97580B" stroke="none" d="
M 56.6 -31.05
L 42 -31.6 43.45 -24.3
Q 44.45 -22.2 51.3 -21.9 58.05 -21.65 58.25 -22.8 58.4 -23.6 57.5 -27.4
L 56.6 -31.05 Z"/>
</g>

<g id="Layer0_0_MEMBER_20_FILL">
<path fill="#D28624" stroke="none" d="
M 67.65 -37.35
Q 67.5 -42.35 66.3 -42.5 64.45 -42.7 -66.2 -42.7 -67.5 -42.7 -67.85 -37.8 -68.25 -33 -67.35 -31.45 -66.8 -30.45 0 -30.45 66.8 -30.45 67.2 -31.45 67.75 -32.7 67.65 -37.35 Z"/>
</g>

<g id="Layer0_0_MEMBER_21_FILL">
<path fill="#97580B" stroke="none" d="
M 6.7 -178.05
L 6.6 -183.6 -6.5 -182.6 -6.5 -175.95 -0.95 -175.9
Q 4.95 -176.2 6.7 -178.05 Z"/>
</g>

<g id="Layer0_0_MEMBER_22_FILL">
<path fill="#E5AB6C" stroke="none" d="
M -21.8 -156.95
Q -20.6 -158.2 -19.8 -161.85 -19 -165.5 -19.9 -166.1 -21 -166.8 -25.55 -167.15 -30.35 -167.5 -31.25 -166.5 -32.2 -165.45 -33.4 -160.2 -34.65 -154.9 -33.9 -154.2 -32.6 -153.05 -27.9 -154.2 -23.4 -155.35 -21.8 -156.95 Z"/>
</g>

<g id="Layer0_0_MEMBER_23_FILL">
<path fill="#D28624" stroke="none" d="
M 34.7 -150.2
Q 36.05 -150.9 34.25 -158.25 32.55 -165.15 31.55 -166.35 31.05 -167 27.3 -166.9
L 20.65 -166.1
Q 19.7 -165.85 20.95 -158.3 22.2 -150.7 23.4 -150.55
L 34.7 -150.2 Z"/>
</g>

<g id="Layer0_0_MEMBER_24_FILL">
<path fill="#D28624" stroke="none" d="
M 9 -200.65
Q 8.05 -201.55 0.15 -201.5 -7.7 -201.4 -8.55 -200.55 -9.65 -199.35 -10.2 -191.7 -10.75 -183.9 -9.45 -182.65 -8.1 -181.4 0.6 -181.55 9.2 -181.75 10.35 -182.85 11.4 -183.8 10.65 -191.8 9.95 -199.7 9 -200.65 Z"/>
</g>

<g id="Layer0_0_MEMBER_25_FILL">
<path fill="#E5AB6C" stroke="none" d="
M 0.2 -189.05
Q 4.75 -190.65 6.45 -192.25 7.65 -193.4 7.7 -196.8 7.8 -200.25 6.6 -200.75
L -0.2 -201.45
Q -5.85 -201.55 -6.7 -200.65 -7.75 -199.65 -7.9 -194.4 -8.1 -188.95 -6.55 -188.2 -4.8 -187.3 0.2 -189.05 Z"/>
</g>

<g id="Layer0_0_MEMBER_26_FILL">
<path fill="#D28624" stroke="none" d="
M 62.2 -61.7
Q 62.35 -63.55 62.05 -64.2 61.6 -65.35 0.25 -65.25 -60.8 -65.15 -61.6 -64.55 -62.15 -64.1 -62.25 -62.4 -62.35 -60.55 -61.55 -59.7 -60.7 -58.85 0.05 -58.75 60.8 -58.7 61.6 -59.5 62 -59.85 62.2 -61.7 Z"/>
</g>

<g id="Layer0_0_MEMBER_27_FILL">
<path fill="#DB802E" stroke="none" d="
M -20.2 -178.65
Q -21.9 -179.25 -23.95 -178.2 -24.7 -177.85 -25.6 -174.4 -26.4 -171.3 -26.4 -170 -26.4 -169.05 -24.4 -168.75
L -21.2 -168.9
Q -19.95 -169.3 -19 -171.65 -18 -173.95 -18.2 -176 -18.4 -178 -20.2 -178.65 Z"/>
</g>

<g id="Layer0_0_MEMBER_28_FILL">
<path fill="#DB802E" stroke="none" d="
M 4.2 -161.25
Q 4.4 -165.55 4.05 -168.05 3.85 -169.55 -0.55 -170.65 -4.9 -171.75 -5.8 -170.55 -6.75 -169.25 -6.9 -163.55 -7 -158.05 -6.35 -156.55 -5.75 -155.25 -2.2 -154.9 1.15 -154.6 2.7 -155.4 3.95 -156 4.2 -161.25 Z"/>
</g>

<g id="Layer0_0_MEMBER_29_FILL">
<path fill="#CE7720" stroke="none" d="
M 4.25 -206.6
Q 3.65 -207.45 0.05 -207.6 -3.55 -207.7 -4.15 -206.75 -5.25 -204.9 -0.3 -205.25 4.9 -205.6 4.25 -206.6 Z"/>
</g>

<g id="Layer0_0_MEMBER_30_FILL">
<path fill="#E5AB6C" stroke="none" d="
M -10 -65.55
Q -53.35 -65.3 -56.4 -64.55 -64.55 -62.55 -13.5 -62.45 37.8 -62.35 36 -64.15
L -10 -65.55 Z"/>
</g>

<g id="Layer0_0_MEMBER_31_FILL">
<path fill="#FFC68D" stroke="none" d="
M -56.4 -64.4
Q -57.85 -65 -59.15 -64.85 -60.25 -64.7 -60.8 -63.3 -61.45 -61.85 -59.95 -61.3
L -56.65 -61.1
Q -54.5 -61.5 -54.75 -62.9 -54.95 -63.75 -56.4 -64.4 Z"/>
</g>

<g id="Layer0_0_MEMBER_32_FILL">
<path fill="#DB802E" stroke="none" d="
M -53.1 -19
Q -56.7 -20.4 -58.15 -18.25 -58.8 -17.3 -59.7 -11.05 -60.6 -4.6 -60 -3.85 -58.05 -1.5 -52.95 -6.5 -47.85 -11.55 -48.7 -14.6 -49.5 -17.6 -53.1 -19 Z"/>
</g>

<g id="Layer0_0_MEMBER_33_FILL">
<path fill="#CE7720" stroke="none" d="
M 56.25 -12.4
Q 55.2 -15.05 50.9 -16.2 46.65 -17.35 46.4 -15.35 46.15 -13.55 47.15 -9.4 48.05 -5.5 48.95 -4 49.8 -2.6 52.45 -1.9 55.2 -1.15 56.25 -2.2 57.35 -3.3 57.35 -6.45 57.35 -9.65 56.25 -12.4 Z"/>
</g>

<g id="Layer0_0_MEMBER_34_FILL">
<path fill="#D28624" stroke="none" d="
M -25.7 -163.25
Q -27.65 -163.55 -29.05 -162.6 -30.6 -161.6 -30.7 -159.4 -30.85 -155.35 -26.85 -154.75 -22.85 -154.2 -21.85 -158.4 -21.4 -160.3 -22.65 -161.7 -23.8 -162.95 -25.7 -163.25 Z"/>
</g>

<g id="Layer0_0_MEMBER_35_FILL">
<path fill="#747C89" stroke="none" d="
M -26.9 -163.85
Q -30.8 -164.1 -31 -159.8 -31.1 -156.9 -27.15 -156.95 -23.15 -157 -23.05 -160.15 -22.95 -163.6 -26.9 -163.85 Z"/>
</g>

<g id="Layer0_0_MEMBER_36_FILL">
<path fill="#B6BECC" stroke="none" d="
M -25.8 -163.4
Q -27.75 -164.75 -29.6 -163.2 -31.45 -161.65 -30.5 -160.05 -29.25 -158.05 -26.55 -160 -23.85 -162 -25.8 -163.4 Z"/>
</g>

<g id="Layer0_0_MEMBER_37_FILL">
<path fill="#FFFFFF" stroke="none" d="
M -29.8 -161.85
Q -29.05 -161.35 -27.75 -162.15 -26.6 -162.85 -27.4 -163.55 -28.25 -164.3 -29.15 -163.55 -30.6 -162.35 -29.8 -161.85 Z"/>
</g>

<g id="Layer0_0_MEMBER_38_FILL">
<path fill="#747C89" stroke="none" d="
M -28.1 -162.8
L -28.8 -161.2
Q -29.35 -159.4 -28.6 -158.4
L -27.2 -158.3 -27.75 -159.4
Q -28.3 -160.85 -28.1 -162.8 Z"/>
</g>

<g id="Layer0_0_MEMBER_39_FILL">
<path fill="#747C89" stroke="none" d="
M -52.75 -64.3
L -48.55 -63.95 -44.35 -64.4
Q -44 -68.9 -44.7 -69.55
L -48.65 -70.1
Q -51.9 -70.1 -52.6 -69.55 -53.55 -68.7 -53.9 -67.25 -54.35 -65.35 -52.75 -64.3 Z"/>
</g>

<g id="Layer0_0_MEMBER_40_FILL">
<path fill="#B6BECC" stroke="none" d="
M -49.05 -70.15
L -52.6 -69.65
Q -53.45 -69.35 -53.9 -67.7 -54.35 -66.05 -53.8 -65.55 -53.25 -65.1 -51.5 -65
L -48.5 -65.25
Q -47.3 -65.45 -46.55 -66.95 -45.85 -68.35 -46.3 -69.3 -46.65 -70.1 -49.05 -70.15 Z"/>
</g>

<g id="Layer0_0_MEMBER_41_FILL">
<path fill="#FFFFFF" stroke="none" d="
M -50.95 -69.6
L -52.6 -69.65
Q -54.7 -67.9 -53.3 -66.95 -51.9 -66 -50.85 -67.65 -50 -68.95 -50.95 -69.6 Z"/>
</g>

<g id="Layer0_0_MEMBER_42_FILL">
<path fill="#747C89" stroke="none" d="
M 48.75 -63.95
L 52.95 -64.3
Q 54.55 -65.35 54.1 -67.25 53.8 -68.7 52.8 -69.55 52.15 -70.1 48.85 -70.1 45.55 -70.1 44.9 -69.55 44.45 -69.15 44.45 -66.75
L 44.55 -64.4 48.75 -63.95 Z"/>
</g>

<g id="Layer0_0_MEMBER_43_FILL">
<path fill="#B6BECC" stroke="none" d="
M 52.8 -69.65
L 49.25 -70.15
Q 46.9 -70.1 46.5 -69.3 46 -68.2 46.2 -66.95 46.4 -65.45 47.5 -65.25
L 50.15 -65.45 52.05 -66.45
Q 52.75 -67.05 53.15 -68.15 53.6 -69.4 52.8 -69.65 Z"/>
</g>

<g id="Layer0_0_MEMBER_44_FILL">
<path fill="#D28624" stroke="none" d="
M 4.85 -191.8
Q 5.3 -193.7 4.05 -195.1 2.9 -196.35 1 -196.65 -0.95 -196.95 -2.35 -196 -3.9 -195 -4 -192.8 -4.15 -188.75 -0.15 -188.15 3.85 -187.6 4.85 -191.8 Z"/>
</g>

<g id="Layer0_0_MEMBER_45_FILL">
<path fill="#747C89" stroke="none" d="
M -4.3 -193.2
Q -4.4 -190.3 -0.45 -190.35 3.55 -190.4 3.65 -193.55 3.75 -197 -0.2 -197.25 -4.1 -197.5 -4.3 -193.2 Z"/>
</g>

<g id="Layer0_0_MEMBER_46_FILL">
<path fill="#B6BECC" stroke="none" d="
M 0.15 -193.4
Q 2.85 -195.4 0.9 -196.75 -1.05 -198.15 -2.95 -196.6 -4.8 -195.05 -3.8 -193.45 -2.55 -191.45 0.15 -193.4 Z"/>
</g>

<g id="Layer0_0_MEMBER_47_FILL">
<path fill="#FFFFFF" stroke="none" d="
M -0.7 -196.95
Q -1.55 -197.7 -2.45 -196.95 -3.9 -195.75 -3.15 -195.25 -2.4 -194.8 -1.05 -195.55 0.1 -196.25 -0.7 -196.95 Z"/>
</g>

<g id="Layer0_0_MEMBER_48_FILL">
<path fill="#747C89" stroke="none" d="
M -0.55 -195.7
L -1.1 -192.15
Q -0.8 -191.6 0.4 -192.65
L -0.55 -195.7 Z"/>
</g>

<g id="Layer0_0_MEMBER_49_FILL">
<path fill="#747C89" stroke="none" d="
M 28.5 -156.95
Q 32.45 -156.9 32.35 -159.8 32.2 -164.1 28.25 -163.85 24.35 -163.6 24.45 -160.15 24.5 -157 28.5 -156.95 Z"/>
</g>

<g id="Layer0_0_MEMBER_50_FILL">
<path fill="#684223" stroke="none" d="
M 34.9 -47
Q 32.85 -31.8 34.85 -31.4 36.95 -31 39.8 -46.05 42.65 -61.1 39.6 -61.75 37 -62.25 34.9 -47 Z"/>
</g>

<g id="Layer0_0_MEMBER_51_FILL">
<path fill="#938685" stroke="none" d="
M 41.1 -55.75
L 41.4 -59.7
Q 41.6 -63.7 41.2 -63.95
L 40 -64.35 38.9 -64.3
Q 38.65 -64.15 37.65 -60.5 36.7 -57 36.7 -56.6 37.25 -56.1 38.8 -55.8
L 41.1 -55.75 Z"/>
</g>

<g id="Layer0_0_MEMBER_52_FILL">
<path fill="#B28C62" stroke="none" d="
M 37.25 -67.65
Q 34.85 -64.45 39.3 -63.45 45.35 -62.15 44.75 -66.85 44.15 -71.35 39.85 -74.3 40.55 -72 39.75 -70.65
L 37.25 -67.65 Z"/>
</g>

<g id="Layer0_0_MEMBER_53_FILL">
<path fill="#D8BD8D" stroke="none" d="
M 37.05 -66.9
Q 37.35 -65.9 39.85 -65.55 43.4 -65.05 42.25 -68.9
L 40.4 -72.9
Q 41 -70.9 37.95 -68.6 36.8 -67.7 37.05 -66.9 Z"/>
</g>

<g id="Layer0_0_MEMBER_54_FILL">
<path fill="#CCCCCC" stroke="none" d="
M 40.3 -62.15
L 38.7 -62.85 38.05 -59.9
Q 37.55 -56.9 38 -56.7 39.1 -56.25 39.8 -59.15
L 40.3 -62.15 Z"/>
</g>

<g id="Layer0_0_MEMBER_55_FILL">
<path fill="#B6BECC" stroke="none" d="
M 25.05 -159.85
Q 26.3 -157.85 29 -159.85 31.7 -161.85 29.75 -163.2 27.8 -164.55 25.95 -163 24.1 -161.5 25.05 -159.85 Z"/>
</g>

<g id="Layer0_0_MEMBER_56_FILL">
<path fill="#684223" stroke="none" d="
M 35 -67.05
Q 31.85 -66.95 32.25 -51.6 32.6 -36.25 34.75 -36.35 36.8 -36.4 37.25 -51.75 37.65 -67.1 35 -67.05 Z"/>
</g>

<g id="Layer0_0_MEMBER_57_FILL">
<path fill="#938685" stroke="none" d="
M 34.8 -61.05
Q 36.4 -61.1 37.05 -61.5
L 36.7 -65.5
Q 36.35 -69.25 36.1 -69.45
L 35.05 -69.65 33.75 -69.45
Q 33.4 -69.3 32.95 -65.3
L 32.55 -61.35
Q 33.2 -60.95 34.8 -61.05 Z"/>
</g>

<g id="Layer0_0_MEMBER_58_FILL">
<path fill="#B28C62" stroke="none" d="
M 35.6 -68.7
Q 40.1 -68.95 38.25 -72.5 36.65 -74.95 36.3 -75.9 35.75 -77.3 36.8 -79.45 32 -77.25 30.75 -72.95 29.35 -68.35 35.6 -68.7 Z"/>
</g>

<g id="Layer0_0_MEMBER_59_FILL">
<path fill="#CCCCCC" stroke="none" d="
M 35.05 -67.5
L 33.35 -68
Q 32.6 -62.05 33.35 -61.85 34.5 -61.55 34.9 -64.5
L 35.05 -67.5 Z"/>
</g>

<g id="Layer0_0_MEMBER_60_FILL">
<path fill="#FFFFFF" stroke="none" d="
M 28.15 -163.4
L 26.4 -163.35
Q 24.95 -162.15 25.75 -161.65 26.5 -161.15 27.8 -161.95 28.95 -162.7 28.15 -163.4 Z"/>
</g>

<g id="Layer0_0_MEMBER_61_FILL">
<path fill="#B2A0BC" stroke="none" d="
M 36.7 -54.05
L 37.9 -55.15
Q 39 -56.4 38.45 -57.35 37.9 -58.2 37.2 -58.5
L 36.05 -58.4 33.8 -54.75 36.7 -54.05 Z"/>
</g>

<g id="Layer0_0_MEMBER_62_FILL">
<path fill="#FFFFFF" stroke="none" d="
M 37.9 -52.8
Q 35.4 -54.7 32.85 -53.35 30.55 -51.55 29.9 -48.35 29.25 -44.8 31.45 -42.25 32.15 -44.85 33.6 -47.5 35.4 -50.75 37.2 -51.7 37.75 -51.9 37.9 -52.8 Z"/>
</g>

<g id="Layer0_0_MEMBER_63_FILL">
<path fill="#DDE9ED" stroke="none" d="
M 36.2 -53.5
Q 37.15 -53.4 37.9 -52.8 38.4 -54.65 37.35 -56.5 36.15 -58.7 33.65 -58.65 31.65 -58.6 29.3 -51.1 28.15 -47.35 27.35 -43.6
L 31.2 -40.7 31.45 -42.25
Q 29.9 -44.15 30.1 -46.85 30.3 -49.25 31.85 -51.3
L 31.7 -51.45 33.55 -56.5
Q 34.55 -56.2 36.2 -53.5 Z"/>
</g>

<g id="Layer0_0_MEMBER_64_FILL">
<path fill="#B2A0BC" stroke="none" d="
M 36.65 -52.6
L 36.2 -53.5
Q 34.95 -53.65 33.25 -52.75
L 31.85 -51.3 33.7 -48.95
Q 34.2 -50.25 35.5 -51.55
L 36.65 -52.6 Z"/>
</g>

<g id="Layer0_0_MEMBER_65_FILL">
<path fill="#705D79" stroke="none" d="
M 36.2 -53.5
Q 34.55 -56.2 33.55 -56.5
L 31.7 -51.45 31.85 -51.3 33.25 -52.75
Q 34.95 -53.65 36.2 -53.5 Z"/>
</g>

<g id="Layer0_0_MEMBER_66_FILL">
<path fill="#FFFFFF" stroke="none" d="
M 26.3 -42.05
L 28.95 -39.95
Q 31.65 -38.1 31.75 -39.65 31.9 -41.05 30.2 -42.4 27.95 -44.15 27.7 -44.6
L 26.3 -42.05 Z"/>
</g>

<g id="Layer0_0_MEMBER_67_FILL">
<path fill="#747C89" stroke="none" d="
M 29.55 -160.65
L 28.8 -162.25
Q 29 -160.3 28.5 -158.85
L 27.95 -157.75 29.35 -157.85
Q 30.1 -158.85 29.55 -160.65 Z"/>
</g>

<g id="Layer0_0_MEMBER_68_FILL">
<path fill="#E5AB6C" stroke="none" d="
M 25.9 -166.95
Q 22.45 -166.9 21.85 -166.25 21.25 -165.6 21.45 -164.65 21.65 -163.75 22.5 -162.9 23.25 -162.15 26.7 -163.9 30.05 -165.7 29.7 -166.35 29.35 -166.95 25.9 -166.95 Z"/>
</g>

<g id="Layer0_0_MEMBER_69_FILL">
<path fill="#E5AB6C" stroke="none" d="
M 17.95 -38.95
Q 24.2 -40.6 23.4 -42.7
L -66.2 -42.7
Q -67 -42.5 -67.55 -40.3 -68.1 -38.2 -67.65 -37.3 -67.25 -36.5 -26.25 -37.3
L 17.95 -38.95 Z"/>
</g>

<g id="Layer0_0_MEMBER_70_FILL">
<path fill="#E5AB6C" stroke="none" d="
M 29.15 -155.5
Q 24.9 -155.8 24.65 -154.9 24.4 -154.2 24.7 -153.1 24.95 -152 25.45 -151.6
L 29.15 -151.15 33.1 -151.5
Q 35 -152.2 33.95 -154.2 33.45 -155.25 29.15 -155.5 Z"/>
</g>

<g id="Layer0_0_MEMBER_71_FILL">
<path fill="#D1C4BA" stroke="none" d="
M 23.05 -61.75
Q 22.85 -61.55 23.5 -58.65
L 27.6 -58.9 26.95 -62.15 25.1 -62.3 23.05 -61.75 Z"/>
</g>

<g id="Layer0_0_MEMBER_72_FILL">
<path fill="#664114" stroke="none" d="
M 27.75 -58.1
L 27.6 -58.9 23.5 -58.65 23.7 -57.7 27.75 -58.1 Z"/>
</g>

<g id="Layer0_0_MEMBER_73_FILL">
<path fill="#BA853F" stroke="none" d="
M 27.75 -58.1
L 23.7 -57.7
Q 25.3 -50.1 29.3 -33.85
L 31.45 -34.55
Q 31.65 -35.15 30.25 -43.85
L 27.75 -58.1 Z"/>
</g>

<g id="Layer0_0_MEMBER_74_FILL">
<path fill="#F2EAE7" stroke="none" d="
M 24.1 -59.6
Q 24.65 -59.5 25.35 -60.15 26.2 -60.85 25.85 -61.6 25.65 -62.1 24.65 -61.95 23.7 -61.8 23.55 -61.45
L 23.6 -60.5
Q 23.75 -59.65 24.1 -59.6 Z"/>
</g>

<g id="Layer0_0_MEMBER_75_FILL">
<path fill="#DDB27F" stroke="none" d="
M 24.45 -56.7
Q 24.4 -56.15 25.05 -53.6 25.65 -51.05 25.8 -50.95 26.4 -50.65 26.8 -52.25 27.25 -54.05 26.7 -56.45 26.6 -56.95 25.5 -57 24.45 -57.05 24.45 -56.7 Z"/>
</g>

<g id="Layer0_0_MEMBER_76_FILL">
<path fill="#FFD4AE" stroke="none" d="
M -30.2 -164.9
Q -27.9 -164.4 -26.8 -165.55 -25.75 -166.55 -27.75 -166.9
L -30.8 -166.55
Q -32.55 -165.4 -30.2 -164.9 Z"/>
</g>

<g id="Layer0_0_MEMBER_77_FILL">
<path fill="#FFD4AE" stroke="none" d="
M -2.1 -200.45
Q -4.2 -201.5 -5.65 -201.15 -7.5 -200.75 -7.65 -197.95 -7.8 -195.7 -3.95 -197.55 -0.05 -199.5 -2.1 -200.45 Z"/>
</g>

<g id="Layer0_0_MEMBER_78_FILL">
<path fill="#684223" stroke="none" d="
M -37.6 -64.7
Q -40.85 -51.55 -38.4 -50.9 -36.25 -50.35 -33.6 -63.65 -30.95 -76.95 -32.6 -77.35 -34.3 -77.8 -37.6 -64.7 Z"/>
</g>

<g id="Layer0_0_MEMBER_79_FILL">
<path fill="#DB802E" stroke="none" d="
M 20.3 -179
Q 17.6 -179.85 17.2 -178.3 16.8 -176.65 17.75 -173.4 18.65 -170.15 19.75 -169.2 20.75 -168.3 21.95 -171.05 23.05 -173.7 23.05 -176.1 23.05 -178.2 20.3 -179 Z"/>
</g>

<g id="Layer0_0_MEMBER_80_FILL">
<path fill="#FFD4AE" stroke="none" d="
M -62.95 -42.3
Q -64.4 -42.9 -65.7 -42.75 -66.8 -42.6 -67.4 -41.2 -68 -39.75 -66.5 -39.2
L -63.2 -39.05
Q -61.05 -39.45 -61.3 -40.85 -61.5 -41.7 -62.95 -42.3 Z"/>
</g>

<g id="Layer0_0_MEMBER_81_FILL">
<path fill="#83CCA9" stroke="none" d="
M 43 -50.25
Q 42.95 -51.6 42 -51.6
L 23.8 -51.6
Q 22.55 -51.6 22.7 -50.25 22.85 -48.95 24.4 -48.95 25.35 -48.95 24.95 -47.6 23.35 -47.6 22.4 -46.15 21.55 -44.9 21.6 -43.25 21.8 -38.25 22.15 -36.25 22.4 -34.55 23.25 -33.5 24.1 -32.45 25.35 -32.45
L 40.8 -32.45
Q 42.75 -32.45 43.6 -35.7 44.25 -38.1 44.25 -42.6 44.3 -45.8 42.55 -47
L 40.8 -47.6
Q 40.7 -47.9 40.75 -48.25 40.9 -48.9 41.9 -48.9 43.1 -48.9 43 -50.25 Z"/>
</g>

<g id="Layer0_0_MEMBER_82_FILL">
<path fill="#ACEFCD" stroke="none" d="
M 33 -50.95
Q 25.25 -51.15 24.45 -50.95 23.8 -50.75 23.95 -50.3 24.05 -49.85 24.65 -49.75
L 40.9 -50.4 33 -50.95 Z"/>
</g>

<g id="Layer0_0_MEMBER_83_FILL">
<path fill="#8DCDE0" stroke="none" d="
M 24.35 -44.65
Q 23.5 -43.4 24.1 -40.2 24.7 -37.2 25.7 -36.15 26.6 -35.25 33 -35.3 39.35 -35.35 40.25 -36.35 41.5 -37.8 41.95 -40.65 42.5 -43.8 41.25 -45 39.7 -46.35 32.9 -46.5 25.75 -46.6 24.35 -44.65 Z"/>
</g>

<g id="Layer0_0_MEMBER_84_FILL">
<path fill="#ACEFCD" stroke="none" d="
M 26.85 -37.45
Q 32.7 -35.75 37 -37.75 41.3 -39.75 41.65 -44.35
L 41.25 -45
Q 39.7 -46.35 32.9 -46.5 25.75 -46.6 24.35 -44.65 23.7 -43.75 23.75 -42.7
L 24.45 -39.15
Q 25.2 -38.1 26.85 -37.45 Z"/>
</g>

<g id="Layer0_0_MEMBER_85_FILL">
<path fill="#D4FFF7" stroke="none" d="
M 37 -37.75
Q 32.7 -35.75 26.85 -37.45 25.15 -38.1 24.45 -39.15 24.85 -37.1 25.7 -36.15 26.6 -35.25 33 -35.3 39.35 -35.35 40.25 -36.35 41.35 -37.7 41.85 -39.9 42.45 -42.4 41.65 -44.35 41.3 -39.75 37 -37.75 Z"/>
</g>

<g id="Layer0_0_MEMBER_86_FILL">
<path fill="#8DCDE0" stroke="none" d="
M 26.45 -33.95
L 32.9 -33.45 39.35 -33.95 32.9 -34.45 26.45 -33.95 Z"/>
</g>

<g id="Layer0_0_MEMBER_87_FILL">
<path fill="#FFFFFF" stroke="none" d="
M 24.95 -50.6
Q 24.95 -49.8 26.55 -49.8 28.15 -49.85 28.15 -50.6 28.15 -51.4 26.55 -51.45 24.95 -51.5 24.95 -50.6 Z"/>
</g>

<g id="Layer0_0_MEMBER_88_FILL">
<path fill="#FFFFFF" stroke="none" d="
M 25.2 -45.8
Q 23.4 -45.95 22.9 -43.35 22.35 -40.75 24 -40.6 25.65 -40.45 26.2 -43.05 26.75 -45.7 25.2 -45.8 Z"/>
</g>

<g id="Layer0_0_MEMBER_89_FILL">
<path fill="#FFFFFF" stroke="none" d="
M 49.1 -70
L 47.15 -69.95
Q 45 -68.7 46.6 -67.6 48.15 -66.55 49.8 -68.8 50.4 -69.65 49.1 -70 Z"/>
</g>

<g id="Layer0_0_MEMBER_90_FILL">
<path fill="#747C89" stroke="none" d="
M 8.6 -152.55
L 0.05 -153.2 -8.5 -152.85
Q -9.75 -151.85 -9.45 -150.4 -9.2 -149.05 -7.9 -148.6
L -0.1 -147.95 7.7 -148.2
Q 8.6 -148.55 8.9 -150.25 9.15 -151.9 8.6 -152.55 Z"/>
</g>

<g id="Layer0_0_MEMBER_91_FILL">
<path fill="#B6BECC" stroke="none" d="
M 4.9 -150.4
Q 5.7 -151.05 4.4 -152 3.1 -153 0.95 -153.2
L -8.65 -152.95
Q -9.75 -152.6 -9.6 -151.45 -9.45 -150.3 -7.95 -150.1
L -0.85 -149.8
Q 4.2 -149.8 4.9 -150.4 Z"/>
</g>

<g id="Layer0_0_MEMBER_92_FILL">
<path fill="#FFFFFF" stroke="none" d="
M -8.1 -151.35
Q -7.2 -150.9 -5.3 -151.35 -3.3 -151.8 -4.3 -152.8 -5.5 -153.85 -7.7 -153.1 -9.9 -152.35 -8.1 -151.35 Z"/>
</g>

<g id="Layer0_0_MEMBER_93_FILL">
<path fill="#7F4300" stroke="none" d="
M 1.55 -159.7
Q 2.45 -161.45 0.55 -162.15 -1.3 -162.85 -2.25 -161.45 -3.75 -159.3 -1.55 -158.55 0.6 -157.75 1.55 -159.7 Z"/>
</g>

<g id="Layer0_0_MEMBER_94_FILL">
<path fill="#7F4300" stroke="none" d="
M 1.55 -168.7
Q 2.45 -170.5 0.55 -171.2 -1.3 -171.9 -2.25 -170.5 -3.75 -168.35 -1.55 -167.55 0.6 -166.75 1.55 -168.7 Z"/>
</g>

<g id="Layer0_0_MEMBER_95_FILL">
<path fill="#683400" stroke="none" d="
M -45.95 -49
Q -47.85 -49.7 -48.8 -48.3 -50.3 -46.15 -48.1 -45.4 -45.95 -44.6 -44.95 -46.55 -44.1 -48.3 -45.95 -49 Z"/>
</g>

<g id="Layer0_0_MEMBER_96_FILL">
<path fill="#683400" stroke="none" d="
M 48.95 -48.3
Q 48 -49.7 46.1 -49 44.2 -48.3 45.1 -46.55 46.1 -44.6 48.25 -45.4 50.45 -46.15 48.95 -48.3 Z"/>
</g>

<g id="Layer0_0_MEMBER_97_FILL">
<path fill="#5E8C77" stroke="none" d="
M -31.2 -61.05
Q -31.3 -62.45 -32.1 -62.45
L -48.4 -62.45
Q -49.5 -62.45 -49.4 -61.1 -49.25 -59.8 -47.9 -59.8 -47.05 -59.8 -47.4 -58.45 -48.85 -58.45 -49.7 -57 -50.45 -55.7 -50.4 -54.1
L -50.25 -45.2
Q -50.15 -37.7 -49.9 -36.1 -49.65 -34.35 -48.95 -33.35 -48.15 -32.25 -47 -32.25
L -33.2 -32.25
Q -31.35 -32.25 -30.65 -35.55 -30.35 -36.8 -30.2 -44.7
L -30.05 -53.4
Q -30.05 -56.6 -31.6 -57.85
L -33.2 -58.45 -33.25 -59.05
Q -33.1 -59.7 -32.15 -59.7 -31.1 -59.7 -31.2 -61.05 Z"/>
</g>

<g id="Layer0_0_MEMBER_98_FILL">
<path fill="#83CCA9" stroke="none" d="
M -33.1 -61.25
L -40.2 -61.8
Q -47.2 -61.95 -47.85 -61.75 -48.4 -61.6 -48.3 -61.15 -48.2 -60.7 -47.7 -60.6
L -33.1 -61.25 Z"/>
</g>

<g id="Layer0_0_MEMBER_99_FILL">
<path fill="#8DCDE0" stroke="none" d="
M -32.8 -55.85
Q -34.15 -57.2 -40.25 -57.3 -46.65 -57.4 -47.9 -55.45 -48.75 -54.2 -48.15 -45.5 -47.55 -36.95 -46.7 -36 -45.9 -35.1 -40.2 -35.15 -34.45 -35.2 -33.7 -36.2 -32.6 -37.5 -32.1 -46 -31.6 -54.65 -32.8 -55.85 Z"/>
</g>

<g id="Layer0_0_MEMBER_100_FILL">
<path fill="#83CCA9" stroke="none" d="
M -32.4 -55.15
L -32.8 -55.85
Q -34.15 -57.2 -40.25 -57.3 -46.65 -57.4 -47.9 -55.45 -48.45 -54.55 -48.3 -48.05 -48.15 -41.8 -47.65 -38.95 -46.8 -37.8 -45.65 -37.3 -40.95 -35.8 -36.6 -43.1 -32.85 -49.35 -32.4 -55.15 Z"/>
</g>

<g id="Layer0_0_MEMBER_101_FILL">
<path fill="#ACEFCD" stroke="none" d="
M -48.35 -48.05
Q -48.15 -41.6 -47.65 -38.95 -46.8 -37.8 -45.65 -37.3 -42.2 -36.2 -38.75 -40.1 -35.9 -43.3 -33.95 -48.75 -33.25 -50.7 -40.85 -50.65 -48.4 -50.55 -48.35 -48.05 Z"/>
</g>

<g id="Layer0_0_MEMBER_102_FILL">
<path fill="#D4FFF7" stroke="none" d="
M -45.65 -37.3
Q -46.8 -37.8 -47.65 -38.95 -47.15 -36.45 -46.7 -36 -45.9 -35.1 -40.2 -35.15 -34.45 -35.2 -33.7 -36.2 -32.8 -37.35 -32.2 -45.2 -31.65 -53.1 -32.4 -55.15 -32.85 -49.35 -36.6 -43.1 -40.95 -35.8 -45.65 -37.3 Z"/>
</g>

<g id="Layer0_0_MEMBER_103_FILL">
<path fill="#8DCDE0" stroke="none" d="
M -40.25 -33.3
L -34.5 -33.8 -40.25 -34.3 -46.05 -33.8 -40.25 -33.3 Z"/>
</g>

<g id="Layer0_0_MEMBER_104_FILL">
<path fill="#FFFFFF" stroke="none" d="
M -47.4 -61.45
Q -47.4 -60.6 -45.95 -60.65 -44.55 -60.7 -44.55 -61.45 -44.55 -62.2 -45.95 -62.25 -47.4 -62.3 -47.4 -61.45 Z"/>
</g>

<g id="Layer0_0_MEMBER_105_FILL">
<path fill="#AF7158" stroke="none" d="
M -30.25 -51.25
L -26.65 -51.05 -26.8 -53.35 -28.4 -53.6 -30.3 -53.4 -30.25 -51.25 Z"/>
</g>

<g id="Layer0_0_MEMBER_106_FILL">
<path fill="#664114" stroke="none" d="
M -30.2 -50.6
L -26.6 -50.5 -26.65 -51.05 -30.25 -51.25 -30.2 -50.6 Z"/>
</g>

<g id="Layer0_0_MEMBER_107_FILL">
<path fill="#BA853F" stroke="none" d="
M -26.6 -50.5
L -30.2 -50.6
Q -29.7 -45.2 -28.05 -33.7
L -26.1 -34
Q -25.55 -34.75 -26.6 -50.5 Z"/>
</g>

<g id="Layer0_0_MEMBER_108_FILL">
<path fill="#FFFFFF" stroke="none" d="
M -47.2 -56.6
Q -48.8 -56.75 -49.25 -53.85 -49.7 -51 -48.2 -50.85 -46.75 -50.7 -46.3 -53.6 -45.85 -56.5 -47.2 -56.6 Z"/>
</g>

<g id="Layer0_0_MEMBER_109_FILL">
<path fill="#684223" stroke="none" d="
M -31.9 -45
Q -24.4 -37.5 -23.4 -38.35 -22.4 -39.3 -29.5 -47.1 -36.65 -54.95 -38.15 -53.6 -39.45 -52.45 -31.9 -45 Z"/>
</g>

<g id="Layer0_0_MEMBER_110_FILL">
<path fill="#938685" stroke="none" d="
M -36.45 -49.9
Q -35.95 -50 -35.2 -50.65 -34.4 -51.4 -34.3 -51.9
L -38.75 -55.4 -39.4 -54.9 -39.8 -54.3
Q -39.85 -54.1 -38.2 -52.05
L -36.45 -49.9 Z"/>
</g>

<g id="Layer0_0_MEMBER_111_FILL">
<path fill="#B28C62" stroke="none" d="
M -39.2 -54.15
Q -36.15 -56.8 -38.95 -58.45 -41.65 -60.05 -44.9 -59 -43.4 -58.4 -42.95 -57.45
L -42.25 -54.85
Q -41.45 -52.25 -39.2 -54.15 Z"/>
</g>

<g id="Layer0_0_MEMBER_112_FILL">
<path fill="#D8BD8D" stroke="none" d="
M -41.05 -58
L -43.95 -58.7
Q -42.65 -58.2 -42.55 -55.6 -42.5 -54.65 -41.95 -54.45 -41.25 -54.2 -40.1 -55.35 -38.45 -57 -41.05 -58 Z"/>
</g>

<g id="Layer0_0_MEMBER_113_FILL">
<path fill="#CCCCCC" stroke="none" d="
M -38.1 -54.15
L -39.1 -53.6
Q -36.45 -50.4 -36 -50.65 -34.95 -51.25 -38.1 -54.15 Z"/>
</g>

<g id="Layer0_0_MEMBER_114_FILL">
<path fill="#B53535" stroke="none" d="
M -38.25 -52.35
Q -38.55 -52.6 -39.25 -52.35
L -40.6 -51.3
Q -41.2 -50.5 -40.35 -49.65
L -39.35 -48.95 -36.55 -49.85 -38.25 -52.35 Z"/>
</g>

<g id="Layer0_0_MEMBER_115_FILL">
<path fill="#FFFFFF" stroke="none" d="
M -40.1 -47.05
Q -38.5 -46.55 -37.2 -44.2 -36.15 -42.3 -35.8 -40.4 -33.45 -42.65 -33.65 -45.3 -33.85 -47.75 -35.8 -48.85 -38.05 -49.6 -40.65 -47.85 -40.5 -47.2 -40.1 -47.05 Z"/>
</g>

<g id="Layer0_0_MEMBER_116_FILL">
<path fill="#DDE9ED" stroke="none" d="
M -35.95 -52.85
Q -38.3 -52.6 -39.7 -50.75 -40.85 -49.2 -40.65 -47.85 -39.9 -48.35 -38.9 -48.6 -37.3 -50.8 -36.1 -51.2
L -34.95 -47.5 -35.1 -47.35
Q -33.9 -45.95 -34 -44.1 -34.1 -42.05 -35.8 -40.4
L -35.75 -39.25 -31.8 -41.95
Q -32.1 -44.75 -32.75 -47.55 -34.05 -53.05 -35.95 -52.85 Z"/>
</g>

<g id="Layer0_0_MEMBER_117_FILL">
<path fill="#B53535" stroke="none" d="
M -38.9 -48.6
L -39.5 -47.8 -38.5 -47.15
Q -37.45 -46.3 -37.15 -45.35
L -35.1 -47.35 -36.3 -48.35 -38.9 -48.6 Z"/>
</g>

<g id="Layer0_0_MEMBER_118_FILL">
<path fill="#7C1A1A" stroke="none" d="
M -38.9 -48.6
L -36.3 -48.35 -35.1 -47.35 -34.95 -47.5 -36.1 -51.2
Q -37.3 -50.8 -38.9 -48.6 Z"/>
</g>

<g id="Layer0_0_MEMBER_119_FILL">
<path fill="#FFFFFF" stroke="none" d="
M -33.7 -38.95
L -30.95 -40.9 -32 -42.7 -34.55 -40.7
Q -36.35 -39.45 -36.4 -38.35 -36.45 -37.2 -33.7 -38.95 Z"/>
</g>

<g id="Layer0_0_MEMBER_120_FILL">
<path fill="#684223" stroke="none" d="
M -32.95 -30.85
L -19.75 -31.35
Q -0.55 -33.1 -0.85 -36.75 -1.1 -39.9 -20.2 -37.2 -39.25 -34.5 -39.1 -32.1 -39 -31 -32.95 -30.85 Z"/>
</g>

<g id="Layer0_0_MEMBER_121_FILL">
<path fill="#938685" stroke="none" d="
M 2.35 -35.65
Q 2.55 -36.25 2.4 -37.15
L 1.95 -38.4 -8.05 -38.35
Q -8.45 -37.55 -8.3 -35.7 -8.15 -33.8 -7.6 -33.1 2.05 -34.9 2.35 -35.65 Z"/>
</g>

<g id="Layer0_0_MEMBER_122_FILL">
<path fill="#B28C62" stroke="none" d="
M 5.45 -41.35
Q 0.85 -43.05 1.1 -37.7 1.55 -30.4 7.05 -32.65 12.3 -34.75 14.35 -40.65 11.8 -39.1 10 -39.55
L 5.45 -41.35 Z"/>
</g>

<g id="Layer0_0_MEMBER_123_FILL">
<path fill="#D8BD8D" stroke="none" d="
M 12.9 -39.55
Q 10.65 -38.25 6.8 -40.95 5.4 -41.95 4.5 -41.35 3.4 -40.65 3.8 -37.7 4.45 -33.55 8.75 -36.15
L 12.9 -39.55 Z"/>
</g>

<g id="Layer0_0_MEMBER_124_FILL">
<path fill="#CCCCCC" stroke="none" d="
M -3.9 -35.7
L -0.15 -36.1 0.15 -38.15 -3.65 -37.9
Q -7.45 -37.5 -7.5 -36.95 -7.65 -35.55 -3.9 -35.7 Z"/>
</g>

<g id="Layer0_0_MEMBER_125_FILL">
<path fill="#FAAF3B" stroke="none" d="
M 39.5 -40.85
Q 38.9 -40.1 38.8 -39.35 38.65 -38.55 39 -38.3
L 41.85 -37.25 42.1 -40.15 41.2 -40.95 39.5 -40.85 Z"/>
</g>

<g id="Layer0_0_MEMBER_126_FILL">
<path fill="#FFFFFF" stroke="none" d="
M 42.9 -41.65
Q 41.75 -38.7 42.95 -36.75 44.45 -35.05 46.85 -35.4 49.5 -35.8 51.2 -38.6
L 47.2 -39.1
Q 44.65 -39.85 43.75 -41.3 43.5 -41.7 42.9 -41.65 Z"/>
</g>

<g id="Layer0_0_MEMBER_127_FILL">
<path fill="#DDE9ED" stroke="none" d="
M 40.25 -40.1
Q 38.8 -38.35 39.05 -36 39.25 -34.1 44.9 -34
L 50.55 -34.3 52.3 -38.8 51.2 -38.6
Q 49.95 -36.55 47.95 -36 46.2 -35.55 44.55 -36.4
L 44.45 -36.2 40.6 -36.5
Q 40.7 -37.65 42.55 -39.85 42.45 -40.7 42.9 -41.65 41.5 -41.6 40.25 -40.1 Z"/>
</g>

<g id="Layer0_0_MEMBER_128_FILL">
<path fill="#F9DE3D" stroke="none" d="
M 43.15 -40.55
L 42.55 -39.85
Q 42.55 -38.65 43.35 -37.3
L 44.55 -36.4 46.1 -38.8
Q 45.1 -38.9 44.05 -39.75
L 43.15 -40.55 Z"/>
</g>

<g id="Layer0_0_MEMBER_129_FILL">
<path fill="#FAAF3B" stroke="none" d="
M 42.55 -39.85
Q 40.7 -37.65 40.6 -36.5
L 44.45 -36.2 44.55 -36.4 43.35 -37.3
Q 42.55 -38.65 42.55 -39.85 Z"/>
</g>

<g id="Layer0_0_MEMBER_130_FILL">
<path fill="#FFFFFF" stroke="none" d="
M 51.8 -33.75
L 53.1 -36.85
Q 54.2 -39.9 53.05 -39.6 52 -39.35 51.15 -37.35
L 49.8 -34.4 51.8 -33.75 Z"/>
</g>

<g id="Layer0_0_MEMBER_131_FILL">
<path fill="#5BA8AF" stroke="none" d="
M -41.8 -34.85
Q -41.6 -33.55 -41.05 -32.75 -40.4 -31.9 -39.55 -31.9
L -20.3 -31.9
Q -18.95 -31.9 -18.35 -34.4 -17.9 -36.2 -17.9 -39.7 -17.85 -42.2 -19.1 -43.15
L -20.3 -43.6 -20.35 -44.1
Q -20.2 -44.6 -19.5 -44.6 -18.7 -44.6 -18.75 -45.6 -18.8 -46.65 -19.45 -46.65
L -40.65 -46.65
Q -41.5 -46.65 -41.4 -45.65 -41.3 -44.65 -40.25 -44.65 -39.55 -44.65 -39.85 -43.6 -40.95 -43.6 -41.6 -42.45 -42.2 -41.45 -42.15 -40.2
L -41.8 -34.85 Z"/>
</g>

<g id="Layer0_0_MEMBER_132_FILL">
<path fill="#95D9C7" stroke="none" d="
M -20.25 -45.75
Q -20.25 -46.2 -40.2 -46.15 -40.65 -46 -40.55 -45.65
L -40.05 -45.25
Q -20.2 -45.05 -20.25 -45.75 Z"/>
</g>

<g id="Layer0_0_MEMBER_133_FILL">
<path fill="#8DCDE0" stroke="none" d="
M -40.4 -37.85
Q -40 -35.55 -39.3 -34.75 -38.65 -34 -30 -34.05 -21.35 -34.1 -20.7 -34.9 -19.85 -36 -19.5 -38.25 -19.15 -40.7 -20 -41.6 -21.05 -42.65 -30.05 -42.75 -39.3 -42.85 -40.25 -41.3 -40.85 -40.3 -40.4 -37.85 Z"/>
</g>

<g id="Layer0_0_MEMBER_134_FILL">
<path fill="#95D9C7" stroke="none" d="
M -38.5 -35.75
Q -34.05 -34.35 -27.2 -36 -19.95 -37.75 -19.7 -41.05
L -20 -41.6
Q -21.05 -42.65 -30.05 -42.75 -39.3 -42.85 -40.25 -41.3 -40.65 -40.65 -40.55 -39.85
L -40 -37.05
Q -39.4 -36.1 -38.5 -35.75 Z"/>
</g>

<g id="Layer0_0_MEMBER_135_FILL">
<path fill="#D0F6FC" stroke="none" d="
M -20.7 -34.9
Q -19.9 -35.9 -19.55 -37.6 -19.15 -39.55 -19.7 -41.05 -19.95 -37.75 -27.2 -36 -34.05 -34.35 -38.5 -35.75 -39.4 -36.1 -40 -37.05 -39.7 -35.2 -39.3 -34.75 -38.65 -34 -30 -34.05 -21.35 -34.1 -20.7 -34.9 Z"/>
</g>

<g id="Layer0_0_MEMBER_136_FILL">
<path fill="#8DCDE0" stroke="none" d="
M -38.8 -33.05
L -30.05 -32.65 -21.35 -33.05 -30.05 -33.45 -38.8 -33.05 Z"/>
</g>

<g id="Layer0_0_MEMBER_137_FILL">
<path fill="#FFFFFF" stroke="none" d="
M -40.4 -45.75
Q -40.4 -44.9 -39.2 -44.9 -38.05 -44.95 -38.05 -45.75 -38.05 -46.55 -39.2 -46.65 -40.4 -46.7 -40.4 -45.75 Z"/>
</g>

<g id="Layer0_0_MEMBER_138_FILL">
<path fill="#FFFFFF" stroke="none" d="
M -40.5 -38.15
Q -39.35 -38.05 -38.95 -40.05 -38.6 -42.1 -39.65 -42.2 -40.9 -42.3 -41.25 -40.3 -41.65 -38.25 -40.5 -38.15 Z"/>
</g>

<g id="Layer0_0_MEMBER_139_FILL">
<path fill="#B3660C" stroke="none" d="
M 68.9 -32.05
Q 69.1 -33.45 68.8 -34 68.25 -34.85 0.3 -34.8 -67.4 -34.7 -68.3 -34.25 -68.95 -33.9 -69 -32.55 -69.1 -31.1 -68.2 -30.5 -67.3 -29.8 0.1 -29.75 67.4 -29.7 68.3 -30.3 68.7 -30.6 68.9 -32.05 Z"/>
</g>

<g id="Layer0_0_MEMBER_140_FILL">
<path fill="#747C89" stroke="none" d="
M -57.25 -27.05
L -50.95 -26.6 -44.4 -27.2
Q -43.95 -31.9 -44.9 -32.55 -45.75 -33.15 -50.85 -33.2
L -56.85 -32.7
Q -57.8 -32.05 -57.95 -30.25 -58.15 -28.4 -57.25 -27.05 Z"/>
</g>

<g id="Layer0_0_MEMBER_141_FILL">
<path fill="#B6BECC" stroke="none" d="
M -51.65 -33.25
L -56.9 -32.8
Q -57.95 -32.5 -58.05 -30.8 -58.15 -29.1 -57.4 -28.55 -56.7 -28.1 -54.3 -28
L -50.35 -28.2
Q -48.75 -28.45 -47.8 -29.95 -46.85 -31.4 -47.45 -32.4 -47.95 -33.25 -51.65 -33.25 Z"/>
</g>

<g id="Layer0_0_MEMBER_142_FILL">
<path fill="#FFFFFF" stroke="none" d="
M -55.25 -32.8
Q -56.6 -33.45 -57.25 -32.8 -59.1 -31.1 -57.45 -30.35 -55.8 -29.6 -54.75 -31 -53.85 -32.2 -55.25 -32.8 Z"/>
</g>

<g id="Layer0_0_MEMBER_143_FILL">
<path fill="#747C89" stroke="none" d="
M 57.6 -32.7
L 51.6 -33.2
Q 46.5 -33.15 45.65 -32.55 45.05 -32.15 45.05 -29.65
L 45.15 -27.2 51.65 -26.6 58 -27.05
Q 58.9 -28.4 58.7 -30.25 58.5 -32.05 57.6 -32.7 Z"/>
</g>

<g id="Layer0_0_MEMBER_144_FILL">
<path fill="#B6BECC" stroke="none" d="
M 53.35 -33.25
L 48.1 -32.8
Q 47 -32.5 46.9 -30.8 46.8 -29.1 47.6 -28.55 48.25 -28.1 50.65 -28
L 54.6 -28.2
Q 56.2 -28.45 57.15 -29.95 58.1 -31.4 57.55 -32.4 57.05 -33.25 53.35 -33.25 Z"/>
</g>

<g id="Layer0_0_MEMBER_145_FILL">
<path fill="#FFFFFF" stroke="none" d="
M 50 -32.9
L 47.9 -32.85
Q 46 -31.05 47.7 -30.3 49.45 -29.5 50.55 -31 51.45 -32.25 50 -32.9 Z"/>
</g>

<g id="Layer0_0_MEMBER_146_FILL">
<path fill="#84B2BC" stroke="none" d="
M -34.85 -41.9
L -37.55 -41.6
Q -37.9 -41.6 -38.35 -40.15 -38.8 -38.7 -38.6 -38.2 -38.4 -37.7 -36.35 -37.2
L -33.35 -36.85
Q -32.55 -36.95 -32.05 -39.05 -31.6 -41.15 -32.1 -41.7
L -34.85 -41.9 Z"/>
</g>

<g id="Layer0_0_MEMBER_147_FILL">
<path fill="#2BA8B2" stroke="none" d="
M 13.85 -44
Q 9.75 -42.3 12.65 -41 15.7 -39.6 17.35 -41.15 18.65 -42.4 17 -43.55 15.4 -44.65 13.85 -44 Z"/>
</g>

<g id="Layer0_0_MEMBER_148_FILL">
<path fill="#84B2BC" stroke="none" d="
M -27.6 -41.95
L -29.5 -42.1
Q -31.05 -41.95 -30.8 -41.7 -29.7 -40.65 -26.7 -39.05 -23.6 -37.4 -23.35 -37.85 -23.15 -38.25 -25.15 -39.95
L -27.6 -41.95 Z"/>
</g>

<g id="Layer0_0_MEMBER_149_FILL">
<path fill="#84B2BC" stroke="none" d="
M -28.55 -39.5
Q -29.45 -39.75 -29.45 -39.35
L -29.65 -38.15
Q -29.7 -37.1 -29.1 -36.5 -28.4 -35.8 -27.7 -37.05 -27 -38.25 -27.35 -38.75
L -28.55 -39.5 Z"/>
</g>

<g id="Layer0_0_MEMBER_150_FILL">
<path fill="#84B2BC" stroke="none" d="
M -23.4 -41.95
L -25.05 -41.75
Q -25.15 -41.45 -24.15 -40.35 -23.2 -39.3 -22.7 -39.1 -22.2 -38.9 -21.55 -39.85 -20.9 -40.8 -21.35 -41.25 -21.85 -41.75 -23.4 -41.95 Z"/>
</g>

<g id="Layer0_0_MEMBER_151_FILL">
<path fill="#9AD0C4" stroke="none" d="
M 28.1 -45.55
Q 26.55 -45.2 26.65 -44.75 27.8 -39.75 29.15 -38.35
L 30.55 -37.85
Q 30.85 -37.75 30.6 -41.5 30.4 -45.2 30.05 -45.5
L 28.1 -45.55 Z"/>
</g>

<g id="Layer0_0_MEMBER_152_FILL">
<path fill="#9AD0C4" stroke="none" d="
M 32.9 -45.95
Q 31.1 -45.95 31.05 -45.5 30.95 -42.7 31.95 -41.75 32.4 -41.35 33.4 -41.35 33.85 -41.35 34.75 -43.2 35.7 -45.1 35.2 -45.5 34.7 -45.95 32.9 -45.95 Z"/>
</g>

<g id="Layer0_0_MEMBER_153_FILL">
<path fill="#9AD0C4" stroke="none" d="
M 38.1 -45.5
Q 36.8 -45.85 36.65 -45.5 35.95 -44.3 36.1 -41.45 36.25 -38.7 36.95 -38.5 37.65 -38.3 38.85 -41.05 40.05 -43.8 39.7 -44.5 39.4 -45.15 38.1 -45.5 Z"/>
</g>

<g id="Layer0_0_MEMBER_154_FILL">
<path fill="#9AD0C4" stroke="none" d="
M 33.7 -40.5
L 32.7 -40.25
Q 32.4 -39.7 32.8 -38.9 33.15 -38.15 33.95 -37.85 34.7 -37.55 35.05 -38.7 35.4 -39.8 34.95 -40.2
L 33.7 -40.5 Z"/>
</g>

<g id="Layer0_0_MEMBER_155_FILL">
<path fill="#D7F4E5" stroke="none" d="
M -45.85 -47.5
Q -46.9 -47.35 -47.05 -46.5 -47.75 -42.1 -46.45 -41.15 -45.2 -40.25 -43.05 -43 -41.15 -45.4 -43.85 -47 -44.9 -47.55 -45.85 -47.5 Z"/>
</g>

<g id="Layer0_0_MEMBER_156_FILL">
<path fill="#9B7037" stroke="none" d="
M -11.55 -38
Q -14.2 -38.3 -15.55 -37.5 -17.85 -36.1 -14.35 -35.9 -10.85 -35.7 -9.8 -36.75 -8.9 -37.65 -11.55 -38 Z"/>
</g>

<g id="Layer0_0_MEMBER_157_FILL">
<path fill="#9B7037" stroke="none" d="
M -36.55 -68.85
Q -37.6 -64.85 -36.55 -64.25 -34.65 -63.2 -33.85 -68.35 -32.95 -73.7 -34.3 -73.25 -35.45 -72.85 -36.55 -68.85 Z"/>
</g>

<g id="Layer0_0_MEMBER_158_FILL">
<path fill="#D8BD8D" stroke="none" d="
M 33.4 -73.5
Q 31.85 -74.05 31.2 -73 30.1 -71.15 32 -70.25 33.9 -69.35 34.45 -71.25 34.95 -73 33.4 -73.5 Z"/>
</g>

<g id="Layer0_0_MEMBER_159_FILL">
<path fill="#5C7C15" stroke="none" d="
M 11.45 -41.1
L 8.05 -40.45
Q 5.8 -39.45 7.35 -37.95
L 9.3 -36.7
Q 10.7 -34.25 13.1 -36.9 15.45 -39.6 14.9 -40.75 14.55 -41.5 11.45 -41.1 Z"/>
</g>

<g id="Layer0_0_MEMBER_160_FILL">
<path fill="#87AA27" stroke="none" d="
M 13.2 -40.7
Q 13.4 -41.35 11.6 -41.4 9.75 -41.5 8.95 -40.7 8.05 -39.75 9 -39.4 9.75 -39.15 11.25 -39.4 12 -39.55 12.6 -40
L 13.2 -40.7 Z"/>
</g>

<g id="Layer0_0_MEMBER_161_FILL">
<path fill="#87AA27" stroke="none" d="
M 11.7 -38.3
Q 10.95 -38.65 10.35 -38 9.45 -37.1 10.6 -36.75 11.75 -36.4 12.1 -37.2 12.45 -37.9 11.7 -38.3 Z"/>
</g>

<g id="Layer0_0_MEMBER_162_FILL">
<path fill="#5C7C15" stroke="none" d="
M 3.1 -62.95
Q 3.9 -64.2 3.35 -65.15 2.5 -66.55 -1.65 -66.9 -6.1 -67.3 -7.8 -65.4 -9.6 -63.35 -7.75 -62.05 -5.85 -60.65 -1.3 -61 2.05 -61.25 3.1 -62.95 Z"/>
</g>

<g id="Layer0_0_MEMBER_163_FILL">
<path fill="#87AA27" stroke="none" d="
M -6.55 -64.9
Q -5.3 -64 -3.05 -64.15 -1.85 -64.2 -0.65 -64.8
L 0.6 -65.75
Q 1.1 -66.7 -1.25 -67.2 -3.7 -67.75 -5.8 -66.75 -7.85 -65.8 -6.55 -64.9 Z"/>
</g>

<g id="Layer0_0_MEMBER_164_FILL">
<path fill="#299B5C" stroke="none" d="
M 5.4 -67.05
Q 3.25 -67 2.3 -65.95 0.7 -64.1 1.3 -63.05 1.85 -62.15 3.65 -62.1 5.4 -62.1 6.8 -62.85 8.35 -63.65 8.15 -64.85 7.8 -67.1 5.4 -67.05 Z"/>
</g>

<g id="Layer0_0_MEMBER_165_FILL">
<path fill="#59C989" stroke="none" d="
M 4.75 -67.2
Q 3.6 -67.35 2.8 -66.7 0.6 -64.9 2.7 -64.65 4.9 -64.4 5.5 -65.85 6 -67 4.75 -67.2 Z"/>
</g>

<g id="Layer0_0_MEMBER_166_FILL">
<path fill="#2BA8B2" stroke="none" d="
M 13.05 -66.4
Q 9.1 -67.3 7.35 -65.85 4.8 -63.75 5.45 -62.05 6.05 -60.55 8.6 -59.85 11.1 -59.2 13.4 -59.75 15.95 -60.35 16.4 -62.1 17.3 -65.45 13.05 -66.4 Z"/>
</g>

<g id="Layer0_0_MEMBER_167_FILL">
<path fill="#2BA8B2" stroke="none" d="
M 19.85 -66.8
Q 18.35 -67.1 17.5 -66.25 15.75 -64.6 18.25 -64.05 20.8 -63.45 21.15 -65.1 21.5 -66.55 19.85 -66.8 Z"/>
</g>

<g id="Layer0_0_MEMBER_168_FILL">
<path fill="#56CCDB" stroke="none" d="
M 12.9 -66.25
Q 11.5 -67.65 8.85 -66.75 6.05 -65.85 6.8 -64.55 7.55 -63.2 10.95 -64.05 14.3 -64.85 12.9 -66.25 Z"/>
</g>

<g id="Layer0_0_MEMBER_169_FILL">
<path fill="#56CCDB" stroke="none" d="
M 15.7 -63.15
Q 15 -64.25 14.15 -63.95 12.5 -63.4 12.9 -62.5 13.25 -61.65 14.9 -61.9 16.4 -62.1 15.7 -63.15 Z"/>
</g>

<g id="Layer0_0_MEMBER_170_FILL">
<path fill="#56CCDB" stroke="none" d="
M 19.4 -66.8
L 17.9 -66.6
Q 16.75 -65.8 17.3 -65.2 17.85 -64.6 19.1 -65.6 20.25 -66.55 19.4 -66.8 Z"/>
</g>

<g id="Layer0_0_MEMBER_171_FILL">
<path fill="#56CCDB" stroke="none" d="
M 16.3 -43.8
Q 15.6 -44.8 14.15 -44.35 12.25 -43.75 12.75 -43.1 13.2 -42.4 15.15 -42.6 17 -42.8 16.3 -43.8 Z"/>
</g>

<g id="Layer0_0_MEMBER_172_FILL">
<path fill="#FFFFFF" stroke="none" d="
M -4.5 -66.65
Q -5.15 -67.3 -5.9 -66.65 -6.75 -65.9 -6.35 -65.4
L -4.9 -65.5
Q -3.9 -66.05 -4.5 -66.65 Z"/>
</g>

<g id="Layer0_0_MEMBER_173_FILL">
<path fill="#FFFFFF" stroke="none" d="
M 9.6 -66.15
Q 8.95 -66.8 8.2 -66.15 7.35 -65.4 7.8 -64.9
L 9.2 -65
Q 10.25 -65.55 9.6 -66.15 Z"/>
</g>

<g id="Layer0_0_MEMBER_174_FILL">
<path fill="#633100" stroke="none" d="
M -14.1 -156.15
Q -12.2 -158.7 -12.4 -161.2
L -12.95 -163.2 -17.05 -163 -18.15 -156.25 -14.1 -156.15 Z"/>
</g>

<g id="Layer0_0_MEMBER_175_FILL">
<path fill="#633100" stroke="none" d="
M 7.15 -163.2
L 7.2 -156 11.15 -156.1 11.85 -158.4
Q 12.25 -161.05 10.9 -163
L 7.15 -163.2 Z"/>
</g>

<g id="Layer0_0_MEMBER_176_FILL">
<path fill="#5C7C15" stroke="none" d="
M -10.4 -66.55
Q -13.7 -66.75 -15.55 -65.95 -19.3 -64.25 -13.25 -63.6 -7.05 -63 -6.95 -64.75 -6.85 -66.3 -10.4 -66.55 Z"/>
</g>

<g id="Layer0_0_MEMBER_177_FILL">
<path fill="#87AA27" stroke="none" d="
M -10.15 -66.6
L -14.45 -66.7
Q -16.6 -66.05 -15.7 -65.4
L -11.45 -65.3
Q -7.85 -65.95 -10.15 -66.6 Z"/>
</g>

<g id="Layer0_0_MEMBER_178_FILL">
<path fill="#299B5C" stroke="none" d="
M 2.2 -63.45
L 0.2 -63.35
Q -0.8 -62.6 -0.05 -61.8 0.75 -61 2.25 -62.05 3.15 -62.65 2.2 -63.45 Z"/>
</g>

<g id="Layer0_0_MEMBER_179_FILL">
<path fill="#299B5C" stroke="none" d="
M -1.6 -62.3
Q -2.05 -62.85 -2.85 -62.6 -3.95 -62.25 -3.5 -61.65 -3 -61.05 -1.9 -61.45 -1.15 -61.7 -1.6 -62.3 Z"/>
</g>
</defs>

<g transform="matrix( 0.724639892578125, 0, 0, 0.724639892578125, 81.55,157.75) ">
<use xlink:href="#Layer0_0_FILL"/>
</g>

<g transform="matrix( 0.7246246337890625, 0, 0, 0.7246246337890625, 81.55,157.75) ">
<use xlink:href="#Layer0_0_MEMBER_0_FILL"/>
</g>

<g transform="matrix( 0.7246246337890625, 0, 0, 0.7246246337890625, 81.55,157.75) ">
<use xlink:href="#Layer0_0_MEMBER_1_FILL"/>
</g>

<g transform="matrix( 0.7246246337890625, 0, 0, 0.7246246337890625, 81.55,157.75) ">
<use xlink:href="#Layer0_0_MEMBER_2_FILL"/>
</g>

<g transform="matrix( 0.7246246337890625, 0, 0, 0.7246246337890625, 81.55,157.75) ">
<use xlink:href="#Layer0_0_MEMBER_3_FILL"/>
</g>

<g transform="matrix( 0.7246246337890625, 0, 0, 0.7246246337890625, 81.55,157.75) ">
<use xlink:href="#Layer0_0_MEMBER_4_FILL"/>
</g>

<g transform="matrix( 0.7246246337890625, 0, 0, 0.7246246337890625, 81.55,157.75) ">
<use xlink:href="#Layer0_0_MEMBER_5_FILL"/>
</g>

<g transform="matrix( 0.7246246337890625, 0, 0, 0.7246246337890625, 81.55,157.75) ">
<use xlink:href="#Layer0_0_MEMBER_6_FILL"/>
</g>

<g transform="matrix( 0.7246246337890625, 0, 0, 0.7246246337890625, 81.55,157.75) ">
<use xlink:href="#Layer0_0_MEMBER_7_FILL"/>
</g>

<g transform="matrix( 0.7246246337890625, 0, 0, 0.7246246337890625, 81.55,157.75) ">
<use xlink:href="#Layer0_0_MEMBER_8_FILL"/>
</g>

<g transform="matrix( 0.7246246337890625, 0, 0, 0.7246246337890625, 81.55,157.75) ">
<use xlink:href="#Layer0_0_MEMBER_9_FILL"/>
</g>

<g transform="matrix( 0.7246246337890625, 0, 0, 0.7246246337890625, 81.55,157.75) ">
<use xlink:href="#Layer0_0_MEMBER_10_FILL"/>
</g>

<g transform="matrix( 0.7246246337890625, 0, 0, 0.7246246337890625, 81.55,157.75) ">
<use xlink:href="#Layer0_0_MEMBER_11_FILL"/>
</g>

<g transform="matrix( 0.7246246337890625, 0, 0, 0.7246246337890625, 81.55,157.75) ">
<use xlink:href="#Layer0_0_MEMBER_12_FILL"/>
</g>

<g transform="matrix( 0.7246246337890625, 0, 0, 0.7246246337890625, 81.55,157.75) ">
<use xlink:href="#Layer0_0_MEMBER_13_FILL"/>
</g>

<g transform="matrix( 0.7246246337890625, 0, 0, 0.7246246337890625, 81.55,157.75) ">
<use xlink:href="#Layer0_0_MEMBER_14_FILL"/>
</g>

<g transform="matrix( 0.7246246337890625, 0, 0, 0.7246246337890625, 81.55,157.75) ">
<use xlink:href="#Layer0_0_MEMBER_15_FILL"/>
</g>

<g transform="matrix( 0.7246246337890625, 0, 0, 0.7246246337890625, 81.55,157.75) ">
<use xlink:href="#Layer0_0_MEMBER_16_FILL"/>
</g>

<g transform="matrix( 0.7246246337890625, 0, 0, 0.7246246337890625, 81.55,157.75) ">
<use xlink:href="#Layer0_0_MEMBER_17_FILL"/>
</g>

<g transform="matrix( 0.7246246337890625, 0, 0, 0.7246246337890625, 81.55,157.75) ">
<use xlink:href="#Layer0_0_MEMBER_18_FILL"/>
</g>

<g transform="matrix( 0.7246246337890625, 0, 0, 0.7246246337890625, 81.55,157.75) ">
<use xlink:href="#Layer0_0_MEMBER_19_FILL"/>
</g>

<g transform="matrix( 0.7246246337890625, 0, 0, 0.7246246337890625, 81.55,157.75) ">
<use xlink:href="#Layer0_0_MEMBER_20_FILL"/>
</g>

<g transform="matrix( 0.7246246337890625, 0, 0, 0.7246246337890625, 81.55,157.75) ">
<use xlink:href="#Layer0_0_MEMBER_21_FILL"/>
</g>

<g transform="matrix( 0.7246246337890625, 0, 0, 0.7246246337890625, 81.55,157.75) ">
<use xlink:href="#Layer0_0_MEMBER_22_FILL"/>
</g>

<g transform="matrix( 0.7246246337890625, 0, 0, 0.7246246337890625, 81.55,157.75) ">
<use xlink:href="#Layer0_0_MEMBER_23_FILL"/>
</g>

<g transform="matrix( 0.7246246337890625, 0, 0, 0.7246246337890625, 81.55,157.75) ">
<use xlink:href="#Layer0_0_MEMBER_24_FILL"/>
</g>

<g transform="matrix( 0.7246246337890625, 0, 0, 0.7246246337890625, 81.55,157.75) ">
<use xlink:href="#Layer0_0_MEMBER_25_FILL"/>
</g>

<g transform="matrix( 0.7246246337890625, 0, 0, 0.7246246337890625, 81.55,157.75) ">
<use xlink:href="#Layer0_0_MEMBER_26_FILL"/>
</g>

<g transform="matrix( 0.7246246337890625, 0, 0, 0.7246246337890625, 81.55,157.75) ">
<use xlink:href="#Layer0_0_MEMBER_27_FILL"/>
</g>

<g transform="matrix( 0.7246246337890625, 0, 0, 0.7246246337890625, 81.55,157.75) ">
<use xlink:href="#Layer0_0_MEMBER_28_FILL"/>
</g>

<g transform="matrix( 0.7246246337890625, 0, 0, 0.7246246337890625, 81.55,157.75) ">
<use xlink:href="#Layer0_0_MEMBER_29_FILL"/>
</g>

<g transform="matrix( 0.7246246337890625, 0, 0, 0.7246246337890625, 81.55,157.75) ">
<use xlink:href="#Layer0_0_MEMBER_30_FILL"/>
</g>

<g transform="matrix( 0.7246246337890625, 0, 0, 0.7246246337890625, 81.55,157.75) ">
<use xlink:href="#Layer0_0_MEMBER_31_FILL"/>
</g>

<g transform="matrix( 0.7246246337890625, 0, 0, 0.7246246337890625, 81.55,157.75) ">
<use xlink:href="#Layer0_0_MEMBER_32_FILL"/>
</g>

<g transform="matrix( 0.7246246337890625, 0, 0, 0.7246246337890625, 81.55,157.75) ">
<use xlink:href="#Layer0_0_MEMBER_33_FILL"/>
</g>

<g transform="matrix( 0.7246246337890625, 0, 0, 0.7246246337890625, 81.55,157.75) ">
<use xlink:href="#Layer0_0_MEMBER_34_FILL"/>
</g>

<g transform="matrix( 0.7246246337890625, 0, 0, 0.7246246337890625, 81.55,157.75) ">
<use xlink:href="#Layer0_0_MEMBER_35_FILL"/>
</g>

<g transform="matrix( 0.7246246337890625, 0, 0, 0.7246246337890625, 81.55,157.75) ">
<use xlink:href="#Layer0_0_MEMBER_36_FILL"/>
</g>

<g transform="matrix( 0.7246246337890625, 0, 0, 0.7246246337890625, 81.55,157.75) ">
<use xlink:href="#Layer0_0_MEMBER_37_FILL"/>
</g>

<g transform="matrix( 0.7246246337890625, 0, 0, 0.7246246337890625, 81.55,157.75) ">
<use xlink:href="#Layer0_0_MEMBER_38_FILL"/>
</g>

<g transform="matrix( 0.7246246337890625, 0, 0, 0.7246246337890625, 81.55,157.75) ">
<use xlink:href="#Layer0_0_MEMBER_39_FILL"/>
</g>

<g transform="matrix( 0.7246246337890625, 0, 0, 0.7246246337890625, 81.55,157.75) ">
<use xlink:href="#Layer0_0_MEMBER_40_FILL"/>
</g>

<g transform="matrix( 0.7246246337890625, 0, 0, 0.7246246337890625, 81.55,157.75) ">
<use xlink:href="#Layer0_0_MEMBER_41_FILL"/>
</g>

<g transform="matrix( 0.7246246337890625, 0, 0, 0.7246246337890625, 81.55,157.75) ">
<use xlink:href="#Layer0_0_MEMBER_42_FILL"/>
</g>

<g transform="matrix( 0.7246246337890625, 0, 0, 0.7246246337890625, 81.55,157.75) ">
<use xlink:href="#Layer0_0_MEMBER_43_FILL"/>
</g>

<g transform="matrix( 0.7246246337890625, 0, 0, 0.7246246337890625, 81.55,157.75) ">
<use xlink:href="#Layer0_0_MEMBER_44_FILL"/>
</g>

<g transform="matrix( 0.7246246337890625, 0, 0, 0.7246246337890625, 81.55,157.75) ">
<use xlink:href="#Layer0_0_MEMBER_45_FILL"/>
</g>

<g transform="matrix( 0.7246246337890625, 0, 0, 0.7246246337890625, 81.55,157.75) ">
<use xlink:href="#Layer0_0_MEMBER_46_FILL"/>
</g>

<g transform="matrix( 0.7246246337890625, 0, 0, 0.7246246337890625, 81.55,157.75) ">
<use xlink:href="#Layer0_0_MEMBER_47_FILL"/>
</g>

<g transform="matrix( 0.7246246337890625, 0, 0, 0.7246246337890625, 81.55,157.75) ">
<use xlink:href="#Layer0_0_MEMBER_48_FILL"/>
</g>

<g transform="matrix( 0.7246246337890625, 0, 0, 0.7246246337890625, 81.55,157.75) ">
<use xlink:href="#Layer0_0_MEMBER_49_FILL"/>
</g>

<g transform="matrix( 0.7246246337890625, 0, 0, 0.7246246337890625, 81.55,157.75) ">
<use xlink:href="#Layer0_0_MEMBER_50_FILL"/>
</g>

<g transform="matrix( 0.7246246337890625, 0, 0, 0.7246246337890625, 81.55,157.75) ">
<use xlink:href="#Layer0_0_MEMBER_51_FILL"/>
</g>

<g transform="matrix( 0.7246246337890625, 0, 0, 0.7246246337890625, 81.55,157.75) ">
<use xlink:href="#Layer0_0_MEMBER_52_FILL"/>
</g>

<g transform="matrix( 0.7246246337890625, 0, 0, 0.7246246337890625, 81.55,157.75) ">
<use xlink:href="#Layer0_0_MEMBER_53_FILL"/>
</g>

<g transform="matrix( 0.7246246337890625, 0, 0, 0.7246246337890625, 81.55,157.75) ">
<use xlink:href="#Layer0_0_MEMBER_54_FILL"/>
</g>

<g transform="matrix( 0.7246246337890625, 0, 0, 0.7246246337890625, 81.55,157.75) ">
<use xlink:href="#Layer0_0_MEMBER_55_FILL"/>
</g>

<g transform="matrix( 0.7246246337890625, 0, 0, 0.7246246337890625, 81.55,157.75) ">
<use xlink:href="#Layer0_0_MEMBER_56_FILL"/>
</g>

<g transform="matrix( 0.7246246337890625, 0, 0, 0.7246246337890625, 81.55,157.75) ">
<use xlink:href="#Layer0_0_MEMBER_57_FILL"/>
</g>

<g transform="matrix( 0.7246246337890625, 0, 0, 0.7246246337890625, 81.55,157.75) ">
<use xlink:href="#Layer0_0_MEMBER_58_FILL"/>
</g>

<g transform="matrix( 0.7246246337890625, 0, 0, 0.7246246337890625, 81.55,157.75) ">
<use xlink:href="#Layer0_0_MEMBER_59_FILL"/>
</g>

<g transform="matrix( 0.7246246337890625, 0, 0, 0.7246246337890625, 81.55,157.75) ">
<use xlink:href="#Layer0_0_MEMBER_60_FILL"/>
</g>

<g transform="matrix( 0.7246246337890625, 0, 0, 0.7246246337890625, 81.55,157.75) ">
<use xlink:href="#Layer0_0_MEMBER_61_FILL"/>
</g>

<g transform="matrix( 0.7246246337890625, 0, 0, 0.7246246337890625, 81.55,157.75) ">
<use xlink:href="#Layer0_0_MEMBER_62_FILL"/>
</g>

<g transform="matrix( 0.7246246337890625, 0, 0, 0.7246246337890625, 81.55,157.75) ">
<use xlink:href="#Layer0_0_MEMBER_63_FILL"/>
</g>

<g transform="matrix( 0.7246246337890625, 0, 0, 0.7246246337890625, 81.55,157.75) ">
<use xlink:href="#Layer0_0_MEMBER_64_FILL"/>
</g>

<g transform="matrix( 0.7246246337890625, 0, 0, 0.7246246337890625, 81.55,157.75) ">
<use xlink:href="#Layer0_0_MEMBER_65_FILL"/>
</g>

<g transform="matrix( 0.7246246337890625, 0, 0, 0.7246246337890625, 81.55,157.75) ">
<use xlink:href="#Layer0_0_MEMBER_66_FILL"/>
</g>

<g transform="matrix( 0.7246246337890625, 0, 0, 0.7246246337890625, 81.55,157.75) ">
<use xlink:href="#Layer0_0_MEMBER_67_FILL"/>
</g>

<g transform="matrix( 0.7246246337890625, 0, 0, 0.7246246337890625, 81.55,157.75) ">
<use xlink:href="#Layer0_0_MEMBER_68_FILL"/>
</g>

<g transform="matrix( 0.7246246337890625, 0, 0, 0.7246246337890625, 81.55,157.75) ">
<use xlink:href="#Layer0_0_MEMBER_69_FILL"/>
</g>

<g transform="matrix( 0.7246246337890625, 0, 0, 0.7246246337890625, 81.55,157.75) ">
<use xlink:href="#Layer0_0_MEMBER_70_FILL"/>
</g>

<g transform="matrix( 0.7246246337890625, 0, 0, 0.7246246337890625, 81.55,157.75) ">
<use xlink:href="#Layer0_0_MEMBER_71_FILL"/>
</g>

<g transform="matrix( 0.7246246337890625, 0, 0, 0.7246246337890625, 81.55,157.75) ">
<use xlink:href="#Layer0_0_MEMBER_72_FILL"/>
</g>

<g transform="matrix( 0.7246246337890625, 0, 0, 0.7246246337890625, 81.55,157.75) ">
<use xlink:href="#Layer0_0_MEMBER_73_FILL"/>
</g>

<g transform="matrix( 0.7246246337890625, 0, 0, 0.7246246337890625, 81.55,157.75) ">
<use xlink:href="#Layer0_0_MEMBER_74_FILL"/>
</g>

<g transform="matrix( 0.7246246337890625, 0, 0, 0.7246246337890625, 81.55,157.75) ">
<use xlink:href="#Layer0_0_MEMBER_75_FILL"/>
</g>

<g transform="matrix( 0.7246246337890625, 0, 0, 0.7246246337890625, 81.55,157.75) ">
<use xlink:href="#Layer0_0_MEMBER_76_FILL"/>
</g>

<g transform="matrix( 0.7246246337890625, 0, 0, 0.7246246337890625, 81.55,157.75) ">
<use xlink:href="#Layer0_0_MEMBER_77_FILL"/>
</g>

<g transform="matrix( 0.7246246337890625, 0, 0, 0.7246246337890625, 81.55,157.75) ">
<use xlink:href="#Layer0_0_MEMBER_78_FILL"/>
</g>

<g transform="matrix( 0.7246246337890625, 0, 0, 0.7246246337890625, 81.55,157.75) ">
<use xlink:href="#Layer0_0_MEMBER_79_FILL"/>
</g>

<g transform="matrix( 0.7246246337890625, 0, 0, 0.7246246337890625, 81.55,157.75) ">
<use xlink:href="#Layer0_0_MEMBER_80_FILL"/>
</g>

<g transform="matrix( 0.7246246337890625, 0, 0, 0.7246246337890625, 81.55,157.75) ">
<use xlink:href="#Layer0_0_MEMBER_81_FILL"/>
</g>

<g transform="matrix( 0.7246246337890625, 0, 0, 0.7246246337890625, 81.55,157.75) ">
<use xlink:href="#Layer0_0_MEMBER_82_FILL"/>
</g>

<g transform="matrix( 0.7246246337890625, 0, 0, 0.7246246337890625, 81.55,157.75) ">
<use xlink:href="#Layer0_0_MEMBER_83_FILL"/>
</g>

<g transform="matrix( 0.7246246337890625, 0, 0, 0.7246246337890625, 81.55,157.75) ">
<use xlink:href="#Layer0_0_MEMBER_84_FILL"/>
</g>

<g transform="matrix( 0.7246246337890625, 0, 0, 0.7246246337890625, 81.55,157.75) ">
<use xlink:href="#Layer0_0_MEMBER_85_FILL"/>
</g>

<g transform="matrix( 0.7246246337890625, 0, 0, 0.7246246337890625, 81.55,157.75) ">
<use xlink:href="#Layer0_0_MEMBER_86_FILL"/>
</g>

<g transform="matrix( 0.7246246337890625, 0, 0, 0.7246246337890625, 81.55,157.75) ">
<use xlink:href="#Layer0_0_MEMBER_87_FILL"/>
</g>

<g transform="matrix( 0.7246246337890625, 0, 0, 0.7246246337890625, 81.55,157.75) ">
<use xlink:href="#Layer0_0_MEMBER_88_FILL"/>
</g>

<g transform="matrix( 0.7246246337890625, 0, 0, 0.7246246337890625, 81.55,157.75) ">
<use xlink:href="#Layer0_0_MEMBER_89_FILL"/>
</g>

<g transform="matrix( 0.7246246337890625, 0, 0, 0.7246246337890625, 81.55,157.75) ">
<use xlink:href="#Layer0_0_MEMBER_90_FILL"/>
</g>

<g transform="matrix( 0.7246246337890625, 0, 0, 0.7246246337890625, 81.55,157.75) ">
<use xlink:href="#Layer0_0_MEMBER_91_FILL"/>
</g>

<g transform="matrix( 0.7246246337890625, 0, 0, 0.7246246337890625, 81.55,157.75) ">
<use xlink:href="#Layer0_0_MEMBER_92_FILL"/>
</g>

<g transform="matrix( 0.7246246337890625, 0, 0, 0.7246246337890625, 81.55,157.75) ">
<use xlink:href="#Layer0_0_MEMBER_93_FILL"/>
</g>

<g transform="matrix( 0.7246246337890625, 0, 0, 0.7246246337890625, 81.55,157.75) ">
<use xlink:href="#Layer0_0_MEMBER_94_FILL"/>
</g>

<g transform="matrix( 0.7246246337890625, 0, 0, 0.7246246337890625, 81.55,157.75) ">
<use xlink:href="#Layer0_0_MEMBER_95_FILL"/>
</g>

<g transform="matrix( 0.7246246337890625, 0, 0, 0.7246246337890625, 81.55,157.75) ">
<use xlink:href="#Layer0_0_MEMBER_96_FILL"/>
</g>

<g transform="matrix( 0.7246246337890625, 0, 0, 0.7246246337890625, 81.55,157.75) ">
<use xlink:href="#Layer0_0_MEMBER_97_FILL"/>
</g>

<g transform="matrix( 0.7246246337890625, 0, 0, 0.7246246337890625, 81.55,157.75) ">
<use xlink:href="#Layer0_0_MEMBER_98_FILL"/>
</g>

<g transform="matrix( 0.7246246337890625, 0, 0, 0.7246246337890625, 81.55,157.75) ">
<use xlink:href="#Layer0_0_MEMBER_99_FILL"/>
</g>

<g transform="matrix( 0.7246246337890625, 0, 0, 0.7246246337890625, 81.55,157.75) ">
<use xlink:href="#Layer0_0_MEMBER_100_FILL"/>
</g>

<g transform="matrix( 0.7246246337890625, 0, 0, 0.7246246337890625, 81.55,157.75) ">
<use xlink:href="#Layer0_0_MEMBER_101_FILL"/>
</g>

<g transform="matrix( 0.7246246337890625, 0, 0, 0.7246246337890625, 81.55,157.75) ">
<use xlink:href="#Layer0_0_MEMBER_102_FILL"/>
</g>

<g transform="matrix( 0.7246246337890625, 0, 0, 0.7246246337890625, 81.55,157.75) ">
<use xlink:href="#Layer0_0_MEMBER_103_FILL"/>
</g>

<g transform="matrix( 0.7246246337890625, 0, 0, 0.7246246337890625, 81.55,157.75) ">
<use xlink:href="#Layer0_0_MEMBER_104_FILL"/>
</g>

<g transform="matrix( 0.7246246337890625, 0, 0, 0.7246246337890625, 81.55,157.75) ">
<use xlink:href="#Layer0_0_MEMBER_105_FILL"/>
</g>

<g transform="matrix( 0.7246246337890625, 0, 0, 0.7246246337890625, 81.55,157.75) ">
<use xlink:href="#Layer0_0_MEMBER_106_FILL"/>
</g>

<g transform="matrix( 0.7246246337890625, 0, 0, 0.7246246337890625, 81.55,157.75) ">
<use xlink:href="#Layer0_0_MEMBER_107_FILL"/>
</g>

<g transform="matrix( 0.7246246337890625, 0, 0, 0.7246246337890625, 81.55,157.75) ">
<use xlink:href="#Layer0_0_MEMBER_108_FILL"/>
</g>

<g transform="matrix( 0.7246246337890625, 0, 0, 0.7246246337890625, 81.55,157.75) ">
<use xlink:href="#Layer0_0_MEMBER_109_FILL"/>
</g>

<g transform="matrix( 0.7246246337890625, 0, 0, 0.7246246337890625, 81.55,157.75) ">
<use xlink:href="#Layer0_0_MEMBER_110_FILL"/>
</g>

<g transform="matrix( 0.7246246337890625, 0, 0, 0.7246246337890625, 81.55,157.75) ">
<use xlink:href="#Layer0_0_MEMBER_111_FILL"/>
</g>

<g transform="matrix( 0.7246246337890625, 0, 0, 0.7246246337890625, 81.55,157.75) ">
<use xlink:href="#Layer0_0_MEMBER_112_FILL"/>
</g>

<g transform="matrix( 0.7246246337890625, 0, 0, 0.7246246337890625, 81.55,157.75) ">
<use xlink:href="#Layer0_0_MEMBER_113_FILL"/>
</g>

<g transform="matrix( 0.7246246337890625, 0, 0, 0.7246246337890625, 81.55,157.75) ">
<use xlink:href="#Layer0_0_MEMBER_114_FILL"/>
</g>

<g transform="matrix( 0.7246246337890625, 0, 0, 0.7246246337890625, 81.55,157.75) ">
<use xlink:href="#Layer0_0_MEMBER_115_FILL"/>
</g>

<g transform="matrix( 0.7246246337890625, 0, 0, 0.7246246337890625, 81.55,157.75) ">
<use xlink:href="#Layer0_0_MEMBER_116_FILL"/>
</g>

<g transform="matrix( 0.7246246337890625, 0, 0, 0.7246246337890625, 81.55,157.75) ">
<use xlink:href="#Layer0_0_MEMBER_117_FILL"/>
</g>

<g transform="matrix( 0.7246246337890625, 0, 0, 0.7246246337890625, 81.55,157.75) ">
<use xlink:href="#Layer0_0_MEMBER_118_FILL"/>
</g>

<g transform="matrix( 0.7246246337890625, 0, 0, 0.7246246337890625, 81.55,157.75) ">
<use xlink:href="#Layer0_0_MEMBER_119_FILL"/>
</g>

<g transform="matrix( 0.7246246337890625, 0, 0, 0.7246246337890625, 81.55,157.75) ">
<use xlink:href="#Layer0_0_MEMBER_120_FILL"/>
</g>

<g transform="matrix( 0.7246246337890625, 0, 0, 0.7246246337890625, 81.55,157.75) ">
<use xlink:href="#Layer0_0_MEMBER_121_FILL"/>
</g>

<g transform="matrix( 0.7246246337890625, 0, 0, 0.7246246337890625, 81.55,157.75) ">
<use xlink:href="#Layer0_0_MEMBER_122_FILL"/>
</g>

<g transform="matrix( 0.7246246337890625, 0, 0, 0.7246246337890625, 81.55,157.75) ">
<use xlink:href="#Layer0_0_MEMBER_123_FILL"/>
</g>

<g transform="matrix( 0.7246246337890625, 0, 0, 0.7246246337890625, 81.55,157.75) ">
<use xlink:href="#Layer0_0_MEMBER_124_FILL"/>
</g>

<g transform="matrix( 0.7246246337890625, 0, 0, 0.7246246337890625, 81.55,157.75) ">
<use xlink:href="#Layer0_0_MEMBER_125_FILL"/>
</g>

<g transform="matrix( 0.7246246337890625, 0, 0, 0.7246246337890625, 81.55,157.75) ">
<use xlink:href="#Layer0_0_MEMBER_126_FILL"/>
</g>

<g transform="matrix( 0.7246246337890625, 0, 0, 0.7246246337890625, 81.55,157.75) ">
<use xlink:href="#Layer0_0_MEMBER_127_FILL"/>
</g>

<g transform="matrix( 0.7246246337890625, 0, 0, 0.7246246337890625, 81.55,157.75) ">
<use xlink:href="#Layer0_0_MEMBER_128_FILL"/>
</g>

<g transform="matrix( 0.7246246337890625, 0, 0, 0.7246246337890625, 81.55,157.75) ">
<use xlink:href="#Layer0_0_MEMBER_129_FILL"/>
</g>

<g transform="matrix( 0.7246246337890625, 0, 0, 0.7246246337890625, 81.55,157.75) ">
<use xlink:href="#Layer0_0_MEMBER_130_FILL"/>
</g>

<g transform="matrix( 0.7246246337890625, 0, 0, 0.7246246337890625, 81.55,157.75) ">
<use xlink:href="#Layer0_0_MEMBER_131_FILL"/>
</g>

<g transform="matrix( 0.7246246337890625, 0, 0, 0.7246246337890625, 81.55,157.75) ">
<use xlink:href="#Layer0_0_MEMBER_132_FILL"/>
</g>

<g transform="matrix( 0.7246246337890625, 0, 0, 0.7246246337890625, 81.55,157.75) ">
<use xlink:href="#Layer0_0_MEMBER_133_FILL"/>
</g>

<g transform="matrix( 0.7246246337890625, 0, 0, 0.7246246337890625, 81.55,157.75) ">
<use xlink:href="#Layer0_0_MEMBER_134_FILL"/>
</g>

<g transform="matrix( 0.7246246337890625, 0, 0, 0.7246246337890625, 81.55,157.75) ">
<use xlink:href="#Layer0_0_MEMBER_135_FILL"/>
</g>

<g transform="matrix( 0.7246246337890625, 0, 0, 0.7246246337890625, 81.55,157.75) ">
<use xlink:href="#Layer0_0_MEMBER_136_FILL"/>
</g>

<g transform="matrix( 0.7246246337890625, 0, 0, 0.7246246337890625, 81.55,157.75) ">
<use xlink:href="#Layer0_0_MEMBER_137_FILL"/>
</g>

<g transform="matrix( 0.7246246337890625, 0, 0, 0.7246246337890625, 81.55,157.75) ">
<use xlink:href="#Layer0_0_MEMBER_138_FILL"/>
</g>

<g transform="matrix( 0.7246246337890625, 0, 0, 0.7246246337890625, 81.55,157.75) ">
<use xlink:href="#Layer0_0_MEMBER_139_FILL"/>
</g>

<g transform="matrix( 0.7246246337890625, 0, 0, 0.7246246337890625, 81.55,157.75) ">
<use xlink:href="#Layer0_0_MEMBER_140_FILL"/>
</g>

<g transform="matrix( 0.7246246337890625, 0, 0, 0.7246246337890625, 81.55,157.75) ">
<use xlink:href="#Layer0_0_MEMBER_141_FILL"/>
</g>

<g transform="matrix( 0.7246246337890625, 0, 0, 0.7246246337890625, 81.55,157.75) ">
<use xlink:href="#Layer0_0_MEMBER_142_FILL"/>
</g>

<g transform="matrix( 0.7246246337890625, 0, 0, 0.7246246337890625, 81.55,157.75) ">
<use xlink:href="#Layer0_0_MEMBER_143_FILL"/>
</g>

<g transform="matrix( 0.7246246337890625, 0, 0, 0.7246246337890625, 81.55,157.75) ">
<use xlink:href="#Layer0_0_MEMBER_144_FILL"/>
</g>

<g transform="matrix( 0.7246246337890625, 0, 0, 0.7246246337890625, 81.55,157.75) ">
<use xlink:href="#Layer0_0_MEMBER_145_FILL"/>
</g>

<g transform="matrix( 0.7246246337890625, 0, 0, 0.7246246337890625, 81.55,157.75) ">
<use xlink:href="#Layer0_0_MEMBER_146_FILL"/>
</g>

<g transform="matrix( 0.7246246337890625, 0, 0, 0.7246246337890625, 81.55,157.75) ">
<use xlink:href="#Layer0_0_MEMBER_147_FILL"/>
</g>

<g transform="matrix( 0.7246246337890625, 0, 0, 0.7246246337890625, 81.55,157.75) ">
<use xlink:href="#Layer0_0_MEMBER_148_FILL"/>
</g>

<g transform="matrix( 0.7246246337890625, 0, 0, 0.7246246337890625, 81.55,157.75) ">
<use xlink:href="#Layer0_0_MEMBER_149_FILL"/>
</g>

<g transform="matrix( 0.7246246337890625, 0, 0, 0.7246246337890625, 81.55,157.75) ">
<use xlink:href="#Layer0_0_MEMBER_150_FILL"/>
</g>

<g transform="matrix( 0.7246246337890625, 0, 0, 0.7246246337890625, 81.55,157.75) ">
<use xlink:href="#Layer0_0_MEMBER_151_FILL"/>
</g>

<g transform="matrix( 0.7246246337890625, 0, 0, 0.7246246337890625, 81.55,157.75) ">
<use xlink:href="#Layer0_0_MEMBER_152_FILL"/>
</g>

<g transform="matrix( 0.7246246337890625, 0, 0, 0.7246246337890625, 81.55,157.75) ">
<use xlink:href="#Layer0_0_MEMBER_153_FILL"/>
</g>

<g transform="matrix( 0.7246246337890625, 0, 0, 0.7246246337890625, 81.55,157.75) ">
<use xlink:href="#Layer0_0_MEMBER_154_FILL"/>
</g>

<g transform="matrix( 0.7246246337890625, 0, 0, 0.7246246337890625, 81.55,157.75) ">
<use xlink:href="#Layer0_0_MEMBER_155_FILL"/>
</g>

<g transform="matrix( 0.7246246337890625, 0, 0, 0.7246246337890625, 81.55,157.75) ">
<use xlink:href="#Layer0_0_MEMBER_156_FILL"/>
</g>

<g transform="matrix( 0.7246246337890625, 0, 0, 0.7246246337890625, 81.55,157.75) ">
<use xlink:href="#Layer0_0_MEMBER_157_FILL"/>
</g>

<g transform="matrix( 0.7246246337890625, 0, 0, 0.7246246337890625, 81.55,157.75) ">
<use xlink:href="#Layer0_0_MEMBER_158_FILL"/>
</g>

<g transform="matrix( 0.7246246337890625, 0, 0, 0.7246246337890625, 81.55,157.75) ">
<use xlink:href="#Layer0_0_MEMBER_159_FILL"/>
</g>

<g transform="matrix( 0.7246246337890625, 0, 0, 0.7246246337890625, 81.55,157.75) ">
<use xlink:href="#Layer0_0_MEMBER_160_FILL"/>
</g>

<g transform="matrix( 0.7246246337890625, 0, 0, 0.7246246337890625, 81.55,157.75) ">
<use xlink:href="#Layer0_0_MEMBER_161_FILL"/>
</g>

<g transform="matrix( 0.7246246337890625, 0, 0, 0.7246246337890625, 81.55,157.75) ">
<use xlink:href="#Layer0_0_MEMBER_162_FILL"/>
</g>

<g transform="matrix( 0.7246246337890625, 0, 0, 0.7246246337890625, 81.55,157.75) ">
<use xlink:href="#Layer0_0_MEMBER_163_FILL"/>
</g>

<g transform="matrix( 0.7246246337890625, 0, 0, 0.7246246337890625, 81.55,157.75) ">
<use xlink:href="#Layer0_0_MEMBER_164_FILL"/>
</g>

<g transform="matrix( 0.7246246337890625, 0, 0, 0.7246246337890625, 81.55,157.75) ">
<use xlink:href="#Layer0_0_MEMBER_165_FILL"/>
</g>

<g transform="matrix( 0.7246246337890625, 0, 0, 0.7246246337890625, 81.55,157.75) ">
<use xlink:href="#Layer0_0_MEMBER_166_FILL"/>
</g>

<g transform="matrix( 0.7246246337890625, 0, 0, 0.7246246337890625, 81.55,157.75) ">
<use xlink:href="#Layer0_0_MEMBER_167_FILL"/>
</g>

<g transform="matrix( 0.7246246337890625, 0, 0, 0.7246246337890625, 81.55,157.75) ">
<use xlink:href="#Layer0_0_MEMBER_168_FILL"/>
</g>

<g transform="matrix( 0.7246246337890625, 0, 0, 0.7246246337890625, 81.55,157.75) ">
<use xlink:href="#Layer0_0_MEMBER_169_FILL"/>
</g>

<g transform="matrix( 0.7246246337890625, 0, 0, 0.7246246337890625, 81.55,157.75) ">
<use xlink:href="#Layer0_0_MEMBER_170_FILL"/>
</g>

<g transform="matrix( 0.7246246337890625, 0, 0, 0.7246246337890625, 81.55,157.75) ">
<use xlink:href="#Layer0_0_MEMBER_171_FILL"/>
</g>

<g transform="matrix( 0.7246246337890625, 0, 0, 0.7246246337890625, 81.55,157.75) ">
<use xlink:href="#Layer0_0_MEMBER_172_FILL"/>
</g>

<g transform="matrix( 0.7246246337890625, 0, 0, 0.7246246337890625, 81.55,157.75) ">
<use xlink:href="#Layer0_0_MEMBER_173_FILL"/>
</g>

<g transform="matrix( 0.7246246337890625, 0, 0, 0.7246246337890625, 81.55,157.75) ">
<use xlink:href="#Layer0_0_MEMBER_174_FILL"/>
</g>

<g transform="matrix( 0.7246246337890625, 0, 0, 0.7246246337890625, 81.55,157.75) ">
<use xlink:href="#Layer0_0_MEMBER_175_FILL"/>
</g>

<g transform="matrix( 0.7246246337890625, 0, 0, 0.7246246337890625, 81.55,157.75) ">
<use xlink:href="#Layer0_0_MEMBER_176_FILL"/>
</g>

<g transform="matrix( 0.7246246337890625, 0, 0, 0.7246246337890625, 81.55,157.75) ">
<use xlink:href="#Layer0_0_MEMBER_177_FILL"/>
</g>

<g transform="matrix( 0.7246246337890625, 0, 0, 0.7246246337890625, 81.55,157.75) ">
<use xlink:href="#Layer0_0_MEMBER_178_FILL"/>
</g>

<g transform="matrix( 0.7246246337890625, 0, 0, 0.7246246337890625, 81.55,157.75) ">
<use xlink:href="#Layer0_0_MEMBER_179_FILL"/>
</g>
</svg>
