
<svg xmlns="http://www.w3.org/2000/svg" version="1.1" xmlns:xlink="http://www.w3.org/1999/xlink" preserveAspectRatio="none" x="0px" y="0px" width="32px" height="32px" viewBox="0 0 32 32">
<defs>
<g id="shape2291_swf_0_Layer0_0_FILL">
<path fill="#AF792C" stroke="none" d="
M 21.55 -9.25
L 10.7 -11.7
Q 10.4 -11.95 5.35 -23.35 0.75 -33.95 -1.75 -33.9 -4.1 -33.85 -8.35 -23.4 -12.85 -12.4 -14.3 -11.7
L -24.95 -10.15
Q -33.35 -9.05 -34.45 -6.05 -35.6 -3.05 -28 1.55 -20 6.4 -19.95 6.85 -19.85 7.85 -22.05 19.3 -23.6 30.6 -20.75 32 -17.95 33.25 -10.15 27.6 -1.7 21.5 -0.85 21.4 0.15 21.35 9.4 27 17.9 32.2 19.7 30.65 21.55 29.05 19.7 18.55 17.75 7.2 17.85 6.85 17.95 6.35 26.35 2.15 34.05 -1.6 32.75 -4.3 31.35 -7 21.55 -9.25 Z"/>
</g>

<g id="shape2291_swf_0_Layer0_0_MEMBER_0_FILL">
<path fill="#FFC373" stroke="none" d="
M 17.9 -8.45
L 8.45 -10.2
Q 8.15 -10.35 4.25 -18.9 0.6 -26.85 -1.45 -26.8 -3.3 -26.75 -6.8 -18.95 -10.45 -10.8 -11.55 -10.2
L -20.65 -8.8
Q -28.05 -7.9 -28.95 -5.5 -29.85 -3.1 -23.1 0.5 -16.1 4.25 -16.1 4.65 -16.05 5.45 -18.7 15.6 -20.85 25.55 -18.55 26.65 -16.35 27.65 -9.2 22.2 -1.45 16.35 -0.8 16.25 0.05 16.2 8.7 21.8 16.8 27.05 18.2 25.8 19.7 24.55 16.95 15.05 14 5 14.15 4.65 14.25 4.25 21.75 0.65 28.7 -2.7 27.65 -4.8 26.55 -6.95 17.9 -8.45 Z"/>
</g>

<g id="shape2291_swf_0_Layer0_0_MEMBER_1_FILL">
<path fill="#FFEDA1" stroke="none" d="
M 6.2 -9.7
L 3.15 -14.85
Q 0.5 -19.6 -0.8 -19.55 -2 -19.5 -4.7 -14.7 -7.6 -9.6 -8.3 -9.25
L -13.7 -8.15
Q -17.95 -7.35 -18.55 -5.85 -19.15 -4.45 -15.9 -1.85 -12.4 0.9 -12.4 1.1 -12.3 1.65 -13.1 6.85 -13.6 12 -12.1 12.65 -10.6 13.35 -6 11.3 -0.9 8.95 -0.6 8.95 -0.2 8.95 5.1 10.65 9.8 12.15 10.8 11.4 11.8 10.65 11.8 5.9 11.6 1.15 11.75 0.6
L 15.6 -2.05
Q 18.95 -4.25 18.3 -5.55 17.55 -6.9 12.15 -8.2
L 6.2 -9.7 Z"/>
</g>

<g id="shape2291_swf_0_Layer0_0_MEMBER_2_FILL">
<path fill="#FFF9DE" stroke="none" d="
M -0.55 -27.7
Q -1.35 -30.05 -2.9 -27.05 -5.8 -22.15 -7.75 -17.35 -11.6 -7.65 -6.75 -7.95 -1.45 -8.35 -0.3 -20.85 0.15 -25.55 -0.55 -27.7 Z"/>
</g>

<g id="shape2291_swf_0_Layer0_0_MEMBER_3_FILL">
<path fill="#FFF9DE" stroke="none" d="
M -21.2 -1.85
Q -16.35 -1.85 -14.55 -2.8 -12.45 -3.95 -16.45 -5.75 -18.3 -6.65 -20.9 -7.05 -26.2 -7.8 -30 -5.15 -32.2 -3.65 -28.9 -2.7 -26 -1.85 -21.2 -1.85 Z"/>
</g>

<g id="shape2291_swf_0_Layer0_0_MEMBER_4_FILL">
<path fill="#FFF9DE" stroke="none" d="
M 25.4 -5.15
Q 24.1 -6.25 20.9 -6.65 17.6 -7 15.9 -6.15 13.85 -5.15 15.5 -2.85
L 17.15 -1.45
Q 19.7 -0.45 24.35 -2.7 26.9 -3.9 25.4 -5.15 Z"/>
</g>

<g id="shape2291_swf_0_Layer0_0_MEMBER_5_FILL">
<path fill="#FFEDA1" stroke="none" d="
M 11.55 22.2
Q 14.5 24.6 16.5 24.95 18.75 25.4 17.85 22.55 16.95 19.75 15.2 17.3 11.8 12.3 7.95 13.95 5.8 14.85 7.25 17.45 8.5 19.8 11.55 22.2 Z"/>
</g>

<g id="shape2291_swf_0_Layer0_0_MEMBER_6_FILL">
<path fill="#FFEDA1" stroke="none" d="
M -18 19.55
Q -17.5 21.15 -16.1 19.65 -14.7 18.15 -13.8 16.2 -12 12.35 -14.3 10.45 -16.95 8.25 -18.1 15.5 -18.5 18.2 -18 19.55 Z"/>
</g>

<g id="shape2291_swf_0_Layer0_0_MEMBER_7_FILL">
<path fill="#FFEDA1" stroke="none" d="
M -18.45 22.05
L -19.15 23.6
Q -19.45 25.2 -17.35 25.15 -14.9 25.1 -15.8 23.05 -16.75 21 -18.45 22.05 Z"/>
</g>
</defs>

<g transform="matrix( 0.999969482421875, 0, 0, 0.999969482421875, 16,16) ">
<g transform="matrix( 0.4734954833984375, 0, 0, 0.48370361328125, 0,0) ">
<g transform="matrix( 1, 0, 0, 1, 0.85,0.85) ">
<use xlink:href="#shape2291_swf_0_Layer0_0_FILL"/>
</g>

<g transform="matrix( 1, 0, 0, 1, 0.85,0.85) ">
<use xlink:href="#shape2291_swf_0_Layer0_0_MEMBER_0_FILL"/>
</g>

<g transform="matrix( 1, 0, 0, 1, 0.85,0.85) ">
<use xlink:href="#shape2291_swf_0_Layer0_0_MEMBER_1_FILL"/>
</g>

<g transform="matrix( 1, 0, 0, 1, 0.85,0.85) ">
<use xlink:href="#shape2291_swf_0_Layer0_0_MEMBER_2_FILL"/>
</g>

<g transform="matrix( 1, 0, 0, 1, 0.85,0.85) ">
<use xlink:href="#shape2291_swf_0_Layer0_0_MEMBER_3_FILL"/>
</g>

<g transform="matrix( 1, 0, 0, 1, 0.85,0.85) ">
<use xlink:href="#shape2291_swf_0_Layer0_0_MEMBER_4_FILL"/>
</g>

<g transform="matrix( 1, 0, 0, 1, 0.85,0.85) ">
<use xlink:href="#shape2291_swf_0_Layer0_0_MEMBER_5_FILL"/>
</g>

<g transform="matrix( 1, 0, 0, 1, 0.85,0.85) ">
<use xlink:href="#shape2291_swf_0_Layer0_0_MEMBER_6_FILL"/>
</g>

<g transform="matrix( 1, 0, 0, 1, 0.85,0.85) ">
<use xlink:href="#shape2291_swf_0_Layer0_0_MEMBER_7_FILL"/>
</g>
</g>
</g>
</svg>
