
<svg xmlns="http://www.w3.org/2000/svg" version="1.1" xmlns:xlink="http://www.w3.org/1999/xlink" preserveAspectRatio="none" x="0px" y="0px" width="160px" height="160px" viewBox="0 0 160 160">
<defs>
<filter id="Filter_1" x="-20%" y="-20%" width="140%" height="140%" color-interpolation-filters="sRGB">
<feColorMatrix in="SourceGraphic" type="matrix" values="0.8 0 0 0 0.13333333333333333 0 0.8 0 0 0 0 0 0.8 0 0.12549019607843137 0 0 0 1 0" result="result1"/>
</filter>

<g id="Carpeta_de_elementos_duplicados_copia_shape_377_swf_0_Layer0_0_FILL">
<path fill="#C1D2D3" stroke="none" d="
M 23.65 -205.4
Q 11.8 -215.65 1.95 -215.65 -8.25 -215.65 -20.35 -205.15 -32.35 -194.8 -42.1 -177.7 -48.55 -166.3 -51.3 -148.65 -53.9 -131.85 -52.65 -112.25 -51.45 -92.75 -46.7 -74.35 -41.75 -55.25 -33.95 -40.85 -31.55 -36.95 -21.55 -34.85 -12.7 -32.95 -0.5 -32.85 11.1 -32.8 20.2 -34.4 29.8 -36 31.6 -38.75 40.35 -50.3 46.45 -69.35 52.25 -87.55 54.3 -108.4 56.4 -129.45 54.2 -147.55 51.85 -166.9 45.1 -178.55 35.35 -195.25 23.65 -205.4 Z"/>
</g>

<g id="Carpeta_de_elementos_duplicados_copia_shape_377_swf_0_Layer0_0_MEMBER_0_FILL">
<path fill="#C1D2D3" stroke="none" d="
M 9.1 -208.05
Q 8.4 -217.6 7.2 -227.05 4.75 -245.9 2.4 -245.35 0.1 -244.8 -2.55 -226.6
L -4.7 -208.45 9.1 -208.05 Z"/>
</g>

<g id="Carpeta_de_elementos_duplicados_copia_shape_377_swf_0_Layer0_0_MEMBER_1_FILL">
<path fill="#586B7C" stroke="none" d="
M 47.7 -71.75
Q 51.15 -83.85 52.95 -93.55 54.75 -103.45 53.55 -104.2 49.6 -99.95 34.05 -97.75 20.25 -95.8 1.2 -95.9 -17.05 -96 -31.95 -97.9 -47.65 -99.9 -52.25 -103.05 -51.2 -87.7 -44 -64.05 -36.85 -40.9 -32.75 -38.2 -22.4 -31.25 0.75 -31.35 22.55 -31.4 32 -36.7 38.8 -40.5 47.7 -71.75 Z"/>
</g>

<g id="Carpeta_de_elementos_duplicados_copia_shape_377_swf_0_Layer0_0_MEMBER_2_FILL">
<path fill="#879BAA" stroke="none" d="
M 36.55 -72.5
Q 42.35 -92.7 32.25 -92.5 5.95 -91.85 -8.55 -92.55 -29.15 -93.5 -40.95 -97.15 -43.95 -98.05 -43.65 -89.75 -43.45 -81.85 -40.5 -70.85 -37.35 -58.95 -32.9 -50.75 -27.75 -41.15 -22.4 -39.85 -9.45 -36.7 5 -37.85 21.1 -39.15 25 -45.45 32.05 -56.95 36.55 -72.5 Z"/>
</g>

<g id="Carpeta_de_elementos_duplicados_copia_shape_377_swf_0_Layer0_0_MEMBER_3_FILL">
<path fill="#B7C5CE" stroke="none" d="
M 4.2 -53.3
Q 8.05 -58.45 9.95 -64.8 11.7 -70.7 11 -74.8 10.45 -78.6 3 -83 -4.05 -87.25 -13.55 -89.9 -23.6 -92.7 -31.05 -92.25 -39.55 -91.75 -41.85 -86.9
L -41.7 -80.95
Q -41.25 -73.7 -39.65 -67.35 -34.65 -47.1 -20.65 -43.65 -5.7 -40 4.2 -53.3 Z"/>
</g>

<g id="Carpeta_de_elementos_duplicados_copia_shape_377_swf_0_Layer0_0_MEMBER_4_FILL">
<path fill="#C1D2D3" stroke="none" d="
M 8.65 -250.5
Q 5.35 -253.1 0.9 -252.5 -1.9 -252.15 -4.5 -249.85 -7.1 -247.55 -7.8 -244.8 -8.55 -241.75 -6.55 -239.65 -4.1 -237.15 1.75 -236.6 7.6 -236 10.45 -238.6 12.95 -240.85 12.3 -244.55 11.75 -248.1 8.65 -250.5 Z"/>
</g>

<g id="Carpeta_de_elementos_duplicados_copia_shape_377_swf_0_Layer0_0_MEMBER_5_FILL">
<path fill="#586B7C" stroke="none" d="
M -33.05 -65.2
L -37.1 -65.05
Q -40.4 -64.2 -43.65 -62.1 -52.6 -56.6 -55.2 -46.7 -57.6 -37.3 -56.4 -26.4 -55.75 -21 -54.65 -17.45 -52.1 -23.35 -47.95 -28.75 -39.7 -39.7 -31.85 -37.45 -27.55 -36.75 -28.65 -50.25 -29.1 -55.65 -30.3 -59.95 -31.6 -64.55 -33.05 -65.2 Z"/>
</g>

<g id="Carpeta_de_elementos_duplicados_copia_shape_377_swf_0_Layer0_0_MEMBER_6_FILL">
<path fill="#C1D2D3" stroke="none" d="
M -53.9 -62.7
Q -58.3 -71.05 -60.8 -71.05 -63.65 -71.05 -68.1 -63.55 -72.55 -56 -74.3 -48 -78.35 -29.05 -70.55 -10.95 -69.25 -8.3 -61.5 -8.2 -53.9 -8.15 -52.75 -10.25 -48.15 -17.95 -47.15 -29.15 -46.25 -39.2 -48.5 -49.15 -49.8 -55 -53.9 -62.7 Z"/>
</g>

<g id="Carpeta_de_elementos_duplicados_copia_shape_377_swf_0_Layer0_0_MEMBER_7_FILL">
<path fill="#586B7C" stroke="none" d="
M -71.6 -9.7
Q -74.05 -9.1 -73.75 -5.35 -73.45 -1.7 -71.6 -1 -68.35 0.1 -60.65 0.05 -53 -0.05 -50.6 -1.1 -49.25 -1.7 -48.95 -5.3 -48.7 -8.95 -50.25 -9.65
L -60.4 -10.3 -71.6 -9.7 Z"/>
</g>

<g id="Carpeta_de_elementos_duplicados_copia_shape_377_swf_0_Layer0_0_MEMBER_8_FILL">
<path fill="#879BAA" stroke="none" d="
M -71.85 -7.6
L -72.35 -6.75
Q -72.7 -5.75 -72.25 -4.9 -70.85 -2.2 -61.75 -2.55 -56.65 -2.7 -56 -4.35 -55.4 -5.8 -58.2 -7.35 -61.1 -9 -64.7 -9.25 -69 -9.55 -71.85 -7.6 Z"/>
</g>

<g id="Carpeta_de_elementos_duplicados_copia_shape_377_swf_0_Layer0_0_MEMBER_9_FILL">
<path fill="#FFFFFF" stroke="none" d="
M -67.75 -9.25
Q -70.55 -8.65 -70.8 -6.7 -71.1 -4.6 -65.95 -4.6 -62 -4.6 -63.35 -7.2 -64.7 -9.85 -67.75 -9.25 Z"/>
</g>

<g id="Carpeta_de_elementos_duplicados_copia_shape_377_swf_0_Layer0_0_MEMBER_10_FILL">
<path fill="#DFEDEF" stroke="none" d="
M -62.25 -65.2
Q -63.95 -65.05 -66.65 -60.35 -69.6 -55.35 -71.4 -48.8 -76.25 -31 -68.55 -19.3 -67.25 -17.25 -65.1 -16.6 -62.9 -15.9 -60.65 -16.9 -55.35 -19.3 -54 -28.55 -52.55 -38.7 -56.3 -52.55 -57.8 -58 -59.5 -61.65 -61.2 -65.25 -62.25 -65.2 Z"/>
</g>

<g id="Carpeta_de_elementos_duplicados_copia_shape_377_swf_0_Layer0_0_MEMBER_11_FILL">
<path fill="#FFFFFF" stroke="none" d="
M -66.9 -59.45
L -68.35 -56.4
Q -70 -52.65 -70.85 -49.4 -73.55 -38.75 -67.2 -36.2 -63.7 -34.75 -62 -39.4 -60.6 -43.4 -60.95 -49.85 -61.3 -56.05 -62.9 -59.25 -64.7 -62.8 -66.9 -59.45 Z"/>
</g>

<g id="Carpeta_de_elementos_duplicados_copia_shape_377_swf_0_Layer0_0_MEMBER_12_FILL">
<path fill="#879BAA" stroke="none" d="
M -32.4 -57.55
Q -33.2 -62.9 -36.9 -62.95 -41.4 -63 -48.6 -54.9
L -45.45 -48.2
Q -41.9 -41.6 -39.8 -41.8 -36.05 -42.25 -33.8 -47.65 -31.7 -52.65 -32.4 -57.55 Z"/>
</g>

<g id="Carpeta_de_elementos_duplicados_copia_shape_377_swf_0_Layer0_0_MEMBER_13_FILL">
<path fill="#B7C5CE" stroke="none" d="
M -40.4 -55.55
Q -38.9 -56.9 -38.2 -58.55 -37.5 -60.3 -38.25 -61.25 -39.75 -63.1 -43.25 -60.65 -46.75 -58.1 -45.8 -55.75 -44.2 -52.1 -40.4 -55.55 Z"/>
</g>

<g id="Carpeta_de_elementos_duplicados_copia_shape_377_swf_0_Layer0_0_MEMBER_14_FILL">
<path fill="#586B7C" stroke="none" d="
M 33 -65.2
Q 29.3 -63.35 28.6 -50.95 27.95 -38.55 31.8 -37.45 40.95 -38.1 48.7 -27.85 52.6 -22.7 54.6 -17.45 55.75 -21 56.35 -26.4 57.6 -37.3 55.15 -46.7 52.55 -56.65 43.9 -62.2 40.6 -64.3 37.35 -65.1
L 33 -65.2 Z"/>
</g>

<g id="Carpeta_de_elementos_duplicados_copia_shape_377_swf_0_Layer0_0_MEMBER_15_FILL">
<path fill="#C1D2D3" stroke="none" d="
M 60.8 -71.05
Q 58.25 -71.05 53.85 -62.7 49.75 -55 48.45 -49.15 46.3 -39.2 47.15 -29.15 48.15 -17.95 52.75 -10.25 53.85 -8.15 61.45 -8.2 69.25 -8.3 70.55 -10.95 78.35 -29.05 74.3 -48 72.55 -56 68.05 -63.55 63.6 -71.05 60.8 -71.05 Z"/>
</g>

<g id="Carpeta_de_elementos_duplicados_copia_shape_377_swf_0_Layer0_0_MEMBER_16_FILL">
<path fill="#586B7C" stroke="none" d="
M 71.6 -9.7
L 60.4 -10.3 50.2 -9.65
Q 48.7 -8.95 48.95 -5.3 49.2 -1.7 50.55 -1.1 53 -0.05 60.6 0.05 68.35 0.1 71.6 -1 73.45 -1.7 73.75 -5.35 74 -9.1 71.6 -9.7 Z"/>
</g>

<g id="Carpeta_de_elementos_duplicados_copia_shape_377_swf_0_Layer0_0_MEMBER_17_FILL">
<path fill="#879BAA" stroke="none" d="
M 66.9 -6.35
L 66.4 -7.2
Q 63.55 -9.15 59.3 -8.85 55.65 -8.6 52.8 -7 50 -5.35 50.55 -4 51.25 -2.35 56.35 -2.2 65.45 -1.8 66.85 -4.45 67.25 -5.35 66.9 -6.35 Z"/>
</g>

<g id="Carpeta_de_elementos_duplicados_copia_shape_377_swf_0_Layer0_0_MEMBER_18_FILL">
<path fill="#FFFFFF" stroke="none" d="
M 59.65 -6.3
Q 59.4 -8.25 56.55 -8.85 53.55 -9.4 52.2 -6.8 50.85 -4.2 54.75 -4.2 59.95 -4.2 59.65 -6.3 Z"/>
</g>

<g id="Carpeta_de_elementos_duplicados_copia_shape_377_swf_0_Layer0_0_MEMBER_19_FILL">
<path fill="#DFEDEF" stroke="none" d="
M 61.05 -66.4
Q 59.4 -66.2 56.7 -61.6 53.85 -56.65 52.05 -50.05 47.1 -32.45 53.85 -20.75 55.05 -18.65 57.25 -17.75
L 61.75 -17.55
Q 67.35 -19.35 68.7 -28.55 70.2 -38.75 66.7 -53.15 63.45 -66.55 61.05 -66.4 Z"/>
</g>

<g id="Carpeta_de_elementos_duplicados_copia_shape_377_swf_0_Layer0_0_MEMBER_20_FILL">
<path fill="#FFFFFF" stroke="none" d="
M 60 -55.35
L 59.2 -58.5
Q 57.85 -62.05 55.45 -59.05 53.3 -56.4 51.75 -50.65 50.15 -44.65 50.7 -40.7 51.4 -35.95 54.95 -36.65 61.4 -37.8 60.95 -48.3 60.85 -51.55 60 -55.35 Z"/>
</g>

<g id="Carpeta_de_elementos_duplicados_copia_shape_377_swf_0_Layer0_0_MEMBER_21_FILL">
<path fill="#879BAA" stroke="none" d="
M 44 -49.9
L 46.45 -56.3
Q 41.15 -63.1 37.75 -62.75 34.9 -62.45 34.1 -57.55 33.4 -53.1 34.7 -48.6 36.1 -43.8 38.7 -43.6 41.05 -43.45 44 -49.9 Z"/>
</g>

<g id="Carpeta_de_elementos_duplicados_copia_shape_377_swf_0_Layer0_0_MEMBER_22_FILL">
<path fill="#B7C5CE" stroke="none" d="
M 46 -55.4
Q 47.1 -58.6 42.8 -60.8 38.45 -63 37.2 -61.15 36.55 -60.1 37.45 -58.15 38.35 -56.25 40.1 -54.85 41.95 -53.25 43.5 -53.2 45.3 -53.15 46 -55.4 Z"/>
</g>

<g id="Carpeta_de_elementos_duplicados_copia_shape_377_swf_0_Layer0_0_MEMBER_23_FILL">
<path fill="#586B7C" stroke="none" d="
M 26 -51.55
Q 26.65 -59.95 24.85 -67.65 19.8 -90.3 -1.25 -89.4 -21.05 -88.55 -25.05 -65.4 -27 -53.85 -25.05 -42.45 -20.5 -38.95 0.3 -39.2 21.05 -39.55 24.2 -43.15 25.5 -44.2 26 -51.55 Z"/>
</g>

<g id="Carpeta_de_elementos_duplicados_copia_shape_377_swf_0_Layer0_0_MEMBER_24_FILL">
<path fill="#DFEDEF" stroke="none" d="
M 40.85 -118.8
Q 44.95 -128.75 44.1 -140 43.1 -152.7 35.9 -162.65 17.6 -187.95 -31.95 -185.45 -37.65 -184.3 -42.3 -176.7 -46.7 -169.6 -49.15 -158.85 -51.55 -148.15 -51.15 -137.45 -50.65 -125.95 -46.95 -117.7 -43.95 -110.95 -30.95 -107 -18.9 -103.35 -3.15 -103.35 12.75 -103.35 24.65 -107.15 37.75 -111.35 40.85 -118.8 Z"/>
</g>

<g id="Carpeta_de_elementos_duplicados_copia_shape_377_swf_0_Layer0_0_MEMBER_25_FILL">
<path fill="#FFFFFF" stroke="none" d="
M -21.3 -182.8
Q -27.95 -185.55 -34.1 -180.95 -39.7 -176.8 -42.4 -168.65 -45.15 -160.4 -43.1 -153.2 -40.85 -145.1 -33.2 -141.95 -25.6 -138.8 -20.6 -143.9 -16.25 -148.25 -14.85 -157.25 -13.55 -165.6 -15.3 -173.2 -17.15 -181.1 -21.3 -182.8 Z"/>
</g>

<g id="Carpeta_de_elementos_duplicados_copia_shape_377_swf_0_Layer0_0_MEMBER_26_FILL">
<path fill="#586B7C" stroke="none" d="
M 24.9 -163.3
Q 15.75 -172.8 2.55 -172.8 -10 -172.8 -18.7 -163.9 -26.7 -155.7 -27.85 -144.2 -29.05 -132.3 -22.1 -124.1 -14.3 -114.7 1.4 -114 18.8 -113.2 27.65 -122.25 35.5 -130.15 34.4 -142.55 33.4 -154.55 24.9 -163.3 Z"/>
</g>

<g id="Carpeta_de_elementos_duplicados_copia_shape_377_swf_0_Layer0_0_MEMBER_27_FILL">
<path fill="#879BAA" stroke="none" d="
M 20.8 -164.2
Q 12.7 -172.65 1.05 -172.65 -10.05 -172.65 -17.75 -164.75 -24.85 -157.5 -25.9 -147.3 -26.9 -136.8 -20.75 -129.55 -13.85 -121.25 0.05 -120.6 15.4 -119.9 23.3 -127.9 30.2 -134.9 29.25 -145.85 28.35 -156.5 20.8 -164.2 Z"/>
</g>

<g id="Carpeta_de_elementos_duplicados_copia_shape_377_swf_0_Layer0_0_MEMBER_28_FILL">
<path fill="#B7C5CE" stroke="none" d="
M -8.3 -169.6
Q -13.85 -167.85 -14.85 -164.75 -15.85 -161.6 -9.55 -162.9 -0.7 -164.7 -1.5 -168.05 -1.75 -169.3 -3.7 -169.8
L -8.3 -169.6 Z"/>
</g>

<g id="Carpeta_de_elementos_duplicados_copia_shape_377_swf_0_Layer0_0_MEMBER_29_FILL">
<path fill="#586B7C" stroke="none" d="
M 18.25 -157.1
Q 11.75 -163.85 2.35 -163.85 -6.55 -163.85 -12.75 -157.55 -18.4 -151.7 -19.25 -143.5 -20.1 -135.1 -15.15 -129.25 -9.55 -122.65 1.55 -122.15 13.9 -121.55 20.2 -127.95 25.75 -133.6 24.95 -142.4 24.25 -150.9 18.25 -157.1 Z"/>
</g>

<g id="Carpeta_de_elementos_duplicados_copia_shape_377_swf_0_Layer0_0_MEMBER_30_FILL">
<path fill="#3DB7D3" stroke="none" d="
M 16.3 -154.35
Q 10.75 -160.1 2.8 -160.1 -4.75 -160.1 -9.95 -154.75 -14.75 -149.8 -15.45 -142.85 -16.15 -135.7 -12 -130.75 -7.25 -125.1 2.15 -124.65 12.65 -124.15 18 -129.6 22.65 -134.4 22 -141.85 21.4 -149.1 16.3 -154.35 Z"/>
</g>

<g id="Carpeta_de_elementos_duplicados_copia_shape_377_swf_0_Layer0_0_MEMBER_31_FILL">
<path fill="#80D9ED" stroke="none" d="
M 2.4 -132.15
Q 8.65 -131.3 12.25 -135.4 15.4 -139.05 15 -144.45 14.6 -150 10.8 -153.05 6.4 -156.55 -0.45 -154.7 -4.7 -153.5 -7.4 -150.2 -10 -146.95 -10 -143.1 -10.05 -139.1 -7.1 -136.25 -3.85 -133 2.4 -132.15 Z"/>
</g>

<g id="Carpeta_de_elementos_duplicados_copia_shape_377_swf_0_Layer0_0_MEMBER_32_FILL">
<path fill="#FFFFFF" stroke="none" d="
M 2.6 -146.7
Q 4.25 -149.6 3.25 -152.8 2.3 -156.1 -0.7 -156.45 -4.15 -156.95 -8.55 -152.7
L -9.5 -151.15
Q -10.45 -149.35 -10.65 -147.8 -11.15 -142.95 -3.55 -143.3 0.7 -143.5 2.6 -146.7 Z"/>
</g>

<g id="Carpeta_de_elementos_duplicados_copia_shape_377_swf_0_Layer0_0_MEMBER_33_FILL">
<path fill="#586B7C" stroke="none" d="
M 32.45 -200.6
Q 28.9 -205.65 23.8 -210.6 10.9 -223.2 1.5 -223.2 -5.7 -223.2 -20 -209.6 -25.9 -204 -29.25 -199.3 -32.85 -194.25 -31.75 -192.6 -30.6 -191.05 -19.75 -189.9
L 3.5 -188.7 26.1 -189.6
Q 36.25 -190.75 36.1 -193.05 35.9 -195.6 32.45 -200.6 Z"/>
</g>

<g id="Carpeta_de_elementos_duplicados_copia_shape_377_swf_0_Layer0_0_MEMBER_34_FILL">
<path fill="#879BAA" stroke="none" d="
M 16.75 -206.3
Q 17.45 -209.65 11.4 -215.25 5.4 -220.9 0.55 -221.55 -4.3 -222.25 -14.1 -214.85 -24.05 -207.4 -23.1 -203.4 -22.85 -202.15 -16.65 -201.65 -10.95 -201.25 -3.2 -201.7 16.05 -202.8 16.75 -206.3 Z"/>
</g>

<g id="Carpeta_de_elementos_duplicados_copia_shape_377_swf_0_Layer0_0_MEMBER_35_FILL">
<path fill="#586B7C" stroke="none" d="
M 4.6 -188
Q 35.1 -188 37.6 -191.55 38.85 -193.3 38.25 -195.2 37.6 -197.2 35.15 -197.95 32.05 -198.85 1.15 -198.8 -30.25 -198.65 -32.15 -197.3 -34.2 -195.8 -34.6 -194.05 -35.2 -191.4 -30.8 -189.95 -24.6 -187.95 4.6 -188 Z"/>
</g>

<g id="Carpeta_de_elementos_duplicados_copia_shape_377_swf_0_Layer0_0_MEMBER_36_FILL">
<path fill="#879BAA" stroke="none" d="
M 11.9 -193.7
Q 12.55 -194.8 3.9 -196.15
L -14.2 -197.9
Q -24.95 -198.45 -29.45 -197.65
L -31.1 -196.6
Q -32.55 -195.4 -31.65 -194.4 -28.7 -191.35 -3.05 -192.05 11.15 -192.4 11.9 -193.7 Z"/>
</g>

<g id="Carpeta_de_elementos_duplicados_copia_shape_377_swf_0_Layer0_0_MEMBER_37_FILL">
<path fill="#FFFFFF" stroke="none" d="
M -37.5 -83.2
Q -33.3 -83.05 -31.5 -84.55 -29.9 -85.85 -30.5 -87.85 -31 -89.8 -33.1 -91.25 -35.25 -92.8 -37.9 -92.8 -40.15 -92.8 -41.7 -91.3 -43.1 -89.95 -43.25 -88.1 -43.45 -86.15 -42.1 -84.8 -40.5 -83.25 -37.5 -83.2 Z"/>
</g>

<g id="Carpeta_de_elementos_duplicados_copia_shape_377_swf_0_Layer0_0_MEMBER_38_FILL">
<path fill="#C1D2D3" stroke="none" d="
M 24.2 -51.25
Q 24.8 -59.05 23.15 -66.15 18.5 -87.1 -0.95 -86.25 -19.25 -85.45 -22.9 -64.1 -24.75 -53.4 -22.9 -42.9 -18.75 -39.65 0.45 -39.95 19.65 -40.2 22.55 -43.6 23.75 -44.5 24.2 -51.25 Z"/>
</g>

<g id="Carpeta_de_elementos_duplicados_copia_shape_377_swf_0_Layer0_0_MEMBER_39_FILL">
<path fill="#DFEDEF" stroke="none" d="
M 16.7 -57
Q 16.75 -63.6 15 -69.8 10.05 -87.05 -4.65 -85.8 -11.15 -85.2 -15.75 -79.6 -19.75 -74.7 -21.5 -67.4 -23.05 -60.55 -21.95 -54.9 -20.85 -49.1 -17.45 -48 -10.75 -45.85 1.65 -46.55 13.6 -47.2 15.3 -49.3 16.6 -51 16.7 -57 Z"/>
</g>

<g id="Carpeta_de_elementos_duplicados_copia_shape_377_swf_0_Layer0_0_MEMBER_40_FILL">
<path fill="#FFFFFF" stroke="none" d="
M -8.75 -84.7
Q -11.15 -84.35 -13.95 -81.95 -17.55 -78.85 -13.6 -76.25 -11.45 -74.8 -8.9 -76 -6.7 -77.15 -5.35 -79.55 -4.05 -81.9 -4.75 -83.45 -5.55 -85.25 -8.75 -84.7 Z"/>
</g>

<g id="Carpeta_de_elementos_duplicados_copia_shape_377_swf_0_Layer0_0_MEMBER_41_FILL">
<path fill="#C1D2D3" stroke="none" d="
M 14.1 -65.45
Q 15.4 -71.05 11.15 -75.85 6.6 -80.95 -0.8 -80.7 -7.7 -80.45 -11.9 -75 -15.6 -70.15 -14.85 -65.15 -14.4 -62.6 -0.7 -62.6 13.05 -62.6 14.1 -65.45 Z"/>
</g>

<g id="Carpeta_de_elementos_duplicados_copia_shape_377_swf_0_Layer0_0_MEMBER_42_FILL">
<path fill="#3DB7D3" stroke="none" d="
M 12.1 -66.45
Q 13.15 -70.7 9.55 -74.4 5.7 -78.3 -0.6 -78.15 -6.5 -77.95 -10.05 -73.75 -13.2 -70.05 -12.55 -66.2 -12.15 -64.3 -0.5 -64.3 11.2 -64.3 12.1 -66.45 Z"/>
</g>

<g id="Carpeta_de_elementos_duplicados_copia_shape_377_swf_0_Layer0_0_MEMBER_43_FILL">
<path fill="#80D9ED" stroke="none" d="
M 5.5 -73.75
Q 3.65 -76.25 0.55 -76.6 -3.1 -76.95 -6.4 -73.75
L -7.2 -72.55
Q -8.05 -71.05 -8.05 -69.85 -8.05 -66 0.3 -66.35 4.95 -66.55 6.2 -69 7.3 -71.2 5.5 -73.75 Z"/>
</g>

<g id="Carpeta_de_elementos_duplicados_copia_shape_377_swf_0_Layer0_0_MEMBER_44_FILL">
<path fill="#FFFFFF" stroke="none" d="
M -6 -74.7
Q -6.25 -73.05 -3.05 -72.75 -1.25 -72.55 -0.35 -73.7 0.5 -74.7 0.15 -76 -0.2 -77.3 -1.45 -77.55 -3 -77.8 -5.1 -76.35
L -6 -74.7 Z"/>
</g>

<g id="Carpeta_de_elementos_duplicados_copia_shape_377_swf_0_Layer0_0_MEMBER_45_FILL">
<path fill="#DFEDEF" stroke="none" d="
M 0.4 -225.1
Q 2.7 -225.4 2.35 -232.15 2.3 -234.75 1.65 -235.55 1 -236.5 0.05 -234.4
L -0.9 -229.6
Q -1.5 -224.9 0.4 -225.1 Z"/>
</g>

<g id="Carpeta_de_elementos_duplicados_copia_shape_377_swf_0_Layer0_0_MEMBER_46_FILL">
<path fill="#586B7C" stroke="none" d="
M 0.85 -26.15
L 16.7 -26.95
Q 18.85 -27.35 19.3 -29.9 19.7 -32.45 17.25 -32.95
L 1.15 -33.45
Q -12.25 -33.4 -16.55 -32.95 -20.45 -32.6 -19.95 -29.9 -19.5 -27.35 -16.55 -26.9
L 0.85 -26.15 Z"/>
</g>

<g id="Carpeta_de_elementos_duplicados_copia_shape_377_swf_0_Layer0_0_MEMBER_47_FILL">
<path fill="#879BAA" stroke="none" d="
M 8.15 -29.2
Q 9.1 -30.2 4.6 -31.35 0.1 -32.5 -5.7 -32.7 -12.45 -32.85 -16.95 -31.5
L -17.7 -30.95
Q -18.3 -30.15 -17.6 -29.6 -15.4 -27.75 -0.95 -27.95 7.1 -28.1 8.15 -29.2 Z"/>
</g>

<g id="Carpeta_de_elementos_duplicados_copia_shape_377_swf_0_Layer0_0_MEMBER_48_FILL">
<path fill="#B7C5CE" stroke="none" d="
M -11.6 -32.75
Q -13.85 -32.35 -14.05 -31 -14.3 -29.5 -10.15 -29.5 -7 -29.5 -8.05 -31.3 -9.15 -33.15 -11.6 -32.75 Z"/>
</g>

<g id="Carpeta_de_elementos_duplicados_copia_shape_377_swf_0_Layer0_0_MEMBER_49_FILL">
<path fill="#586B7C" stroke="none" d="
M 0.55 -19.95
L 17.75 -20.7
Q 20.15 -21.1 20.6 -23.65 21.1 -26.25 18.45 -26.75 15.8 -27.25 1 -27.2 -13.65 -27.2 -18.3 -26.75 -22.45 -26.35 -21.95 -23.7 -21.5 -21.1 -18.3 -20.65
L 0.55 -19.95 Z"/>
</g>

<g id="Carpeta_de_elementos_duplicados_copia_shape_377_swf_0_Layer0_0_MEMBER_50_FILL">
<path fill="#879BAA" stroke="none" d="
M 8.55 -23
Q 9.55 -24 4.7 -25.15 -0.2 -26.25 -6.5 -26.45 -13.8 -26.65 -18.7 -25.3
L -19.5 -24.7
Q -20.15 -23.95 -19.4 -23.35 -17 -21.55 -1.3 -21.75 7.4 -21.9 8.55 -23 Z"/>
</g>

<g id="Carpeta_de_elementos_duplicados_copia_shape_377_swf_0_Layer0_0_MEMBER_51_FILL">
<path fill="#FFFFFF" stroke="none" d="
M -12.6 -26.4
Q -15.8 -26 -16.1 -24.65 -16.45 -23.15 -10.55 -23.15 -6.1 -23.15 -7.6 -24.95 -9.15 -26.8 -12.6 -26.4 Z"/>
</g>

<g id="Carpeta_de_elementos_duplicados_copia_shape_377_swf_0_Layer0_0_MEMBER_52_FILL">
<path fill="#586B7C" stroke="none" d="
M 0.9 -13.25
L 19.45 -14
Q 21.95 -14.4 22.45 -16.95 23 -19.5 20.15 -20.05 17.25 -20.55 1.3 -20.5 -14.5 -20.5 -19.45 -20.05 -23.95 -19.65 -23.4 -17 -22.9 -14.4 -19.45 -13.95
L 0.9 -13.25 Z"/>
</g>

<g id="Carpeta_de_elementos_duplicados_copia_shape_377_swf_0_Layer0_0_MEMBER_53_FILL">
<path fill="#879BAA" stroke="none" d="
M 9.45 -16.3
Q 10.5 -17.3 5.35 -18.4 0.05 -19.55 -6.7 -19.75 -14.65 -19.95 -19.9 -18.6
L -20.8 -18
Q -21.5 -17.25 -20.65 -16.65 -18.1 -14.8 -1.2 -15.05 8.2 -15.2 9.45 -16.3 Z"/>
</g>

<g id="Carpeta_de_elementos_duplicados_copia_shape_377_swf_0_Layer0_0_MEMBER_54_FILL">
<path fill="#FFFFFF" stroke="none" d="
M -12.6 -19.6
Q -16.1 -19.2 -16.5 -17.85 -16.85 -16.35 -10.35 -16.35 -5.45 -16.35 -7.15 -18.15 -8.85 -20 -12.6 -19.6 Z"/>
</g>

<g id="Carpeta_de_elementos_duplicados_copia_shape_377_swf_0_Layer0_0_MEMBER_55_FILL">
<path fill="#DFEDEF" stroke="none" d="
M 4.6 -250.15
Q 2.6 -251.4 0.05 -250.75 -2.55 -250.15 -4.1 -248.3 -5.85 -246.15 -5.5 -243.45 -5.2 -241.3 -2.9 -240 -0.8 -238.85 1.9 -238.95 4.65 -239.15 6.2 -240.75 8 -242.6 7.45 -245.7 6.9 -248.85 4.6 -250.15 Z"/>
</g>

<g id="Carpeta_de_elementos_duplicados_copia_shape_377_swf_0_Layer0_0_MEMBER_56_FILL">
<path fill="#FFFFFF" stroke="none" d="
M -4.6 -246.15
Q -3.7 -243.05 -0.65 -244.3 2.4 -245.5 1.9 -247.9 1.4 -250.85 -2.1 -250.1 -5.5 -249.3 -4.6 -246.15 Z"/>
</g>

<g id="Carpeta_de_elementos_duplicados_copia_shape_377_swf_0_Layer0_0_MEMBER_57_FILL">
<path fill="#FFFFFF" stroke="none" d="
M -28 -196.15
Q -28.65 -194.8 -27.2 -194 -25.95 -193.3 -23.75 -193.25 -18.05 -193.1 -18.55 -195.7 -19.05 -198.1 -23 -198.2 -26.95 -198.25 -28 -196.15 Z"/>
</g>

<g id="Carpeta_de_elementos_duplicados_copia_shape_377_swf_0_Layer0_0_MEMBER_58_FILL">
<path fill="#FFFFFF" stroke="none" d="
M -4.5 -218.3
Q -6.25 -218.25 -9.15 -216.35 -11.95 -214.5 -14 -212.05 -16.25 -209.4 -16.35 -207.6 -16.4 -205.5 -13.4 -205.15 -8.5 -204.55 -4.75 -211.45 -3.3 -214.15 -3.15 -216.2 -3 -218.35 -4.5 -218.3 Z"/>
</g>

<g id="Carpeta_de_elementos_duplicados_copia_S_mbolo_19_2_0_Layer0_0_FILL">
<path fill="#2F2F2F" stroke="none" d="
M 150.9 80.45
Q 123.65 55.35 86.95 57.15 49.8 58.9 24.95 86.5 0.2 113.8 1.95 150.65 3.75 187.8 30.95 212.55 58.3 237.35 95.45 235.6 132.15 233.8 156.9 206.5 182.2 179.25 180.4 142.1 178.65 105.25 150.9 80.45 Z"/>
</g>

<g id="Carpeta_de_elementos_duplicados_copia_S_mbolo_19_2_0_Layer0_0_MEMBER_0_FILL">
<path fill="#272727" stroke="none" d="
M 148.15 84.85
L 127.4 70.4
Q 144.55 92.6 145.95 121.7 147.75 158.9 122.6 186.55 97.4 214.3 60.35 216.05
L 41.05 215.2
Q 64.75 233.35 95.4 231.85 130.35 230.2 153.85 203.95 177.65 178.25 175.95 143.3 174.3 108.2 148.15 84.85 Z"/>
</g>

<g id="Carpeta_de_elementos_duplicados_copia_S_mbolo_19_2_0_Layer0_0_MEMBER_1_FILL">
<path fill="#868686" stroke="none" d="
M 72.9 90.25
Q 62.9 82.8 48.85 87.75 34.7 92.5 23.95 106.95 12.95 121.35 13.05 137.4 13.05 153.95 22 160.55 30.45 167.4 39.55 163 49.05 158.65 60.85 144.2 72.95 129.65 77.95 113.65 82.55 97.6 72.9 90.25 Z"/>
</g>

<g id="Carpeta_de_elementos_duplicados_copia_S_mbolo_19_2_0_Layer0_1_FILL">
<path fill="#000000" stroke="none" d="
M 158.2 121
Q 156.3 110.45 148 102.8 137.8 93.65 124.2 94.3 110.65 94.95 101.5 105.05 93.95 113.4 93.05 124.15
L 93 128.7
Q 93.3 134.9 95.55 140.15 98.3 146.5 103.75 151.5 113.8 160.55 127.35 159.9 140.95 159.25 150.25 149.25 155.15 143.75 157.2 137.2 158.95 131.75 158.65 125.55
L 158.2 121
M 145.6 105.4
Q 152.8 111.95 154.65 121.2
L 155.15 125.7
Q 155.45 131.95 153.4 137.4 151.55 142.55 147.55 146.95 139.35 155.85 127.15 156.4 114.95 157 106.1 148.9 101.7 144.9 99.25 139.95 96.75 134.8 96.45 128.55 96.35 126.15 96.5 123.95 97.5 114.6 104.15 107.35 112.15 98.35 124.35 97.75 136.55 97.2 145.6 105.4
M 142.9 105.1
Q 143.3 106.5 143.35 108.45 143.3 113.5 141.9 116.3 140.45 119.15 137.65 120.25 134.8 121.45 132.35 120.05 129.9 118.8 129.1 115.85 128.45 112.95 129.85 110.05 131.25 107.35 134.75 104.3 136.2 103.1 137.5 102.5 133.15 101.6 128.5 103.65 121.9 106.45 118.35 113.3 115.8 118.15 115.8 123.05 115.75 125.15 116.25 127.3 117.85 134.15 123.55 137.05 125.9 138.4 128.45 138.55 130.4 138.8 132.3 138.4
L 135.9 137.3
Q 142.35 134.45 145.95 127.6 147.55 124.5 148.15 121.5 148.9 117.55 148.1 113.7 146.85 108.05 142.9 105.1
M 21.85 127.55
Q 21.55 130.15 21.65 132.9 21.95 138.7 23.8 143.6 26.5 150.35 32.35 155.7 42.45 164.85 56 164.2 69.6 163.55 78.75 153.5 83.95 147.6 86.05 140.6 87.55 135.55 87.25 129.75
L 86.7 124.45
Q 84.6 114.35 76.55 107.05 66.45 97.9 52.85 98.55 39.3 99.2 30.15 109.25 22.75 117.3 21.85 127.55
M 53 102.05
Q 65.1 101.45 74.15 109.6 81.2 115.85 83.15 124.6 83.65 127.2 83.75 129.95 84.05 135.75 82.4 140.8 80.45 146.4 76.15 151.1 67.9 160.05 55.8 160.65 43.55 161.25 34.6 153.1 29.9 148.8 27.5 143.4 25.3 138.55 25 132.75 24.9 130 25.2 127.4 26.35 118.45 32.6 111.6 40.75 102.65 53 102.05
M 71.45 109.35
Q 72 110.7 71.95 112.7 71.85 117.75 70.45 120.45 69.1 123.3 66.2 124.5 63.5 125.65 61 124.3 58.45 123 57.8 120.1 57.05 117.2 58.5 114.25 59.95 111.6 63.4 108.55 64.9 107.35 66.05 106.75 61.75 105.9 57.2 107.85 50.55 110.7 46.9 117.45 44.7 122 44.45 126.45 44.35 128.95 44.9 131.5 46.55 138.4 52.15 141.35
L 54.05 142.15
Q 58.9 143.85 64.2 141.65
L 64.45 141.55
Q 71 138.65 74.5 131.85 76.35 128.4 76.85 124.9 77.4 121.4 76.75 117.9 75.4 112.3 71.45 109.35 Z"/>

<path fill="#FFFFFF" stroke="none" d="
M 154.65 121.2
Q 152.8 111.95 145.6 105.4 136.55 97.2 124.35 97.75 112.15 98.35 104.15 107.35 97.5 114.6 96.5 123.95 96.35 126.15 96.45 128.55 96.75 134.8 99.25 139.95 101.7 144.9 106.1 148.9 114.95 157 127.15 156.4 139.35 155.85 147.55 146.95 151.55 142.55 153.4 137.4 155.45 131.95 155.15 125.7
L 154.65 121.2
M 143.35 108.45
Q 143.3 106.5 142.9 105.1 146.85 108.05 148.1 113.7 148.9 117.55 148.15 121.5 147.55 124.5 145.95 127.6 142.35 134.45 135.9 137.3
L 132.3 138.4
Q 130.4 138.8 128.45 138.55 125.9 138.4 123.55 137.05 117.85 134.15 116.25 127.3 115.75 125.15 115.8 123.05 115.8 118.15 118.35 113.3 121.9 106.45 128.5 103.65 133.15 101.6 137.5 102.5 136.2 103.1 134.75 104.3 131.25 107.35 129.85 110.05 128.45 112.95 129.1 115.85 129.9 118.8 132.35 120.05 134.8 121.45 137.65 120.25 140.45 119.15 141.9 116.3 143.3 113.5 143.35 108.45
M 74.15 109.6
Q 65.1 101.45 53 102.05 40.75 102.65 32.6 111.6 26.35 118.45 25.2 127.4 24.9 130 25 132.75 25.3 138.55 27.5 143.4 29.9 148.8 34.6 153.1 43.55 161.25 55.8 160.65 67.9 160.05 76.15 151.1 80.45 146.4 82.4 140.8 84.05 135.75 83.75 129.95 83.65 127.2 83.15 124.6 81.2 115.85 74.15 109.6
M 71.95 112.7
Q 72 110.7 71.45 109.35 75.4 112.3 76.75 117.9 77.4 121.4 76.85 124.9 76.35 128.4 74.5 131.85 71 138.65 64.45 141.55
L 64.2 141.65
Q 58.9 143.85 54.05 142.15
L 52.15 141.35
Q 46.55 138.4 44.9 131.5 44.35 128.95 44.45 126.45 44.7 122 46.9 117.45 50.55 110.7 57.2 107.85 61.75 105.9 66.05 106.75 64.9 107.35 63.4 108.55 59.95 111.6 58.5 114.25 57.05 117.2 57.8 120.1 58.45 123 61 124.3 63.5 125.65 66.2 124.5 69.1 123.3 70.45 120.45 71.85 117.75 71.95 112.7 Z"/>
</g>

<g id="Carpeta_de_elementos_duplicados_shape_1673_swf_0_Layer0_0_FILL">
<path fill="#AFB5BF" stroke="none" d="
M 45.75 -14.4
Q 41.3 -23.3 35.35 -26.3 39.7 -23.95 42.5 -15.8 45.7 -6.6 43.75 2.3 41.4 13.05 31.8 19.35 20.3 26.9 -0.3 26.9 -38.1 26.9 -44.1 4.25 -46.15 -3.4 -44.25 -12.9 -42.95 -19.25 -40.65 -24.1 -44.65 -22.1 -47.8 -13.55 -51.45 -3.85 -49.6 5.25 -47.3 16.65 -36.7 23.25 -23.8 31.25 0.2 31.25 24.3 31.25 37.05 23.25 47.65 16.55 49.3 5.1 50.7 -4.5 45.75 -14.4 Z"/>
</g>

<g id="Carpeta_de_elementos_duplicados_shape_1673_swf_0_Layer0_0_MEMBER_0_FILL">
<path fill="#C8CFDB" stroke="none" d="
M 57.8 -0.3
Q 57.8 -20.05 40.9 -34.05 24.05 -48 0.15 -48 -23.7 -48 -40.55 -34.05 -57.45 -20.05 -57.45 -0.3 -57.45 7.3 -54.5 14.35 -51.45 21.55 -45.9 26.6
L -43.8 28.25
Q -40.8 30.2 -36.4 31.9 -22.4 37.15 0.2 37.15 21.55 37.15 33.2 33.45 39.3 31.55 46.2 26.55 50.8 23.25 54.25 15.45 57.8 7.45 57.8 -0.3
M 0.45 -36.6
Q 18.85 -36.6 32.25 -27.45 46.65 -17.6 46.65 -2.3 46.65 8.65 38.75 16.9 26.75 29.45 -0.1 29.45 -31.8 29.45 -42.2 13.75 -45.45 8.8 -46.2 2.9
L -46.3 -2
Q -45.95 -21.15 -31.45 -29.75 -19.9 -36.6 0.45 -36.6 Z"/>
</g>

<g id="Carpeta_de_elementos_duplicados_shape_1673_swf_0_Layer0_0_MEMBER_1_FILL">
<path fill="#AFB5BF" stroke="none" d="
M 50.8 1.05
Q 50.8 7 47.9 13 42.95 23.2 31.1 28.4 13.15 36.35 -11.25 34.1 -20.55 33.25 -28.3 31.05 -35.35 29.05 -37.7 27.05 -36.2 29.85 -29.25 32.4 -22.3 34.9 -12.4 36.2 11.35 39.3 31.85 33.75 43.4 30.65 50.8 21.7 54.5 17.25 55.85 13.4
L 50.8 1.05 Z"/>
</g>

<g id="Carpeta_de_elementos_duplicados_shape_1673_swf_0_Layer0_0_MEMBER_2_FILL">
<path fill="#0A4F93" stroke="none" d="
M -57.8 -16.25
Q -59.95 -11.65 -59.95 -0.9 -59.95 11.2 -55.55 15.6 -53.35 17.8 -51.15 17.55 -49.45 17.05 -48.85 8.15
L -48.6 -0.65
Q -48.5 -14.4 -52.05 -17.95 -53.2 -19.05 -54.55 -19
L -55.65 -18.75 -56.3 -18.4
Q -57.15 -17.7 -57.8 -16.25 Z"/>
</g>

<g id="Carpeta_de_elementos_duplicados_shape_1673_swf_0_Layer0_0_MEMBER_3_FILL">
<path fill="#2A8BDB" stroke="none" d="
M -52.95 -5.35
Q -53.3 -9.5 -54.35 -11.6 -55.5 -13.9 -56.8 -11.75
L -58.75 -4.15
Q -59.95 3.6 -56.3 4.55 -54.25 5.05 -53.4 1.75 -52.65 -1.05 -52.95 -5.35 Z"/>
</g>

<g id="Carpeta_de_elementos_duplicados_shape_1673_swf_0_Layer0_0_MEMBER_4_FILL">
<path fill="#0A4F93" stroke="none" d="
M 60 -0.9
Q 60 -11.65 57.85 -16.25 57.2 -17.7 56.35 -18.4
L 55.7 -18.75
Q 53.9 -19.7 52.15 -17.95 48.6 -14.4 48.7 -0.65
L 48.95 8.15
Q 49.5 17.05 51.2 17.55
L 52.6 17.4
Q 54.25 16.95 55.6 15.6 60 11.2 60 -0.9 Z"/>
</g>

<g id="Carpeta_de_elementos_duplicados_shape_1673_swf_0_Layer0_0_MEMBER_5_FILL">
<path fill="#2A8BDB" stroke="none" d="
M 53.4 -11.75
Q 52.35 -9.65 52 -5.5 51.7 -1.2 52.45 1.6 53.3 4.9 55.35 4.4 59.05 3.45 57.8 -4.35
L 55.85 -11.95
Q 54.55 -14.1 53.4 -11.75 Z"/>
</g>

<g id="Carpeta_de_elementos_duplicados_shape_1673_swf_0_Layer0_0_MEMBER_6_FILL">
<path fill="#68625E" stroke="none" d="
M 1.65 19.95
Q 1.6919921875 18.2935546875 0.1 17.55 -1.43984375 16.85859375 -3.65 17.1
L -3.25 16.9
Q -9.0634765625 17.7564453125 -9.7 19.3 -10.345703125 20.84765625 -10 21.8 -9.65 22.7 -8.95 23.55 -7.8 24.8 -6.1 25.05 -5.2 25.35 -4.25 25.45 -2.25 25.55 -0.45 24.6 0.85 23.95 1.2 22.85 1.5998046875 21.6021484375 1.65 19.95 Z"/>
</g>

<g id="Carpeta_de_elementos_duplicados_shape_1673_swf_0_Layer0_0_MEMBER_7_FILL">
<path fill="#3F3B38" stroke="none" d="
M -20.1 25.1
Q -2.95 22.15 -5 19.65 -20.45 21.3 -32.65 21.5 -44.85 21.7 -51.95 17.4
L -55.4 19.05
Q -52.55 22.45 -48.25 24 -37.25 28.05 -20.1 25.1 Z"/>
</g>

<g id="Carpeta_de_elementos_duplicados_shape_1673_swf_0_Layer0_0_MEMBER_8_FILL">
<path fill="#68625E" stroke="none" d="
M -35.95 37.55
Q -31.4 37.95 -39.4 33.75 -47.35 29.6 -45.8 32.4
L -43.15 34.8
Q -39.75 37.25 -35.95 37.55 Z"/>
</g>

<g id="Carpeta_de_elementos_duplicados_shape_1673_swf_0_Layer0_0_MEMBER_9_FILL">
<path fill="#E8EFF9" stroke="none" d="
M 16.55 -41.45
Q 28.7 -39.1 37.05 -33.45 31.9 -39.65 19.25 -43.4 6.35 -47.2 -7.55 -46.35 -23.05 -45.4 -34 -38.75 -46.6 -31.1 -50.65 -17.1 -51.1 -15.45 -49.85 -13.65 -48.6 -11.85 -47.15 -12.45 -42.45 -25.25 -31.5 -33 -21.75 -39.9 -8.3 -42 4 -43.9 16.55 -41.45 Z"/>
</g>

<g id="Carpeta_de_elementos_duplicados_shape_1673_swf_0_Layer0_0_MEMBER_10_FILL">
<path fill="#FFFFFF" stroke="none" d="
M -17.1 -37.2
Q -17.65 -41.55 -27.15 -38.75 -31.6 -37.1 -35.6 -33.8 -43.55 -27.2 -41 -18.9 -39.6 -14.3 -33.25 -17.55 -27.6 -20.45 -22.2 -26.9 -16.65 -33.55 -17.1 -37.2 Z"/>
</g>

<g id="Carpeta_de_elementos_duplicados_shape_1673_swf_0_Layer0_0_MEMBER_11_FILL">
<path fill="#CECCCA" stroke="none" d="
M 5.15 9.85
Q 4.5 7.75 0.9 8.05 -2.7 8.35 -1.85 10.85 -1.2 12.8 2.25 12.3 5.75 11.85 5.15 9.85 Z"/>
</g>

<g id="Carpeta_de_elementos_duplicados_shape_1673_swf_0_Layer0_0_MEMBER_12_FILL">
<path fill="#97D5FF" stroke="none" d="
M -53.35 -8.85
Q -52.3 -13.25 -55.15 -13.6 -57.9 -13.9 -58.35 -9.65 -58.8 -5.35 -56.55 -4.85 -54.45 -4.4 -53.35 -8.85 Z"/>
</g>

<g id="Carpeta_de_elementos_duplicados_shape_1673_swf_0_Layer0_0_MEMBER_13_FILL">
<path fill="#97D5FF" stroke="none" d="
M 56.5 -9
Q 57.5 -12.25 54.7 -13.35 52 -14.45 51.15 -10.9 50.3 -7.35 52.7 -6.6 55.45 -5.75 56.5 -9 Z"/>
</g>
</defs>

<g transform="matrix( 1.1905059814453125, 0, 0, 1.1905059814453125, -375.1,-16) ">
<g transform="matrix( 0.6190643310546875, 0, 0, 0.6190643310546875, 203.95,-61.95) ">
<g transform="matrix( 0.83203125, 0, 0, 0.83203125, 289.55,339.8) ">
<g transform="matrix( 1, 0, 0, 1, 0,0) ">
<use filter="url(#Filter_1)" xlink:href="#Carpeta_de_elementos_duplicados_copia_shape_377_swf_0_Layer0_0_FILL"/>
</g>

<g transform="matrix( 1, 0, 0, 1, 0,0) ">
<use filter="url(#Filter_1)" xlink:href="#Carpeta_de_elementos_duplicados_copia_shape_377_swf_0_Layer0_0_MEMBER_0_FILL"/>
</g>

<g transform="matrix( 1, 0, 0, 1, 0,0) ">
<use filter="url(#Filter_1)" xlink:href="#Carpeta_de_elementos_duplicados_copia_shape_377_swf_0_Layer0_0_MEMBER_1_FILL"/>
</g>

<g transform="matrix( 1, 0, 0, 1, 0,0) ">
<use filter="url(#Filter_1)" xlink:href="#Carpeta_de_elementos_duplicados_copia_shape_377_swf_0_Layer0_0_MEMBER_2_FILL"/>
</g>

<g transform="matrix( 1, 0, 0, 1, 0,0) ">
<use filter="url(#Filter_1)" xlink:href="#Carpeta_de_elementos_duplicados_copia_shape_377_swf_0_Layer0_0_MEMBER_3_FILL"/>
</g>

<g transform="matrix( 1, 0, 0, 1, 0,0) ">
<use filter="url(#Filter_1)" xlink:href="#Carpeta_de_elementos_duplicados_copia_shape_377_swf_0_Layer0_0_MEMBER_4_FILL"/>
</g>

<g transform="matrix( 1, 0, 0, 1, 0,0) ">
<use filter="url(#Filter_1)" xlink:href="#Carpeta_de_elementos_duplicados_copia_shape_377_swf_0_Layer0_0_MEMBER_5_FILL"/>
</g>

<g transform="matrix( 1, 0, 0, 1, 0,0) ">
<use filter="url(#Filter_1)" xlink:href="#Carpeta_de_elementos_duplicados_copia_shape_377_swf_0_Layer0_0_MEMBER_6_FILL"/>
</g>

<g transform="matrix( 1, 0, 0, 1, 0,0) ">
<use filter="url(#Filter_1)" xlink:href="#Carpeta_de_elementos_duplicados_copia_shape_377_swf_0_Layer0_0_MEMBER_7_FILL"/>
</g>

<g transform="matrix( 1, 0, 0, 1, 0,0) ">
<use filter="url(#Filter_1)" xlink:href="#Carpeta_de_elementos_duplicados_copia_shape_377_swf_0_Layer0_0_MEMBER_8_FILL"/>
</g>

<g transform="matrix( 1, 0, 0, 1, 0,0) ">
<use filter="url(#Filter_1)" xlink:href="#Carpeta_de_elementos_duplicados_copia_shape_377_swf_0_Layer0_0_MEMBER_9_FILL"/>
</g>

<g transform="matrix( 1, 0, 0, 1, 0,0) ">
<use filter="url(#Filter_1)" xlink:href="#Carpeta_de_elementos_duplicados_copia_shape_377_swf_0_Layer0_0_MEMBER_10_FILL"/>
</g>

<g transform="matrix( 1, 0, 0, 1, 0,0) ">
<use filter="url(#Filter_1)" xlink:href="#Carpeta_de_elementos_duplicados_copia_shape_377_swf_0_Layer0_0_MEMBER_11_FILL"/>
</g>

<g transform="matrix( 1, 0, 0, 1, 0,0) ">
<use filter="url(#Filter_1)" xlink:href="#Carpeta_de_elementos_duplicados_copia_shape_377_swf_0_Layer0_0_MEMBER_12_FILL"/>
</g>

<g transform="matrix( 1, 0, 0, 1, 0,0) ">
<use filter="url(#Filter_1)" xlink:href="#Carpeta_de_elementos_duplicados_copia_shape_377_swf_0_Layer0_0_MEMBER_13_FILL"/>
</g>

<g transform="matrix( 1, 0, 0, 1, 0,0) ">
<use filter="url(#Filter_1)" xlink:href="#Carpeta_de_elementos_duplicados_copia_shape_377_swf_0_Layer0_0_MEMBER_14_FILL"/>
</g>

<g transform="matrix( 1, 0, 0, 1, 0,0) ">
<use filter="url(#Filter_1)" xlink:href="#Carpeta_de_elementos_duplicados_copia_shape_377_swf_0_Layer0_0_MEMBER_15_FILL"/>
</g>

<g transform="matrix( 1, 0, 0, 1, 0,0) ">
<use filter="url(#Filter_1)" xlink:href="#Carpeta_de_elementos_duplicados_copia_shape_377_swf_0_Layer0_0_MEMBER_16_FILL"/>
</g>

<g transform="matrix( 1, 0, 0, 1, 0,0) ">
<use filter="url(#Filter_1)" xlink:href="#Carpeta_de_elementos_duplicados_copia_shape_377_swf_0_Layer0_0_MEMBER_17_FILL"/>
</g>

<g transform="matrix( 1, 0, 0, 1, 0,0) ">
<use filter="url(#Filter_1)" xlink:href="#Carpeta_de_elementos_duplicados_copia_shape_377_swf_0_Layer0_0_MEMBER_18_FILL"/>
</g>

<g transform="matrix( 1, 0, 0, 1, 0,0) ">
<use filter="url(#Filter_1)" xlink:href="#Carpeta_de_elementos_duplicados_copia_shape_377_swf_0_Layer0_0_MEMBER_19_FILL"/>
</g>

<g transform="matrix( 1, 0, 0, 1, 0,0) ">
<use filter="url(#Filter_1)" xlink:href="#Carpeta_de_elementos_duplicados_copia_shape_377_swf_0_Layer0_0_MEMBER_20_FILL"/>
</g>

<g transform="matrix( 1, 0, 0, 1, 0,0) ">
<use filter="url(#Filter_1)" xlink:href="#Carpeta_de_elementos_duplicados_copia_shape_377_swf_0_Layer0_0_MEMBER_21_FILL"/>
</g>

<g transform="matrix( 1, 0, 0, 1, 0,0) ">
<use filter="url(#Filter_1)" xlink:href="#Carpeta_de_elementos_duplicados_copia_shape_377_swf_0_Layer0_0_MEMBER_22_FILL"/>
</g>

<g transform="matrix( 1, 0, 0, 1, 0,0) ">
<use filter="url(#Filter_1)" xlink:href="#Carpeta_de_elementos_duplicados_copia_shape_377_swf_0_Layer0_0_MEMBER_23_FILL"/>
</g>

<g transform="matrix( 1, 0, 0, 1, 0,0) ">
<use filter="url(#Filter_1)" xlink:href="#Carpeta_de_elementos_duplicados_copia_shape_377_swf_0_Layer0_0_MEMBER_24_FILL"/>
</g>

<g transform="matrix( 1, 0, 0, 1, 0,0) ">
<use filter="url(#Filter_1)" xlink:href="#Carpeta_de_elementos_duplicados_copia_shape_377_swf_0_Layer0_0_MEMBER_25_FILL"/>
</g>

<g transform="matrix( 1, 0, 0, 1, 0,0) ">
<use filter="url(#Filter_1)" xlink:href="#Carpeta_de_elementos_duplicados_copia_shape_377_swf_0_Layer0_0_MEMBER_26_FILL"/>
</g>

<g transform="matrix( 1, 0, 0, 1, 0,0) ">
<use filter="url(#Filter_1)" xlink:href="#Carpeta_de_elementos_duplicados_copia_shape_377_swf_0_Layer0_0_MEMBER_27_FILL"/>
</g>

<g transform="matrix( 1, 0, 0, 1, 0,0) ">
<use filter="url(#Filter_1)" xlink:href="#Carpeta_de_elementos_duplicados_copia_shape_377_swf_0_Layer0_0_MEMBER_28_FILL"/>
</g>

<g transform="matrix( 1, 0, 0, 1, 0,0) ">
<use filter="url(#Filter_1)" xlink:href="#Carpeta_de_elementos_duplicados_copia_shape_377_swf_0_Layer0_0_MEMBER_29_FILL"/>
</g>

<g transform="matrix( 1, 0, 0, 1, 0,0) ">
<use filter="url(#Filter_1)" xlink:href="#Carpeta_de_elementos_duplicados_copia_shape_377_swf_0_Layer0_0_MEMBER_30_FILL"/>
</g>

<g transform="matrix( 1, 0, 0, 1, 0,0) ">
<use filter="url(#Filter_1)" xlink:href="#Carpeta_de_elementos_duplicados_copia_shape_377_swf_0_Layer0_0_MEMBER_31_FILL"/>
</g>

<g transform="matrix( 1, 0, 0, 1, 0,0) ">
<use filter="url(#Filter_1)" xlink:href="#Carpeta_de_elementos_duplicados_copia_shape_377_swf_0_Layer0_0_MEMBER_32_FILL"/>
</g>

<g transform="matrix( 1, 0, 0, 1, 0,0) ">
<use filter="url(#Filter_1)" xlink:href="#Carpeta_de_elementos_duplicados_copia_shape_377_swf_0_Layer0_0_MEMBER_33_FILL"/>
</g>

<g transform="matrix( 1, 0, 0, 1, 0,0) ">
<use filter="url(#Filter_1)" xlink:href="#Carpeta_de_elementos_duplicados_copia_shape_377_swf_0_Layer0_0_MEMBER_34_FILL"/>
</g>

<g transform="matrix( 1, 0, 0, 1, 0,0) ">
<use filter="url(#Filter_1)" xlink:href="#Carpeta_de_elementos_duplicados_copia_shape_377_swf_0_Layer0_0_MEMBER_35_FILL"/>
</g>

<g transform="matrix( 1, 0, 0, 1, 0,0) ">
<use filter="url(#Filter_1)" xlink:href="#Carpeta_de_elementos_duplicados_copia_shape_377_swf_0_Layer0_0_MEMBER_36_FILL"/>
</g>

<g transform="matrix( 1, 0, 0, 1, 0,0) ">
<use filter="url(#Filter_1)" xlink:href="#Carpeta_de_elementos_duplicados_copia_shape_377_swf_0_Layer0_0_MEMBER_37_FILL"/>
</g>

<g transform="matrix( 1, 0, 0, 1, 0,0) ">
<use filter="url(#Filter_1)" xlink:href="#Carpeta_de_elementos_duplicados_copia_shape_377_swf_0_Layer0_0_MEMBER_38_FILL"/>
</g>

<g transform="matrix( 1, 0, 0, 1, 0,0) ">
<use filter="url(#Filter_1)" xlink:href="#Carpeta_de_elementos_duplicados_copia_shape_377_swf_0_Layer0_0_MEMBER_39_FILL"/>
</g>

<g transform="matrix( 1, 0, 0, 1, 0,0) ">
<use filter="url(#Filter_1)" xlink:href="#Carpeta_de_elementos_duplicados_copia_shape_377_swf_0_Layer0_0_MEMBER_40_FILL"/>
</g>

<g transform="matrix( 1, 0, 0, 1, 0,0) ">
<use filter="url(#Filter_1)" xlink:href="#Carpeta_de_elementos_duplicados_copia_shape_377_swf_0_Layer0_0_MEMBER_41_FILL"/>
</g>

<g transform="matrix( 1, 0, 0, 1, 0,0) ">
<use filter="url(#Filter_1)" xlink:href="#Carpeta_de_elementos_duplicados_copia_shape_377_swf_0_Layer0_0_MEMBER_42_FILL"/>
</g>

<g transform="matrix( 1, 0, 0, 1, 0,0) ">
<use filter="url(#Filter_1)" xlink:href="#Carpeta_de_elementos_duplicados_copia_shape_377_swf_0_Layer0_0_MEMBER_43_FILL"/>
</g>

<g transform="matrix( 1, 0, 0, 1, 0,0) ">
<use filter="url(#Filter_1)" xlink:href="#Carpeta_de_elementos_duplicados_copia_shape_377_swf_0_Layer0_0_MEMBER_44_FILL"/>
</g>

<g transform="matrix( 1, 0, 0, 1, 0,0) ">
<use filter="url(#Filter_1)" xlink:href="#Carpeta_de_elementos_duplicados_copia_shape_377_swf_0_Layer0_0_MEMBER_45_FILL"/>
</g>

<g transform="matrix( 1, 0, 0, 1, 0,0) ">
<use filter="url(#Filter_1)" xlink:href="#Carpeta_de_elementos_duplicados_copia_shape_377_swf_0_Layer0_0_MEMBER_46_FILL"/>
</g>

<g transform="matrix( 1, 0, 0, 1, 0,0) ">
<use filter="url(#Filter_1)" xlink:href="#Carpeta_de_elementos_duplicados_copia_shape_377_swf_0_Layer0_0_MEMBER_47_FILL"/>
</g>

<g transform="matrix( 1, 0, 0, 1, 0,0) ">
<use filter="url(#Filter_1)" xlink:href="#Carpeta_de_elementos_duplicados_copia_shape_377_swf_0_Layer0_0_MEMBER_48_FILL"/>
</g>

<g transform="matrix( 1, 0, 0, 1, 0,0) ">
<use filter="url(#Filter_1)" xlink:href="#Carpeta_de_elementos_duplicados_copia_shape_377_swf_0_Layer0_0_MEMBER_49_FILL"/>
</g>

<g transform="matrix( 1, 0, 0, 1, 0,0) ">
<use filter="url(#Filter_1)" xlink:href="#Carpeta_de_elementos_duplicados_copia_shape_377_swf_0_Layer0_0_MEMBER_50_FILL"/>
</g>

<g transform="matrix( 1, 0, 0, 1, 0,0) ">
<use filter="url(#Filter_1)" xlink:href="#Carpeta_de_elementos_duplicados_copia_shape_377_swf_0_Layer0_0_MEMBER_51_FILL"/>
</g>

<g transform="matrix( 1, 0, 0, 1, 0,0) ">
<use filter="url(#Filter_1)" xlink:href="#Carpeta_de_elementos_duplicados_copia_shape_377_swf_0_Layer0_0_MEMBER_52_FILL"/>
</g>

<g transform="matrix( 1, 0, 0, 1, 0,0) ">
<use filter="url(#Filter_1)" xlink:href="#Carpeta_de_elementos_duplicados_copia_shape_377_swf_0_Layer0_0_MEMBER_53_FILL"/>
</g>

<g transform="matrix( 1, 0, 0, 1, 0,0) ">
<use filter="url(#Filter_1)" xlink:href="#Carpeta_de_elementos_duplicados_copia_shape_377_swf_0_Layer0_0_MEMBER_54_FILL"/>
</g>

<g transform="matrix( 1, 0, 0, 1, 0,0) ">
<use filter="url(#Filter_1)" xlink:href="#Carpeta_de_elementos_duplicados_copia_shape_377_swf_0_Layer0_0_MEMBER_55_FILL"/>
</g>

<g transform="matrix( 1, 0, 0, 1, 0,0) ">
<use filter="url(#Filter_1)" xlink:href="#Carpeta_de_elementos_duplicados_copia_shape_377_swf_0_Layer0_0_MEMBER_56_FILL"/>
</g>

<g transform="matrix( 1, 0, 0, 1, 0,0) ">
<use filter="url(#Filter_1)" xlink:href="#Carpeta_de_elementos_duplicados_copia_shape_377_swf_0_Layer0_0_MEMBER_57_FILL"/>
</g>

<g transform="matrix( 1, 0, 0, 1, 0,0) ">
<use filter="url(#Filter_1)" xlink:href="#Carpeta_de_elementos_duplicados_copia_shape_377_swf_0_Layer0_0_MEMBER_58_FILL"/>
</g>
</g>

<g transform="matrix( -0.53265380859375, 0, 0, 0.53265380859375, 460.9,170.95) ">
<g transform="matrix( 0.61956787109375, 0, 0, 0.61956787109375, 265.15,7.7) ">
<g transform="matrix( 1, 0, 0, 1, 0,0) ">
<use xlink:href="#Carpeta_de_elementos_duplicados_copia_S_mbolo_19_2_0_Layer0_0_FILL"/>
</g>

<g transform="matrix( 1, 0, 0, 1, 0,0) ">
<use xlink:href="#Carpeta_de_elementos_duplicados_copia_S_mbolo_19_2_0_Layer0_0_MEMBER_0_FILL"/>
</g>

<g transform="matrix( 1, 0, 0, 1, 0,0) ">
<use xlink:href="#Carpeta_de_elementos_duplicados_copia_S_mbolo_19_2_0_Layer0_0_MEMBER_1_FILL"/>
</g>

<g transform="matrix( 1, 0, 0, 1, 0,0) ">
<use xlink:href="#Carpeta_de_elementos_duplicados_copia_S_mbolo_19_2_0_Layer0_1_FILL"/>
</g>

<g transform="matrix( 1.569580078125, -0.0661163330078125, 0.0661163330078125, 1.569580078125, 94,93.65) "/>
</g>
</g>

<g transform="matrix( 0.622161865234375, 0, 0, 0.835845947265625, 289.55,228.3) ">
<g transform="matrix( 1, 0, 0, 1, 0,0) ">
<use xlink:href="#Carpeta_de_elementos_duplicados_shape_1673_swf_0_Layer0_0_FILL"/>
</g>

<g transform="matrix( 1, 0, 0, 1, 0,0) ">
<use xlink:href="#Carpeta_de_elementos_duplicados_shape_1673_swf_0_Layer0_0_MEMBER_0_FILL"/>
</g>

<g transform="matrix( 1, 0, 0, 1, 0,0) ">
<use xlink:href="#Carpeta_de_elementos_duplicados_shape_1673_swf_0_Layer0_0_MEMBER_1_FILL"/>
</g>

<g transform="matrix( 1, 0, 0, 1, 0,0) ">
<use xlink:href="#Carpeta_de_elementos_duplicados_shape_1673_swf_0_Layer0_0_MEMBER_2_FILL"/>
</g>

<g transform="matrix( 1, 0, 0, 1, 0,-3) ">
<use xlink:href="#Carpeta_de_elementos_duplicados_shape_1673_swf_0_Layer0_0_MEMBER_3_FILL"/>
</g>

<g transform="matrix( 1, 0, 0, 1, 0,0) ">
<use xlink:href="#Carpeta_de_elementos_duplicados_shape_1673_swf_0_Layer0_0_MEMBER_4_FILL"/>
</g>

<g transform="matrix( 1, 0, 0, 1, -1.35,-3.9) ">
<use xlink:href="#Carpeta_de_elementos_duplicados_shape_1673_swf_0_Layer0_0_MEMBER_5_FILL"/>
</g>

<g transform="matrix( 1, 0, 0, 1, 4.85,-6.9) ">
<use xlink:href="#Carpeta_de_elementos_duplicados_shape_1673_swf_0_Layer0_0_MEMBER_6_FILL"/>
</g>

<g transform="matrix( 0.9976043701171875, -0.06915283203125, 0.06915283203125, 0.9976043701171875, 0.15,-6.3) ">
<use xlink:href="#Carpeta_de_elementos_duplicados_shape_1673_swf_0_Layer0_0_MEMBER_7_FILL"/>
</g>

<g transform="matrix( 0.945770263671875, -0.3248291015625, 0.3248291015625, 0.945770263671875, -13.35,-26) ">
<use xlink:href="#Carpeta_de_elementos_duplicados_shape_1673_swf_0_Layer0_0_MEMBER_8_FILL"/>
</g>

<g transform="matrix( 1, 0, 0, 1, 0,0) ">
<use xlink:href="#Carpeta_de_elementos_duplicados_shape_1673_swf_0_Layer0_0_MEMBER_9_FILL"/>
</g>

<g transform="matrix( 1, 0, 0, 1, 0,0) ">
<use xlink:href="#Carpeta_de_elementos_duplicados_shape_1673_swf_0_Layer0_0_MEMBER_10_FILL"/>
</g>

<g transform="matrix( 1, 0, 0, 1, 0.6,2.4) ">
<use xlink:href="#Carpeta_de_elementos_duplicados_shape_1673_swf_0_Layer0_0_MEMBER_11_FILL"/>
</g>

<g transform="matrix( 1, 0, 0, 1, 0.45,-3) ">
<use xlink:href="#Carpeta_de_elementos_duplicados_shape_1673_swf_0_Layer0_0_MEMBER_12_FILL"/>
</g>

<g transform="matrix( 1, 0, 0, 1, 0,-3) ">
<use xlink:href="#Carpeta_de_elementos_duplicados_shape_1673_swf_0_Layer0_0_MEMBER_13_FILL"/>
</g>
</g>
</g>
</g>
</svg>
