
<svg xmlns="http://www.w3.org/2000/svg" version="1.1" xmlns:xlink="http://www.w3.org/1999/xlink" preserveAspectRatio="none" x="0px" y="0px" width="160px" height="160px" viewBox="0 0 160 160">
<defs>
<g id="S_mbolo_840_0_Layer0_0_FILL">
<path fill="#CBF4F1" stroke="none" d="
M 34.45 -78.85
Q 34 -86.85 29 -94.2 20.5 -106.45 2.75 -106.45 -15.3 -106.45 -25.15 -96.1 -28.75 -92.3 -30.7 -87.7 -32.3 -84.05 -32.45 -81.2 -33.25 -63.6 -30.85 -41.35 -28.7 -21.3 -26.85 -18.9 -9.2 -13.4 12.35 -15.6 23.1 -16.7 30.35 -18.95 31.6 -26.4 33.05 -41.25 35.25 -64.6 34.45 -78.85 Z"/>
</g>

<g id="S_mbolo_840_0_Layer0_1_FILL">
<path fill="#6FD1D1" stroke="none" d="
M 27.75 -70.55
Q 23.95 -73.15 15.35 -71.1 6.45 -69.05 -1.55 -63.3 -10.7 -56.8 -14.7 -47.95 -19.4 -37.6 -15.9 -25.75 -20.1 -26.75 -23.5 -36.1
L -25.55 -42.3
Q -26.45 -45.05 -26.8 -44.95 -27.45 -44.8 -25.8 -33.75 -24.1 -22.65 -22.8 -21.9 -18.2 -19.3 4.05 -19.55 26.05 -19.8 28.4 -22.1 30.3 -23.95 27.65 -26.45
L 24.6 -28.65
Q 27.45 -37.75 29.3 -47.5 32.95 -67.1 27.75 -70.55 Z"/>
</g>

<g id="S_mbolo_3_0_Layer0_0_FILL">
<path fill="#376817" stroke="none" d="
M -26.4 -76.7
L -27.1 -74.3
Q -27.6 -71.8 -26.6 -71.35 -25.15 -70.65 -23.95 -68.7 -23.3 -67.7 -23 -66.85 -23.4 -66.75 -24.45 -67.4 -26.55 -68.65 -29.8 -72.1 -29.45 -69.2 -28.15 -67.05 -30 -68.85 -31.5 -69.5 -33.55 -70.4 -34.1 -68.55
L -32.65 -69.05
Q -31.2 -69.2 -31.15 -67.45
L -30.9 -64.45
Q -30.55 -62.95 -29.3 -62.1 -30.75 -61.6 -30.75 -60.05
L -30.2 -60.75
Q -29.45 -61.35 -28.6 -61.05
L -26.1 -60.7 -23.7 -60.95 -22.75 -61.2 -22.2 -60.55 -20.45 -60.65
Q -15.05 -56.15 -11.65 -49.2 -15.2 -53.55 -21.35 -53.9 -22.9 -54 -17.6 -50.55 -12.25 -47.1 -10.55 -46.75
L -9.05 -42.65
Q -10.75 -44.5 -13.5 -46.15 -16.25 -47.8 -16.45 -47.05 -16.7 -46.2 -13.25 -43.5 -9.95 -40.95 -8.4 -40.5 -7.4 -36.9 -6.7 -32.4 -7.25 -32.25 -11.3 -33.5 -10.9 -33.95 -10.75 -35
L -10.65 -36.55 -12.65 -38.15
Q -14.55 -39.6 -14.25 -41.55
L -15.3 -39.55
Q -16.35 -37.4 -16.1 -36.7 -15.75 -35.8 -14 -34.4
L -22.25 -37.3 -22.5 -37.25 -22.4 -37.35
Q -21.6 -39.05 -22.95 -41.2
L -24.5 -43.05
Q -27.85 -44 -31.7 -42.65
L -34.85 -41.1
Q -32.7 -41.9 -30.75 -38.95 -28.4 -35.4 -27.85 -35.2 -26.9 -34.8 -25.5 -35.2 -24.15 -35.55 -23.15 -36.4
L -19.15 -34.75 -21.65 -34.3
Q -22.35 -33.9 -23.45 -32.15
L -24.4 -30.45
Q -22.5 -31.85 -19.8 -30.95 -17.3 -30.05 -17.15 -30.2
L -15.95 -31.65
Q -15.3 -32.75 -15.85 -33.5
L -6.35 -30.1
Q -5.05 -19.5 -6.05 -6.2
L -2.45 -6.2
Q -2.35 -11.2 -2.9 -18.3 -4 -32.5 -7.2 -43.15 -6.6 -43.7 -6.65 -47.6 -6.65 -51.6 -7.6 -51.9 -8.3 -52.15 -8.35 -50.1
L -8.1 -46
Q -12.25 -57.95 -19.1 -63.05 -18.85 -64.2 -19.45 -64.6 -19 -66.1 -19.35 -67.8 -20.65 -73.35 -24.55 -73.55 -25.8 -73.6 -26.2 -75.15
L -26.4 -76.7 Z"/>
</g>

<g id="S_mbolo_3_0_Layer0_1_FILL">
<path fill="#569133" stroke="none" d="
M -22.35 -80.15
Q -20.15 -74.4 -19.4 -73.8 -17 -71.75 -15.55 -71.2 -11.75 -69.75 -7.6 -72.35 -4.7 -85.4 -8.9 -86
L -17.35 -87.05
Q -23.95 -88.05 -25.55 -89.25
L -22.35 -80.15
M 13.55 -68.65
Q 16.55 -76.85 19.15 -81.3 17.55 -82.7 16.75 -82.8
L 16.6 -82.95 16.55 -82.85 14.85 -82.6
Q 14 -82.25 13.95 -81.5 13.95 -80.5 14.95 -79.85 7.9 -65.05 3.6 -34.15 1.5 -18.7 0.75 -6.2
L 4.7 -6.15
Q 4.15 -18.9 5.25 -31.05
L 7.25 -32.35
Q 6.8 -30.05 7.35 -28.65 7.85 -27.35 9.1 -27.1 15.8 -25.8 17.2 -24.6
L 15.75 -29.65
Q 14.7 -32.9 14.3 -33.25 13.3 -34.45 11.2 -34.55
L 12.95 -35.45
Q 16.25 -33.3 18.75 -33.3 21.05 -33.25 22.15 -35.05 27.85 -44.25 30.1 -45.5
L 21.95 -46.1 15.95 -45.95
Q 14.45 -45.2 13.3 -43.6 11.4 -41 11.7 -37.3
L 5.5 -33.25
Q 7.55 -52.2 13.55 -68.65 Z"/>
</g>

<g id="S_mbolo_3_0_Layer0_2_FILL">
<path fill="#85AF4A" stroke="none" d="
M 14.4 -61.9
Q 15.1 -62.35 18.2 -69.15 21.1 -75.45 22.4 -75.55
L 14.6 -75.3
Q 6.55 -74.8 5.3 -73.55 3.65 -71.9 3.2 -68.4 2.8 -65.3 3.5 -63.2 0.7 -58.5 -1.55 -52.95 -2.6 -59.8 -4.55 -67.5
L -7.45 -78.85
Q -10.15 -90.4 -7.6 -99.9 -10.4 -100.75 -12.2 -100.65 -13.2 -101.25 -14.1 -100.4 -15.15 -99.45 -15.15 -97.35 -15.1 -96.65 -14.65 -96.05 -14.2 -95.45 -13.55 -95.2 -13.35 -89.35 -12.3 -83.75 -11.5 -79.55 -9.85 -73.95 -12.7 -75.8 -18.65 -82
L -24 -87.8 -22 -81.95
Q -21.65 -81.15 -18.35 -80
L -18.95 -79.25
Q -19.8 -78.55 -20.95 -78.8 -19.85 -77 -17.95 -76.45
L -16.35 -76.15
Q -16.35 -76 -16.9 -75.75
L -18.75 -74.9
Q -17.35 -73.4 -14.65 -72.6 -11.7 -71.75 -9.5 -72.65 -4.95 -57.3 -3.85 -48.4 -1.75 -31.15 -4.8 -6.15
L -0.75 -6.2
Q 1.25 -28.95 -0.75 -46.85
L 0.95 -52.05
Q 1.5 -50.05 1.9 -49.8 2.35 -49.45 6.3 -49 10.15 -48.25 10.65 -46.55
L 10.4 -51.4
Q 9.85 -56.35 8.05 -57.15 5.75 -58.15 3.35 -57.9
L 5.1 -61.5
Q 7 -60.7 9.45 -60.65 12.35 -60.65 14.4 -61.9 Z"/>
</g>

<g id="S_mbolo_3_0_Layer0_3_FILL">
<path fill="#569133" stroke="none" d="
M 0.9 -101.95
L 4.65 -101.45
Q 9 -100.5 9.55 -99.05 8.4 -102.75 4.7 -104.25
L -2.2 -104.45
Q -4.9 -103.55 -10.15 -105.05
L -14.9 -106.7
Q -16.95 -108.45 -19.6 -107.75 -22.4 -107 -24.05 -103.95 -21.9 -104.95 -18.1 -103.3 -23.9 -100.05 -23.1 -92.35 -20.8 -95.7 -16.3 -97.85 -14.05 -98.95 -12.3 -99.35
L -11.65 -94.6
Q -9.9 -89.25 -4.25 -86.45 -5.2 -92 -4.25 -95.05
L -3.1 -97 2.55 -94.65
Q 8.1 -91.8 7.75 -89.2 9.4 -91.9 6.4 -96.9 3.7 -101.45 0.9 -101.95 Z"/>
</g>

<g id="S_mbolo_3_0_Layer0_4_FILL">
<path fill="#376817" stroke="none" d="
M 20.25 -77.6
Q 21.55 -79.35 21.55 -81.05 22.3 -80.8 23.3 -79.7 24.5 -78.4 24.95 -76.9 25.85 -81.25 23.6 -83.55 21.95 -85.3 19.5 -85.3
L 18.75 -86.35
Q 18.15 -87.45 16.8 -88.3 14.05 -90.05 10.25 -88.95 12.35 -88.4 13.9 -87.1
L 15 -85.9 12.85 -85.5
Q 10.5 -84.7 9.75 -82.85
L 14.7 -82.6
Q 17.6 -82 17.9 -81.2 18.65 -79.35 18.9 -76.2
L 20.25 -77.6 Z"/>
</g>

<g id="S_mbolo_3_0_Layer0_5_FILL">
<path fill="#871734" stroke="none" d="
M -31.15 -68.55
L -30.5 -66.55 -25.2 -63.45
Q -23.55 -63.7 -22.35 -66.9 -21.1 -70.4 -23.15 -72.15 -25.1 -73.8 -28 -73.3 -30.4 -72.85 -30.8 -72.1 -31.6 -70.8 -31.15 -68.55 Z"/>
</g>

<g id="S_mbolo_3_0_Layer0_6_FILL">
<path fill="#BC2050" stroke="none" d="
M -27.5 -70.65
Q -26.5 -72.2 -28.4 -72.8 -29.4 -73.1 -30.2 -71.9 -31.05 -70.7 -29.6 -69.8 -28.5 -69.1 -27.5 -70.65 Z"/>
</g>

<g id="S_mbolo_3_0_Layer0_7_FILL">
<path fill="#ACD866" stroke="none" d="
M -25.85 -72.7
Q -26.25 -72.25 -23.7 -70.95 -21.15 -69.6 -21.1 -70.3 -21 -72 -22.85 -72.9 -24.7 -73.8 -25.85 -72.7
M -11.95 -90.15
Q -13.1 -89.85 -12.85 -86.2 -12.55 -82.5 -11.05 -82.4 -9.5 -82.35 -10.05 -86.4 -10.6 -90.55 -11.95 -90.15
M 3.2 -55.35
Q 4.25 -54.35 9.3 -51.4 10.3 -57.25 6.05 -57.5 4.55 -57.6 3.5 -56.85 2.45 -56.1 3.2 -55.35
M 12.35 -72.6
L 11.45 -71.1 10.75 -74.2 9.35 -72.8
Q 7.9 -70.9 7.75 -68.55 7.45 -68.75 7 -71.2
L 6.6 -73.6 5.05 -71.3
Q 3.8 -68.3 5.3 -64.6
L 5.5 -64.65
Q 7 -66.6 9.4 -68.75 14.25 -73.05 19 -74
L 14 -74.3
Q 13.4 -74.1 12.35 -72.6 Z"/>
</g>

<g id="S_mbolo_3_0_Layer0_8_FILL">
<path fill="#569133" stroke="none" d="
M -27.6 -41.25
Q -24.15 -40 -23.4 -38.95 -22.9 -38.25 -22.85 -39.2 -22.75 -40.15 -23.4 -41.15 -25.4 -44.2 -30.9 -42.3
L -27.6 -41.25
M -24.65 -68.95
L -27.3 -69.45 -23.4 -65.1
Q -21.35 -62.65 -20.55 -62.75 -20.15 -63.05 -20 -63.65 -19.65 -64.9 -20.7 -66.55 -21.75 -68.15 -24.65 -68.95
M -27.25 -64.25
L -29.6 -66.95 -29.3 -65.15
Q -28.65 -63.1 -26.8 -62.05 -25.25 -61.2 -22.5 -61.7
L -22.55 -61.85
Q -24.5 -61.6 -27.25 -64.25 Z"/>
</g>

<g id="S_mbolo_3_0_Layer0_9_FILL">
<path fill="#85AF4A" stroke="none" d="
M -13.65 -52.4
Q -16.05 -54.65 -16.95 -53.65 -17.45 -53.15 -14.9 -50.95 -12.4 -48.8 -11.85 -49.4 -11.25 -50.15 -13.65 -52.4
M -23.35 -66.2
Q -21.85 -65.1 -21.2 -66 -20.55 -66.9 -22.4 -68
L -24.55 -68.1
Q -24.85 -67.3 -23.35 -66.2
M -20.4 -62.9
Q -20.35 -63.1 -21.1 -63.15 -21.75 -63.2 -24.1 -64.45
L -26.35 -65.65
Q -24.6 -63.2 -23.1 -62.65 -22.55 -62.5 -21.2 -62.65 -20.5 -62.75 -20.4 -62.9
M -17.25 -101.7
Q -19.35 -102.9 -21.35 -100.25 -23.4 -97.65 -21.85 -96.45 -20.55 -95.4 -17.9 -98 -15.2 -100.55 -17.25 -101.7
M 25.65 -45.05
Q 22.7 -46.1 19.65 -45.8 13.55 -45.2 13.15 -38.4 13.1 -37 25.65 -45.05
M 8.9 -32.8
Q 8.3 -31.15 10.5 -29.75 12.75 -28.35 13.9 -29.9 15.15 -31.55 12.4 -33.2 9.65 -34.85 8.9 -32.8 Z"/>
</g>

<g id="S_mbolo_3_0_Layer0_10_FILL">
<path fill="#871734" stroke="none" d="
M 6.8 -108.3
Q 11.5 -108.8 12.1 -112.05 12.45 -113.8 10.05 -116.15 8.05 -118.15 6.35 -118.8 6 -121.65 1.8 -123.85 -2.1 -125.85 -6.85 -126.15 -11.8 -126.45 -14.15 -124.6 -16.95 -122.4 -14.95 -118 -19.35 -112.05 -17.45 -105.7 -15.35 -98.45 -5.45 -99.3 -1.55 -95.85 3 -101.75 5.3 -104.65 6.8 -108.3 Z"/>
</g>

<g id="S_mbolo_3_0_Layer0_11_FILL">
<path fill="#BC2050" stroke="none" d="
M -4.7 -101.75
Q -1.9 -104.75 -2.8 -108.1 -3.45 -110.45 -6.45 -114 -10.3 -118.5 -10.95 -119.55 -12.85 -122.65 -11.65 -125.05 -15.15 -122.95 -14.7 -120.4 -14.4 -118.6 -11.5 -115.35 -7.7 -111 -6.65 -109.3 -4.25 -105.45 -4.7 -101.75 Z"/>
</g>

<g id="S_mbolo_3_0_Layer0_12_FILL">
<path fill="#E02D53" stroke="none" d="
M 8.65 -113.65
L 5.3 -113.95
Q 0.65 -114 0.65 -108.55 1.75 -111.05 7.5 -110.8 9.75 -110.7 10.45 -111.2 11.45 -111.9 10.55 -114.3 10.3 -113.5 8.65 -113.65 Z"/>
</g>

<g id="S_mbolo_3_0_Layer0_13_FILL">
<path fill="#E52C5C" stroke="none" d="
M -6.95 -118.4
Q -4.1 -114.4 -2.2 -114.4 -0.45 -114.4 3.2 -116.75 0.4 -117.05 -2.7 -119.1 -6 -121.35 -6.95 -124.05 -9.95 -122.6 -6.95 -118.4 Z"/>
</g>

<g id="S_mbolo_3_0_Layer0_14_FILL">
<path fill="#BC2050" stroke="none" d="
M 3.2 -118.35
Q 5.05 -118.2 4.75 -120.2 4.5 -122.15 1.9 -121.95 3.2 -120.7 3.2 -118.35 Z"/>
</g>

<g id="S_mbolo_3_0_Layer0_15_FILL">
<path fill="#BC2050" stroke="none" d="
M -4.4 -122.95
Q -4.3 -121.5 -1.65 -120.6 0.85 -119.8 0.55 -121.7 0.25 -123.7 -1.7 -124 -4.5 -124.45 -4.4 -122.95 Z"/>
</g>

<g id="S_mbolo_3_0_Layer0_16_FILL">
<path fill="#E52C5C" stroke="none" d="
M -6.45 -113.6
Q -6.9 -115.05 -8.7 -115.75 -10.5 -116.5 -9.9 -114.3 -9.25 -111.95 -7.5 -111.65 -5.75 -111.35 -6.45 -113.6 Z"/>
</g>

<g id="S_mbolo_3_0_Layer0_17_FILL">
<path fill="#BC2050" stroke="none" d="
M -15.95 -114.55
Q -17.35 -113.85 -17.3 -109.75 -17.25 -105.55 -15.45 -104.3 -13.8 -103.15 -11.55 -103.95 -9.75 -104.6 -9.1 -105.65 -8.55 -106.5 -11.55 -110.85 -14.55 -115.25 -15.95 -114.55 Z"/>
</g>

<g id="S_mbolo_840_0_Layer0_2_FILL">
<path fill="#37A1A0" stroke="none" d="
M 3.7 -19.75
Q 24.35 -19.85 24.4 -22.3 24.45 -24.05 18 -24.9
L 3.7 -25.45 -10.6 -24.25
Q -17.1 -23.2 -17 -21.65 -16.95 -19.65 3.7 -19.75 Z"/>
</g>

<g id="S_mbolo_840_0_Layer0_3_FILL">
<path fill="#37A1A0" stroke="none" d="
M 6.9 -39.65
Q 2.7 -35.3 1.6 -30.4 0.35 -24.85 3.8 -21.1 4.95 -19.8 9 -22.35 12.65 -24.75 16.8 -29.05 21.15 -33.55 23.25 -37.3 25.65 -41.6 24.15 -43.2 20.9 -46.5 15.75 -45.2 11.05 -43.95 6.9 -39.65 Z"/>
</g>

<g id="S_mbolo_840_0_Layer0_4_FILL">
<path fill="#37A1A0" stroke="none" d="
M -5.85 -35.1
Q -6.55 -33.75 -6.2 -31.8 -5.85 -29.85 -4.85 -28.65 -3.75 -27.3 -2.45 -27.7 -0.4 -28.35 -0.4 -32.45 -0.4 -36.7 -3.3 -36.7 -5.1 -36.7 -5.85 -35.1 Z"/>
</g>

<g id="S_mbolo_840_0_Layer0_5_FILL">
<path fill="#37A1A0" stroke="none" d="
M -10.7 -34.15
Q -10.4 -32.6 -9.2 -32.75 -7.95 -32.95 -8.15 -34.4 -8.35 -35.85 -9.65 -35.7 -10.85 -35.5 -10.7 -34.15 Z"/>
</g>

<g id="S_mbolo_840_0_Layer0_6_FILL">
<path fill="#C67F17" stroke="none" d="
M 1.55 -21.8
Q 11.8 -22.2 11.8 -23.35 11.8 -24.5 8.45 -26.3 4.95 -28.2 1.45 -28.6 -1.85 -28.95 -6 -26.2 -9.9 -23.6 -9.25 -22.45 -8.6 -21.4 1.55 -21.8 Z"/>
</g>

<g id="S_mbolo_840_0_Layer0_7_FILL">
<path fill="#70D4D3" stroke="none" d="
M 5.5 -84.65
Q 22.25 -90.45 19.45 -95.75 17.75 -98.95 12.2 -100.8 6.8 -102.55 -0.05 -102.3 -7.3 -102 -13.4 -99.45 -20.25 -96.6 -24 -91.45 -27.9 -86.1 -27.9 -72.7 -27.9 -65.95 -27.1 -60.35 -27 -60.35 -23.45 -67.85 -19.75 -75.6 -16.25 -77.6 -14.65 -78.55 -7.6 -80.65
L 5.5 -84.65 Z"/>
</g>

<g id="S_mbolo_840_0_Layer0_8_FILL">
<path fill="#965B06" stroke="none" d="
M 4 -27.5
Q 3.1 -27.45 3.2 -26.5 3.3 -25.6 4.15 -24.65 6.4 -22 8.9 -23.35 11.35 -24.6 8.65 -26.2 6.15 -27.7 4 -27.5 Z"/>
</g>

<g id="S_mbolo_840_0_Layer0_9_FILL">
<path fill="#FFFFFF" stroke="none" d="
M 30.55 -51.5
Q 31.85 -72.6 30.45 -73 30.05 -73.15 29.75 -70.35
L 28.65 -62.25
Q 26.2 -47.9 18.85 -34.7 14.95 -27.65 7 -24.2
L 2.4 -22.6
Q 0.8 -22.1 1.25 -21.85 2.9 -21 13.6 -21.85 25.2 -22.65 26.65 -25.25 29.2 -29.9 30.55 -51.5 Z"/>
</g>

<g id="S_mbolo_840_0_Layer0_10_FILL">
<path fill="#774400" stroke="none" d="
M 31.6 -9.95
Q 32.2 -11.4 1.5 -11.2 -29.2 -11.05 -28.2 -9.65 -31.35 -8.95 -32.4 -6.2 -33.45 -3.5 -31.25 -2.45 -24.65 0.75 1.45 0.75 27.55 0.75 34.2 -2.45 36.2 -3.35 35.75 -6.1 35.3 -9.1 31.6 -9.95 Z"/>
</g>

<g id="S_mbolo_840_0_Layer0_11_FILL">
<path fill="#C67F17" stroke="none" d="
M 31.05 -20.25
Q 19 -18.1 1.25 -18.05 -16.6 -17.9 -27.3 -19.95 -28.6 -20.25 -30.05 -18.55 -31.5 -16.8 -30.5 -15.3 -33.9 -14.55 -35 -11.4 -36.1 -8.3 -33.8 -7.1 -26.7 -3.45 1.15 -3.45 29 -3.45 36.15 -7.1 38.25 -8.15 37.8 -11.3 37.3 -14.65 33.35 -15.7 33.95 -17.15 32.85 -18.8 31.85 -20.4 31.05 -20.25 Z"/>
</g>

<g id="S_mbolo_840_0_Layer0_12_FILL">
<path fill="#F4A931" stroke="none" d="
M 16.55 -15.2
Q 18 -15.55 17.95 -16.7 17.9 -17.85 16.2 -17.8 7.1 -17.6 -3.9 -17.9 -18.6 -18.35 -24.75 -19.6 -27.15 -20.05 -28 -18.4 -28.8 -16.8 -26.8 -16.15 -19.65 -13.8 -2.75 -13.95 11.9 -14.05 16.55 -15.2 Z"/>
</g>

<g id="S_mbolo_840_0_Layer0_13_FILL">
<path fill="#F4A931" stroke="none" d="
M 19.45 -17.05
Q 19.8 -15.05 23.45 -15.55 27.15 -16.15 26.65 -17.9 26.2 -19.6 22.7 -19.1 19.2 -18.6 19.45 -17.05 Z"/>
</g>

<g id="S_mbolo_840_0_Layer0_14_FILL">
<path fill="#FFEA3C" stroke="none" d="
M -24.75 -17.55
Q -25.65 -15 -16.15 -14.3 -12.35 -14.05 -9.55 -14.4 -6.45 -14.8 -6.4 -15.85 -6.25 -17.4 -15.15 -18.35 -24.05 -19.35 -24.75 -17.55 Z"/>
</g>

<g id="S_mbolo_840_0_Layer0_15_FILL">
<path fill="#FFEA3C" stroke="none" d="
M -4.35 -15.85
Q -4.2 -13.65 -1.4 -14.05 1.35 -14.5 1.1 -16.5 0.9 -17.95 -1.8 -17.75 -4.5 -17.6 -4.35 -15.85 Z"/>
</g>

<g id="S_mbolo_840_0_Layer0_16_FILL">
<path fill="#FFFFFF" stroke="none" d="
M -23.45 -17.45
Q -23.6 -15.6 -19 -15.15 -14.4 -14.7 -14.2 -16.6 -14 -18.45 -18.65 -18.8 -23.3 -19.15 -23.45 -17.45 Z"/>
</g>

<g id="S_mbolo_840_0_Layer0_17_FILL">
<path fill="#F4A931" stroke="none" d="
M 23.25 -7.9
Q 24.95 -8.3 25.3 -10.1 25.65 -11.85 24 -11.75 13.4 -11.15 2.25 -11.3 -16.55 -11.5 -27.65 -13.85 -31.3 -14.65 -33.15 -11.9 -33.9 -10.85 -33.6 -9.85 -33.2 -8.8 -31.65 -8.4 -19.5 -5.45 -2.05 -5.55 13.55 -5.7 23.25 -7.9 Z"/>
</g>

<g id="S_mbolo_840_0_Layer0_18_FILL">
<path fill="#FFEA3C" stroke="none" d="
M 4.35 -7.1
Q 5.85 -7.5 6.25 -9.05 6.65 -10.55 5.3 -10.65
L -14.65 -11.9 -26.4 -13.35
Q -30.95 -13.9 -31.1 -11.3 -31.25 -8.75 -27.9 -8.05 -18.65 -6 -7.75 -6.05 0.9 -6.1 4.35 -7.1 Z"/>
</g>

<g id="S_mbolo_840_0_Layer0_19_FILL">
<path fill="#FFFFFF" stroke="none" d="
M -27.45 -10.6
Q -27.7 -8 -20.3 -7.35 -12.95 -6.75 -12.6 -9.4 -12.3 -12.05 -19.75 -12.55
L -24.95 -12.25
Q -27.35 -11.75 -27.45 -10.6 Z"/>
</g>

<g id="S_mbolo_840_0_Layer0_20_FILL">
<path fill="#FFFFFF" stroke="none" d="
M -10.75 -8.65
Q -10.6 -6.5 -7.75 -6.65 -4.9 -6.8 -4.95 -8.95 -5.05 -11.15 -7.95 -11.05 -10.9 -10.95 -10.75 -8.65 Z"/>
</g>

<g id="S_mbolo_840_0_Layer0_21_FILL">
<path fill="#FFEA3C" stroke="none" d="
M 9.1 -10.45
Q 8.4 -10.25 8.5 -8.55 8.6 -6.9 9.45 -6.9
L 13.4 -7.45
Q 16.45 -8.1 16.35 -8.95 16.35 -9.8 12.9 -10.25
L 9.1 -10.45 Z"/>
</g>

<g id="S_mbolo_840_0_Layer0_22_FILL">
<path fill="#965B06" stroke="none" d="
M -30 -14.5
L -28.35 -14.3 -27 -14.45
Q -26.95 -14.65 -28.45 -15.6
L -30.4 -16.65
Q -30.75 -16.7 -30.55 -15.7 -30.4 -14.7 -30 -14.5 Z"/>
</g>

<g id="S_mbolo_840_0_Layer0_23_FILL">
<path fill="#965B06" stroke="none" d="
M 33.35 -15.7
Q 34.2 -17.3 33 -18.95 32.1 -20.2 31.3 -20.3
L 29.9 -20.05 29 -19.75
Q 29.65 -19.95 30.2 -19.25 30.85 -18.5 30.6 -17.4 30 -14.4 23.6 -12.85
L 26.2 -12.75
Q 28.1 -12.3 27.8 -10.55 27.15 -6.75 21.2 -4.95
L 15.35 -3.8 24.3 -4.5
Q 33.85 -5.55 36.5 -7.25 38.4 -8.5 37.8 -11.6 37.1 -14.95 33.35 -15.7 Z"/>
</g>

<g id="S_mbolo_840_0_Layer0_24_FILL">
<path fill="#FFFFFF" stroke="none" d="
M -1.4 -99.05
Q -5.25 -102.95 -11.2 -101.95 -16.55 -101.1 -21.3 -97 -26.05 -92.9 -27.15 -88.3 -28.45 -83.15 -24.35 -80.05 -20.85 -77.35 -15.1 -78.3 -9.8 -79.2 -5.1 -82.6 -0.25 -86.15 1.05 -90.4 2.5 -95.2 -1.4 -99.05 Z"/>
</g>

<g id="S_mbolo_840_0_Layer0_25_FILL">
<path fill="#FFFFFF" stroke="none" d="
M 5.8 -87.05
Q 7 -86.4 8.5 -87.25 9.9 -88 10.8 -89.5 13 -93.45 9.05 -95.15
L 6.05 -95
Q 4.75 -94.3 4.05 -92.7 3.35 -91.1 3.7 -89.6 4.15 -87.9 5.8 -87.05 Z"/>
</g>
</defs>

<g transform="matrix( 1.40301513671875, 0, 0, 1.40301513671875, 80.25,159.3) ">
<g transform="matrix( 1, 0, 0, 1, 0,0) ">
<use xlink:href="#S_mbolo_840_0_Layer0_0_FILL"/>
</g>

<g transform="matrix( 1, 0, 0, 1, 0,0) ">
<use xlink:href="#S_mbolo_840_0_Layer0_1_FILL"/>
</g>

<g transform="matrix( 0.44769287109375, 0, 0, 0.44769287109375, 2.6,-23) ">
<g transform="matrix( 1, 0, 0, 1, 0,0) ">
<use xlink:href="#S_mbolo_3_0_Layer0_0_FILL"/>
</g>

<g transform="matrix( 1, 0, 0, 1, 0,0) ">
<use xlink:href="#S_mbolo_3_0_Layer0_1_FILL"/>
</g>

<g transform="matrix( 1, 0, 0, 1, 0,0) ">
<use xlink:href="#S_mbolo_3_0_Layer0_2_FILL"/>
</g>

<g transform="matrix( 1, 0, 0, 1, 0,0) ">
<use xlink:href="#S_mbolo_3_0_Layer0_3_FILL"/>
</g>

<g transform="matrix( 1, 0, 0, 1, 0,0) ">
<use xlink:href="#S_mbolo_3_0_Layer0_4_FILL"/>
</g>

<g transform="matrix( 1, 0, 0, 1, 0,0) ">
<use xlink:href="#S_mbolo_3_0_Layer0_5_FILL"/>
</g>

<g transform="matrix( 1, 0, 0, 1, 0,0) ">
<use xlink:href="#S_mbolo_3_0_Layer0_6_FILL"/>
</g>

<g transform="matrix( 1, 0, 0, 1, 0,0) ">
<use xlink:href="#S_mbolo_3_0_Layer0_7_FILL"/>
</g>

<g transform="matrix( 1, 0, 0, 1, 0,0) ">
<use xlink:href="#S_mbolo_3_0_Layer0_8_FILL"/>
</g>

<g transform="matrix( 1, 0, 0, 1, 0,0) ">
<use xlink:href="#S_mbolo_3_0_Layer0_9_FILL"/>
</g>

<g transform="matrix( 1, 0, 0, 1, 0,0) ">
<use xlink:href="#S_mbolo_3_0_Layer0_10_FILL"/>
</g>

<g transform="matrix( 1, 0, 0, 1, 0,0) ">
<use xlink:href="#S_mbolo_3_0_Layer0_11_FILL"/>
</g>

<g transform="matrix( 1, 0, 0, 1, 0,0) ">
<use xlink:href="#S_mbolo_3_0_Layer0_12_FILL"/>
</g>

<g transform="matrix( 1, 0, 0, 1, 0,0) ">
<use xlink:href="#S_mbolo_3_0_Layer0_13_FILL"/>
</g>

<g transform="matrix( 1, 0, 0, 1, 0,0) ">
<use xlink:href="#S_mbolo_3_0_Layer0_14_FILL"/>
</g>

<g transform="matrix( 1, 0, 0, 1, 0,0) ">
<use xlink:href="#S_mbolo_3_0_Layer0_15_FILL"/>
</g>

<g transform="matrix( 1, 0, 0, 1, 0,0) ">
<use xlink:href="#S_mbolo_3_0_Layer0_16_FILL"/>
</g>

<g transform="matrix( 1, 0, 0, 1, 0,0) ">
<use xlink:href="#S_mbolo_3_0_Layer0_17_FILL"/>
</g>
</g>

<g transform="matrix( 1, 0, 0, 1, 0,0) ">
<use xlink:href="#S_mbolo_840_0_Layer0_2_FILL"/>
</g>

<g transform="matrix( 1, 0, 0, 1, 0,0) ">
<use xlink:href="#S_mbolo_840_0_Layer0_3_FILL"/>
</g>

<g transform="matrix( 1, 0, 0, 1, 0,0) ">
<use xlink:href="#S_mbolo_840_0_Layer0_4_FILL"/>
</g>

<g transform="matrix( 1, 0, 0, 1, 0,0) ">
<use xlink:href="#S_mbolo_840_0_Layer0_5_FILL"/>
</g>

<g transform="matrix( 1, 0, 0, 1, 0,0) ">
<use xlink:href="#S_mbolo_840_0_Layer0_6_FILL"/>
</g>

<g transform="matrix( 1, 0, 0, 1, 0,0) ">
<use xlink:href="#S_mbolo_840_0_Layer0_7_FILL"/>
</g>

<g transform="matrix( 1, 0, 0, 1, 0,0) ">
<use xlink:href="#S_mbolo_840_0_Layer0_8_FILL"/>
</g>

<g transform="matrix( 1, 0, 0, 1, 0,0) ">
<use xlink:href="#S_mbolo_840_0_Layer0_9_FILL"/>
</g>

<g transform="matrix( 1, 0, 0, 1, 0,0) ">
<use xlink:href="#S_mbolo_840_0_Layer0_10_FILL"/>
</g>

<g transform="matrix( 1, 0, 0, 1, 0,0) ">
<use xlink:href="#S_mbolo_840_0_Layer0_11_FILL"/>
</g>

<g transform="matrix( 1, 0, 0, 1, 0,0) ">
<use xlink:href="#S_mbolo_840_0_Layer0_12_FILL"/>
</g>

<g transform="matrix( 1, 0, 0, 1, 0,0) ">
<use xlink:href="#S_mbolo_840_0_Layer0_13_FILL"/>
</g>

<g transform="matrix( 1, 0, 0, 1, 0,0) ">
<use xlink:href="#S_mbolo_840_0_Layer0_14_FILL"/>
</g>

<g transform="matrix( 1, 0, 0, 1, 0,0) ">
<use xlink:href="#S_mbolo_840_0_Layer0_15_FILL"/>
</g>

<g transform="matrix( 1, 0, 0, 1, 0,0) ">
<use xlink:href="#S_mbolo_840_0_Layer0_16_FILL"/>
</g>

<g transform="matrix( 1, 0, 0, 1, 0,0) ">
<use xlink:href="#S_mbolo_840_0_Layer0_17_FILL"/>
</g>

<g transform="matrix( 1, 0, 0, 1, 0,0) ">
<use xlink:href="#S_mbolo_840_0_Layer0_18_FILL"/>
</g>

<g transform="matrix( 1, 0, 0, 1, 0,0) ">
<use xlink:href="#S_mbolo_840_0_Layer0_19_FILL"/>
</g>

<g transform="matrix( 1, 0, 0, 1, 0,0) ">
<use xlink:href="#S_mbolo_840_0_Layer0_20_FILL"/>
</g>

<g transform="matrix( 1, 0, 0, 1, 0,0) ">
<use xlink:href="#S_mbolo_840_0_Layer0_21_FILL"/>
</g>

<g transform="matrix( 1, 0, 0, 1, 0,0) ">
<use xlink:href="#S_mbolo_840_0_Layer0_22_FILL"/>
</g>

<g transform="matrix( 1, 0, 0, 1, 0,0) ">
<use xlink:href="#S_mbolo_840_0_Layer0_23_FILL"/>
</g>

<g transform="matrix( 1, 0, 0, 1, 0,0) ">
<use xlink:href="#S_mbolo_840_0_Layer0_24_FILL"/>
</g>

<g transform="matrix( 1, 0, 0, 1, 0,0) ">
<use xlink:href="#S_mbolo_840_0_Layer0_25_FILL"/>
</g>
</g>
</svg>
