
<svg xmlns="http://www.w3.org/2000/svg" version="1.1" xmlns:xlink="http://www.w3.org/1999/xlink" preserveAspectRatio="none" x="0px" y="0px" width="160px" height="160px" viewBox="0 0 160 160">
<defs>
<g id="S_mbolo_840_0_Layer0_0_FILL">
<path fill="#CBF4F1" stroke="none" d="
M 34.45 -78.85
Q 34 -86.85 29 -94.2 20.5 -106.45 2.75 -106.45 -15.3 -106.45 -25.15 -96.1 -28.75 -92.3 -30.7 -87.7 -32.3 -84.05 -32.45 -81.2 -33.25 -63.6 -30.85 -41.35 -28.7 -21.3 -26.85 -18.9 -9.2 -13.4 12.35 -15.6 23.1 -16.7 30.35 -18.95 31.6 -26.4 33.05 -41.25 35.25 -64.6 34.45 -78.85 Z"/>
</g>

<g id="S_mbolo_840_0_Layer0_1_FILL">
<path fill="#6FD1D1" stroke="none" d="
M 27.75 -70.55
Q 23.95 -73.15 15.35 -71.1 6.45 -69.05 -1.55 -63.3 -10.7 -56.8 -14.7 -47.95 -19.4 -37.6 -15.9 -25.75 -20.1 -26.75 -23.5 -36.1
L -25.55 -42.3
Q -26.45 -45.05 -26.8 -44.95 -27.45 -44.8 -25.8 -33.75 -24.1 -22.65 -22.8 -21.9 -18.2 -19.3 4.05 -19.55 26.05 -19.8 28.4 -22.1 30.3 -23.95 27.65 -26.45
L 24.6 -28.65
Q 27.45 -37.75 29.3 -47.5 32.95 -67.1 27.75 -70.55 Z"/>
</g>

<g id="S_mbolo_840_0_Layer0_2_FILL">
<path fill="#37A1A0" stroke="none" d="
M 3.7 -19.75
Q 24.35 -19.85 24.4 -22.3 24.45 -24.05 18 -24.9
L 3.7 -25.45 -10.6 -24.25
Q -17.1 -23.2 -17 -21.65 -16.95 -19.65 3.7 -19.75 Z"/>
</g>

<g id="S_mbolo_840_0_Layer0_3_FILL">
<path fill="#37A1A0" stroke="none" d="
M 6.9 -39.65
Q 2.7 -35.3 1.6 -30.4 0.35 -24.85 3.8 -21.1 4.95 -19.8 9 -22.35 12.65 -24.75 16.8 -29.05 21.15 -33.55 23.25 -37.3 25.65 -41.6 24.15 -43.2 20.9 -46.5 15.75 -45.2 11.05 -43.95 6.9 -39.65 Z"/>
</g>

<g id="S_mbolo_840_0_Layer0_4_FILL">
<path fill="#37A1A0" stroke="none" d="
M -5.85 -35.1
Q -6.55 -33.75 -6.2 -31.8 -5.85 -29.85 -4.85 -28.65 -3.75 -27.3 -2.45 -27.7 -0.4 -28.35 -0.4 -32.45 -0.4 -36.7 -3.3 -36.7 -5.1 -36.7 -5.85 -35.1 Z"/>
</g>

<g id="S_mbolo_840_0_Layer0_5_FILL">
<path fill="#37A1A0" stroke="none" d="
M -10.7 -34.15
Q -10.4 -32.6 -9.2 -32.75 -7.95 -32.95 -8.15 -34.4 -8.35 -35.85 -9.65 -35.7 -10.85 -35.5 -10.7 -34.15 Z"/>
</g>

<g id="S_mbolo_840_0_Layer0_6_FILL">
<path fill="#C67F17" stroke="none" d="
M 1.55 -21.8
Q 11.8 -22.2 11.8 -23.35 11.8 -24.5 8.45 -26.3 4.95 -28.2 1.45 -28.6 -1.85 -28.95 -6 -26.2 -9.9 -23.6 -9.25 -22.45 -8.6 -21.4 1.55 -21.8 Z"/>
</g>

<g id="S_mbolo_840_0_Layer0_7_FILL">
<path fill="#70D4D3" stroke="none" d="
M 5.5 -84.65
Q 22.25 -90.45 19.45 -95.75 17.75 -98.95 12.2 -100.8 6.8 -102.55 -0.05 -102.3 -7.3 -102 -13.4 -99.45 -20.25 -96.6 -24 -91.45 -27.9 -86.1 -27.9 -72.7 -27.9 -65.95 -27.1 -60.35 -27 -60.35 -23.45 -67.85 -19.75 -75.6 -16.25 -77.6 -14.65 -78.55 -7.6 -80.65
L 5.5 -84.65 Z"/>
</g>

<g id="S_mbolo_840_0_Layer0_8_FILL">
<path fill="#965B06" stroke="none" d="
M 4 -27.5
Q 3.1 -27.45 3.2 -26.5 3.3 -25.6 4.15 -24.65 6.4 -22 8.9 -23.35 11.35 -24.6 8.65 -26.2 6.15 -27.7 4 -27.5 Z"/>
</g>

<g id="S_mbolo_840_0_Layer0_9_FILL">
<path fill="#FFFFFF" stroke="none" d="
M 30.55 -51.5
Q 31.85 -72.6 30.45 -73 30.05 -73.15 29.75 -70.35
L 28.65 -62.25
Q 26.2 -47.9 18.85 -34.7 14.95 -27.65 7 -24.2
L 2.4 -22.6
Q 0.8 -22.1 1.25 -21.85 2.9 -21 13.6 -21.85 25.2 -22.65 26.65 -25.25 29.2 -29.9 30.55 -51.5 Z"/>
</g>

<g id="S_mbolo_840_0_Layer0_10_FILL">
<path fill="#FFFFFF" stroke="none" d="
M -4.05 -22
Q -4 -20.7 -1.8 -20.85 0.4 -20.95 0.35 -22.05 0.2 -23.05 -1.95 -23.05 -4.05 -23 -4.05 -22 Z"/>
</g>

<g id="S_mbolo_840_0_Layer0_11_FILL">
<path fill="#197B19" stroke="none" d="
M 1.65 -53.4
Q 22.15 -53.6 23.6 -54.8 25.05 -56.05 25.7 -68.7 26.35 -81.4 24.9 -82.75 23.35 -84.2 1.15 -83.9 -21.1 -83.6 -22.3 -82 -23.25 -80.65 -22.8 -68.3 -22.35 -55.6 -20.7 -54.45 -18.9 -53.2 1.65 -53.4 Z"/>
</g>

<g id="S_mbolo_840_0_Layer0_12_FILL">
<path fill="#239523" stroke="none" d="
M 6.95 -62.7
Q 15.2 -65.9 19.6 -69.8 24.8 -74.35 23.5 -79.05 22.65 -82.25 1.45 -82.25
L -19.85 -81.45
Q -20.35 -80.95 -20.75 -77.8 -21.15 -74.35 -21.05 -70.65 -20.8 -60.55 -16.9 -58.65 -14.65 -57.55 -7.55 -58.75 -0.3 -59.95 6.95 -62.7 Z"/>
</g>

<g id="S_mbolo_840_0_Layer0_13_FILL">
<path fill="#2DA52D" stroke="none" d="
M 4 -70.4
Q 19.85 -73.95 17.9 -79.35 17.25 -81.25 -0.65 -81.5 -17.8 -81.7 -18.6 -81.25 -19.65 -80.35 -19.1 -75.4 -18.5 -69.95 -15.55 -68.85
L -7.95 -68.6
Q -1.95 -69.05 4 -70.4 Z"/>
</g>

<g id="S_mbolo_840_0_Layer0_14_FILL">
<path fill="#AD8812" stroke="none" d="
M -17.3 -74.65
Q -17.95 -74.05 -17.75 -71.1 -17.45 -68.2 -17 -68
L -12 -67.7 -7.15 -68.1
Q -6.75 -68.6 -6.7 -71.3 -6.6 -74.15 -7.3 -74.65
L -12.35 -75.1 -17.3 -74.65 Z"/>
</g>

<g id="S_mbolo_840_0_Layer0_15_FILL">
<path fill="#FFD31A" stroke="none" d="
M -16.85 -74.6
Q -17.45 -73.9 -17.15 -71.8 -16.85 -69.5 -15.65 -69.55 -13.7 -69.6 -10.25 -71.7 -6.85 -73.9 -7.6 -74.5
L -12.25 -74.85 -16.85 -74.6 Z"/>
</g>

<g id="S_mbolo_840_0_Layer0_16_FILL">
<path fill="#FFF53E" stroke="none" d="
M -9.3 -74.65
L -16.45 -74.75
Q -16.9 -74.3 -16.7 -72.8 -16.4 -71.2 -15.5 -71.25 -14 -71.25 -11.3 -72.75 -8.7 -74.25 -9.3 -74.65 Z"/>
</g>

<g id="S_mbolo_840_0_Layer0_17_FILL">
<path fill="#AD8812" stroke="none" d="
M -15.2 -73.3
Q -15.65 -73.3 -15.7 -71.2 -15.8 -69.1 -14.95 -69.05 -14.55 -69.05 -14.55 -71.2 -14.55 -73.35 -15.2 -73.3 Z"/>
</g>

<g id="S_mbolo_840_0_Layer0_18_FILL">
<path fill="#AD8812" stroke="none" d="
M -10.35 -73.45
Q -10.9 -73.4 -10.95 -72.15 -10.95 -70.8 -10.4 -70.85 -10 -70.85 -9.9 -72.15 -9.8 -73.45 -10.35 -73.45 Z"/>
</g>

<g id="S_mbolo_840_0_Layer0_19_FILL">
<path fill="#FFD31A" stroke="none" d="
M -15.2 -69.4
Q -15.7 -69.35 -15.7 -68.9 -15.7 -68.45 -15.25 -68.45 -14.75 -68.45 -14.8 -68.9 -14.8 -69.45 -15.2 -69.4 Z"/>
</g>

<g id="S_mbolo_840_0_Layer0_20_FILL">
<path fill="#FFD31A" stroke="none" d="
M -10.4 -70.65
Q -10.85 -70.55 -10.85 -69.5 -10.9 -68.4 -10.4 -68.45 -9.75 -68.45 -9.9 -69.6 -10.05 -70.75 -10.4 -70.65 Z"/>
</g>

<g id="S_mbolo_840_0_Layer0_21_FILL">
<path fill="#FFD31A" stroke="none" d="
M -9.2 -70.65
Q -9.2 -70.05 -8.05 -70.05 -6.9 -70 -6.95 -70.65 -7 -71.05 -8.05 -71.05 -9.15 -71.05 -9.2 -70.65 Z"/>
</g>

<g id="S_mbolo_840_0_Layer0_22_FILL">
<path fill="#DADADA" stroke="none" d="
M -19.2 -60.6
Q -18.6 -60.65 -18.5 -60.8
L -18.35 -62.55
Q -18.35 -64.1 -18.55 -64.35
L -19.35 -64.65 -20.1 -64.35 -20.25 -62.55
Q -20.25 -61 -20.05 -60.8 -19.85 -60.55 -19.2 -60.6 Z"/>
</g>

<g id="S_mbolo_840_0_Layer0_23_FILL">
<path fill="#EAEAEA" stroke="none" d="
M -16.85 -60.65
Q -16.2 -60.65 -16.1 -60.85
L -16 -62.6
Q -16 -64.15 -16.15 -64.4
L -17 -64.65 -17.75 -64.35 -17.9 -62.6
Q -17.9 -61.05 -17.7 -60.8
L -16.85 -60.65 Z"/>
</g>

<g id="S_mbolo_840_0_Layer0_24_FILL">
<path fill="#F4F4F4" stroke="none" d="
M -14.55 -60.65
Q -13.9 -60.7 -13.85 -60.9
L -13.7 -62.6
Q -13.7 -64.2 -13.9 -64.4 -14.05 -64.65 -14.7 -64.65 -15.3 -64.65 -15.4 -64.4
L -15.55 -62.6 -15.4 -60.85 -14.55 -60.65 Z"/>
</g>

<g id="S_mbolo_840_0_Layer0_25_FILL">
<path fill="#F4F4F4" stroke="none" d="
M -12.15 -60.7
Q -11.55 -60.75 -11.4 -60.95
L -11.3 -62.6
Q -11.3 -64.2 -11.5 -64.45
L -12.3 -64.7 -13.05 -64.45 -13.2 -62.65
Q -13.2 -61.1 -13 -60.9 -12.75 -60.65 -12.15 -60.7 Z"/>
</g>

<g id="S_mbolo_840_0_Layer0_26_FILL">
<path fill="#F4F4F4" stroke="none" d="
M -7.65 -60.8
L -6.95 -60.95 -6.85 -62.7
Q -6.85 -64.25 -7 -64.5 -7.15 -64.8 -7.8 -64.8 -8.45 -64.8 -8.55 -64.5
L -8.7 -62.7
Q -8.7 -61.15 -8.5 -60.95
L -7.65 -60.8 Z"/>
</g>

<g id="S_mbolo_840_0_Layer0_27_FILL">
<path fill="#F4F4F4" stroke="none" d="
M -4.65 -64.55
Q -4.8 -64.8 -5.45 -64.8
L -6.2 -64.5 -6.35 -62.75
Q -6.35 -61.2 -6.15 -60.95
L -5.3 -60.8 -4.6 -61
Q -4.35 -64.2 -4.65 -64.55 Z"/>
</g>

<g id="S_mbolo_840_0_Layer0_28_FILL">
<path fill="#F4F4F4" stroke="none" d="
M -3 -60.8
Q -2.4 -60.85 -2.3 -61.05 -2.1 -64.2 -2.35 -64.55
L -3.15 -64.8 -3.9 -64.55 -4.05 -62.75
Q -4.05 -61.25 -3.85 -61
L -3 -60.8 Z"/>
</g>

<g id="S_mbolo_840_0_Layer0_29_FILL">
<path fill="#EAEAEA" stroke="none" d="
M 0.2 -62.75
L 0.05 -64.6
Q -0.1 -64.85 -0.75 -64.85
L -1.5 -64.6 -1.65 -62.8
Q -1.65 -61.25 -1.45 -61.05 -1.25 -60.8 -0.6 -60.85 0.05 -60.9 0.1 -61.1
L 0.2 -62.75 Z"/>
</g>

<g id="S_mbolo_840_0_Layer0_30_FILL">
<path fill="#EAEAEA" stroke="none" d="
M 3.9 -60.95
L 4.6 -61.1 4.75 -62.85 4.6 -64.65
Q 4.4 -64.95 3.75 -64.95 3.15 -64.95 3 -64.65
L 2.85 -62.85
Q 2.85 -61.35 3.05 -61.1
L 3.9 -60.95 Z"/>
</g>

<g id="S_mbolo_840_0_Layer0_31_FILL">
<path fill="#EAEAEA" stroke="none" d="
M 6.25 -60.95
Q 6.9 -60.95 6.95 -61.15
L 7.1 -62.85 6.95 -64.7 6.1 -64.95
Q 5.5 -64.95 5.35 -64.65
L 5.25 -62.85
Q 5.25 -61.35 5.45 -61.1
L 6.25 -60.95 Z"/>
</g>

<g id="S_mbolo_840_0_Layer0_32_FILL">
<path fill="#DADADA" stroke="none" d="
M 8.55 -60.95
Q 9.2 -61 9.3 -61.2
L 9.4 -62.85 9.25 -64.7 8.4 -64.95 7.7 -64.7
Q 7.55 -64.35 7.55 -62.9 7.55 -61.4 7.7 -61.15
L 8.55 -60.95 Z"/>
</g>

<g id="S_mbolo_840_0_Layer0_33_FILL">
<path fill="#DADADA" stroke="none" d="
M 10.95 -61
Q 11.6 -61.05 11.65 -61.25
L 11.8 -62.9 11.65 -64.75 10.8 -65 10.05 -64.75 9.9 -62.95
Q 9.9 -61.4 10.1 -61.2 10.35 -60.95 10.95 -61 Z"/>
</g>

<g id="S_mbolo_840_0_Layer0_34_FILL">
<path fill="#DADADA" stroke="none" d="
M 15.35 -61.1
L 16.05 -61.25 16.2 -63 16.05 -64.8 15.2 -65.1
Q 14.6 -65.1 14.45 -64.8
L 14.3 -63
Q 14.3 -61.5 14.5 -61.25
L 15.35 -61.1 Z"/>
</g>

<g id="S_mbolo_840_0_Layer0_35_FILL">
<path fill="#DADADA" stroke="none" d="
M 17.7 -61.1
Q 18.35 -61.1 18.4 -61.3
L 18.55 -63 18.4 -64.85 17.55 -65.1
Q 16.95 -65.1 16.85 -64.8 16.7 -64.5 16.7 -63 16.65 -61.5 16.9 -61.25
L 17.7 -61.1 Z"/>
</g>

<g id="S_mbolo_840_0_Layer0_36_FILL">
<path fill="#DADADA" stroke="none" d="
M 20.05 -61.1
Q 20.65 -61.15 20.75 -61.35 20.95 -64.5 20.7 -64.85
L 19.9 -65.1
Q 19.25 -65.1 19.15 -64.85 19 -64.5 19 -63.05 19 -61.55 19.15 -61.3
L 20.05 -61.1 Z"/>
</g>

<g id="S_mbolo_840_0_Layer0_37_FILL">
<path fill="#DADADA" stroke="none" d="
M 22.4 -61.15
Q 23.05 -61.2 23.1 -61.4
L 23.25 -63.05 23.1 -64.9 22.25 -65.15 21.5 -64.9 21.4 -63.1
Q 21.4 -61.55 21.6 -61.35 21.8 -61.1 22.4 -61.15 Z"/>
</g>

<g id="S_mbolo_840_0_Layer0_38_FILL">
<path fill="#70CB46" stroke="none" d="
M 7.25 -70.2
Q 8.7 -69.2 9.9 -71.05 11.1 -72.9 9.75 -73.9 8.25 -75 6.7 -73.3 5.2 -71.65 7.25 -70.2 Z"/>
</g>

<g id="S_mbolo_840_0_Layer0_39_FILL">
<path fill="#70CB46" stroke="none" d="
M 10.4 -75.2
L 12.7 -75.15
Q 14.05 -76.3 13.15 -77.8 12.2 -79.4 10.5 -78.25 8.85 -77.15 10.4 -75.2 Z"/>
</g>

<g id="S_mbolo_840_0_Layer0_40_FILL">
<path fill="#70CB46" stroke="none" d="
M 15.4 -76.4
Q 15.5 -75.25 17.25 -75.3 18.95 -75.35 19.05 -76.6 19.15 -78.1 17.2 -78.4 15.25 -78.75 15.4 -76.4 Z"/>
</g>

<g id="S_mbolo_840_0_Layer0_41_FILL">
<path fill="#70CB46" stroke="none" d="
M 11.45 -71.25
Q 10.85 -69.8 11.85 -68.45 12.85 -67.15 14.6 -66.9 16.2 -66.7 17.7 -67.5 21.3 -69.45 19.2 -72.75 18.35 -74.15 16.65 -74.25 15.05 -74.35 13.55 -73.45 11.95 -72.55 11.45 -71.25 Z"/>
</g>

<g id="S_mbolo_840_0_Layer0_42_FILL">
<path fill="#89E25A" stroke="none" d="
M 7.35 -71.15
Q 8.3 -70.45 9.1 -71.7 9.85 -73 8.95 -73.65 8 -74.4 6.95 -73.25 6 -72.15 7.35 -71.15 Z"/>
</g>

<g id="S_mbolo_840_0_Layer0_43_FILL">
<path fill="#89E25A" stroke="none" d="
M 10.55 -76.2
L 12.05 -76.15
Q 12.9 -77 12.35 -77.95 11.7 -79.05 10.65 -78.25 9.5 -77.5 10.55 -76.2 Z"/>
</g>

<g id="S_mbolo_840_0_Layer0_44_FILL">
<path fill="#89E25A" stroke="none" d="
M 15.9 -76.85
Q 16 -76.1 17.1 -76.1 18.25 -76.1 18.3 -77 18.4 -78 17.1 -78.2 15.8 -78.45 15.9 -76.85 Z"/>
</g>

<g id="S_mbolo_840_0_Layer0_45_FILL">
<path fill="#89E25A" stroke="none" d="
M 13.7 -72.6
Q 11.2 -71.1 12.6 -69.2 14 -67.25 16.35 -68.55 18.75 -69.85 17.4 -72.15 16.2 -74.1 13.7 -72.6 Z"/>
</g>

<g id="S_mbolo_840_0_Layer0_46_FILL">
<path fill="#EBEBEB" stroke="none" d="
M 21.65 -58.65
L 9.55 -58.7
Q 9.35 -58.45 9.45 -57.35 9.6 -56.2 9.9 -56.1
L 21.2 -56.4 21.65 -57.55
Q 21.85 -58.55 21.65 -58.65 Z"/>
</g>

<g id="S_mbolo_840_0_Layer0_47_FILL">
<path fill="#35BD35" stroke="none" d="
M -20.7 -74.85
Q -20.95 -74.9 -21.3 -71.65 -21.65 -68.45 -21.1 -68.4 -20.25 -68.35 -20.1 -69.6
L -20.25 -72.2
Q -20.55 -74.8 -20.7 -74.85 Z"/>
</g>

<g id="S_mbolo_840_0_Layer0_48_FILL">
<path fill="#35BD35" stroke="none" d="
M -20.4 -67.4
Q -20.85 -67.45 -21.05 -66.55 -21.25 -65.65 -20.55 -65.85 -19.95 -66.05 -19.95 -66.7 -19.95 -67.3 -20.4 -67.4 Z"/>
</g>

<g id="S_mbolo_840_0_Layer0_49_FILL">
<path fill="#35BD35" stroke="none" d="
M -5.1 -81.35
Q -5.5 -80.5 -4.1 -80.45 -2.75 -80.4 -2.95 -81.2 -3.15 -82 -3.95 -82 -4.75 -82.1 -5.1 -81.35 Z"/>
</g>

<g id="S_mbolo_840_0_Layer0_50_FILL">
<path fill="#35BD35" stroke="none" d="
M 2.55 -80.5
Q 4.95 -80.85 4.45 -81.5 4 -82.1 1.8 -82.15
L -0.45 -82
Q -1.55 -80.85 -0.6 -80.4
L 2.55 -80.5 Z"/>
</g>

<g id="S_mbolo_840_0_Layer0_51_FILL">
<path fill="#35BD35" stroke="none" d="
M 2.95 -81.1
L 7.3 -80.8 11.75 -81.2
Q 11.5 -81.85 7.45 -81.85 3.4 -81.9 2.95 -81.1 Z"/>
</g>

<g id="S_mbolo_840_0_Layer0_52_FILL">
<path fill="#35BD35" stroke="none" d="
M 13.9 -81
Q 14.15 -80.4 15.55 -80.45 16.95 -80.5 16.55 -81.15 16.15 -81.85 14.9 -81.8 13.65 -81.7 13.9 -81 Z"/>
</g>

<g id="S_mbolo_840_0_Layer0_53_FILL">
<path fill="#35BD35" stroke="none" d="
M 18.7 -80.6
Q 18.6 -80.2 19.3 -80.25 20 -80.3 19.85 -80.75 19.75 -81.15 19.2 -81
L 18.7 -80.6 Z"/>
</g>

<g id="S_mbolo_840_0_Layer0_54_FILL">
<path fill="#FFFFFF" stroke="none" d="
M -16.4 -73.8
Q -16.25 -73 -14.75 -73.35 -13.3 -73.75 -13.45 -74.35 -13.6 -75 -15.1 -74.95 -16.65 -74.9 -16.4 -73.8 Z"/>
</g>

<g id="S_mbolo_840_0_Layer0_55_FILL">
<path fill="#C67F17" stroke="none" d="
M 2.35 -56.15
L 2.25 -55
Q 2.05 -54 3.25 -54.05 4.65 -54.15 5.1 -55.15 5.55 -56.1 4.75 -57.15 3.6 -58.6 1.45 -58.75 -1.25 -59.05 -2.95 -56.45 -5 -53.45 -3.3 -51.7 -1.95 -50.25 -1.05 -50.55
L -0.65 -27.9
Q -0.5 -27.1 1.1 -27.2 2.7 -27.3 2.75 -28.05
L 2.5 -39.95
Q 2.1 -51.15 1.8 -51.6 1.35 -52.15 0.15 -52.6 -1 -52.95 -1.05 -53.35 -1.2 -54.05 -0.15 -55.25 1 -56.6 2.35 -56.15 Z"/>
</g>

<g id="S_mbolo_840_0_Layer0_56_FILL">
<path fill="#774400" stroke="none" d="
M 31.6 -9.95
Q 32.2 -11.4 1.5 -11.2 -29.2 -11.05 -28.2 -9.65 -31.35 -8.95 -32.4 -6.2 -33.45 -3.5 -31.25 -2.45 -24.65 0.75 1.45 0.75 27.55 0.75 34.2 -2.45 36.2 -3.35 35.75 -6.1 35.3 -9.1 31.6 -9.95 Z"/>
</g>

<g id="S_mbolo_840_0_Layer0_57_FILL">
<path fill="#C67F17" stroke="none" d="
M 31.05 -20.25
Q 19 -18.1 1.25 -18.05 -16.6 -17.9 -27.3 -19.95 -28.6 -20.25 -30.05 -18.55 -31.5 -16.8 -30.5 -15.3 -33.9 -14.55 -35 -11.4 -36.1 -8.3 -33.8 -7.1 -26.7 -3.45 1.15 -3.45 29 -3.45 36.15 -7.1 38.25 -8.15 37.8 -11.3 37.3 -14.65 33.35 -15.7 33.95 -17.15 32.85 -18.8 31.85 -20.4 31.05 -20.25 Z"/>
</g>

<g id="S_mbolo_840_0_Layer0_58_FILL">
<path fill="#F4A931" stroke="none" d="
M 16.55 -15.2
Q 18 -15.55 17.95 -16.7 17.9 -17.85 16.2 -17.8 7.1 -17.6 -3.9 -17.9 -18.6 -18.35 -24.75 -19.6 -27.15 -20.05 -28 -18.4 -28.8 -16.8 -26.8 -16.15 -19.65 -13.8 -2.75 -13.95 11.9 -14.05 16.55 -15.2 Z"/>
</g>

<g id="S_mbolo_840_0_Layer0_59_FILL">
<path fill="#F4A931" stroke="none" d="
M 19.45 -17.05
Q 19.8 -15.05 23.45 -15.55 27.15 -16.15 26.65 -17.9 26.2 -19.6 22.7 -19.1 19.2 -18.6 19.45 -17.05 Z"/>
</g>

<g id="S_mbolo_840_0_Layer0_60_FILL">
<path fill="#FFEA3C" stroke="none" d="
M -24.75 -17.55
Q -25.65 -15 -16.15 -14.3 -12.35 -14.05 -9.55 -14.4 -6.45 -14.8 -6.4 -15.85 -6.25 -17.4 -15.15 -18.35 -24.05 -19.35 -24.75 -17.55 Z"/>
</g>

<g id="S_mbolo_840_0_Layer0_61_FILL">
<path fill="#FFEA3C" stroke="none" d="
M -4.35 -15.85
Q -4.2 -13.65 -1.4 -14.05 1.35 -14.5 1.1 -16.5 0.9 -17.95 -1.8 -17.75 -4.5 -17.6 -4.35 -15.85 Z"/>
</g>

<g id="S_mbolo_840_0_Layer0_62_FILL">
<path fill="#FFFFFF" stroke="none" d="
M -23.45 -17.45
Q -23.6 -15.6 -19 -15.15 -14.4 -14.7 -14.2 -16.6 -14 -18.45 -18.65 -18.8 -23.3 -19.15 -23.45 -17.45 Z"/>
</g>

<g id="S_mbolo_840_0_Layer0_63_FILL">
<path fill="#F4A931" stroke="none" d="
M 23.25 -7.9
Q 24.95 -8.3 25.3 -10.1 25.65 -11.85 24 -11.75 13.4 -11.15 2.25 -11.3 -16.55 -11.5 -27.65 -13.85 -31.3 -14.65 -33.15 -11.9 -33.9 -10.85 -33.6 -9.85 -33.2 -8.8 -31.65 -8.4 -19.5 -5.45 -2.05 -5.55 13.55 -5.7 23.25 -7.9 Z"/>
</g>

<g id="S_mbolo_840_0_Layer0_64_FILL">
<path fill="#FFEA3C" stroke="none" d="
M 4.35 -7.1
Q 5.85 -7.5 6.25 -9.05 6.65 -10.55 5.3 -10.65
L -14.65 -11.9 -26.4 -13.35
Q -30.95 -13.9 -31.1 -11.3 -31.25 -8.75 -27.9 -8.05 -18.65 -6 -7.75 -6.05 0.9 -6.1 4.35 -7.1 Z"/>
</g>

<g id="S_mbolo_840_0_Layer0_65_FILL">
<path fill="#FFFFFF" stroke="none" d="
M -27.45 -10.6
Q -27.7 -8 -20.3 -7.35 -12.95 -6.75 -12.6 -9.4 -12.3 -12.05 -19.75 -12.55
L -24.95 -12.25
Q -27.35 -11.75 -27.45 -10.6 Z"/>
</g>

<g id="S_mbolo_840_0_Layer0_66_FILL">
<path fill="#FFFFFF" stroke="none" d="
M -10.75 -8.65
Q -10.6 -6.5 -7.75 -6.65 -4.9 -6.8 -4.95 -8.95 -5.05 -11.15 -7.95 -11.05 -10.9 -10.95 -10.75 -8.65 Z"/>
</g>

<g id="S_mbolo_840_0_Layer0_67_FILL">
<path fill="#FFEA3C" stroke="none" d="
M 9.1 -10.45
Q 8.4 -10.25 8.5 -8.55 8.6 -6.9 9.45 -6.9
L 13.4 -7.45
Q 16.45 -8.1 16.35 -8.95 16.35 -9.8 12.9 -10.25
L 9.1 -10.45 Z"/>
</g>

<g id="S_mbolo_840_0_Layer0_68_FILL">
<path fill="#965B06" stroke="none" d="
M -30 -14.5
L -28.35 -14.3 -27 -14.45
Q -26.95 -14.65 -28.45 -15.6
L -30.4 -16.65
Q -30.75 -16.7 -30.55 -15.7 -30.4 -14.7 -30 -14.5 Z"/>
</g>

<g id="S_mbolo_840_0_Layer0_69_FILL">
<path fill="#965B06" stroke="none" d="
M 33.35 -15.7
Q 34.2 -17.3 33 -18.95 32.1 -20.2 31.3 -20.3
L 29.9 -20.05 29 -19.75
Q 29.65 -19.95 30.2 -19.25 30.85 -18.5 30.6 -17.4 30 -14.4 23.6 -12.85
L 26.2 -12.75
Q 28.1 -12.3 27.8 -10.55 27.15 -6.75 21.2 -4.95
L 15.35 -3.8 24.3 -4.5
Q 33.85 -5.55 36.5 -7.25 38.4 -8.5 37.8 -11.6 37.1 -14.95 33.35 -15.7 Z"/>
</g>

<g id="S_mbolo_840_0_Layer0_70_FILL">
<path fill="#FFEA3C" stroke="none" d="
M 1.9 -56.75
Q 2.6 -56.9 2.4 -57.75 2.15 -58.6 0.7 -58.75 -1.6 -59.05 -3.2 -56.35 -4.75 -53.65 -3.05 -52.65 -2.15 -52.15 -1.7 -53.05
L -0.55 -55.4
Q 0.3 -56.35 1.9 -56.75 Z"/>
</g>

<g id="S_mbolo_840_0_Layer0_71_FILL">
<path fill="#FFFFFF" stroke="none" d="
M -1.85 -56.25
Q -1.2 -55.7 -0.05 -56.55 1.1 -57.45 0.4 -58.1 -0.55 -59 -1.8 -58.1 -3.05 -57.2 -1.85 -56.25 Z"/>
</g>

<g id="S_mbolo_840_0_Layer0_72_FILL">
<path fill="#FCCD49" stroke="none" d="
M 0.8 -30.4
Q 1.35 -31.3 1.55 -32.55 1.95 -45.55 1.5 -46.25 1.15 -46.7 0.25 -46.85 -0.7 -47 -0.8 -46.65 -1 -45.85 -0.85 -38.1 -0.7 -30.1 -0.25 -29.8 0.2 -29.5 0.8 -30.4 Z"/>
</g>

<g id="S_mbolo_840_0_Layer0_73_FILL">
<path fill="#965B06" stroke="none" d="
M 1 -48.9
Q 2.15 -49.5 1.65 -50.8 1.1 -52.15 -0.25 -51.85 -1.5 -51.55 -0.8 -49.95 -0.1 -48.3 1 -48.9 Z"/>
</g>

<g id="S_mbolo_840_0_Layer0_74_FILL">
<path fill="#FFFFFF" stroke="none" d="
M 0.55 -32.75
Q 1.35 -32.55 1.2 -36.7 1.1 -40.8 0.2 -40.65 -0.75 -40.45 -0.85 -36.85 -0.9 -33.2 0.55 -32.75 Z"/>
</g>

<g id="S_mbolo_840_0_Layer0_75_FILL">
<path fill="#FCCD49" stroke="none" d="
M 0.7 -23.9
Q 4.6 -25.25 1.5 -27.15 -1.65 -29.2 -5.45 -26.55 -6.9 -25.55 -7.2 -24.55 -7.5 -23.5 -6.15 -23.2 -2.9 -22.6 0.7 -23.9 Z"/>
</g>

<g id="S_mbolo_840_0_Layer0_76_FILL">
<path fill="#FFFFFF" stroke="none" d="
M -4.5 -27.45
Q -6.7 -26.25 -5.1 -25.5 -3.35 -24.65 -1.6 -25.45 0.15 -26.3 -1.25 -27.6
L -4.5 -27.45 Z"/>
</g>

<g id="S_mbolo_840_0_Layer0_77_FILL">
<path fill="#FFFFFF" stroke="none" d="
M -1.4 -99.05
Q -5.25 -102.95 -11.2 -101.95 -16.55 -101.1 -21.3 -97 -26.05 -92.9 -27.15 -88.3 -28.45 -83.15 -24.35 -80.05 -20.85 -77.35 -15.1 -78.3 -9.8 -79.2 -5.1 -82.6 -0.25 -86.15 1.05 -90.4 2.5 -95.2 -1.4 -99.05 Z"/>
</g>

<g id="S_mbolo_840_0_Layer0_78_FILL">
<path fill="#FFFFFF" stroke="none" d="
M 5.8 -87.05
Q 7 -86.4 8.5 -87.25 9.9 -88 10.8 -89.5 13 -93.45 9.05 -95.15
L 6.05 -95
Q 4.75 -94.3 4.05 -92.7 3.35 -91.1 3.7 -89.6 4.15 -87.9 5.8 -87.05 Z"/>
</g>
</defs>

<g transform="matrix( 1.4030303955078125, 0, 0, 1.4030303955078125, 80.6,158.95) ">
<g transform="matrix( 1, 0, 0, 1, 0,0) ">
<use xlink:href="#S_mbolo_840_0_Layer0_0_FILL"/>
</g>

<g transform="matrix( 1, 0, 0, 1, 0,0) ">
<use xlink:href="#S_mbolo_840_0_Layer0_1_FILL"/>
</g>

<g transform="matrix( 1, 0, 0, 1, 0,0) ">
<use xlink:href="#S_mbolo_840_0_Layer0_2_FILL"/>
</g>

<g transform="matrix( 1, 0, 0, 1, 0,0) ">
<use xlink:href="#S_mbolo_840_0_Layer0_3_FILL"/>
</g>

<g transform="matrix( 1, 0, 0, 1, 0,0) ">
<use xlink:href="#S_mbolo_840_0_Layer0_4_FILL"/>
</g>

<g transform="matrix( 1, 0, 0, 1, 0,0) ">
<use xlink:href="#S_mbolo_840_0_Layer0_5_FILL"/>
</g>

<g transform="matrix( 1, 0, 0, 1, 0,0) ">
<use xlink:href="#S_mbolo_840_0_Layer0_6_FILL"/>
</g>

<g transform="matrix( 1, 0, 0, 1, 0,0) ">
<use xlink:href="#S_mbolo_840_0_Layer0_7_FILL"/>
</g>

<g transform="matrix( 1, 0, 0, 1, 0,0) ">
<use xlink:href="#S_mbolo_840_0_Layer0_8_FILL"/>
</g>

<g transform="matrix( 1, 0, 0, 1, 0,0) ">
<use xlink:href="#S_mbolo_840_0_Layer0_9_FILL"/>
</g>

<g transform="matrix( 1, 0, 0, 1, 0,0) ">
<use xlink:href="#S_mbolo_840_0_Layer0_10_FILL"/>
</g>

<g transform="matrix( 1, 0, 0, 1, 0,0) ">
<use xlink:href="#S_mbolo_840_0_Layer0_11_FILL"/>
</g>

<g transform="matrix( 1, 0, 0, 1, 0,0) ">
<use xlink:href="#S_mbolo_840_0_Layer0_12_FILL"/>
</g>

<g transform="matrix( 1, 0, 0, 1, 0,0) ">
<use xlink:href="#S_mbolo_840_0_Layer0_13_FILL"/>
</g>

<g transform="matrix( 1, 0, 0, 1, 0,0) ">
<use xlink:href="#S_mbolo_840_0_Layer0_14_FILL"/>
</g>

<g transform="matrix( 1, 0, 0, 1, 0,0) ">
<use xlink:href="#S_mbolo_840_0_Layer0_15_FILL"/>
</g>

<g transform="matrix( 1, 0, 0, 1, 0,0) ">
<use xlink:href="#S_mbolo_840_0_Layer0_16_FILL"/>
</g>

<g transform="matrix( 1, 0, 0, 1, 0,0) ">
<use xlink:href="#S_mbolo_840_0_Layer0_17_FILL"/>
</g>

<g transform="matrix( 1, 0, 0, 1, 0,0) ">
<use xlink:href="#S_mbolo_840_0_Layer0_18_FILL"/>
</g>

<g transform="matrix( 1, 0, 0, 1, 0,0) ">
<use xlink:href="#S_mbolo_840_0_Layer0_19_FILL"/>
</g>

<g transform="matrix( 1, 0, 0, 1, 0,0) ">
<use xlink:href="#S_mbolo_840_0_Layer0_20_FILL"/>
</g>

<g transform="matrix( 1, 0, 0, 1, 0,0) ">
<use xlink:href="#S_mbolo_840_0_Layer0_21_FILL"/>
</g>

<g transform="matrix( 1, 0, 0, 1, 0,0) ">
<use xlink:href="#S_mbolo_840_0_Layer0_22_FILL"/>
</g>

<g transform="matrix( 1, 0, 0, 1, 0,0) ">
<use xlink:href="#S_mbolo_840_0_Layer0_23_FILL"/>
</g>

<g transform="matrix( 1, 0, 0, 1, 0,0) ">
<use xlink:href="#S_mbolo_840_0_Layer0_24_FILL"/>
</g>

<g transform="matrix( 1, 0, 0, 1, 0,0) ">
<use xlink:href="#S_mbolo_840_0_Layer0_25_FILL"/>
</g>

<g transform="matrix( 1, 0, 0, 1, 0,0) ">
<use xlink:href="#S_mbolo_840_0_Layer0_26_FILL"/>
</g>

<g transform="matrix( 1, 0, 0, 1, 0,0) ">
<use xlink:href="#S_mbolo_840_0_Layer0_27_FILL"/>
</g>

<g transform="matrix( 1, 0, 0, 1, 0,0) ">
<use xlink:href="#S_mbolo_840_0_Layer0_28_FILL"/>
</g>

<g transform="matrix( 1, 0, 0, 1, 0,0) ">
<use xlink:href="#S_mbolo_840_0_Layer0_29_FILL"/>
</g>

<g transform="matrix( 1, 0, 0, 1, 0,0) ">
<use xlink:href="#S_mbolo_840_0_Layer0_30_FILL"/>
</g>

<g transform="matrix( 1, 0, 0, 1, 0,0) ">
<use xlink:href="#S_mbolo_840_0_Layer0_31_FILL"/>
</g>

<g transform="matrix( 1, 0, 0, 1, 0,0) ">
<use xlink:href="#S_mbolo_840_0_Layer0_32_FILL"/>
</g>

<g transform="matrix( 1, 0, 0, 1, 0,0) ">
<use xlink:href="#S_mbolo_840_0_Layer0_33_FILL"/>
</g>

<g transform="matrix( 1, 0, 0, 1, 0,0) ">
<use xlink:href="#S_mbolo_840_0_Layer0_34_FILL"/>
</g>

<g transform="matrix( 1, 0, 0, 1, 0,0) ">
<use xlink:href="#S_mbolo_840_0_Layer0_35_FILL"/>
</g>

<g transform="matrix( 1, 0, 0, 1, 0,0) ">
<use xlink:href="#S_mbolo_840_0_Layer0_36_FILL"/>
</g>

<g transform="matrix( 1, 0, 0, 1, 0,0) ">
<use xlink:href="#S_mbolo_840_0_Layer0_37_FILL"/>
</g>

<g transform="matrix( 1, 0, 0, 1, 0,0) ">
<use xlink:href="#S_mbolo_840_0_Layer0_38_FILL"/>
</g>

<g transform="matrix( 1, 0, 0, 1, 0,0) ">
<use xlink:href="#S_mbolo_840_0_Layer0_39_FILL"/>
</g>

<g transform="matrix( 1, 0, 0, 1, 0,0) ">
<use xlink:href="#S_mbolo_840_0_Layer0_40_FILL"/>
</g>

<g transform="matrix( 1, 0, 0, 1, 0,0) ">
<use xlink:href="#S_mbolo_840_0_Layer0_41_FILL"/>
</g>

<g transform="matrix( 1, 0, 0, 1, 0,0) ">
<use xlink:href="#S_mbolo_840_0_Layer0_42_FILL"/>
</g>

<g transform="matrix( 1, 0, 0, 1, 0,0) ">
<use xlink:href="#S_mbolo_840_0_Layer0_43_FILL"/>
</g>

<g transform="matrix( 1, 0, 0, 1, 0,0) ">
<use xlink:href="#S_mbolo_840_0_Layer0_44_FILL"/>
</g>

<g transform="matrix( 1, 0, 0, 1, 0,0) ">
<use xlink:href="#S_mbolo_840_0_Layer0_45_FILL"/>
</g>

<g transform="matrix( 1, 0, 0, 1, 0,0) ">
<use xlink:href="#S_mbolo_840_0_Layer0_46_FILL"/>
</g>

<g transform="matrix( 1, 0, 0, 1, 0,0) ">
<use xlink:href="#S_mbolo_840_0_Layer0_47_FILL"/>
</g>

<g transform="matrix( 1, 0, 0, 1, 0,0) ">
<use xlink:href="#S_mbolo_840_0_Layer0_48_FILL"/>
</g>

<g transform="matrix( 1, 0, 0, 1, 0,0) ">
<use xlink:href="#S_mbolo_840_0_Layer0_49_FILL"/>
</g>

<g transform="matrix( 1, 0, 0, 1, 0,0) ">
<use xlink:href="#S_mbolo_840_0_Layer0_50_FILL"/>
</g>

<g transform="matrix( 1, 0, 0, 1, 0,0) ">
<use xlink:href="#S_mbolo_840_0_Layer0_51_FILL"/>
</g>

<g transform="matrix( 1, 0, 0, 1, 0,0) ">
<use xlink:href="#S_mbolo_840_0_Layer0_52_FILL"/>
</g>

<g transform="matrix( 1, 0, 0, 1, 0,0) ">
<use xlink:href="#S_mbolo_840_0_Layer0_53_FILL"/>
</g>

<g transform="matrix( 1, 0, 0, 1, 0,0) ">
<use xlink:href="#S_mbolo_840_0_Layer0_54_FILL"/>
</g>

<g transform="matrix( 1, 0, 0, 1, 0,0) ">
<use xlink:href="#S_mbolo_840_0_Layer0_55_FILL"/>
</g>

<g transform="matrix( 1, 0, 0, 1, 0,0) ">
<use xlink:href="#S_mbolo_840_0_Layer0_56_FILL"/>
</g>

<g transform="matrix( 1, 0, 0, 1, 0,0) ">
<use xlink:href="#S_mbolo_840_0_Layer0_57_FILL"/>
</g>

<g transform="matrix( 1, 0, 0, 1, 0,0) ">
<use xlink:href="#S_mbolo_840_0_Layer0_58_FILL"/>
</g>

<g transform="matrix( 1, 0, 0, 1, 0,0) ">
<use xlink:href="#S_mbolo_840_0_Layer0_59_FILL"/>
</g>

<g transform="matrix( 1, 0, 0, 1, 0,0) ">
<use xlink:href="#S_mbolo_840_0_Layer0_60_FILL"/>
</g>

<g transform="matrix( 1, 0, 0, 1, 0,0) ">
<use xlink:href="#S_mbolo_840_0_Layer0_61_FILL"/>
</g>

<g transform="matrix( 1, 0, 0, 1, 0,0) ">
<use xlink:href="#S_mbolo_840_0_Layer0_62_FILL"/>
</g>

<g transform="matrix( 1, 0, 0, 1, 0,0) ">
<use xlink:href="#S_mbolo_840_0_Layer0_63_FILL"/>
</g>

<g transform="matrix( 1, 0, 0, 1, 0,0) ">
<use xlink:href="#S_mbolo_840_0_Layer0_64_FILL"/>
</g>

<g transform="matrix( 1, 0, 0, 1, 0,0) ">
<use xlink:href="#S_mbolo_840_0_Layer0_65_FILL"/>
</g>

<g transform="matrix( 1, 0, 0, 1, 0,0) ">
<use xlink:href="#S_mbolo_840_0_Layer0_66_FILL"/>
</g>

<g transform="matrix( 1, 0, 0, 1, 0,0) ">
<use xlink:href="#S_mbolo_840_0_Layer0_67_FILL"/>
</g>

<g transform="matrix( 1, 0, 0, 1, 0,0) ">
<use xlink:href="#S_mbolo_840_0_Layer0_68_FILL"/>
</g>

<g transform="matrix( 1, 0, 0, 1, 0,0) ">
<use xlink:href="#S_mbolo_840_0_Layer0_69_FILL"/>
</g>

<g transform="matrix( 1, 0, 0, 1, 0,0) ">
<use xlink:href="#S_mbolo_840_0_Layer0_70_FILL"/>
</g>

<g transform="matrix( 1, 0, 0, 1, 0,0) ">
<use xlink:href="#S_mbolo_840_0_Layer0_71_FILL"/>
</g>

<g transform="matrix( 1, 0, 0, 1, 0,0) ">
<use xlink:href="#S_mbolo_840_0_Layer0_72_FILL"/>
</g>

<g transform="matrix( 1, 0, 0, 1, 0,0) ">
<use xlink:href="#S_mbolo_840_0_Layer0_73_FILL"/>
</g>

<g transform="matrix( 1, 0, 0, 1, 0,0) ">
<use xlink:href="#S_mbolo_840_0_Layer0_74_FILL"/>
</g>

<g transform="matrix( 1, 0, 0, 1, 0,0) ">
<use xlink:href="#S_mbolo_840_0_Layer0_75_FILL"/>
</g>

<g transform="matrix( 1, 0, 0, 1, 0,0) ">
<use xlink:href="#S_mbolo_840_0_Layer0_76_FILL"/>
</g>

<g transform="matrix( 1, 0, 0, 1, 0,0) ">
<use xlink:href="#S_mbolo_840_0_Layer0_77_FILL"/>
</g>

<g transform="matrix( 1, 0, 0, 1, 0,0) ">
<use xlink:href="#S_mbolo_840_0_Layer0_78_FILL"/>
</g>
</g>
</svg>
