
<svg xmlns="http://www.w3.org/2000/svg" version="1.1" xmlns:xlink="http://www.w3.org/1999/xlink" preserveAspectRatio="none" x="0px" y="0px" width="480px" height="480px" viewBox="0 0 480 480">
<defs>
<g id="shape453_swf_0_Layer0_0_FILL">
<path fill="#6F4A4F" stroke="none" d="
M 68.95 -217
L 74.25 -210.1
Q 80.5 -201.65 85.15 -194 100 -169.5 93.45 -162 83.6 -150.75 95.2 -130 97.85 -125.25 104.45 -115.75 109.3 -108.75 109.45 -107 109.75 -102.95 100.9 -96.05
L 92.8 -90.55
Q 91.6 -91.9 85.95 -95.5 80.1 -99.25 77.2 -112.45 75.75 -119.05 75.1 -120.75 73.75 -124.35 71.45 -124.5 66.9 -124.8 70.4 -104.2 73.45 -86.25 76.45 -79 78 -75.25 69.65 -68.25
L 60.95 -62
Q 53.75 -45.1 67.7 -36.1 74.7 -31.6 83.1 -30.5
L 84.45 -47
Q 87.8 -51.65 96.1 -55.4 101.35 -57.75 111.85 -60.85 122.35 -64 125.5 -65.4 131.3 -68 130.95 -71 130.55 -74.6 133.95 -85.1 135.15 -88.85 135.05 -90.4 134.85 -92.5 132.45 -92.5 127.8 -92.5 125.25 -86.2 123.2 -81.25 123.45 -76.5 123.6 -73.75 109.05 -69.85
L 94.45 -66.5 100.1 -75.95
Q 107.1 -86.8 113.95 -94 122.5 -102.95 122.75 -111.2 123.05 -120.1 113.95 -131 106.15 -140.35 104.5 -146.6 104 -148.55 104.2 -150
L 104.45 -151
Q 116.25 -164.1 104.45 -190.45 100.1 -200.2 93.5 -209.3 87.65 -217.35 83.45 -220.5 76.45 -225.75 62.6 -226.3 49.45 -226.85 46.95 -223.5 45.1 -221 56.85 -218.75
L 68.95 -217 Z"/>
</g>

<g id="shape453_swf_0_Layer0_0_MEMBER_0_FILL">
<path fill="#54323D" stroke="none" d="
M 104.2 -150
L 104.45 -151
Q 110.45 -157.7 110.15 -168.4 109.9 -177.5 105.15 -188.75 106.5 -179.9 106.15 -172 105.45 -157.8 98.75 -156.8
L 100.2 -148.95
Q 101.2 -140.65 99.1 -138.15
L 104.7 -134.45
Q 110.9 -129.6 113.85 -123.75 123.35 -104.9 97.1 -82.8 96.15 -83.55 92.75 -89.8 95.3 -83.6 92.45 -72.3 89.5 -60.45 84.1 -61.15 83.5 -64.3 82.15 -67.6 79.5 -74.25 75.9 -75.15 73.95 -71.45 67.25 -66.35
L 60.95 -62 59.85 -59.05 67 -36.6
Q 71.45 -33.55 77.7 -31.7
L 83.1 -30.5 84.45 -47
Q 87.8 -51.65 96.1 -55.4 101.35 -57.75 111.85 -60.85 122.35 -64 125.5 -65.4 131.3 -68 130.95 -71 130.55 -74.6 133.95 -85.1 135.15 -88.85 135.05 -90.4 134.85 -92.5 132.45 -92.5 127.8 -92.5 125.25 -86.2 123.2 -81.25 123.45 -76.5 123.6 -73.75 109.05 -69.85
L 94.45 -66.5 100.1 -75.95
Q 107.1 -86.8 113.95 -94 122.5 -102.95 122.75 -111.2 123.05 -120.1 113.95 -131 106.15 -140.35 104.5 -146.6 104 -148.55 104.2 -150 Z"/>
</g>

<g id="shape453_swf_0_Layer0_0_MEMBER_1_FILL">
<path fill="#6F4A4F" stroke="none" d="
M -73.55 -202.5
Q -66.3 -208.25 -60.05 -214.05 -47.6 -225.65 -52.6 -225.95 -55.7 -226.15 -62.55 -223.05 -69.7 -219.8 -75.7 -215.3 -82.65 -210.15 -84.95 -205.55 -87.65 -200.1 -83.1 -196.45 -93.3 -186.75 -101.45 -175 -117.75 -151.4 -107.6 -140.95 -98.65 -131.7 -98.35 -124.15 -98.25 -120.4 -99.9 -118.5
L -104.6 -109.95
Q -108.7 -100.45 -105.6 -95.45 -103.8 -92.6 -106.6 -94.35 -109.2 -96 -113.65 -100.3 -125.55 -111.65 -126.25 -116.8 -126.7 -120.35 -122.15 -130.75 -118.5 -139.2 -121.1 -139.45 -123.2 -139.65 -126.85 -135.9 -130.95 -131.65 -133.1 -125.9 -139.2 -109.7 -125.6 -95.45 -104.6 -73.45 -78.1 -42.95
L -78.65 -32
Q -78.55 -20.9 -75.1 -19.95 -73 -19.4 -65.85 -26.35 -58.65 -33.4 -52.85 -41.65 -46.2 -51.15 -45.85 -56.45 -45.45 -62.85 -54.6 -61.45
L -59.65 -60.65 -66.6 -60.95
Q -68.7 -62.2 -77.8 -74.3 -87.3 -87 -90.1 -92.95 -92 -97.05 -90.45 -113.9 -89 -129.85 -91.6 -132.95 -94.7 -136.7 -97.7 -144.45
L -100.1 -151.45
Q -92.35 -160.85 -85.15 -171.9 -70.75 -194.05 -73.55 -202.5 Z"/>
</g>

<g id="shape453_swf_0_Layer0_0_MEMBER_2_FILL">
<path fill="#54323D" stroke="none" d="
M -101.95 -101.15
Q -104.05 -104.6 -104.05 -111.25 -108.25 -102.25 -106.4 -97.05 -105.35 -95.05 -99.9 -89.85 -94.8 -84.95 -92.55 -79.8 -89.6 -72.9 -93.3 -70.5 -95.95 -68.85 -101.65 -69.5
L -78.1 -42.95 -78.65 -32
Q -78.55 -20.9 -75.1 -19.95 -73 -19.4 -65.85 -26.35 -58.65 -33.4 -52.85 -41.65 -46.2 -51.15 -45.85 -56.45 -45.45 -62.85 -54.6 -61.45
L -59.65 -60.65 -66.6 -60.95
Q -68.7 -62.2 -77.8 -74.3 -87.3 -87 -90.1 -92.95 -91.15 -95.15 -91.3 -99.4 -98.75 -95.95 -101.95 -101.15 Z"/>
</g>

<g id="shape453_swf_0_Layer0_0_MEMBER_3_FILL">
<path fill="#3E2E47" stroke="none" d="
M 23.5 -4.35
Q 27.75 -6.65 27.9 -9
L 28.2 -8.1
Q 28.65 -7 29.65 -6 32.8 -2.8 39.9 -2 55.35 -0.15 68.4 -0.65 88.9 -1.4 91.9 -8.3 94.6 -14.5 85.3 -29.95 81.4 -36.35 77.4 -40.65 73.1 -45.25 70.55 -45.3 32.25 -46.35 2.15 -46.6 -57.55 -47.2 -63.45 -44.65 -65.75 -43.65 -71.45 -37.3 -77.85 -30.25 -82.1 -23.2 -94.25 -3.2 -78.75 -1.3 -61.2 0.85 -53.4 -0.85 -46.678515625 -2.283203125 -47.65 -6.3
L -47.45 -5.65
Q -46.45 -4.5 -43.35 -3.5 -33.4 -0.3 -5.45 0 15 0.2 23.5 -4.35 Z"/>
</g>

<g id="shape453_swf_0_Layer0_0_MEMBER_4_FILL">
<path fill="#A0F4F6" stroke="none" d="
M 44.25 -81.65
Q 45.25 -89 43.25 -90.3
L 4.45 -91.5
Q -32.85 -91.65 -34.1 -90.65 -35.15 -89.8 -35.05 -85.95
L -34.75 -82.3 44.25 -81.65 Z"/>
</g>

<g id="shape453_swf_0_Layer0_0_MEMBER_5_FILL">
<path fill="#6DE3E9" stroke="none" d="
M 44.25 -81.65
Q 45.25 -86.75 43.25 -87.65 41.75 -88.35 4.45 -88.5 -32.85 -88.6 -34.1 -87.9 -35.15 -87.35 -35.05 -84.65
L -34.75 -82.1 44.25 -81.65 Z"/>
</g>

<g id="shape453_swf_0_Layer0_0_MEMBER_6_FILL">
<path fill="#321C3A" stroke="none" d="
M -30.65 -47.3
L -14.3 -47.2
Q -19.35 -48.35 -23.55 -48.5 -27.35 -48.6 -30.65 -47.3
M -49.05 -47.5
L -44.55 -31
Q -43.15 -35.5 -39.85 -39.95 -35.85 -45.35 -30.65 -47.3
L -49.05 -47.5
M 48.95 -47
L 44.7 -46.8
Q 52.45 -46.85 48.95 -47
M 28.95 -40
L 34.65 -43.7
Q 39.65 -46.25 44.7 -46.8
L -14.3 -47.2
Q -7.75 -45.65 0.25 -42.3 7.35 -39.35 12.45 -36.5 11.1 -38.25 10.7 -40.3 9.95 -44.45 14.95 -46 19.95 -47.55 24.95 -43.95 27.45 -42.1 28.95 -40 Z"/>
</g>

<g id="shape453_swf_0_Layer0_0_MEMBER_7_FILL">
<path fill="#321C3A" stroke="none" d="
M 32.1 -31.55
L 30.75 -35.15 26.1 -27.15
Q 21.95 -26.75 17.95 -29.25
L 14.75 -31.8 14.3 -32.5 16.85 -28.5
Q 18.9 -24.45 17.8 -21.15 14.4 -11.2 -17.25 -9.5 -35.95 -8.5 -41.6 -15.55 -44.5 -19.2 -43.65 -25.55 -47.1 -14.5 -65.15 -16.4 -70.8 -17 -77.25 -18.8
L -82.55 -20.5 -83.8 -20.3
Q -87.9 -12.6 -87.2 -7.85 -86.35 -2.25 -78.75 -1.3 -62 0.75 -54.1 -0.7 -47.05 -2 -47.6 -5.9 -46.4 -3.9 -39.3 -2.45 -28.3 -0.25 -5.45 0 15 0.2 23.5 -4.35 27.75 -6.65 27.9 -9
L 28.2 -8.1
Q 28.65 -7 29.65 -6 32.8 -2.8 39.9 -2 55.35 -0.15 68.4 -0.65 88.9 -1.4 91.9 -8.3 94.3 -13.8 86.8 -27.3 79.65 -40.3 73.15 -44.35 79.35 -31.8 81.4 -21.85 85.05 -4.15 71.45 -6.5 49.1 -10.3 37.7 -23.1 34.1 -27.1 32.1 -31.55 Z"/>
</g>

<g id="shape453_swf_0_Layer0_0_MEMBER_8_FILL">
<path fill="#849695" stroke="none" d="
M 53.35 -70.45
Q 52.2 -78.25 50.25 -81.65 48.75 -84.2 5.05 -83.95 -38.7 -83.75 -40.95 -81.2 -42.95 -78.95 -44.4 -71.15
L -45.45 -63.8 54.05 -63.3
Q 53.9 -66.55 53.35 -70.45 Z"/>
</g>

<g id="shape453_swf_0_Layer0_0_MEMBER_9_FILL">
<path fill="#7C8484" stroke="none" d="
M 66.55 -52.1
Q 64.9 -59.65 62.6 -63.3
L 6.1 -65.35
Q -50.15 -66.15 -52.7 -63.8 -55.25 -61.45 -57.1 -53.4 -58.05 -49.35 -58.45 -45.8
L 67.7 -45.3 66.55 -52.1 Z"/>
</g>

<g id="shape453_swf_0_Layer0_0_MEMBER_10_FILL">
<path fill="#9FADAC" stroke="none" d="
M 21.25 -59.65
L 51.85 -64.95
Q 49.65 -64.65 -0.65 -65.1 -51.1 -65.55 -52.7 -63.8
L -53.75 -62.4
Q -54.8 -60.7 -54.9 -59.25 -55.15 -54.6 -45.45 -54.3 -18.75 -53.45 21.25 -59.65 Z"/>
</g>

<g id="shape453_swf_0_Layer0_0_MEMBER_11_FILL">
<path fill="#444F4F" stroke="none" d="
M 65.9 -55.35
L 63.75 -61.5
Q 64.85 -55.8 18.4 -51.8 -21.35 -48.4 -42.25 -49.15 -53.9 -49.55 -56.25 -52.7 -56.8 -53.45 -56.75 -54.3
L -58.2 -50.55
Q -59.65 -46.15 -58.45 -45.8 -57 -45.35 5.5 -45.15 67.75 -44.95 67.75 -45.15 67.95 -48.5 65.9 -55.35 Z"/>
</g>

<g id="shape453_swf_0_Layer0_0_MEMBER_12_FILL">
<path fill="#B1BDBC" stroke="none" d="
M 49.6 -82.15
Q 47 -84.1 4.2 -83.95 -38.75 -83.85 -40.45 -81.65
L -40.85 -80.65
Q -41 -79.35 -39.8 -78.2 -35.95 -74.4 -20.1 -72.8 -12.25 -72 19.75 -76.15 52 -80.35 49.6 -82.15 Z"/>
</g>

<g id="shape453_swf_0_Layer0_0_MEMBER_13_FILL">
<path fill="#CEF6F9" stroke="none" d="
M 30.7 -81.2
Q 49.2 -81.95 46.05 -82.65 38 -84.5 -0.15 -84.15 -38.1 -83.85 -38.45 -82.15 -38.85 -80.2 -30.1 -79.85 -23.4 -79.55 -2.95 -80.15
L 30.7 -81.2 Z"/>
</g>

<g id="shape453_swf_0_Layer0_0_MEMBER_14_FILL">
<path fill="#B1BDBC" stroke="none" d="
M -16.95 -76.15
Q -18.95 -78.15 -27.95 -80.3 -35.8 -82.15 -38.95 -82.15 -41.95 -82.15 -43.75 -73.6 -44.95 -67.7 -44.95 -63.65 -44.95 -62.5 -32.55 -63.45
L -17.95 -64.65 -16.95 -76.15 Z"/>
</g>

<g id="shape453_swf_0_Layer0_0_MEMBER_15_FILL">
<path fill="#CEF6F9" stroke="none" d="
M -28.15 -73.15
Q -21 -80.2 -22.6 -81.8 -24 -83.2 -31.9 -82.9 -39.55 -82.65 -40.45 -81.65 -41.95 -79.9 -40.75 -74.3 -39.6 -68.9 -37.95 -67.8 -35.4 -66.15 -28.15 -73.15 Z"/>
</g>

<g id="shape453_swf_0_Layer0_0_MEMBER_16_FILL">
<path fill="#FFFFFF" stroke="none" d="
M -27.9 -83
Q -28.55 -84.15 -30.45 -84.15 -38 -84.15 -39.15 -80.45 -39.6 -79 -38.25 -77.95 -36.8 -76.8 -33.95 -76.8 -29.55 -76.8 -28 -80.45 -27.35 -81.95 -27.9 -83 Z"/>
</g>

<g id="shape453_swf_0_Layer0_0_MEMBER_17_FILL">
<path fill="#CEF6F9" stroke="none" d="
M -3.8 -63.1
Q -0.95 -66.3 -38.05 -65.8 -45.5 -65.7 -49.5 -64.45 -53.1 -63.3 -52.45 -61.8 -51.8 -60.3 -47.15 -59.4
L -33.75 -58.8
Q -6.5 -60.05 -3.8 -63.1 Z"/>
</g>

<g id="shape453_swf_0_Layer0_0_MEMBER_18_FILL">
<path fill="#FFFFFF" stroke="none" d="
M -34.95 -64.45
Q -36 -65.6 -38.05 -65.8 -41.7 -66.2 -44.25 -65.2 -46.45 -64.3 -47 -62.65 -47.55 -61.1 -46.2 -59.95 -44.65 -58.65 -41.45 -58.65 -35.1 -58.65 -34.25 -62 -33.95 -63.35 -34.95 -64.45 Z"/>
</g>

<g id="shape453_swf_0_Layer0_0_MEMBER_19_FILL">
<path fill="#FFFFFF" stroke="none" d="
M 41.2 -87.8
Q 43.1 -89.65 20.55 -89.95
L -18.5 -89.95 -28.05 -89.5
Q -30.5 -89.15 -29.8 -88.7
L 6.4 -87.35
Q 40.5 -87.1 41.2 -87.8 Z"/>
</g>

<g id="shape453_swf_0_Layer0_0_MEMBER_20_FILL">
<path fill="#4F425A" stroke="none" d="
M -58.95 -45.15
Q -63.75 -45.5 -67.6 -42
L -75.5 -33.25
Q -83.75 -23.05 -85.45 -16 -87.15 -8.65 -75.7 -7.2 -68.9 -6.35 -57.45 -7.65 -50.75 -8.4 -47.7 -17.6 -44.6 -27.05 -48.75 -36.3 -52.5 -44.7 -58.95 -45.15 Z"/>
</g>

<g id="shape453_swf_0_Layer0_0_MEMBER_21_FILL">
<path fill="#4F425A" stroke="none" d="
M 11.95 -25
Q 15.35 -30.2 8.9 -36 4.95 -39.55 -7 -41.3 -21.55 -43.5 -32.1 -38.65 -38.05 -35.9 -40.65 -29.15 -43.6 -21.45 -38.6 -15 -34.7 -9.95 -18.4 -12.35 -5.65 -14.2 0.75 -17.15 9.4 -21.1 11.95 -25 Z"/>
</g>

<g id="shape453_swf_0_Layer0_0_MEMBER_22_FILL">
<path fill="#4F425A" stroke="none" d="
M 30.55 -38
Q 28.2 -30 40.15 -21.8 51.3 -14.15 61.75 -14.15 72.15 -14.15 72.45 -23.7 72.55 -27.6 70.75 -31.6 68.9 -35.6 65.9 -38 60.35 -42.35 45.65 -41.7 39.75 -41.45 35.4 -40.4 30.95 -39.35 30.55 -38 Z"/>
</g>

<g id="shape453_swf_0_Layer0_0_MEMBER_23_FILL">
<path fill="#4F425A" stroke="none" d="
M 18.5 -45.6
Q 13.2 -45.9 13.05 -43.65 12.85 -40.65 14.95 -38.1 16.85 -35.8 19.5 -35.1 22.15 -34.4 23.6 -36.05 25.25 -37.95 24.4 -42.3 23.8 -45.3 18.5 -45.6 Z"/>
</g>

<g id="shape453_swf_0_Layer0_0_MEMBER_24_FILL">
<path fill="#7A6E81" stroke="none" d="
M -56.35 -40.2
Q -58.75 -44.15 -61.45 -44.65 -66.15 -45.5 -72.1 -38.35 -75.9 -33.75 -78.75 -28 -80.8 -23.85 -77.5 -20.15 -73.35 -15.55 -62.75 -17.3 -57.15 -18.25 -54.8 -22.55 -52.75 -26.2 -53.4 -31.5 -53.95 -36.3 -56.35 -40.2 Z"/>
</g>

<g id="shape453_swf_0_Layer0_0_MEMBER_25_FILL">
<path fill="#7A6E81" stroke="none" d="
M 7.1 -31.35
Q 9.05 -34.55 4.05 -37.65 -0.05 -40.25 -7.25 -42 -13.85 -43.6 -17.45 -43.3 -21.25 -43.3 -25.75 -42.2 -34.75 -40.05 -38.1 -34.65 -43.35 -26.2 -38 -22.35 -31.05 -17.3 -7.45 -24 4.8 -27.45 7.1 -31.35 Z"/>
</g>

<g id="shape453_swf_0_Layer0_0_MEMBER_26_FILL">
<path fill="#7A6E81" stroke="none" d="
M 29.8 -35.65
Q 29.7 -31.5 36.55 -24.65 40.65 -20.55 48.15 -21.15 56.3 -21.8 63.9 -28 74.05 -36.2 62.4 -40.25 53.95 -43.2 44.55 -42.65 29.95 -41.75 29.8 -35.65 Z"/>
</g>

<g id="shape453_swf_0_Layer0_0_MEMBER_27_FILL">
<path fill="#B29EAD" stroke="none" d="
M -7.15 -42
Q -11.95 -43.7 -18.45 -43.8 -23.75 -43.9 -27.75 -41.45 -31.4 -39.15 -31.8 -36.15 -32.2 -33 -28.5 -31.35 -24.15 -29.45 -15.6 -30.5 -7.2 -31.5 -3.5 -33.75 -0.25 -35.75 -1.4 -38.1 -2.55 -40.4 -7.15 -42 Z"/>
</g>

<g id="shape453_swf_0_Layer0_0_MEMBER_28_FILL">
<path fill="#B29EAD" stroke="none" d="
M 38.9 -41.1
Q 37.2 -39.65 37.95 -37.65 39.75 -32.7 49.9 -32 55 -31.65 59.45 -33.3 63.7 -34.85 64.4 -37.1 65.2 -39.5 60.8 -41 55.6 -42.75 44.55 -42.65 40.7 -42.6 38.9 -41.1 Z"/>
</g>

<g id="shape453_swf_0_Layer0_0_MEMBER_29_FILL">
<path fill="#B29EAD" stroke="none" d="
M -61.45 -44.65
Q -64.55 -45.3 -67.75 -43.2 -70.75 -41.2 -72.4 -37.95 -74.1 -34.6 -73.35 -31.9 -72.45 -28.9 -68.6 -28 -64.75 -27.1 -62 -29.3 -59.65 -31.2 -58.7 -34.75 -57.8 -38.1 -58.55 -41 -59.3 -44.05 -61.45 -44.65 Z"/>
</g>

<g id="shape453_swf_0_Layer0_0_MEMBER_30_FILL">
<path fill="#BEBECC" stroke="none" d="
M -9.95 -43.45
Q -13.3 -44.9 -19.6 -44.5 -22.35 -44.3 -24.5 -43.15 -26.6 -42.05 -26.95 -40.6 -27.95 -37.05 -18.6 -36 -13.85 -35.45 -10.55 -36.85 -7.55 -38.1 -7.3 -40.15 -7 -42.2 -9.95 -43.45 Z"/>
</g>

<g id="shape453_swf_0_Layer0_0_MEMBER_31_FILL">
<path fill="#BEBECC" stroke="none" d="
M 38.2 -39.9
Q 37.6 -38.75 38.3 -37.75 39.05 -36.7 40.9 -36.5 49 -35.55 55.2 -36.4 60.7 -37.15 62.1 -38.8 63.55 -40.45 59.8 -41.65 55.5 -43.05 46.4 -43 39.8 -42.95 38.2 -39.9 Z"/>
</g>

<g id="shape453_swf_0_Layer0_0_MEMBER_32_FILL">
<path fill="#BEBECC" stroke="none" d="
M -59.3 -43.4
Q -60.55 -45.3 -62.65 -45.5 -64.45 -45.7 -66.35 -44.75 -68.25 -43.8 -69.1 -42.3 -71.25 -38.55 -65.1 -36.5 -61.95 -35.45 -60.1 -36.55 -58.5 -37.5 -58.3 -39.65 -58.15 -41.7 -59.3 -43.4 Z"/>
</g>

<g id="shape453_swf_0_Layer0_0_MEMBER_33_FILL">
<path fill="#435B54" stroke="none" d="
M 9.8 -23.6
Q 6.35 -22.5 6.9 -21.5 10.4 -14.95 17.9 -12.35 26.05 -9.6 27.4 -17.5 28.7 -25 17.4 -24.8 13.25 -24.75 9.8 -23.6 Z"/>
</g>

<g id="shape453_swf_0_Layer0_0_MEMBER_34_FILL">
<path fill="#435B54" stroke="none" d="
M 37.4 -29
Q 37.2 -32.35 35.9 -33 35.05 -33.4 31.95 -32.1 28.6 -30.7 26.2 -28.6 19.35 -22.6 27.4 -17.5 33.75 -13.5 36.55 -22.35 37.55 -25.7 37.4 -29 Z"/>
</g>

<g id="shape453_swf_0_Layer0_0_MEMBER_35_FILL">
<path fill="#749174" stroke="none" d="
M 25.65 -22.05
Q 22.45 -19.5 27.4 -17.5 32.65 -15.4 34.1 -19.25 34.65 -20.75 33.95 -22.15 33.2 -23.65 31.4 -24 28.7 -24.55 25.65 -22.05 Z"/>
</g>

<g id="shape453_swf_0_Layer0_0_MEMBER_36_FILL">
<path fill="#749174" stroke="none" d="
M 17.05 -19.65
Q 8.5 -21.65 9.9 -19.5 15.75 -10.4 21.45 -11.1 23.55 -11.4 24.9 -12.9 26.1 -14.25 25.9 -15.5 25.55 -17.7 17.05 -19.65 Z"/>
</g>

<g id="shape453_swf_0_Layer0_0_MEMBER_37_FILL">
<path fill="#A8C68F" stroke="none" d="
M 34.15 -29.5
Q 31.55 -28.95 31.2 -27.05 30.85 -25.15 33.15 -24.75 35.25 -24.4 35.4 -27.05 35.6 -29.8 34.15 -29.5 Z"/>
</g>

<g id="shape453_swf_0_Layer0_0_MEMBER_38_FILL">
<path fill="#A8C68F" stroke="none" d="
M 24.55 -15.75
Q 25.2 -17.9 20.15 -18.75 15.65 -19.5 16.1 -16.4 16.6 -13.3 20.15 -13.5 23.95 -13.7 24.55 -15.75 Z"/>
</g>

<g id="shape453_swf_0_Layer0_0_MEMBER_39_FILL">
<path fill="#435B54" stroke="none" d="
M -87.4 -51.9
L -90.55 -51.8
Q -91.35 -45.55 -86.5 -40.45 -81.4 -35.1 -76.9 -39.8 -72.75 -44.2 -81.25 -49.2 -84.3 -51.05 -87.4 -51.9 Z"/>
</g>

<g id="shape453_swf_0_Layer0_0_MEMBER_40_FILL">
<path fill="#435B54" stroke="none" d="
M -93.55 -28.8
Q -91.85 -26.75 -87.95 -26.85 -84.25 -26.95 -80.7 -28.8 -77 -30.75 -75.75 -33.5 -74.3 -36.65 -76.9 -39.8 -81.6 -45.55 -88.35 -38.1 -90.65 -35.5 -92.4 -32.25 -93.95 -29.3 -93.55 -28.8 Z"/>
</g>

<g id="shape453_swf_0_Layer0_0_MEMBER_41_FILL">
<path fill="#435B54" stroke="none" d="
M -125.4 -123.9
Q -132.65 -119.55 -128.5 -112.75 -124.4 -106.05 -118.55 -115.2 -116.5 -118.45 -115.25 -122.15 -114.05 -125.7 -114.8 -126.05
L -119.4 -126.15
Q -122.7 -125.5 -125.4 -123.9 Z"/>
</g>

<g id="shape453_swf_0_Layer0_0_MEMBER_42_FILL">
<path fill="#435B54" stroke="none" d="
M -91.35 -201.65
Q -94.25 -201 -97.05 -199.55 -99.65 -198.2 -99.8 -197.5 -100.1 -196.35 -97.4 -193.9 -94.6 -191.35 -91.4 -190.1 -82.5 -186.55 -82.95 -197.25 -83.15 -203.55 -91.35 -201.65 Z"/>
</g>

<g id="shape453_swf_0_Layer0_0_MEMBER_43_FILL">
<path fill="#6F4A4F" stroke="none" d="
M -95.55 -95.5
Q -96.65 -94.2 -85.8 -74 -75.75 -55.25 -73.3 -52 -72 -50.25 -69.15 -53.75 -66.65 -56.8 -66.25 -58.5 -66 -59.4 -77.9 -76.75 -89.7 -94 -90.9 -94.8
L -93 -96.15
Q -94.5 -96.8 -95.55 -95.5 Z"/>
</g>

<g id="shape453_swf_0_Layer0_0_MEMBER_44_FILL">
<path fill="#A77A6E" stroke="none" d="
M -95.55 -100.85
Q -94 -99.1 -90.9 -107.65 -87.55 -116.95 -88.6 -125.35 -89.55 -132.85 -91.75 -132.15 -93.65 -131.55 -95.15 -124.15 -96.5 -117.45 -96.65 -110 -96.85 -102.3 -95.55 -100.85 Z"/>
</g>

<g id="shape453_swf_0_Layer0_0_MEMBER_45_FILL">
<path fill="#A77A6E" stroke="none" d="
M -77.55 -192.5
L -79.4 -189.35
Q -81.2 -185.55 -82.85 -182.75 -89.6 -171.2 -103.55 -156.15 -105.05 -154.55 -102.9 -152.65 -100.75 -150.75 -99.75 -151.65 -90.45 -159.6 -75.7 -188.75 -74.85 -191.7 -75.6 -192.7 -76.3 -193.65 -77.55 -192.5 Z"/>
</g>

<g id="shape453_swf_0_Layer0_0_MEMBER_46_FILL">
<path fill="#A77A6E" stroke="none" d="
M -52.8 -221.5
Q -51.15 -226.8 -71.05 -212.25 -72.15 -211.15 -72.45 -207.85 -72.75 -204.5 -71.55 -204.5 -70.4 -204.5 -61.7 -212.5 -53.15 -220.4 -52.8 -221.5 Z"/>
</g>

<g id="shape453_swf_0_Layer0_0_MEMBER_47_FILL">
<path fill="#A77A6E" stroke="none" d="
M -72.75 -199.4
Q -73.3 -204.15 -75.25 -204.3 -79.25 -204.6 -79.3 -200.15 -79.35 -195.7 -75.55 -195.15 -72.25 -194.7 -72.75 -199.4 Z"/>
</g>

<g id="shape453_swf_0_Layer0_0_MEMBER_48_FILL">
<path fill="#A77A6E" stroke="none" d="
M -123.65 -107.8
Q -125.5 -107.7 -126.05 -106.25 -126.65 -104.7 -112.45 -93.25 -98.3 -81.8 -98.3 -84 -98.3 -85.95 -108.45 -96.15 -117.95 -105.65 -119.8 -106.75 -121.9 -107.9 -123.65 -107.8 Z"/>
</g>

<g id="shape453_swf_0_Layer0_0_MEMBER_49_FILL">
<path fill="#EFC4A7" stroke="none" d="
M -91.6 -132.95
Q -93.7 -133.55 -93.9 -122.05 -94.1 -110.6 -91.8 -111.25 -88.45 -112.2 -88.35 -122.1 -88.3 -131.95 -91.6 -132.95 Z"/>
</g>

<g id="shape453_swf_0_Layer0_0_MEMBER_50_FILL">
<path fill="#996A74" stroke="none" d="
M -90.95 -92.05
Q -90.75 -89.55 -83.25 -76.8 -76.05 -64.55 -73.4 -64.8 -72.45 -64.9 -72.6 -66.7 -72.75 -68.45 -73.8 -70.25
L -86.9 -89.5
Q -91.1 -94 -90.95 -92.05 Z"/>
</g>

<g id="shape453_swf_0_Layer0_0_MEMBER_51_FILL">
<path fill="#D9C4A7" stroke="none" d="
M -73.15 -201.15
Q -73.5 -203.75 -75.25 -204.3 -78 -205.2 -78.25 -201.85 -78.5 -198.5 -75.55 -198.5 -72.8 -198.5 -73.15 -201.15 Z"/>
</g>

<g id="shape453_swf_0_Layer0_0_MEMBER_52_FILL">
<path fill="#EFC4A7" stroke="none" d="
M -97.9 -155.8
Q -95.95 -152.6 -88.95 -163.85 -86.5 -167.8 -84.55 -171.7 -82.7 -175.4 -83.25 -175.15 -84.3 -174.65 -91.25 -165.55 -98.25 -156.4 -97.9 -155.8 Z"/>
</g>

<g id="shape453_swf_0_Layer0_0_MEMBER_53_FILL">
<path fill="#6F4A4F" stroke="none" d="
M -89.7 -65.2
Q -87.6 -58.3 -83.8 -53.75 -80.2 -49.35 -74.9 -50.5 -72.25 -51.05 -70.3 -52.5
L -76.65 -57.45
Q -82.75 -62.15 -84.55 -64.15 -91.8 -72.2 -89.7 -65.2 Z"/>
</g>

<g id="shape453_swf_0_Layer0_0_MEMBER_54_FILL">
<path fill="#749174" stroke="none" d="
M -89.1 -28.8
Q -88.15 -26.25 -81.55 -28.8 -76.4 -30.85 -77.25 -34.6 -77.55 -36 -78.65 -36.7
L -80.9 -36.8
Q -90.15 -31.5 -89.1 -28.8 Z"/>
</g>

<g id="shape453_swf_0_Layer0_0_MEMBER_55_FILL">
<path fill="#749174" stroke="none" d="
M -86.9 -42.45
Q -87.75 -39.4 -82.25 -38.5 -79 -37.95 -78.5 -40.6 -78 -43.3 -82.25 -44.5
L -85.25 -44.25
Q -86.55 -43.6 -86.9 -42.45 Z"/>
</g>

<g id="shape453_swf_0_Layer0_0_MEMBER_56_FILL">
<path fill="#749174" stroke="none" d="
M -127.2 -111.2
Q -126.1 -110.2 -124.25 -110.8 -120.55 -111.95 -120.55 -115.15 -120.55 -118.3 -122.9 -118.15 -127.7 -117.9 -128.05 -113.7 -128.2 -112.1 -127.2 -111.2 Z"/>
</g>

<g id="shape453_swf_0_Layer0_0_MEMBER_57_FILL">
<path fill="#749174" stroke="none" d="
M -95.65 -193.6
Q -94.7 -190.15 -89.55 -190.15 -84.8 -190.15 -86 -193.4 -87.15 -196.65 -90.9 -196.8 -93.65 -196.9 -94.9 -195.9 -96.05 -195 -95.65 -193.6 Z"/>
</g>

<g id="shape453_swf_0_Layer0_0_MEMBER_58_FILL">
<path fill="#A8C68F" stroke="none" d="
M -84.05 -33.65
Q -84.45 -30.85 -81.9 -30.8 -77.2 -30.75 -76.8 -34.05 -76.65 -35.35 -77.7 -36.15 -78.85 -37.05 -80.9 -36.8 -83.6 -36.5 -84.05 -33.65 Z"/>
</g>

<g id="shape453_swf_0_Layer0_0_MEMBER_59_FILL">
<path fill="#A8C68F" stroke="none" d="
M -86.1 -193.5
Q -85.8 -195.6 -88.25 -196.5 -91 -197.5 -91.6 -195.2 -92.2 -192.9 -89.25 -192.15 -86.35 -191.45 -86.1 -193.5 Z"/>
</g>

<g id="shape453_swf_0_Layer0_0_MEMBER_60_FILL">
<path fill="#749174" stroke="none" d="
M -84.55 -200.4
Q -86.1 -201.7 -89.7 -202 -91.55 -202.1 -93.5 -201.25 -95.3 -200.45 -95.95 -199.4 -97.65 -196.6 -89.95 -197.75 -82.7 -198.8 -84.55 -200.4 Z"/>
</g>

<g id="shape453_swf_0_Layer0_0_MEMBER_61_FILL">
<path fill="#749174" stroke="none" d="
M -126.55 -123.5
Q -132.25 -117.8 -128.3 -118.3 -124.4 -118.8 -119.55 -123.25 -115.55 -126.9 -120.15 -126.1 -124.8 -125.25 -126.55 -123.5 Z"/>
</g>

<g id="shape453_swf_0_Layer0_0_MEMBER_62_FILL">
<path fill="#EFC4A7" stroke="none" d="
M -122.8 -107.4
Q -124.3 -107.35 -124.6 -106.55 -125.4 -104.35 -117.25 -100.15 -109.15 -96 -112.75 -100.5 -116.35 -105 -119.8 -106.75 -121.3 -107.45 -122.8 -107.4 Z"/>
</g>

<g id="shape453_swf_0_Layer0_0_MEMBER_63_FILL">
<path fill="#D9C4A7" stroke="none" d="
M -68.9 -206.5
Q -67.75 -205.7 -61.55 -212.4 -55.55 -218.8 -60.25 -216.5 -65.55 -213.85 -68.2 -211 -71.05 -207.95 -68.9 -206.5 Z"/>
</g>

<g id="shape453_swf_0_Layer0_0_MEMBER_64_FILL">
<path fill="#A8C68F" stroke="none" d="
M -126.9 -116.3
Q -127.45 -113.95 -123.9 -114.5 -120.7 -114.95 -120.8 -116.45 -120.85 -117.85 -122.9 -118.15 -126.35 -118.65 -126.9 -116.3 Z"/>
</g>

<g id="shape453_swf_0_Layer0_0_MEMBER_65_FILL">
<path fill="#A8C68F" stroke="none" d="
M 25.75 -20.85
Q 25.65 -19 28.95 -19 32.15 -19 31.6 -21.55 31.1 -24.1 28.7 -23.5 25.8 -22.7 25.75 -20.85 Z"/>
</g>

<g id="shape453_swf_0_Layer0_0_MEMBER_66_FILL">
<path fill="#996A74" stroke="none" d="
M -84.6 -61.2
Q -85.15 -60 -84.05 -58.45 -82.75 -56.65 -79.8 -55.25 -74.2 -52.6 -74.9 -55.15 -75.5 -57.15 -78.55 -60 -80.65 -61.9 -82.45 -62.15 -84.1 -62.35 -84.6 -61.2 Z"/>
</g>

<g id="shape453_swf_0_Layer0_0_MEMBER_67_FILL">
<path fill="#7A6E81" stroke="none" d="
M 23.8 -41.5
Q 25.1 -44.55 18.75 -45.5 14.65 -46.1 14.35 -43.6 14.1 -41.1 18.1 -39.8 20 -39.2 21.7 -39.8 23.3 -40.35 23.8 -41.5 Z"/>
</g>

<g id="shape453_swf_0_Layer0_0_MEMBER_68_FILL">
<path fill="#A77A6E" stroke="none" d="
M -89.45 -175.5
Q -86.4 -181.25 -87.8 -181.25 -90.55 -181.25 -94.2 -175 -97.9 -168.7 -95.05 -169.25 -92.55 -169.7 -89.45 -175.5 Z"/>
</g>

<g id="shape453_swf_0_Layer0_0_MEMBER_69_FILL">
<path fill="#667F7F" stroke="none" d="
M 53.1 -72
Q 51.65 -79.8 51.6 -78.65 51.2 -71.1 18.6 -67.4
L -3.8 -65.6 -13.95 -65.2 54.55 -63.95 53.1 -72 Z"/>
</g>

<g id="shape453_swf_0_Layer0_0_MEMBER_70_FILL">
<path fill="#435B54" stroke="none" d="
M 84.8 -175.5
Q 81.35 -176 81.45 -175.15 81.6 -173.3 82.8 -169.55 84.3 -164.95 86.25 -162 91.8 -153.2 97.75 -162.8 101.8 -169.3 91.85 -173.55 88.35 -175.05 84.8 -175.5 Z"/>
</g>

<g id="shape453_swf_0_Layer0_0_MEMBER_71_FILL">
<path fill="#435B54" stroke="none" d="
M 80.1 -54.7
Q 77.7 -52.9 78.75 -48.5 80.65 -40.45 89.4 -43.7 92.3 -44.8 95.1 -46.85 97.65 -48.7 97.45 -49.15 96.6 -51.15 93.1 -53.1 89.7 -55 86.1 -55.55 82.1 -56.2 80.1 -54.7 Z"/>
</g>

<g id="shape453_swf_0_Layer0_0_MEMBER_72_FILL">
<path fill="#435B54" stroke="none" d="
M 78.7 -64.05
Q 75.25 -62.2 73 -59.8 66.5 -53 76.75 -49.15 82.85 -46.85 84.1 -55.7 84.55 -58.95 84.1 -62.1 83.65 -65.2 82.75 -65.5 81.9 -65.8 78.7 -64.05 Z"/>
</g>

<g id="shape453_swf_0_Layer0_0_MEMBER_73_FILL">
<path fill="#435B54" stroke="none" d="
M 108.35 -154.6
Q 101.95 -155.55 101.45 -149.8 100.8 -142.45 107.75 -144.7 110.2 -145.5 112.55 -147.25 114.75 -148.9 114.75 -149.8 114.75 -151.4 112.75 -152.85 110.85 -154.2 108.35 -154.6 Z"/>
</g>

<g id="shape453_swf_0_Layer0_0_MEMBER_74_FILL">
<path fill="#A77A6E" stroke="none" d="
M 71 -118.1
Q 69.45 -120.65 68.75 -119.5
L 70.9 -99.7
Q 73.8 -79.6 77.75 -77.8 82 -75.9 82.45 -77.95 82.8 -79.6 80.8 -85.3
L 76.35 -97.9
Q 73.6 -106.55 72.7 -113.75 72.45 -115.7 71 -118.1 Z"/>
</g>

<g id="shape453_swf_0_Layer0_0_MEMBER_75_FILL">
<path fill="#A77A6E" stroke="none" d="
M 95.55 -152.1
Q 94.4 -155 93.1 -155.15 90.5 -155.4 89.2 -152.9 88.05 -150.7 88.25 -147.2 88.5 -143.85 89.85 -141.15 91.3 -138.3 93.45 -137.8 97.65 -136.9 96.9 -145.85 96.6 -149.35 95.55 -152.1 Z"/>
</g>

<g id="shape453_swf_0_Layer0_0_MEMBER_76_FILL">
<path fill="#A77A6E" stroke="none" d="
M 111.65 -104.7
Q 110.05 -106.9 109.75 -106.15 108 -102 100.65 -96 94.45 -90.95 91.95 -90 90.35 -89.4 92.8 -86.1 95.3 -82.8 97.1 -82.8 98.75 -82.8 106.25 -91.65 113.7 -100.4 113.45 -101.5 113.15 -102.65 111.65 -104.7 Z"/>
</g>

<g id="shape453_swf_0_Layer0_0_MEMBER_77_FILL">
<path fill="#A77A6E" stroke="none" d="
M 75.45 -215.05
Q 71.8 -213.9 72.1 -212.8 95.75 -172.8 98.45 -173.8 100.25 -174.5 91.5 -193.9 82.85 -213 80.75 -214.8 79.15 -216.2 75.45 -215.05 Z"/>
</g>

<g id="shape453_swf_0_Layer0_0_MEMBER_78_FILL">
<path fill="#A77A6E" stroke="none" d="
M 47.2 -221.5
Q 47.45 -220.9 51.9 -219.75 56.4 -218.55 61.15 -217.9 74.15 -216 71.1 -220.15 67.9 -224.55 56.75 -224.45 52.4 -224.4 49.55 -223.55 46.6 -222.7 47.2 -221.5 Z"/>
</g>

<g id="shape453_swf_0_Layer0_0_MEMBER_79_FILL">
<path fill="#6F4A4F" stroke="none" d="
M 108.85 -71.25
Q 94.95 -67.1 94.45 -66.5 93.1 -64.8 93.05 -63.1 93 -60.95 95.45 -60.5 97.9 -60.05 111.5 -67.45 125 -74.8 123.75 -75.15 122.8 -75.4 108.85 -71.25 Z"/>
</g>

<g id="shape453_swf_0_Layer0_0_MEMBER_80_FILL">
<path fill="#A77A6E" stroke="none" d="
M 88.75 -66.5
Q 90.85 -70.05 88.35 -80.1
L 86.4 -86.4 85.45 -88.5
Q 85.6 -82.45 84.15 -75.75 82.85 -69.9 83.1 -68.8 83.8 -65.5 84.95 -64.4 86.6 -62.75 88.75 -66.5 Z"/>
</g>

<g id="shape453_swf_0_Layer0_0_MEMBER_81_FILL">
<path fill="#A77A6E" stroke="none" d="
M 105.85 -121.95
Q 100.05 -133 98.7 -134
L 95.4 -134.1
Q 93.45 -133.25 94.2 -132 101.15 -119.7 106.15 -113.9 109.9 -109.5 110.95 -110.25 111.65 -110.8 105.85 -121.95 Z"/>
</g>

<g id="shape453_swf_0_Layer0_0_MEMBER_82_FILL">
<path fill="#6F4A4F" stroke="none" d="
M 70.6 -69.35
Q 67.15 -65.6 67.95 -63.75 69.35 -60.55 74.7 -66.3 76.75 -68.55 77.5 -70.4 78.35 -72.5 76.95 -72.75 74.15 -73.3 70.6 -69.35 Z"/>
</g>

<g id="shape453_swf_0_Layer0_0_MEMBER_83_FILL">
<path fill="#D9C4A7" stroke="none" d="
M 77.5 -210.1
Q 74.5 -209.8 74.75 -208.8 75.3 -206.7 79.75 -198.95 85.15 -189.6 88.75 -186.8 92.45 -184 87.75 -196.05 83.1 -207.8 81.45 -209.5 80.45 -210.45 77.5 -210.1 Z"/>
</g>

<g id="shape453_swf_0_Layer0_0_MEMBER_84_FILL">
<path fill="#D9C4A7" stroke="none" d="
M 61.4 -220
Q 58.65 -222.9 55.75 -223.5 53.35 -223.95 51.75 -223.45 50.25 -222.95 50.25 -221.95 50.15 -219.3 57.45 -218.15 64.2 -217.05 61.4 -220 Z"/>
</g>

<g id="shape453_swf_0_Layer0_0_MEMBER_85_FILL">
<path fill="#EFC4A7" stroke="none" d="
M 104.05 -94.15
Q 105.35 -96.5 105.8 -98.25 106.3 -100.05 105.45 -99.5 98.75 -95.1 96.45 -91.95 94 -88.65 97.45 -88.15 100.55 -87.7 104.05 -94.15 Z"/>
</g>

<g id="shape453_swf_0_Layer0_0_MEMBER_86_FILL">
<path fill="#D9C4A7" stroke="none" d="
M 93 -153.15
Q 92.1 -155.2 91.45 -155.15 88.75 -154.85 87.95 -149.3 87.15 -143.7 90.45 -143.15 95.25 -142.25 94.3 -148.7 93.95 -151.05 93 -153.15 Z"/>
</g>

<g id="shape453_swf_0_Layer0_0_MEMBER_87_FILL">
<path fill="#6F4A4F" stroke="none" d="
M 133.65 -90.6
Q 133.55 -92.55 132.45 -92.5 126.75 -92.25 124.75 -85.95 123.95 -83.5 124.35 -81.65 124.75 -79.75 126.1 -79.8 130.65 -80.05 132.9 -86.3 133.75 -88.75 133.65 -90.6 Z"/>
</g>

<g id="shape453_swf_0_Layer0_0_MEMBER_88_FILL">
<path fill="#EFC4A7" stroke="none" d="
M 72.75 -101.8
Q 71 -103.3 70.7 -100.25 70.45 -97.55 71.35 -92.6 73.6 -80.15 76.45 -80.15 78.9 -80.15 76.55 -90.5 74.25 -100.55 72.75 -101.8 Z"/>
</g>

<g id="shape453_swf_0_Layer0_0_MEMBER_89_FILL">
<path fill="#996A74" stroke="none" d="
M 131.45 -89.4
Q 133.05 -91.9 130.75 -92.15 128.45 -92.4 126.7 -89.9 125 -87.4 127.45 -87.15 129.9 -86.9 131.45 -89.4 Z"/>
</g>

<g id="shape453_swf_0_Layer0_0_MEMBER_90_FILL">
<path fill="#996A74" stroke="none" d="
M 103 -69.65
Q 95.65 -66.85 96.1 -65.5 97.65 -60.85 106.85 -66.05 110.2 -67.95 112.3 -70 114.45 -72 113.1 -72.15 110.25 -72.4 103 -69.65 Z"/>
</g>

<g id="shape453_swf_0_Layer0_0_MEMBER_91_FILL">
<path fill="#749174" stroke="none" d="
M 74.7 -57.95
Q 69.7 -52.9 74.75 -50.5 79.8 -48.1 82.2 -54.75 83.05 -57.15 83.1 -59.6 83.15 -61.95 82.45 -62.15 81.4 -62.4 79.05 -61.1 76.6 -59.8 74.7 -57.95 Z"/>
</g>

<g id="shape453_swf_0_Layer0_0_MEMBER_92_FILL">
<path fill="#749174" stroke="none" d="
M 88.45 -46.25
Q 88.85 -47.85 88.3 -49.4 87.7 -51.05 86.45 -51.5 82.5 -52.8 80.5 -49.55 78.55 -46.3 83.1 -44.15 87.5 -42.05 88.45 -46.25 Z"/>
</g>

<g id="shape453_swf_0_Layer0_0_MEMBER_93_FILL">
<path fill="#749174" stroke="none" d="
M 93.6 -163.1
Q 92.95 -166.8 90.1 -169.15 87.45 -171.35 85.9 -170.75 84.55 -170.25 84.55 -167.95 84.6 -165.7 85.9 -163.6 87.4 -161.2 89.75 -160.5 94.3 -159.15 93.6 -163.1 Z"/>
</g>

<g id="shape453_swf_0_Layer0_0_MEMBER_94_FILL">
<path fill="#749174" stroke="none" d="
M 97.25 -168.05
Q 96.9 -171.65 94.1 -172.15 91.3 -172.65 91.3 -170.55 91.3 -168.45 94.45 -166.5 95.95 -165.55 96.7 -166.15 97.4 -166.7 97.25 -168.05 Z"/>
</g>

<g id="shape453_swf_0_Layer0_0_MEMBER_95_FILL">
<path fill="#749174" stroke="none" d="
M 109.25 -148.9
Q 108.9 -151.3 105.75 -150.8 102.4 -150.3 102.15 -147.7 101.9 -145.05 105.75 -145.8 109.6 -146.5 109.25 -148.9 Z"/>
</g>

<g id="shape453_swf_0_Layer0_0_MEMBER_96_FILL">
<path fill="#A8C68F" stroke="none" d="
M 78.45 -55.15
Q 78.65 -57.8 75.75 -57.8 73.15 -57.8 72.55 -55.15 71.95 -52.5 75.1 -52.5 78.3 -52.5 78.45 -55.15 Z"/>
</g>

<g id="shape453_swf_0_Layer0_0_MEMBER_97_FILL">
<path fill="#A8C68F" stroke="none" d="
M 82.75 -46.15
Q 85.6 -44.45 85.75 -47.95 85.85 -51.5 83.45 -51.5 81 -51.5 80.5 -49.7 79.95 -47.8 82.75 -46.15 Z"/>
</g>

<g id="shape453_swf_0_Layer0_0_MEMBER_98_FILL">
<path fill="#A8C68F" stroke="none" d="
M 93.15 -163.1
Q 94.25 -166.55 91.75 -167.8 89.4 -169 87.5 -167.15 85.6 -165.25 88.75 -162.5 92.05 -159.7 93.15 -163.1 Z"/>
</g>
</defs>

<g transform="matrix( 0.5925140380859375, 0, 0, 0.5925140380859375, 252.5,427.6) ">
<g transform="matrix( 1, 0, 0, 1, 0,0) ">
<use xlink:href="#shape453_swf_0_Layer0_0_FILL"/>
</g>

<g transform="matrix( 1, 0, 0, 1, 0,0) ">
<use xlink:href="#shape453_swf_0_Layer0_0_MEMBER_0_FILL"/>
</g>

<g transform="matrix( 1, 0, 0, 1, 0,0) ">
<use xlink:href="#shape453_swf_0_Layer0_0_MEMBER_1_FILL"/>
</g>

<g transform="matrix( 1, 0, 0, 1, 0,0) ">
<use xlink:href="#shape453_swf_0_Layer0_0_MEMBER_2_FILL"/>
</g>

<g transform="matrix( 1, 0, 0, 1, 0,0) ">
<use xlink:href="#shape453_swf_0_Layer0_0_MEMBER_3_FILL"/>
</g>

<g transform="matrix( 1, 0, 0, 1, 0,0) ">
<use xlink:href="#shape453_swf_0_Layer0_0_MEMBER_4_FILL"/>
</g>

<g transform="matrix( 1, 0, 0, 1, 0,0) ">
<use xlink:href="#shape453_swf_0_Layer0_0_MEMBER_5_FILL"/>
</g>

<g transform="matrix( 1, 0, 0, 1, 0,0) ">
<use xlink:href="#shape453_swf_0_Layer0_0_MEMBER_6_FILL"/>
</g>

<g transform="matrix( 1, 0, 0, 1, 0,0) ">
<use xlink:href="#shape453_swf_0_Layer0_0_MEMBER_7_FILL"/>
</g>

<g transform="matrix( 1, 0, 0, 1, 0,0) ">
<use xlink:href="#shape453_swf_0_Layer0_0_MEMBER_8_FILL"/>
</g>

<g transform="matrix( 1, 0, 0, 1, 0,0) ">
<use xlink:href="#shape453_swf_0_Layer0_0_MEMBER_9_FILL"/>
</g>

<g transform="matrix( 1, 0, 0, 1, 0,0) ">
<use xlink:href="#shape453_swf_0_Layer0_0_MEMBER_10_FILL"/>
</g>

<g transform="matrix( 1, 0, 0, 1, 0,0) ">
<use xlink:href="#shape453_swf_0_Layer0_0_MEMBER_11_FILL"/>
</g>

<g transform="matrix( 1, 0, 0, 1, 0,0) ">
<use xlink:href="#shape453_swf_0_Layer0_0_MEMBER_12_FILL"/>
</g>

<g transform="matrix( 1, 0, 0, 1, 0,0) ">
<use xlink:href="#shape453_swf_0_Layer0_0_MEMBER_13_FILL"/>
</g>

<g transform="matrix( 1, 0, 0, 1, 0,0) ">
<use xlink:href="#shape453_swf_0_Layer0_0_MEMBER_14_FILL"/>
</g>

<g transform="matrix( 1, 0, 0, 1, 0,0) ">
<use xlink:href="#shape453_swf_0_Layer0_0_MEMBER_15_FILL"/>
</g>

<g transform="matrix( 1, 0, 0, 1, 0,0) ">
<use xlink:href="#shape453_swf_0_Layer0_0_MEMBER_16_FILL"/>
</g>

<g transform="matrix( 1, 0, 0, 1, 0,0) ">
<use xlink:href="#shape453_swf_0_Layer0_0_MEMBER_17_FILL"/>
</g>

<g transform="matrix( 1, 0, 0, 1, 0,0) ">
<use xlink:href="#shape453_swf_0_Layer0_0_MEMBER_18_FILL"/>
</g>

<g transform="matrix( 1, 0, 0, 1, 0,0) ">
<use xlink:href="#shape453_swf_0_Layer0_0_MEMBER_19_FILL"/>
</g>

<g transform="matrix( 1, 0, 0, 1, 0,0) ">
<use xlink:href="#shape453_swf_0_Layer0_0_MEMBER_20_FILL"/>
</g>

<g transform="matrix( 1, 0, 0, 1, 0,0) ">
<use xlink:href="#shape453_swf_0_Layer0_0_MEMBER_21_FILL"/>
</g>

<g transform="matrix( 1, 0, 0, 1, 0,0) ">
<use xlink:href="#shape453_swf_0_Layer0_0_MEMBER_22_FILL"/>
</g>

<g transform="matrix( 1, 0, 0, 1, 0,0) ">
<use xlink:href="#shape453_swf_0_Layer0_0_MEMBER_23_FILL"/>
</g>

<g transform="matrix( 1, 0, 0, 1, 0,0) ">
<use xlink:href="#shape453_swf_0_Layer0_0_MEMBER_24_FILL"/>
</g>

<g transform="matrix( 1, 0, 0, 1, 0,0) ">
<use xlink:href="#shape453_swf_0_Layer0_0_MEMBER_25_FILL"/>
</g>

<g transform="matrix( 1, 0, 0, 1, 0,0) ">
<use xlink:href="#shape453_swf_0_Layer0_0_MEMBER_26_FILL"/>
</g>

<g transform="matrix( 1, 0, 0, 1, 0,0) ">
<use xlink:href="#shape453_swf_0_Layer0_0_MEMBER_27_FILL"/>
</g>

<g transform="matrix( 1, 0, 0, 1, 0,0) ">
<use xlink:href="#shape453_swf_0_Layer0_0_MEMBER_28_FILL"/>
</g>

<g transform="matrix( 1, 0, 0, 1, 0,0) ">
<use xlink:href="#shape453_swf_0_Layer0_0_MEMBER_29_FILL"/>
</g>

<g transform="matrix( 1, 0, 0, 1, 0,0) ">
<use xlink:href="#shape453_swf_0_Layer0_0_MEMBER_30_FILL"/>
</g>

<g transform="matrix( 1, 0, 0, 1, 0,0) ">
<use xlink:href="#shape453_swf_0_Layer0_0_MEMBER_31_FILL"/>
</g>

<g transform="matrix( 1, 0, 0, 1, 0,0) ">
<use xlink:href="#shape453_swf_0_Layer0_0_MEMBER_32_FILL"/>
</g>

<g transform="matrix( 1, 0, 0, 1, 0,0) ">
<use xlink:href="#shape453_swf_0_Layer0_0_MEMBER_33_FILL"/>
</g>

<g transform="matrix( 1, 0, 0, 1, 0,0) ">
<use xlink:href="#shape453_swf_0_Layer0_0_MEMBER_34_FILL"/>
</g>

<g transform="matrix( 1, 0, 0, 1, 0,0) ">
<use xlink:href="#shape453_swf_0_Layer0_0_MEMBER_35_FILL"/>
</g>

<g transform="matrix( 1, 0, 0, 1, 0,0) ">
<use xlink:href="#shape453_swf_0_Layer0_0_MEMBER_36_FILL"/>
</g>

<g transform="matrix( 1, 0, 0, 1, 0,0) ">
<use xlink:href="#shape453_swf_0_Layer0_0_MEMBER_37_FILL"/>
</g>

<g transform="matrix( 1, 0, 0, 1, 0,0) ">
<use xlink:href="#shape453_swf_0_Layer0_0_MEMBER_38_FILL"/>
</g>

<g transform="matrix( 1, 0, 0, 1, 0,0) ">
<use xlink:href="#shape453_swf_0_Layer0_0_MEMBER_39_FILL"/>
</g>

<g transform="matrix( 1, 0, 0, 1, 0,0) ">
<use xlink:href="#shape453_swf_0_Layer0_0_MEMBER_40_FILL"/>
</g>

<g transform="matrix( 1, 0, 0, 1, 0,0) ">
<use xlink:href="#shape453_swf_0_Layer0_0_MEMBER_41_FILL"/>
</g>

<g transform="matrix( 1, 0, 0, 1, 0,0) ">
<use xlink:href="#shape453_swf_0_Layer0_0_MEMBER_42_FILL"/>
</g>

<g transform="matrix( 1, 0, 0, 1, 0,0) ">
<use xlink:href="#shape453_swf_0_Layer0_0_MEMBER_43_FILL"/>
</g>

<g transform="matrix( 1, 0, 0, 1, 0,0) ">
<use xlink:href="#shape453_swf_0_Layer0_0_MEMBER_44_FILL"/>
</g>

<g transform="matrix( 1, 0, 0, 1, 0,0) ">
<use xlink:href="#shape453_swf_0_Layer0_0_MEMBER_45_FILL"/>
</g>

<g transform="matrix( 1, 0, 0, 1, 0,0) ">
<use xlink:href="#shape453_swf_0_Layer0_0_MEMBER_46_FILL"/>
</g>

<g transform="matrix( 1, 0, 0, 1, 0,0) ">
<use xlink:href="#shape453_swf_0_Layer0_0_MEMBER_47_FILL"/>
</g>

<g transform="matrix( 1, 0, 0, 1, 0,0) ">
<use xlink:href="#shape453_swf_0_Layer0_0_MEMBER_48_FILL"/>
</g>

<g transform="matrix( 1, 0, 0, 1, 0,0) ">
<use xlink:href="#shape453_swf_0_Layer0_0_MEMBER_49_FILL"/>
</g>

<g transform="matrix( 1, 0, 0, 1, 0,0) ">
<use xlink:href="#shape453_swf_0_Layer0_0_MEMBER_50_FILL"/>
</g>

<g transform="matrix( 1, 0, 0, 1, 0,0) ">
<use xlink:href="#shape453_swf_0_Layer0_0_MEMBER_51_FILL"/>
</g>

<g transform="matrix( 1, 0, 0, 1, 0,0) ">
<use xlink:href="#shape453_swf_0_Layer0_0_MEMBER_52_FILL"/>
</g>

<g transform="matrix( 1, 0, 0, 1, 0,0) ">
<use xlink:href="#shape453_swf_0_Layer0_0_MEMBER_53_FILL"/>
</g>

<g transform="matrix( 1, 0, 0, 1, 0,0) ">
<use xlink:href="#shape453_swf_0_Layer0_0_MEMBER_54_FILL"/>
</g>

<g transform="matrix( 1, 0, 0, 1, 0,0) ">
<use xlink:href="#shape453_swf_0_Layer0_0_MEMBER_55_FILL"/>
</g>

<g transform="matrix( 1, 0, 0, 1, 0,0) ">
<use xlink:href="#shape453_swf_0_Layer0_0_MEMBER_56_FILL"/>
</g>

<g transform="matrix( 1, 0, 0, 1, 0,0) ">
<use xlink:href="#shape453_swf_0_Layer0_0_MEMBER_57_FILL"/>
</g>

<g transform="matrix( 1, 0, 0, 1, 0,0) ">
<use xlink:href="#shape453_swf_0_Layer0_0_MEMBER_58_FILL"/>
</g>

<g transform="matrix( 1, 0, 0, 1, 0,0) ">
<use xlink:href="#shape453_swf_0_Layer0_0_MEMBER_59_FILL"/>
</g>

<g transform="matrix( 1, 0, 0, 1, 0,0) ">
<use xlink:href="#shape453_swf_0_Layer0_0_MEMBER_60_FILL"/>
</g>

<g transform="matrix( 1, 0, 0, 1, 0,0) ">
<use xlink:href="#shape453_swf_0_Layer0_0_MEMBER_61_FILL"/>
</g>

<g transform="matrix( 1, 0, 0, 1, 0,0) ">
<use xlink:href="#shape453_swf_0_Layer0_0_MEMBER_62_FILL"/>
</g>

<g transform="matrix( 1, 0, 0, 1, 0,0) ">
<use xlink:href="#shape453_swf_0_Layer0_0_MEMBER_63_FILL"/>
</g>

<g transform="matrix( 1, 0, 0, 1, 0,0) ">
<use xlink:href="#shape453_swf_0_Layer0_0_MEMBER_64_FILL"/>
</g>

<g transform="matrix( 1, 0, 0, 1, 0,0) ">
<use xlink:href="#shape453_swf_0_Layer0_0_MEMBER_65_FILL"/>
</g>

<g transform="matrix( 1, 0, 0, 1, 0,0) ">
<use xlink:href="#shape453_swf_0_Layer0_0_MEMBER_66_FILL"/>
</g>

<g transform="matrix( 1, 0, 0, 1, 0,0) ">
<use xlink:href="#shape453_swf_0_Layer0_0_MEMBER_67_FILL"/>
</g>

<g transform="matrix( 1, 0, 0, 1, 0,0) ">
<use xlink:href="#shape453_swf_0_Layer0_0_MEMBER_68_FILL"/>
</g>

<g transform="matrix( 1, 0, 0, 1, 0,0) ">
<use xlink:href="#shape453_swf_0_Layer0_0_MEMBER_69_FILL"/>
</g>

<g transform="matrix( 1, 0, 0, 1, 0,0) ">
<use xlink:href="#shape453_swf_0_Layer0_0_MEMBER_70_FILL"/>
</g>

<g transform="matrix( 1, 0, 0, 1, 0,0) ">
<use xlink:href="#shape453_swf_0_Layer0_0_MEMBER_71_FILL"/>
</g>

<g transform="matrix( 1, 0, 0, 1, 0,0) ">
<use xlink:href="#shape453_swf_0_Layer0_0_MEMBER_72_FILL"/>
</g>

<g transform="matrix( 1, 0, 0, 1, 0,0) ">
<use xlink:href="#shape453_swf_0_Layer0_0_MEMBER_73_FILL"/>
</g>

<g transform="matrix( 1, 0, 0, 1, 0,0) ">
<use xlink:href="#shape453_swf_0_Layer0_0_MEMBER_74_FILL"/>
</g>

<g transform="matrix( 1, 0, 0, 1, 0,0) ">
<use xlink:href="#shape453_swf_0_Layer0_0_MEMBER_75_FILL"/>
</g>

<g transform="matrix( 1, 0, 0, 1, 0,0) ">
<use xlink:href="#shape453_swf_0_Layer0_0_MEMBER_76_FILL"/>
</g>

<g transform="matrix( 1, 0, 0, 1, 0,0) ">
<use xlink:href="#shape453_swf_0_Layer0_0_MEMBER_77_FILL"/>
</g>

<g transform="matrix( 1, 0, 0, 1, 0,0) ">
<use xlink:href="#shape453_swf_0_Layer0_0_MEMBER_78_FILL"/>
</g>

<g transform="matrix( 1, 0, 0, 1, 0,0) ">
<use xlink:href="#shape453_swf_0_Layer0_0_MEMBER_79_FILL"/>
</g>

<g transform="matrix( 1, 0, 0, 1, 0,0) ">
<use xlink:href="#shape453_swf_0_Layer0_0_MEMBER_80_FILL"/>
</g>

<g transform="matrix( 1, 0, 0, 1, 0,0) ">
<use xlink:href="#shape453_swf_0_Layer0_0_MEMBER_81_FILL"/>
</g>

<g transform="matrix( 1, 0, 0, 1, 0,0) ">
<use xlink:href="#shape453_swf_0_Layer0_0_MEMBER_82_FILL"/>
</g>

<g transform="matrix( 1, 0, 0, 1, 0,0) ">
<use xlink:href="#shape453_swf_0_Layer0_0_MEMBER_83_FILL"/>
</g>

<g transform="matrix( 1, 0, 0, 1, 0,0) ">
<use xlink:href="#shape453_swf_0_Layer0_0_MEMBER_84_FILL"/>
</g>

<g transform="matrix( 1, 0, 0, 1, 0,0) ">
<use xlink:href="#shape453_swf_0_Layer0_0_MEMBER_85_FILL"/>
</g>

<g transform="matrix( 1, 0, 0, 1, 0,0) ">
<use xlink:href="#shape453_swf_0_Layer0_0_MEMBER_86_FILL"/>
</g>

<g transform="matrix( 1, 0, 0, 1, 0,0) ">
<use xlink:href="#shape453_swf_0_Layer0_0_MEMBER_87_FILL"/>
</g>

<g transform="matrix( 1, 0, 0, 1, 0,0) ">
<use xlink:href="#shape453_swf_0_Layer0_0_MEMBER_88_FILL"/>
</g>

<g transform="matrix( 1, 0, 0, 1, 0,0) ">
<use xlink:href="#shape453_swf_0_Layer0_0_MEMBER_89_FILL"/>
</g>

<g transform="matrix( 1, 0, 0, 1, 0,0) ">
<use xlink:href="#shape453_swf_0_Layer0_0_MEMBER_90_FILL"/>
</g>

<g transform="matrix( 1, 0, 0, 1, 0,0) ">
<use xlink:href="#shape453_swf_0_Layer0_0_MEMBER_91_FILL"/>
</g>

<g transform="matrix( 1, 0, 0, 1, 0,0) ">
<use xlink:href="#shape453_swf_0_Layer0_0_MEMBER_92_FILL"/>
</g>

<g transform="matrix( 1, 0, 0, 1, 0,0) ">
<use xlink:href="#shape453_swf_0_Layer0_0_MEMBER_93_FILL"/>
</g>

<g transform="matrix( 1, 0, 0, 1, 0,0) ">
<use xlink:href="#shape453_swf_0_Layer0_0_MEMBER_94_FILL"/>
</g>

<g transform="matrix( 1, 0, 0, 1, 0,0) ">
<use xlink:href="#shape453_swf_0_Layer0_0_MEMBER_95_FILL"/>
</g>

<g transform="matrix( 1, 0, 0, 1, 0,0) ">
<use xlink:href="#shape453_swf_0_Layer0_0_MEMBER_96_FILL"/>
</g>

<g transform="matrix( 1, 0, 0, 1, 0,0) ">
<use xlink:href="#shape453_swf_0_Layer0_0_MEMBER_97_FILL"/>
</g>

<g transform="matrix( 1, 0, 0, 1, 0,0) ">
<use xlink:href="#shape453_swf_0_Layer0_0_MEMBER_98_FILL"/>
</g>
</g>
</svg>
