
<svg xmlns="http://www.w3.org/2000/svg" version="1.1" xmlns:xlink="http://www.w3.org/1999/xlink" preserveAspectRatio="none" x="0px" y="0px" width="160px" height="160px" viewBox="0 0 160 160">
<defs>
<g id="S_mbolo_1740_0_Layer0_0_FILL">
<path fill="#00293D" stroke="none" d="
M -41.35 -6.85
L -49 -6.45
Q -49.8 -5.85 -50.05 -3.8 -50.35 -1.65 -49.5 -0.9 -48.55 -0.1 -41.2 0 -33.8 0.1 -32.95 -0.8 -32.15 -1.65 -32.75 -3.8 -33.25 -5.85 -33.95 -6.25
L -41.35 -6.85 Z"/>
</g>

<g id="S_mbolo_1740_0_Layer0_1_FILL">
<path fill="#00293D" stroke="none" d="
M 34.55 -6.45
Q 33.8 -5.8 33.55 -3.8 33.25 -1.65 34.1 -0.9 35.05 -0.1 42.4 0 49.75 0.1 50.65 -0.8 51.45 -1.65 50.85 -3.8 50.3 -5.85 49.6 -6.25
L 42.25 -6.85 34.55 -6.45 Z"/>
</g>

<g id="S_mbolo_1740_0_Layer0_2_FILL">
<path fill="#2B7394" stroke="none" d="
M 51.9 -5.8
Q 54.2 -8.4 52.4 -25.1 50.75 -40.25 48.8 -45.55
L -47.75 -46.8
Q -49.25 -42.55 -51.05 -27.9 -52.9 -12.75 -52.35 -7.1 -52.1 -4.65 -36.45 -3.25
L -1.75 -1.85
Q 18.45 -1.75 33.7 -2.8 50.2 -3.9 51.9 -5.8 Z"/>
</g>

<g id="S_mbolo_1740_0_Layer0_3_FILL">
<path fill="#4093AD" stroke="none" d="
M 49.75 -10.7
Q 52.1 -13.65 50.8 -29.5 49.55 -44.4 47.5 -49.35
L -46.75 -46.95
Q -48.65 -43.65 -50.4 -29.95 -52.35 -15.1 -50.25 -10.7 -48.75 -7.5 -33.5 -6.05 -20.2 -4.75 -0.5 -5.1
L 32.65 -6.95
Q 47.95 -8.6 49.75 -10.7 Z"/>
</g>

<g id="S_mbolo_1740_0_Layer0_4_FILL">
<path fill="#5A828C" stroke="none" d="
M 43.35 -123.5
L 48.5 -136.55 -44.95 -136.55 -41.55 -124.45
Q -38.15 -110.9 -38.3 -103.8 -38.55 -90.55 -42.7 -51.2
L 44.25 -50.55 41.45 -70.25
Q 38.65 -91.65 38.45 -100.2 38.25 -108.75 43.35 -123.5 Z"/>
</g>

<g id="S_mbolo_1740_0_Layer0_5_FILL">
<path fill="#B8C0B2" stroke="none" d="
M 28.25 -122.85
Q 25.45 -125.3 0.65 -125.65 -23.95 -126.05 -26.25 -124.15 -28.45 -122.3 -29.4 -104.2 -30.4 -85.75 -27.7 -83.05 -24.95 -80.35 1.7 -80.3 28.05 -80.25 30 -82.25 31.95 -84.2 31.45 -102.15 30.95 -120.45 28.25 -122.85 Z"/>
</g>

<g id="S_mbolo_1740_0_Layer0_6_FILL">
<path fill="#236180" stroke="none" d="
M 39.75 -107.7
L 44.75 -135.2 30.75 -134.2 39 -57.45 43.75 -56.95 39.75 -107.7 Z"/>
</g>

<g id="S_mbolo_1740_0_Layer0_7_FILL">
<path fill="#236180" stroke="none" d="
M -43.25 -135.2
L -38.25 -107.7 -42.25 -56.95 -37.5 -57.45 -29.25 -134.2 -43.25 -135.2 Z"/>
</g>

<g id="S_mbolo_1740_0_Layer0_8_FILL">
<path fill="#5AB2C9" stroke="none" d="
M -50 -136.2
Q -45.85 -123.9 -45.15 -121.1 -42.85 -112 -42.85 -102.05 -42.85 -86.7 -45.15 -56.85
L -37.85 -56.85
Q -36.15 -85.35 -35.5 -102.7 -35.1 -113.55 -38.85 -126.3
L -42.65 -136.85 -50 -136.2 Z"/>
</g>

<g id="S_mbolo_1740_0_Layer0_9_FILL">
<path fill="#5AB2C9" stroke="none" d="
M 39.65 -126.1
Q 35.75 -114.7 36.15 -103.85 36.85 -86.55 39.55 -56.85
L 46.9 -56.85 45.2 -74.25
Q 43.5 -93.6 43.5 -103.2 43.5 -112.9 46.15 -121.45
L 51.3 -135.65 43.65 -135.35 39.65 -126.1 Z"/>
</g>

<g id="S_mbolo_1740_0_Layer0_10_FILL">
<path fill="#4E9BB0" stroke="none" d="
M 51.3 -49.6
Q 54.45 -57.2 52.9 -59.75 51.45 -62.25 -1.3 -61.15 -54 -60.1 -53.55 -58.1 -52.55 -53.5 -48.8 -47.2 -45.35 -41.45 -43.2 -39.8 -41.2 -38.25 0.1 -38.25 41.6 -38.25 44.8 -40.1 48.15 -42.05 51.3 -49.6 Z"/>
</g>

<g id="S_mbolo_1740_0_Layer0_11_FILL">
<path fill="#A5E5EF" stroke="none" d="
M 52.95 -58.75
Q 54.65 -60.15 52.2 -64.65 49.95 -68.9 47.7 -70.15
L 1.95 -71.55
Q -42.15 -71.75 -45.3 -70.25 -49.4 -68.35 -51.8 -64.45 -54.05 -60.95 -53.55 -58.1 -53.15 -55.65 -1 -56.35 50.9 -57 52.95 -58.75 Z"/>
</g>

<g id="S_mbolo_1740_0_Layer0_12_FILL">
<path fill="#51ACC4" stroke="none" d="
M 45.85 -62.15
Q 47.05 -64.35 45 -67.65
L 42.7 -70.55 12.65 -71.45
Q 12.75 -66.65 8.6 -63.6 4.85 -60.8 -0.5 -60.6 -5.95 -60.45 -9.6 -63.1 -13.75 -66.1 -13.6 -71.55
L -41.85 -70.85 -45.7 -66.45
Q -49.2 -61.75 -47.6 -60.2 -45.55 -58.25 -0.65 -58.9 44.5 -59.6 45.85 -62.15 Z"/>
</g>

<g id="S_mbolo_1740_0_Layer0_13_FILL">
<path fill="#A5E5EF" stroke="none" d="
M 52.65 -150.95
Q 52.15 -164.4 50.2 -166.6 48.25 -168.85 0.8 -168.7 -46.75 -168.55 -49.3 -166.25 -51.75 -164.1 -51.65 -150.65 -51.55 -137.55 -49.7 -135.25 -47.8 -132.85 0.9 -133.25 49.35 -133.65 51.3 -135.65 53.15 -137.55 52.65 -150.95 Z"/>
</g>

<g id="S_mbolo_1740_0_Layer0_14_FILL">
<path fill="#3D7989" stroke="none" d="
M 47.5 -150.6
Q 47.3 -161.05 46.3 -162.05 45.25 -163.05 1.2 -163.25 -42.95 -163.5 -44.05 -162.35 -45.25 -161.1 -45.6 -150.65 -46 -140.25 -44.95 -139 -44 -137.85 0.9 -138.2 45.65 -138.55 46.75 -139.4 47.75 -140.15 47.5 -150.6 Z"/>
</g>

<g id="S_mbolo_1740_0_Layer0_15_FILL">
<path fill="#F8DC3D" stroke="none" d="
M 14.5 -161.95
L 2 -161.45 -1 -154.95 -8.75 -161.45 -25.25 -161.2 -7.75 -153.95 -42 -157.45 -42.75 -149.7 -9 -150.45 -42.5 -140.95 -30 -140.45 -6.25 -146.45 -22 -139.7 -8.25 -139.45 -1 -145.45 -0.75 -139.45 12.5 -139.7 8.5 -146.2 23.75 -139.95 41.75 -140.45 10.5 -149.2 44.5 -148.2 45 -157.2 9.75 -152.2 37 -161.2 25.25 -161.45 6.25 -154.7 14.5 -161.95 Z"/>
</g>

<g id="S_mbolo_1740_0_Layer0_16_FILL">
<path fill="#295A84" stroke="none" d="
M 12.15 -149.45
Q 11.7 -153.65 8.65 -156.7 5.35 -160 0.7 -159.85 -3.55 -159.7 -6.7 -156.8 -9.7 -154.1 -10.25 -150.35 -10.85 -146.45 -8.3 -143.7 -5.45 -140.5 0.7 -139.95 6.85 -139.35 9.9 -142.4 12.6 -145.1 12.15 -149.45 Z"/>
</g>

<g id="S_mbolo_1740_0_Layer0_17_FILL">
<path fill="#F8DC3D" stroke="none" d="
M 0.6 -152.15
Q 3.6 -153.55 2.1 -155.5 0.6 -157.4 -1.75 -156.7 -3.95 -155.95 -3.05 -153.45 -2.1 -150.9 0.6 -152.15 Z"/>
</g>

<g id="S_mbolo_1740_0_Layer0_18_FILL">
<path fill="#F8DC3D" stroke="none" d="
M 6.15 -152.6
Q 8.45 -152.95 8.35 -154.4 8.25 -155.9 6.05 -156.25 3.85 -156.6 3.85 -154.4 3.9 -152.25 6.15 -152.6 Z"/>
</g>

<g id="S_mbolo_1740_0_Layer0_19_FILL">
<path fill="#F8DC3D" stroke="none" d="
M -3.75 -149.1
Q -2.45 -151 -3.85 -152.4 -5.25 -153.75 -7.25 -151.5 -9.2 -149.3 -7 -148.45 -4.8 -147.6 -3.75 -149.1 Z"/>
</g>

<g id="S_mbolo_1740_0_Layer0_20_FILL">
<path fill="#F8DC3D" stroke="none" d="
M 6.5 -151
Q 4.35 -151.95 1.8 -151.45 -0.6 -150.95 -2.2 -149.2 -3.7 -147.6 -3.8 -145.75 -3.9 -143.85 -2.35 -142.95 -0.6 -141.9 2.65 -142.55 10.7 -144.2 9.15 -148.4 8.55 -150.1 6.5 -151 Z"/>
</g>

<g id="S_mbolo_1740_0_Layer0_21_FILL">
<path fill="#2B7394" stroke="none" d="
M 38.9 -37.8
Q 36.5 -38.9 0.65 -38.85 -34.45 -38.85 -37 -38.15 -39 -37.6 -39.75 -25.65 -40.55 -13.8 -39.05 -12.3 -37.35 -10.6 0.45 -10.2 38.75 -9.85 40.55 -12.65 42.5 -15.3 41.75 -26.05 41.05 -36.75 38.9 -37.8 Z"/>
</g>

<g id="S_mbolo_1740_0_Layer0_22_FILL">
<path fill="#215D7A" stroke="none" d="
M 29.65 -34.9
Q 28.05 -35.9 11.55 -36.1 -5.3 -36.3 -6.6 -34.9 -8.1 -33.25 -8.3 -25 -8.5 -16.5 -6.6 -14.65 -4.65 -12.7 11.6 -12.8 27.75 -12.9 29.65 -14.65 31.45 -16.25 31.3 -25.15 31.2 -33.95 29.65 -34.9 Z"/>
</g>

<g id="S_mbolo_1740_0_Layer0_23_FILL">
<path fill="#4C4948" stroke="none" d="
M 26.85 -35.5
L 10.25 -36.5
Q -5.1 -36.7 -6.3 -35.5 -7.7 -34.1 -7.85 -27.05 -8.05 -19.75 -6.3 -18.15 -4.5 -16.5 10.35 -16.55 25.1 -16.65 26.85 -18.15 28.45 -19.5 28.35 -27.15 28.25 -34.7 26.85 -35.5 Z"/>
</g>

<g id="S_mbolo_1740_0_Layer0_24_FILL">
<path fill="#A09795" stroke="none" d="
M 25.4 -28.45
Q 25.3 -33.95 24.1 -34.55
L 9.55 -35.3 -4.95 -34.55
Q -6.15 -33.55 -6.3 -28.35 -6.45 -23 -4.95 -21.85 -3.4 -20.65 9.65 -20.7 22.55 -20.75 24.1 -21.85 25.5 -22.85 25.4 -28.45 Z"/>
</g>

<g id="S_mbolo_1740_0_Layer0_25_FILL">
<path fill="#D8D0CE" stroke="none" d="
M 7.8 -27.1
Q 17.75 -30.85 17.55 -32.8 17.3 -34.7 7.2 -34.85 -2.75 -35 -4.65 -33.5 -5.8 -32.55 -5.85 -29.2 -5.85 -25.65 -4.1 -24.55 -2.1 -23.35 7.8 -27.1 Z"/>
</g>

<g id="S_mbolo_1740_0_Layer0_26_FILL">
<path fill="#D8D0CE" stroke="none" d="
M 14.75 -23
Q 15.3 -21.95 19.15 -22.2 22.9 -22.5 23.3 -23.25 24 -24.65 24 -26.85 24 -29.25 23 -29.8 21.85 -30.45 17.95 -27.4 14.05 -24.35 14.75 -23 Z"/>
</g>

<g id="S_mbolo_1740_0_Layer0_27_FILL">
<path fill="#4C4948" stroke="none" d="
M 1.25 -32
Q 0.15 -32 0.05 -31.35
L -0.15 -23.7
Q 0 -23.3 1.05 -23.2 2.15 -23.15 2.2 -23.65
L 2.4 -31.3
Q 2.3 -32.05 1.25 -32 Z"/>
</g>

<g id="S_mbolo_1740_0_Layer0_28_FILL">
<path fill="#333032" stroke="none" d="
M 0.55 -27
Q 0.5 -23.15 1.3 -23.8 2.1 -24.5 2.1 -27.7 2.05 -31.1 1.35 -31.45 0.6 -31.8 0.55 -27 Z"/>
</g>

<g id="S_mbolo_1740_0_Layer0_29_FILL">
<path fill="#4C4948" stroke="none" d="
M 13.8 -31.95
Q 9.25 -32 8.65 -31.35 8.1 -30.75 7.85 -27.35 7.55 -24.05 7.95 -23.7
L 13.45 -23.25 18.95 -23.7
Q 19.4 -24.25 19.4 -27.35 19.35 -30.4 18.85 -31.15 18.35 -31.9 13.8 -31.95 Z"/>
</g>

<g id="S_mbolo_1740_0_Layer0_30_FILL">
<path fill="#333032" stroke="none" d="
M 7.95 -26.9
Q 7.75 -23.4 12.85 -23.6 17.85 -23.75 18.2 -25.25 18.7 -27.5 17.2 -29.15 15.9 -30.65 13.75 -31.05 11.55 -31.45 9.9 -30.45 8.1 -29.35 7.95 -26.9 Z"/>
</g>

<g id="S_mbolo_1740_0_Layer0_31_FILL">
<path fill="#D8D0CE" stroke="none" d="
M 21.55 -31.9
Q 21.65 -30.95 22.45 -31 23.3 -31 23.3 -32.05 23.3 -33.1 22.35 -33 21.45 -32.85 21.55 -31.9 Z"/>
</g>

<g id="S_mbolo_1740_0_Layer0_32_FILL">
<path fill="#FFFFFF" stroke="none" d="
M -4.2 -32.35
Q -3.8 -30.55 -2.2 -31.4 -0.55 -32.2 -0.75 -33.35 -0.9 -34.6 -2.75 -34.45 -4.6 -34.3 -4.2 -32.35 Z"/>
</g>

<g id="S_mbolo_35_0_Layer0_0_FILL">
<path fill="#2B3033" stroke="none" d="
M -3.15 10.55
Q -3.15 13.4 -0.4 13.85 2.3 14.25 2.3 10.15
L 2.1 2.25 1.9 -1.2 -2.75 -1.6 -3.15 10.55 Z"/>
</g>

<g id="S_mbolo_35_0_Layer0_1_FILL">
<path fill="#B5042B" stroke="none" d="
M 7.1 -11.15
Q 4.55 -13.9 0.25 -13.9 -4.05 -13.9 -6.75 -11.15 -9.2 -8.7 -9.4 -5.15 -9.6 -1.6 -7.4 0.8 -4.9 3.55 -0.3 3.55 4.3 3.55 6.95 0.8 9.35 -1.6 9.4 -5.15 9.4 -8.7 7.1 -11.15 Z"/>
</g>

<g id="S_mbolo_35_0_Layer0_2_FILL">
<path fill="#EA1B2F" stroke="none" d="
M 2.4 -10.1
Q 1.9 -11.75 0.5 -12.15 -1.05 -12.65 -3.15 -11.3 -7.55 -8.45 -6.15 -4.1 -5.6 -2.3 -4.15 -1.9 -2.6 -1.4 -0.65 -2.9 3.5 -6.05 2.4 -10.1 Z"/>
</g>

<g id="S_mbolo_35_0_Layer0_3_FILL">
<path fill="#FFFFFF" stroke="none" d="
M -4.4 -10.7
Q -7 -8.7 -4.95 -7.7 -2.9 -6.65 -0.2 -8.75 2.4 -10.75 0 -11.5 -2.4 -12.3 -4.4 -10.7 Z"/>
</g>
</defs>

<g transform="matrix( 0.8881683349609375, 0, 0, 0.8881683349609375, 80.2,159.25) ">
<g transform="matrix( 1, 0, 0, 1, 0,0) ">
<use xlink:href="#S_mbolo_1740_0_Layer0_0_FILL"/>
</g>

<g transform="matrix( 1, 0, 0, 1, 0,0) ">
<use xlink:href="#S_mbolo_1740_0_Layer0_1_FILL"/>
</g>

<g transform="matrix( 1, 0, 0, 1, 0,0) ">
<use xlink:href="#S_mbolo_1740_0_Layer0_2_FILL"/>
</g>

<g transform="matrix( 1, 0, 0, 1, 0,0) ">
<use xlink:href="#S_mbolo_1740_0_Layer0_3_FILL"/>
</g>

<g transform="matrix( 1, 0, 0, 1, 0,0) ">
<use xlink:href="#S_mbolo_1740_0_Layer0_4_FILL"/>
</g>

<g transform="matrix( 1, 0, 0, 1, 0,0) ">
<use xlink:href="#S_mbolo_1740_0_Layer0_5_FILL"/>
</g>

<g transform="matrix( 1, 0, 0, 1, 0,0) ">
<use xlink:href="#S_mbolo_1740_0_Layer0_6_FILL"/>
</g>

<g transform="matrix( 1, 0, 0, 1, 0,0) ">
<use xlink:href="#S_mbolo_1740_0_Layer0_7_FILL"/>
</g>

<g transform="matrix( 1, 0, 0, 1, 0,0) ">
<use xlink:href="#S_mbolo_1740_0_Layer0_8_FILL"/>
</g>

<g transform="matrix( 1, 0, 0, 1, 0,0) ">
<use xlink:href="#S_mbolo_1740_0_Layer0_9_FILL"/>
</g>

<g transform="matrix( 1, 0, 0, 1, 0,0) ">
<use xlink:href="#S_mbolo_1740_0_Layer0_10_FILL"/>
</g>

<g transform="matrix( 1, 0, 0, 1, 0,0) ">
<use xlink:href="#S_mbolo_1740_0_Layer0_11_FILL"/>
</g>

<g transform="matrix( 1, 0, 0, 1, 0,0) ">
<use xlink:href="#S_mbolo_1740_0_Layer0_12_FILL"/>
</g>

<g transform="matrix( 1, 0, 0, 1, 0,0) ">
<use xlink:href="#S_mbolo_1740_0_Layer0_13_FILL"/>
</g>

<g transform="matrix( 1, 0, 0, 1, 0,0) ">
<use xlink:href="#S_mbolo_1740_0_Layer0_14_FILL"/>
</g>

<g transform="matrix( 1, 0, 0, 1, 0,0) ">
<use xlink:href="#S_mbolo_1740_0_Layer0_15_FILL"/>
</g>

<g transform="matrix( 1, 0, 0, 1, 0,0) ">
<use xlink:href="#S_mbolo_1740_0_Layer0_16_FILL"/>
</g>

<g transform="matrix( 1, 0, 0, 1, 0,0) ">
<use xlink:href="#S_mbolo_1740_0_Layer0_17_FILL"/>
</g>

<g transform="matrix( 1, 0, 0, 1, 0,0) ">
<use xlink:href="#S_mbolo_1740_0_Layer0_18_FILL"/>
</g>

<g transform="matrix( 1, 0, 0, 1, 0,0) ">
<use xlink:href="#S_mbolo_1740_0_Layer0_19_FILL"/>
</g>

<g transform="matrix( 1, 0, 0, 1, 0,0) ">
<use xlink:href="#S_mbolo_1740_0_Layer0_20_FILL"/>
</g>

<g transform="matrix( 1, 0, 0, 1, 0,0) ">
<use xlink:href="#S_mbolo_1740_0_Layer0_21_FILL"/>
</g>

<g transform="matrix( 1, 0, 0, 1, 0,0) ">
<use xlink:href="#S_mbolo_1740_0_Layer0_22_FILL"/>
</g>

<g transform="matrix( 1, 0, 0, 1, 0,0) ">
<use xlink:href="#S_mbolo_1740_0_Layer0_23_FILL"/>
</g>

<g transform="matrix( 1, 0, 0, 1, 0,0) ">
<use xlink:href="#S_mbolo_1740_0_Layer0_24_FILL"/>
</g>

<g transform="matrix( 1, 0, 0, 1, 0,0) ">
<use xlink:href="#S_mbolo_1740_0_Layer0_25_FILL"/>
</g>

<g transform="matrix( 1, 0, 0, 1, 0,0) ">
<use xlink:href="#S_mbolo_1740_0_Layer0_26_FILL"/>
</g>

<g transform="matrix( 1, 0, 0, 1, 0,0) ">
<use xlink:href="#S_mbolo_1740_0_Layer0_27_FILL"/>
</g>

<g transform="matrix( 1, 0, 0, 1, 0,0) ">
<use xlink:href="#S_mbolo_1740_0_Layer0_28_FILL"/>
</g>

<g transform="matrix( 1, 0, 0, 1, 0,0) ">
<use xlink:href="#S_mbolo_1740_0_Layer0_29_FILL"/>
</g>

<g transform="matrix( 1, 0, 0, 1, 0,0) ">
<use xlink:href="#S_mbolo_1740_0_Layer0_30_FILL"/>
</g>

<g transform="matrix( 1, 0, 0, 1, 0,0) ">
<use xlink:href="#S_mbolo_1740_0_Layer0_31_FILL"/>
</g>

<g transform="matrix( 1, 0, 0, 1, 0,0) ">
<use xlink:href="#S_mbolo_1740_0_Layer0_32_FILL"/>
</g>
</g>

<g transform="matrix( 0.8881683349609375, 0, 0, 0.8881683349609375, 80.85,88.95) ">
<g transform="matrix( 1, 0, 0, 1, 0,0) ">
<use xlink:href="#S_mbolo_35_0_Layer0_0_FILL"/>
</g>

<g transform="matrix( 1, 0, 0, 1, 0,0) ">
<use xlink:href="#S_mbolo_35_0_Layer0_1_FILL"/>
</g>

<g transform="matrix( 1, 0, 0, 1, 0,0) ">
<use xlink:href="#S_mbolo_35_0_Layer0_2_FILL"/>
</g>

<g transform="matrix( 1, 0, 0, 1, 0,0) ">
<use xlink:href="#S_mbolo_35_0_Layer0_3_FILL"/>
</g>
</g>
</svg>
