
<svg xmlns="http://www.w3.org/2000/svg" version="1.1" xmlns:xlink="http://www.w3.org/1999/xlink" preserveAspectRatio="none" x="0px" y="0px" width="160px" height="160px" viewBox="0 0 160 160">
<defs>
<g id="Layer0_0_FILL">
<path fill="#BFB5AA" stroke="none" d="
M -49 -128.95
Q -52.3 -122.5 -52.3 -115.55 -53.3 -112.05 -52.5 -92.25 -51.65 -72.85 -50.75 -71.05 -50.3 -70.2 -44.9 -68.3 -39.75 -68 -24 -71.6 -8.1 -75.25 -6.35 -77.3 -5.8 -77.95 -5.8 -87.8 -5.85 -99.35 -7.15 -109.8 -11.25 -141.45 -24.5 -141.4
L -25.25 -141.4
Q -42.45 -141.75 -49 -128.95 Z"/>
</g>

<g id="Layer0_1_FILL">
<path fill="#5E4821" stroke="none" d="
M 7.25 -1.25
Q 8.35 -3.45 7.7 -44.95 7.1 -86.05 6.3 -88 5.4 -90.15 -3.75 -89.55 -13.15 -88.95 -13.9 -85.05 -14.55 -81.5 -13.85 -42.55
L -13.05 -0.95
Q -13.05 0.1 -3.2 0 6.65 -0.1 7.25 -1.25 Z"/>
</g>

<g id="Layer0_2_FILL">
<path fill="#08A7BE" stroke="none" d="
M 48.4 -119.1
Q 44.05 -133.75 32.6 -135.45 14.2 -138.2 -5.5 -139.4 -23.4 -140.55 -25.55 -139.65 -31.35 -138.7 -36.15 -136.35 -45.45 -131.85 -48.35 -121.65 -50.5 -114.1 -50.7 -102.5 -50.9 -92.35 -49.65 -82.8 -36.55 -78.6 -24.25 -76.65 -3.8 -73.3 7.25 -77.6
L 11.85 -78.2
Q 17.55 -79.05 23.1 -80.35 40.9 -84.5 50.5 -91.7 51.7 -108.05 48.4 -119.1 Z"/>
</g>

<g id="Layer0_3_FILL">
<path fill="#0092A8" stroke="none" d="
M 47.2 -73.55
Q 47.9 -74.2 48.9 -79.25 50 -84.9 50.5 -91.7 40.9 -84.5 23.1 -80.35 17.55 -79.05 11.85 -78.2
L 7.25 -77.6
Q -3.8 -73.3 -24.25 -76.65 -36.55 -78.6 -49.65 -82.8 -48.35 -73.15 -46.45 -70.85 -43.9 -67.7 -19.45 -64.4 4.4 -61.15 11.25 -62.45 18.3 -63.85 31.55 -67.85 45.6 -72.05 47.2 -73.55 Z"/>
</g>

<g id="Layer0_4_FILL">
<path fill="#13687F" stroke="none" d="
M 35.95 -127.1
Q 26.55 -127.65 22.15 -119 18.4 -111.6 18.55 -98.25
L 18.55 -83.35 45.05 -78.95
Q 46.4 -81.3 46.75 -92.2
L 46.8 -102.6
Q 47.45 -108.5 46.4 -114.55 44.3 -126.55 35.95 -127.1 Z"/>
</g>

<g id="Layer0_5_FILL">
<path fill="#004C60" stroke="none" d="
M 32.35 -115.7
L 21.25 -116.95
Q 19.3 -114.55 20.05 -96.3 20.45 -87.2 21.25 -78.55 41.85 -78.2 42.7 -78.95 43.4 -79.5 44.1 -94.85 44.85 -110.35 44.15 -112.4 43.55 -114.15 32.35 -115.7 Z"/>
</g>

<g id="Layer0_6_FILL">
<path fill="#004C60" stroke="none" d="
M 44.9 -78.65
L 45.05 -78.95 18.55 -83.35
Q 18.5 -78.4 18.7 -76.25 18.9 -73.6 19.6 -72.5 20.85 -70.65 32.05 -73.45 43.15 -76.25 44.9 -78.65 Z"/>
</g>

<g id="Layer0_7_FILL">
<path fill="#EFB54D" stroke="none" d="
M 43.2 -109.1
L 40.5 -109.35 38.1 -109.1 31.8 -79.95 41.35 -79.6
Q 41.95 -80.25 42.75 -94.45 43.55 -108.55 43.2 -109.1 Z"/>
</g>

<g id="Layer0_8_FILL">
<path fill="#E29229" stroke="none" d="
M 41.85 -109.4
L 38.65 -109.3 30.2 -81.8 37 -81.8
Q 38.05 -82 40.05 -95.7
L 41.85 -109.4 Z"/>
</g>

<g id="Layer0_9_FILL">
<path fill="#FFD9DF" stroke="none" d="
M 31.15 -113.95
L 20.45 -114.65
Q 20.1 -114.3 19.8 -113.25 19 -110.4 18.65 -102.1 18.25 -91.75 18.55 -78.95 30.8 -77.1 32.75 -77.6 34 -77.9 37.4 -95.05
L 40.55 -112.1
Q 41.6 -113.05 31.15 -113.95 Z"/>
</g>

<g id="Layer0_10_FILL">
<path fill="#FFF5F5" stroke="none" d="
M 38.85 -111.55
L 25.25 -111.55
Q 24.7 -111.35 22.4 -97.8
L 20.2 -84.35 25.15 -81.8
Q 30.3 -79.3 31.5 -79.65 32.7 -79.95 35.9 -95.8
L 38.85 -111.55 Z"/>
</g>

<g id="Layer0_11_FILL">
<path fill="#B4EA7A" stroke="none" d="
M 28.2 -76.45
Q 29.9 -76.7 31.35 -86.45 32.7 -95.9 32.2 -96.6
L 18.5 -97
Q 18.35 -96.65 18.5 -86.35
L 18.65 -76.15 28.2 -76.45 Z"/>
</g>

<g id="Layer0_12_FILL">
<path fill="#CE5284" stroke="none" d="
M 23.55 -99.6
L 21.15 -99.65
Q 19.7 -98.25 20.25 -95.25 20.8 -92.2 22.65 -95.2 24.5 -98.25 23.55 -99.6 Z"/>
</g>

<g id="Layer0_13_FILL">
<path fill="#9ABF5E" stroke="none" d="
M 28.4 -77.5
Q 29.15 -78.3 31.55 -95.1 31.25 -97.1 28.65 -87.5
L 26.1 -77.5 27.45 -77.75 28.4 -77.5 Z"/>
</g>

<g id="Layer0_14_FILL">
<path fill="#D7F77F" stroke="none" d="
M 28.8 -95.1
Q 30.25 -96.7 24.7 -97
L 18.5 -97
Q 18.25 -97 18.3 -92.75
L 18.4 -88.5 28.8 -95.1 Z"/>
</g>

<g id="Layer0_15_FILL">
<path fill="#E55EA2" stroke="none" d="
M 22.8 -99.55
L 22 -99.7
Q 21.25 -99.6 21.45 -98.65 21.65 -97.45 22.85 -98.05 24 -98.7 22.8 -99.55 Z"/>
</g>

<g id="Layer0_16_FILL">
<path fill="#AFA497" stroke="none" d="
M 3.1 -87.1
Q 3.2 -63.3 3.35 -62.25 3.45 -61.35 6.1 -60.45
L 8.7 -59.75 9.8 -101.75
Q 9.1 -96.05 6.65 -91.7 5.1 -88.9 3.1 -87.1 Z"/>
</g>

<g id="Layer0_17_FILL">
<path fill="#BFB5AA" stroke="none" d="
M 9.95 -111.85
Q 10.05 -124.15 20.8 -131.25 26.2 -134.8 31.55 -135.9 13.65 -136.8 6.9 -123.5 3.5 -116.85 3.35 -109.6 3.1 -109.3 3.1 -87.1 5.1 -88.9 6.65 -91.7 9.1 -96.05 9.8 -101.75
L 9.95 -111.85 Z"/>
</g>

<g id="Layer0_18_FILL">
<path fill="#E2D8CC" stroke="none" d="
M 21.55 -134.15
Q 14.05 -131.2 10.1 -123.45 7.3 -118.05 6.55 -110.85 8.7 -109.05 16 -117.25 18.65 -125.15 24.15 -128.65 25.4 -131.6 24.55 -133.1 23.8 -134.45 21.55 -134.15 Z"/>
</g>

<g id="Layer0_19_FILL">
<path fill="#F9EEE1" stroke="none" d="
M 23.15 -133.45
Q 19.75 -135.25 14.6 -128.95 12.35 -126.2 15.2 -125.85 18.1 -125.5 22.05 -128.3 24 -129.65 24.2 -131.25 24.45 -132.8 23.15 -133.45 Z"/>
</g>

<g id="Layer0_20_FILL">
<path fill="#AFA497" stroke="none" d="
M 49.7 -70.6
Q 51.05 -72.15 51.85 -83.65 50.2 -81.3 47.85 -79.4 47.45 -76.85 47 -76.15 45.5 -74.15 30.45 -70.05 15.35 -65.95 13.85 -67.2 13.3 -67.7 13.05 -71.95
L 6.35 -72.8
Q 6.7 -60.9 8 -60 10 -58.55 28.9 -63.4 47.7 -68.25 49.7 -70.6 Z"/>
</g>

<g id="Layer0_21_FILL">
<path fill="#CCC2B4" stroke="none" d="
M 14.1 -108.4
Q 14.65 -113.2 16 -117.25 8.7 -109.05 6.55 -110.85 6.25 -107.65 6.35 -105.4
L 6.15 -94.15
Q 6.05 -81.2 6.35 -72.8
L 13.05 -71.95
Q 12.75 -78.2 13.25 -91.9
L 14.1 -108.4 Z"/>
</g>

<g id="Layer0_22_FILL">
<path fill="#CCC2B4" stroke="none" d="
M 31.55 -135.9
Q 26 -135.9 21.55 -134.15 23.8 -134.45 24.55 -133.1 25.4 -131.6 24.15 -128.65 28.15 -131.2 33.45 -131.2 43.45 -131.25 47.1 -120.9 48.9 -115.65 49.15 -105.8
L 48.95 -95.55
Q 48.55 -84.3 47.85 -79.4 50.2 -81.3 51.85 -83.65 52.35 -90.2 52.65 -99.2
L 52.85 -106.9
Q 52.45 -118.3 50 -124.15 45.05 -135.95 31.55 -135.9 Z"/>
</g>

<g id="Layer0_23_FILL">
<path fill="#FFFFFF" stroke="none" d="
M 17.35 -131.95
Q 15.3 -130.5 15.95 -129.7 16.6 -128.85 19.9 -130.9 23.4 -133.05 21.75 -133.45 20.1 -133.85 17.35 -131.95 Z"/>
</g>

<g id="Layer0_24_FILL">
<path fill="#06D2E5" stroke="none" d="
M 11.45 -134.9
Q 9.9 -137.4 5.05 -138.1
L -13.3 -139.2
Q -22.65 -139.1 -28.2 -137.85 -34.1 -136.55 -32.5 -134.5 -30.65 -132.15 -19.05 -129.45 3.05 -124.35 10.25 -130.25 13 -132.45 11.45 -134.9 Z"/>
</g>

<g id="Layer0_25_FILL">
<path fill="#0AF0FF" stroke="none" d="
M 4.3 -135.25
Q 7.6 -137.45 1.5 -138.15 -5.85 -139.05 -11.3 -136.8 -16.6 -134.55 -4.15 -133.55 1 -133.1 4.3 -135.25 Z"/>
</g>

<g id="Layer0_26_FILL">
<path fill="#87652D" stroke="none" d="
M 2.2 -6.35
Q 3.8 -8.15 4.45 -31.15 5.05 -54.15 3.1 -51.55 1.4 -49.3 -5.15 -48.55
L -11.35 -48.3
Q -12.2 -48.3 -11.55 -27.95 -10.9 -8.05 -10.45 -6.35 -10.05 -5 -4.7 -4.85 0.75 -4.7 2.2 -6.35 Z"/>
</g>

<g id="Layer0_27_FILL">
<path fill="#AA7F3F" stroke="none" d="
M 3.95 -30.85
Q 3.15 -42.75 0.35 -40.15 -1.85 -38.15 -3.05 -31.95 -4.5 -24.25 -3.6 -19.9 -2.75 -16.1 -0.7 -16.3 1.35 -16.45 2.75 -20.25 4.35 -24.5 3.95 -30.85 Z"/>
</g>

<g id="Layer0_28_FILL">
<path fill="#AA7F3F" stroke="none" d="
M -8.45 -48.7
Q -10.85 -47.1 -10.8 -42 -10.8 -37.35 -9.5 -35.45 -8.35 -33.85 -6.75 -34.85 -5.2 -35.8 -4.45 -38.35 -3.6 -41.2 -4.4 -44.25 -5.95 -50.4 -8.45 -48.7 Z"/>
</g>

<g id="Layer0_29_FILL">
<path fill="#AA7F3F" stroke="none" d="
M -10.45 -22.1
L -10.45 -15.25
Q -9.9 -8.95 -6.9 -12 -3.6 -15.4 -6.4 -21 -7.45 -23.15 -8.65 -23.6 -9.95 -24.1 -10.45 -22.1 Z"/>
</g>
</defs>

<g transform="matrix( 0.53497314453125, 0, 0, 0.53497314453125, 79.9,100.9) ">
<g transform="matrix( 1, 0, 0, 1, 0,0) ">
<use xlink:href="#Layer0_0_FILL"/>
</g>

<g transform="matrix( 1, 0, 0, 1, 0,0) ">
<use xlink:href="#Layer0_1_FILL"/>
</g>

<g transform="matrix( 1, 0, 0, 1, 0,0) ">
<use xlink:href="#Layer0_2_FILL"/>
</g>

<g transform="matrix( 1, 0, 0, 1, 0,0) ">
<use xlink:href="#Layer0_3_FILL"/>
</g>

<g transform="matrix( 1, 0, 0, 1, 0,0) ">
<use xlink:href="#Layer0_4_FILL"/>
</g>

<g transform="matrix( 1, 0, 0, 1, 0,0) ">
<use xlink:href="#Layer0_5_FILL"/>
</g>

<g transform="matrix( 1, 0, 0, 1, 0,0) ">
<use xlink:href="#Layer0_6_FILL"/>
</g>

<g transform="matrix( 1, 0, 0, 1, 0,0) ">
<use xlink:href="#Layer0_7_FILL"/>
</g>

<g transform="matrix( 1, 0, 0, 1, 0,0) ">
<use xlink:href="#Layer0_8_FILL"/>
</g>

<g transform="matrix( 1, 0, 0, 1, 0,0) ">
<use xlink:href="#Layer0_9_FILL"/>
</g>

<g transform="matrix( 1, 0, 0, 1, 0,0) ">
<use xlink:href="#Layer0_10_FILL"/>
</g>

<g transform="matrix( 1, 0, 0, 1, 0,0) ">
<use xlink:href="#Layer0_11_FILL"/>
</g>

<g transform="matrix( 1, 0, 0, 1, 0,0) ">
<use xlink:href="#Layer0_12_FILL"/>
</g>

<g transform="matrix( 1, 0, 0, 1, 0,0) ">
<use xlink:href="#Layer0_13_FILL"/>
</g>

<g transform="matrix( 1, 0, 0, 1, 0,0) ">
<use xlink:href="#Layer0_14_FILL"/>
</g>

<g transform="matrix( 1, 0, 0, 1, 0,0) ">
<use xlink:href="#Layer0_15_FILL"/>
</g>

<g transform="matrix( 1, 0, 0, 1, 0,0) ">
<use xlink:href="#Layer0_16_FILL"/>
</g>

<g transform="matrix( 1, 0, 0, 1, 0,0) ">
<use xlink:href="#Layer0_17_FILL"/>
</g>

<g transform="matrix( 1, 0, 0, 1, 0,0) ">
<use xlink:href="#Layer0_18_FILL"/>
</g>

<g transform="matrix( 1, 0, 0, 1, 0,0) ">
<use xlink:href="#Layer0_19_FILL"/>
</g>

<g transform="matrix( 1, 0, 0, 1, 0,0) ">
<use xlink:href="#Layer0_20_FILL"/>
</g>

<g transform="matrix( 1, 0, 0, 1, 0,0) ">
<use xlink:href="#Layer0_21_FILL"/>
</g>

<g transform="matrix( 1, 0, 0, 1, 0,0) ">
<use xlink:href="#Layer0_22_FILL"/>
</g>

<g transform="matrix( 1, 0, 0, 1, 0,0) ">
<use xlink:href="#Layer0_23_FILL"/>
</g>

<g transform="matrix( 1, 0, 0, 1, 0,0) ">
<use xlink:href="#Layer0_24_FILL"/>
</g>

<g transform="matrix( 1, 0, 0, 1, 0,0) ">
<use xlink:href="#Layer0_25_FILL"/>
</g>

<g transform="matrix( 1, 0, 0, 1, 0,0) ">
<use xlink:href="#Layer0_26_FILL"/>
</g>

<g transform="matrix( 1, 0, 0, 1, 0,0) ">
<use xlink:href="#Layer0_27_FILL"/>
</g>

<g transform="matrix( 1, 0, 0, 1, 0,0) ">
<use xlink:href="#Layer0_28_FILL"/>
</g>

<g transform="matrix( 1, 0, 0, 1, 0,0) ">
<use xlink:href="#Layer0_29_FILL"/>
</g>
</g>
</svg>
