
<svg xmlns="http://www.w3.org/2000/svg" version="1.1" xmlns:xlink="http://www.w3.org/1999/xlink" preserveAspectRatio="none" x="0px" y="0px" width="160px" height="160px" viewBox="0 0 160 160">
<defs>
<g id="Carpeta_de_elementos_duplicados_S_mbolo_7_copia_0_Layer0_0_FILL">
<path fill="#BFB5AA" stroke="none" d="
M -49 -128.95
Q -52.3 -122.5 -52.3 -115.55 -53.3 -112.05 -52.5 -92.25 -51.65 -72.85 -50.75 -71.05 -50.3 -70.2 -44.9 -68.3 -39.75 -68 -24 -71.6 -8.1 -75.25 -6.35 -77.3 -5.8 -77.95 -5.8 -87.8 -5.85 -99.35 -7.15 -109.8 -11.25 -141.45 -24.5 -141.4
L -25.25 -141.4
Q -42.45 -141.75 -49 -128.95 Z"/>
</g>

<g id="Carpeta_de_elementos_duplicados_S_mbolo_7_copia_0_Layer0_1_FILL">
<path fill="#5E4821" stroke="none" d="
M 7.25 -1.25
Q 8.35 -3.45 7.7 -44.95 7.1 -86.05 6.3 -88 5.4 -90.15 -3.75 -89.55 -13.15 -88.95 -13.9 -85.05 -14.55 -81.5 -13.85 -42.55
L -13.05 -0.95
Q -13.05 0.1 -3.2 0 6.65 -0.1 7.25 -1.25 Z"/>
</g>

<g id="Carpeta_de_elementos_duplicados_S_mbolo_7_copia_0_Layer0_2_FILL">
<path fill="#08A7BE" stroke="none" d="
M 48.4 -119.1
Q 44.05 -133.75 32.6 -135.45 14.2 -138.2 -5.5 -139.4 -23.4 -140.55 -25.55 -139.65 -31.35 -138.7 -36.15 -136.35 -45.45 -131.85 -48.35 -121.65 -50.5 -114.1 -50.7 -102.5 -50.9 -92.35 -49.65 -82.8 -36.55 -78.6 -24.25 -76.65 -3.8 -73.3 7.25 -77.6
L 11.85 -78.2
Q 17.55 -79.05 23.1 -80.35 40.9 -84.5 50.5 -91.7 51.7 -108.05 48.4 -119.1 Z"/>
</g>

<g id="Carpeta_de_elementos_duplicados_S_mbolo_7_copia_0_Layer0_3_FILL">
<path fill="#0092A8" stroke="none" d="
M 47.2 -73.55
Q 47.9 -74.2 48.9 -79.25 50 -84.9 50.5 -91.7 40.9 -84.5 23.1 -80.35 17.55 -79.05 11.85 -78.2
L 7.25 -77.6
Q -3.8 -73.3 -24.25 -76.65 -36.55 -78.6 -49.65 -82.8 -48.35 -73.15 -46.45 -70.85 -43.9 -67.7 -19.45 -64.4 4.4 -61.15 11.25 -62.45 18.3 -63.85 31.55 -67.85 45.6 -72.05 47.2 -73.55 Z"/>
</g>

<g id="Carpeta_de_elementos_duplicados_S_mbolo_7_copia_0_Layer0_4_FILL">
<path fill="#13687F" stroke="none" d="
M 35.95 -127.1
Q 26.55 -127.65 22.15 -119 18.4 -111.6 18.55 -98.25
L 18.55 -83.35 45.05 -78.95
Q 46.4 -81.3 46.75 -92.2
L 46.8 -102.6
Q 47.45 -108.5 46.4 -114.55 44.3 -126.55 35.95 -127.1 Z"/>
</g>

<g id="Carpeta_de_elementos_duplicados_S_mbolo_7_copia_0_Layer0_5_FILL">
<path fill="#004C60" stroke="none" d="
M 32.35 -115.7
L 21.25 -116.95
Q 19.3 -114.55 20.05 -96.3 20.45 -87.2 21.25 -78.55 41.85 -78.2 42.7 -78.95 43.4 -79.5 44.1 -94.85 44.85 -110.35 44.15 -112.4 43.55 -114.15 32.35 -115.7 Z"/>
</g>

<g id="Carpeta_de_elementos_duplicados_S_mbolo_7_copia_0_Layer0_6_FILL">
<path fill="#004C60" stroke="none" d="
M 44.9 -78.65
L 45.05 -78.95 18.55 -83.35
Q 18.5 -78.4 18.7 -76.25 18.9 -73.6 19.6 -72.5 20.85 -70.65 32.05 -73.45 43.15 -76.25 44.9 -78.65 Z"/>
</g>

<g id="Carpeta_de_elementos_duplicados_S_mbolo_7_copia_0_Layer0_7_FILL">
<path fill="#EFB54D" stroke="none" d="
M 43.2 -109.1
L 40.5 -109.35 38.1 -109.1 31.8 -79.95 41.35 -79.6
Q 41.95 -80.25 42.75 -94.45 43.55 -108.55 43.2 -109.1 Z"/>
</g>

<g id="Carpeta_de_elementos_duplicados_S_mbolo_7_copia_0_Layer0_8_FILL">
<path fill="#E29229" stroke="none" d="
M 41.85 -109.4
L 38.65 -109.3 30.2 -81.8 37 -81.8
Q 38.05 -82 40.05 -95.7
L 41.85 -109.4 Z"/>
</g>

<g id="Carpeta_de_elementos_duplicados_S_mbolo_7_copia_0_Layer0_9_FILL">
<path fill="#FFD9DF" stroke="none" d="
M 31.15 -113.95
L 20.45 -114.65
Q 20.1 -114.3 19.8 -113.25 19 -110.4 18.65 -102.1 18.25 -91.75 18.55 -78.95 30.8 -77.1 32.75 -77.6 34 -77.9 37.4 -95.05
L 40.55 -112.1
Q 41.6 -113.05 31.15 -113.95 Z"/>
</g>

<g id="Carpeta_de_elementos_duplicados_S_mbolo_7_copia_0_Layer0_10_FILL">
<path fill="#FFF5F5" stroke="none" d="
M 38.85 -111.55
L 25.25 -111.55
Q 24.7 -111.35 22.4 -97.8
L 20.2 -84.35 25.15 -81.8
Q 30.3 -79.3 31.5 -79.65 32.7 -79.95 35.9 -95.8
L 38.85 -111.55 Z"/>
</g>

<g id="Carpeta_de_elementos_duplicados_S_mbolo_7_copia_0_Layer0_11_FILL">
<path fill="#B4EA7A" stroke="none" d="
M 28.2 -76.45
Q 29.9 -76.7 31.35 -86.45 32.7 -95.9 32.2 -96.6
L 18.5 -97
Q 18.35 -96.65 18.5 -86.35
L 18.65 -76.15 28.2 -76.45 Z"/>
</g>

<g id="Carpeta_de_elementos_duplicados_S_mbolo_7_copia_0_Layer0_12_FILL">
<path fill="#CE5284" stroke="none" d="
M 23.55 -99.6
L 21.15 -99.65
Q 19.7 -98.25 20.25 -95.25 20.8 -92.2 22.65 -95.2 24.5 -98.25 23.55 -99.6 Z"/>
</g>

<g id="Carpeta_de_elementos_duplicados_S_mbolo_7_copia_0_Layer0_13_FILL">
<path fill="#9ABF5E" stroke="none" d="
M 28.4 -77.5
Q 29.15 -78.3 31.55 -95.1 31.25 -97.1 28.65 -87.5
L 26.1 -77.5 27.45 -77.75 28.4 -77.5 Z"/>
</g>

<g id="Carpeta_de_elementos_duplicados_S_mbolo_7_copia_0_Layer0_14_FILL">
<path fill="#D7F77F" stroke="none" d="
M 28.8 -95.1
Q 30.25 -96.7 24.7 -97
L 18.5 -97
Q 18.25 -97 18.3 -92.75
L 18.4 -88.5 28.8 -95.1 Z"/>
</g>

<g id="Carpeta_de_elementos_duplicados_S_mbolo_7_copia_0_Layer0_15_FILL">
<path fill="#E55EA2" stroke="none" d="
M 22.8 -99.55
L 22 -99.7
Q 21.25 -99.6 21.45 -98.65 21.65 -97.45 22.85 -98.05 24 -98.7 22.8 -99.55 Z"/>
</g>

<g id="Carpeta_de_elementos_duplicados_S_mbolo_7_copia_0_Layer0_16_FILL">
<path fill="#AFA497" stroke="none" d="
M 3.1 -87.1
Q 3.2 -63.3 3.35 -62.25 3.45 -61.35 6.1 -60.45
L 8.7 -59.75 9.8 -101.75
Q 9.1 -96.05 6.65 -91.7 5.1 -88.9 3.1 -87.1 Z"/>
</g>

<g id="Carpeta_de_elementos_duplicados_S_mbolo_7_copia_0_Layer0_17_FILL">
<path fill="#BFB5AA" stroke="none" d="
M 9.95 -111.85
Q 10.05 -124.15 20.8 -131.25 26.2 -134.8 31.55 -135.9 13.65 -136.8 6.9 -123.5 3.5 -116.85 3.35 -109.6 3.1 -109.3 3.1 -87.1 5.1 -88.9 6.65 -91.7 9.1 -96.05 9.8 -101.75
L 9.95 -111.85 Z"/>
</g>

<g id="Carpeta_de_elementos_duplicados_S_mbolo_7_copia_0_Layer0_18_FILL">
<path fill="#E2D8CC" stroke="none" d="
M 21.55 -134.15
Q 14.05 -131.2 10.1 -123.45 7.3 -118.05 6.55 -110.85 8.7 -109.05 16 -117.25 18.65 -125.15 24.15 -128.65 25.4 -131.6 24.55 -133.1 23.8 -134.45 21.55 -134.15 Z"/>
</g>

<g id="Carpeta_de_elementos_duplicados_S_mbolo_7_copia_0_Layer0_19_FILL">
<path fill="#F9EEE1" stroke="none" d="
M 23.15 -133.45
Q 19.75 -135.25 14.6 -128.95 12.35 -126.2 15.2 -125.85 18.1 -125.5 22.05 -128.3 24 -129.65 24.2 -131.25 24.45 -132.8 23.15 -133.45 Z"/>
</g>

<g id="Carpeta_de_elementos_duplicados_S_mbolo_7_copia_0_Layer0_20_FILL">
<path fill="#AFA497" stroke="none" d="
M 49.7 -70.6
Q 51.05 -72.15 51.85 -83.65 50.2 -81.3 47.85 -79.4 47.45 -76.85 47 -76.15 45.5 -74.15 30.45 -70.05 15.35 -65.95 13.85 -67.2 13.3 -67.7 13.05 -71.95
L 6.35 -72.8
Q 6.7 -60.9 8 -60 10 -58.55 28.9 -63.4 47.7 -68.25 49.7 -70.6 Z"/>
</g>

<g id="Carpeta_de_elementos_duplicados_S_mbolo_7_copia_0_Layer0_21_FILL">
<path fill="#CCC2B4" stroke="none" d="
M 14.1 -108.4
Q 14.65 -113.2 16 -117.25 8.7 -109.05 6.55 -110.85 6.25 -107.65 6.35 -105.4
L 6.15 -94.15
Q 6.05 -81.2 6.35 -72.8
L 13.05 -71.95
Q 12.75 -78.2 13.25 -91.9
L 14.1 -108.4 Z"/>
</g>

<g id="Carpeta_de_elementos_duplicados_S_mbolo_7_copia_0_Layer0_22_FILL">
<path fill="#CCC2B4" stroke="none" d="
M 31.55 -135.9
Q 26 -135.9 21.55 -134.15 23.8 -134.45 24.55 -133.1 25.4 -131.6 24.15 -128.65 28.15 -131.2 33.45 -131.2 43.45 -131.25 47.1 -120.9 48.9 -115.65 49.15 -105.8
L 48.95 -95.55
Q 48.55 -84.3 47.85 -79.4 50.2 -81.3 51.85 -83.65 52.35 -90.2 52.65 -99.2
L 52.85 -106.9
Q 52.45 -118.3 50 -124.15 45.05 -135.95 31.55 -135.9 Z"/>
</g>

<g id="Carpeta_de_elementos_duplicados_S_mbolo_7_copia_0_Layer0_23_FILL">
<path fill="#FFFFFF" stroke="none" d="
M 17.35 -131.95
Q 15.3 -130.5 15.95 -129.7 16.6 -128.85 19.9 -130.9 23.4 -133.05 21.75 -133.45 20.1 -133.85 17.35 -131.95 Z"/>
</g>

<g id="Carpeta_de_elementos_duplicados_S_mbolo_7_copia_0_Layer0_24_FILL">
<path fill="#06D2E5" stroke="none" d="
M 11.45 -134.9
Q 9.9 -137.4 5.05 -138.1
L -13.3 -139.2
Q -22.65 -139.1 -28.2 -137.85 -34.1 -136.55 -32.5 -134.5 -30.65 -132.15 -19.05 -129.45 3.05 -124.35 10.25 -130.25 13 -132.45 11.45 -134.9 Z"/>
</g>

<g id="Carpeta_de_elementos_duplicados_S_mbolo_7_copia_0_Layer0_25_FILL">
<path fill="#0AF0FF" stroke="none" d="
M 4.3 -135.25
Q 7.6 -137.45 1.5 -138.15 -5.85 -139.05 -11.3 -136.8 -16.6 -134.55 -4.15 -133.55 1 -133.1 4.3 -135.25 Z"/>
</g>

<g id="Carpeta_de_elementos_duplicados_S_mbolo_7_copia_0_Layer0_26_FILL">
<path fill="#87652D" stroke="none" d="
M 2.2 -6.35
Q 3.8 -8.15 4.45 -31.15 5.05 -54.15 3.1 -51.55 1.4 -49.3 -5.15 -48.55
L -11.35 -48.3
Q -12.2 -48.3 -11.55 -27.95 -10.9 -8.05 -10.45 -6.35 -10.05 -5 -4.7 -4.85 0.75 -4.7 2.2 -6.35 Z"/>
</g>

<g id="Carpeta_de_elementos_duplicados_S_mbolo_7_copia_0_Layer0_27_FILL">
<path fill="#AA7F3F" stroke="none" d="
M 3.95 -30.85
Q 3.15 -42.75 0.35 -40.15 -1.85 -38.15 -3.05 -31.95 -4.5 -24.25 -3.6 -19.9 -2.75 -16.1 -0.7 -16.3 1.35 -16.45 2.75 -20.25 4.35 -24.5 3.95 -30.85 Z"/>
</g>

<g id="Carpeta_de_elementos_duplicados_S_mbolo_7_copia_0_Layer0_28_FILL">
<path fill="#AA7F3F" stroke="none" d="
M -8.45 -48.7
Q -10.85 -47.1 -10.8 -42 -10.8 -37.35 -9.5 -35.45 -8.35 -33.85 -6.75 -34.85 -5.2 -35.8 -4.45 -38.35 -3.6 -41.2 -4.4 -44.25 -5.95 -50.4 -8.45 -48.7 Z"/>
</g>

<g id="Carpeta_de_elementos_duplicados_S_mbolo_7_copia_0_Layer0_29_FILL">
<path fill="#AA7F3F" stroke="none" d="
M -10.45 -22.1
L -10.45 -15.25
Q -9.9 -8.95 -6.9 -12 -3.6 -15.4 -6.4 -21 -7.45 -23.15 -8.65 -23.6 -9.95 -24.1 -10.45 -22.1 Z"/>
</g>

<g id="Layer0_1_FILL">
<path fill="#7F5791" stroke="none" d="
M 100.6 137.75
Q 102.65 136.4 104.35 135.7 102.8 135.5 100.85 136.45 96.9 138.25 94.55 143.45 92.85 147.2 90.05 149.8 88.55 151.15 87.45 151.7
L 87.9 152.3
Q 91.05 152.3 92.85 149.95 94 148.4 95.4 144.25 96.6 140.6 100.6 137.75 Z"/>
</g>

<g id="Layer0_1_MEMBER_0_FILL">
<path fill="#367591" stroke="none" d="
M -46.65 -46.65
Q -47.2 -38.3 -47.1 -31.35 -46.75 -9.15 -39.9 -9.25 -35.9 -9.3 -34.2 -14.25 -32.6 -18.9 -33.5 -26.2 -35.55 -43.2 -46.05 -53.6
L -46.65 -46.65 Z"/>
</g>

<g id="Layer0_1_MEMBER_1_FILL">
<path fill="#367591" stroke="none" d="
M -75.7 -15.6
L -65.9 -9.7
Q -52.65 -1.45 -46.25 -3.1 -45.2 -6.7 -49.6 -10.55 -53.55 -14 -60.6 -16.6 -67.45 -19.15 -73.85 -19.7 -80.75 -20.3 -84.05 -18.25 -80.9 -18.35 -75.7 -15.6 Z"/>
</g>

<g id="Layer0_1_MEMBER_2_FILL">
<path fill="#5294C1" stroke="none" d="
M -67.4 -56.75
L -68.65 -49.65
Q -69.75 -41 -69.05 -33.5 -66.75 -9.55 -47.05 -5.95 -39.5 -11.5 -39.35 -17.9 -39.25 -24.15 -46.25 -29.75 -54.5 -36.4 -57.25 -39.55 -62.45 -45.6 -67.4 -56.75 Z"/>
</g>

<g id="Layer0_1_MEMBER_3_FILL">
<path fill="#536499" stroke="none" d="
M -16.3 -89.6
L -16.25 -89.7 -16.3 -89.7 -16.3 -89.6 Z"/>
</g>

<g id="Layer0_1_MEMBER_4_FILL">
<path fill="#35466D" stroke="none" d="
M 78.6 130.65
Q 78.298828125 135.1935546875 78.35 141.55 78.451171875 147.9564453125 69.75 149.4 84.65 149.75 85.7 152.6 86.65 155.35 84.75 157.25 84.3 157.6 83.8 157.8
L 88.1 157.35
Q 89.9 156.95 90.05 156.6 90.6 155.4 89.65 152.75 88.65 149.85 86.95 149.15 86.75 149.05 87.25 147.55 88.05 145.15 88.5 143.25 90.2 135.6 88.75 126.55 83.65 126.55 79.15 125.45
L 78.6 130.65 Z"/>
</g>

<g id="Layer0_1_MEMBER_5_FILL">
<path fill="#536499" stroke="none" d="
M 87.95 90.15
Q 86.9501953125 89.4060546875 82.3 88.6 77.6994140625 87.8318359375 77.15 89.5 76.6505859375 91.2181640625 76.9 96.9 77.1498046875 102.5939453125 78.05 103.4 78.8 104.2 80.65 103.9
L 82.3 103.35
Q 81.6 104.95 80.95 107.05 79.65 111.25 80.2 113.75
L 81.25 121.85
Q 76.85 133.6 83.15 133.1
L 87.65 133.1
Q 87.6 115.3 88.25 103.5 88.7 95.65 88.7 94.75 88.75 90.75 87.95 90.15 Z"/>
</g>

<g id="Layer0_1_MEMBER_6_FILL">
<path fill="#35466D" stroke="none" d="
M -44.2 -118.8
Q -43.2 -114.75 -41.75 -112 -36.3 -114.55 -30.4 -114.1 -24.15 -113.6 -21.15 -109.85 -20.1 -113.85 -21.4 -119.85
L -32.8 -119.75 -44.2 -118.8 Z"/>
</g>

<g id="Layer0_1_MEMBER_7_FILL">
<path fill="#536499" stroke="none" d="
M -42.95 -11.15
Q -49.05 -7 -49.05 -2.35 -49.05 1.05 -39.55 2.3 -31.7 3.4 -21.05 2.75 -19.95 2.3 -19.05 1.65 -15.95 0.4 -14.9 -2.5 -14 -5.15 -15.1 -8.15 -16.2 -11.1 -18.75 -12.85 -21.6 -14.8 -25.05 -14.35 -20.9 -17.9 -18 -24.3 -14.95 -30.9 -14.75 -37.1 -14.6 -44.05 -18.3 -48.05 -22.55 -52.65 -31.35 -52.4 -32.75 -39 -31.3 -33.35 -31.15 -32.85 -34.6 -26.35 -37.85 -19.1 -37.05 -15.1 -36.9 -14.45 -42.95 -11.15 Z"/>
</g>

<g id="Layer0_1_MEMBER_8_FILL">
<path fill="#745793" stroke="none" d="
M 59.1 120.05
L 59.5 121.5
Q 59.4 121.8 58.65 122.25
L 57.7 122.75
Q 56.7 123.5 57.3 126.7 57.95 129.85 59.25 130.1 60.65 130.4 95.35 122.95
L 135.55 114.5
Q 141.55 113.45 149 110.55 156.6 107.5 156.3 106.15 156.1 105 144.55 104.95
L 133.05 105.15 133.5 104.3
Q 133.9 103.4 133.6 103.05
L 125.15 102.3
Q 125.1 102.1 128.3 100.3 131.35 98.25 130.65 96.85 129.8 95.3 94.6 100.85 59.8 106.35 58.95 107.4 56.55 110.5 57.7 114.1
L 58.75 116.4
Q 59.3 117.45 59.2 117.65 58.7 118.7 59.1 120.05 Z"/>
</g>

<g id="Layer0_1_MEMBER_9_FILL">
<path fill="#A386D1" stroke="none" d="
M 92.3 -150.35
Q 103.65 -153.3 102.95 -155.35 102.35 -157.05 75.7 -154.5
L 49.2 -151.6 58.15 -155.15
Q 67 -159.05 66.2 -160.6 65.4 -162.2 55.2 -163.15
L 44.2 -163.6 52.65 -166.85
Q 61.85 -170.65 60.95 -172.35 59.8 -174.5 -4.35 -165.55 -68.7 -156.65 -73.8 -153.35 -78.25 -150.5 -77.55 -145.1 -76.8 -139.65 -71.05 -140.35
L -36.8 -143.1 -56.35 -137.95
Q -76 -132.65 -76.8 -131.85 -77.8 -130.85 -76.75 -129.25 -75.6 -127.6 -73.3 -127.6 -71.25 -127.6 -39.6 -132.7
L -8.3 -137.85 -44.5 -130
Q -80.85 -122.05 -81.8 -121.6 -83.15 -120.95 -82.3 -117.2 -81.45 -113.45 -79.05 -113.6 -73.2 -114.1 -34.3 -122.85 10.3 -132.85 16.45 -137.6 72 -145.15 92.3 -150.35 Z"/>
</g>

<g id="Layer0_1_MEMBER_10_FILL">
<path fill="#9AAFE2" stroke="none" d="
M 86.8 94.9
Q 86.8 92 83.1 92.95 79.45 93.7 79 94.95 78.5 96.25 78.75 98.8 79 101.4 79.85 101.75 81.15 102.35 83.75 100.25 86.75 97.85 86.8 94.9 Z"/>
</g>

<g id="Layer0_1_MEMBER_11_FILL">
<path fill="#8B9DD3" stroke="none" d="
M -32.75 -112.45
Q -38.7 -112.15 -38.55 -108.35 -38.45 -105.9 -32.6 -107.8 -26.8 -109.7 -26.8 -111.1 -26.8 -111.65 -28.65 -112.1
L -32.75 -112.45 Z"/>
</g>

<g id="Layer0_1_MEMBER_12_FILL">
<path fill="#8B9DD3" stroke="none" d="
M -23.1 -50.05
Q -29.15 -50.75 -30.3 -49.6 -31.55 -48.35 -31.9 -43.1 -32.25 -37.45 -30.55 -35.75 -28.7 -33.9 -23.6 -33.1 -18.5 -32.25 -17.55 -33.6 -16.75 -34.7 -16.6 -39
L -16.55 -43.1 -28.05 -44.1 -22.35 -45.2
Q -16.65 -46.6 -16.8 -47.85 -17 -49.3 -23.1 -50.05 Z"/>
</g>

<g id="Layer0_1_MEMBER_13_FILL">
<path fill="#8B9DD3" stroke="none" d="
M -26.75 -27.5
Q -35.15 -29.6 -35.8 -22.6 -36.3 -17 -28.55 -18.75 -25.75 -19.35 -22.85 -20.75 -20.15 -22.05 -19.55 -22.85 -18.95 -23.6 -21.3 -25.15 -23.7 -26.75 -26.75 -27.5 Z"/>
</g>

<g id="Layer0_1_MEMBER_14_FILL">
<path fill="#9AAFE2" stroke="none" d="
M -34.05 -6.65
Q -21.5 -9.7 -21.3 -11.85 -21.2 -12.95 -24.9 -13.9 -28.75 -14.9 -33.15 -14.8 -45.3 -14.4 -46.3 -6.1 -46.6 -3.55 -34.05 -6.65 Z"/>
</g>

<g id="Layer0_1_MEMBER_15_FILL">
<path fill="#9AAFE2" stroke="none" d="
M -29.3 -104.95
Q -37.1 -104.55 -38.05 -103.35 -39.6 -101.45 -39.95 -100.2 -40.5 -98.55 -39.3 -97.35 -37.9 -95.95 -28.9 -98.55 -19.85 -101.2 -20.55 -103.35 -21.2 -105.35 -29.3 -104.95 Z"/>
</g>

<g id="Layer0_1_MEMBER_16_FILL">
<path fill="#FFFFFF" stroke="none" d="
M -64.9 -142.5
L -65.4 -146.05
Q -65.5 -146.75 -69.75 -145.5
L -74.6 -143.9
Q -76.5 -143.25 -76.75 -142.9 -77.05 -142.45 -76.55 -140.55 -76.2 -139.45 -75.5 -139.45
L -73.8 -139.95 -72.1 -140
Q -71.95 -139.8 -71.75 -138.15
L -70.3 -126.85
Q -69.8 -125.8 -68.35 -126.35
L -67.25 -126.85 -68.75 -140.2
Q -68.8 -141.35 -67.4 -141.9
L -64.9 -142.5 Z"/>
</g>

<g id="Layer0_1_MEMBER_17_FILL">
<path fill="#FFFFFF" stroke="none" d="
M -54.1 -144.25
Q -51.2 -144.95 -52.3 -147.9 -56.65 -147.1 -60.2 -145.85 -61.5 -145.35 -61.8 -142.95
L -61.95 -139.2
Q -62.05 -135.75 -61.8 -132.9 -61.3 -127.9 -59.8 -128.3
L -52.4 -130.35
Q -51.15 -130.8 -50.9 -131.7 -50.75 -132.3 -51 -133.9
L -55.3 -133.05 -56.6 -132.65 -57.7 -132.75
Q -58.4 -135.4 -57.9 -136.15
L -55.05 -136.95
Q -53.3 -137.45 -52.2 -137.9 -52.1 -139.7 -52.65 -140.15 -53.2 -140.55 -55.05 -140.15
L -57.95 -139.8 -58.35 -142.75
Q -58 -143.35 -54.1 -144.25 Z"/>
</g>

<g id="Layer0_1_MEMBER_18_FILL">
<path fill="#FFFFFF" stroke="none" d="
M -47.35 -144.7
L -47.75 -139.7
Q -48.55 -133.9 -48.3 -129.8 -46.15 -129.85 -45.45 -130.5 -44.75 -131.15 -44.7 -133.3
L -43.15 -134.3 -41.35 -134.9 -39.6 -134.95 -38.6 -133.15
Q -37.25 -131.15 -35.25 -132.9 -37.9 -139.45 -40.6 -144.1
L -42.75 -147.8
Q -44.3 -149.75 -46.2 -148.95 -46.95 -148.6 -47.35 -144.7
M -44.45 -143.8
Q -42.65 -140.8 -41.35 -138.1 -43.9 -136.85 -44.75 -136.65
L -44.45 -143.8 Z"/>
</g>

<g id="Layer0_1_MEMBER_19_FILL">
<path fill="#FFFFFF" stroke="none" d="
M -27.45 -150.7
Q -27.7 -150.4 -27.45 -149.1
L -24.6 -136.2
Q -23.8 -133.75 -22.4 -134.25 -21.15 -134.7 -21.05 -135.75 -20.95 -136.25 -21.35 -137.9
L -22.15 -141.6 -19.8 -144.55
Q -17.75 -147.45 -17.6 -149.6 -17.25 -153.3 -20.6 -153.3 -23.2 -153.3 -26.05 -151.55
L -27.45 -150.7
M -23.15 -149.6
L -20.95 -149.7
Q -20.6 -148.6 -21.6 -147.15 -22.15 -146.35 -23.4 -145.1
L -24.1 -147.55
Q -24.25 -148.95 -23.15 -149.6 Z"/>
</g>

<g id="Layer0_1_MEMBER_20_FILL">
<path fill="#FFFFFF" stroke="none" d="
M -11.7 -154.8
Q -12.45 -154.5 -12.85 -150.6
L -13.25 -145.6
Q -14 -139.6 -13.8 -135.65 -11.65 -135.7 -10.95 -136.35 -10.25 -137 -10.2 -139.2 -9.75 -139.85 -6.8 -140.8
L -5.1 -140.85 -4.1 -139.05
Q -2.7 -137 -0.75 -138.8 -3.5 -145.5 -6.05 -149.95
L -8.25 -153.7
Q -9.8 -155.6 -11.7 -154.8
M -6.8 -144
Q -9.15 -142.8 -10.25 -142.55
L -9.95 -149.7
Q -8.2 -146.9 -6.8 -144 Z"/>
</g>

<g id="Layer0_1_MEMBER_21_FILL">
<path fill="#FFFFFF" stroke="none" d="
M 10.3 -156.45
Q 8.75 -159.2 4.9 -157.9 2.25 -157 -0.55 -154.75 -1.5 -148.05 0.7 -139.65 1.25 -137.75 1.85 -137.5
L 4.35 -137.8
Q 4.7 -137.9 4.05 -143.5 8.3 -142.2 11.15 -141.85 12.2 -141.7 12.5 -142.85
L 12.75 -145 6.9 -145.75 10.05 -150.8
Q 11.6 -154.15 10.3 -156.45
M 4.9 -155
Q 6.6 -155.5 6.95 -154.25 7.2 -151.35 3.65 -147.6
L 3.3 -153.5
Q 3.25 -154.5 4.9 -155 Z"/>
</g>

<g id="Layer0_1_MEMBER_22_FILL">
<path fill="#FFFFFF" stroke="none" d="
M 19.55 -160.7
L 14.7 -159.1
Q 12.8 -158.45 12.55 -158.1 12.25 -157.65 12.8 -155.75 13.1 -154.65 13.8 -154.65
L 15.55 -155.15 17.2 -155.2 17.55 -153.35 18.55 -144.4 19.05 -142.05
Q 19.55 -141 20.95 -141.55
L 22.05 -142.05 21.3 -148.25
Q 20.7 -153.05 20.6 -155.4 20.55 -156.55 21.9 -157.1
L 24.4 -157.7 23.9 -161.25
Q 23.75 -161.95 19.55 -160.7 Z"/>
</g>

<g id="Layer0_1_MEMBER_23_FILL">
<path fill="#FFFFFF" stroke="none" d="
M 30.55 -155.4
L 33.65 -153.25 30.45 -142.85
Q 30.25 -141.5 32.25 -142.15 34.2 -142.8 35.35 -145.9
L 39.6 -158.1
Q 41 -162.3 41.3 -165.5
L 38.8 -165.35
Q 37.2 -165.05 37 -164.05
L 35.25 -157.8
Q 33.35 -158.9 30.4 -161.3 29.25 -162.25 28.45 -161.9
L 26.65 -160.4
Q 25.15 -159.1 27.1 -157.6 28.15 -156.75 30.55 -155.4 Z"/>
</g>

<g id="Layer0_1_MEMBER_24_FILL">
<path fill="#745793" stroke="none" d="
M -74.05 -135.45
L -49.7 -141 -75.7 -138.6 -74.05 -135.45 Z"/>
</g>

<g id="Layer0_1_MEMBER_25_FILL">
<path fill="#A386D1" stroke="none" d="
M 47.95 -154.2
L 46.2 -155.45 12.7 -148 26.9 -149.7
Q 41.95 -151.8 47.95 -154.2 Z"/>
</g>

<g id="Layer0_1_MEMBER_26_FILL">
<path fill="#A386D1" stroke="none" d="
M -2.75 -153.95
Q -3.15 -155.3 -20.9 -150.5
L -38.9 -145.25
Q -36.2 -143.8 -19.2 -148.4 -2.4 -152.9 -2.75 -153.95 Z"/>
</g>

<g id="Layer0_1_MEMBER_27_FILL">
<path fill="#B7A0EF" stroke="none" d="
M -2.05 -162.35
Q -1.75 -163.5 -40.5 -158.15 -79.4 -152.8 -81.05 -149.85 -82.85 -146.55 -42.7 -153.85 -2.35 -161.15 -2.05 -162.35 Z"/>
</g>

<g id="Layer0_1_MEMBER_28_FILL">
<path fill="#536499" stroke="none" d="
M -13.35 -37.4
L -31.3 -36.55
Q -31.7 -36 -31.4 -35.05 -31.15 -34.25 -30.8 -34.2 -14.85 -34.75 -11.2 -37.75
L -13.35 -37.4 Z"/>
</g>

<g id="Layer0_1_MEMBER_29_FILL">
<path fill="#B7A0EF" stroke="none" d="
M 46.85 -168.85
Q 61.5 -170.4 60.95 -172.35 60.35 -174.6 47.6 -173.3 34.7 -172.05 32.95 -168.85 32.1 -167.3 46.85 -168.85 Z"/>
</g>

<g id="Layer0_1_MEMBER_30_FILL">
<path fill="#B7A0EF" stroke="none" d="
M 73.25 -155.8
Q 47.9 -153 44.95 -149.35 43.7 -147.8 73.9 -151.45 103.85 -155 101.2 -156.6 98 -158.5 73.25 -155.8 Z"/>
</g>

<g id="Layer0_1_MEMBER_31_FILL">
<path fill="#B7A0EF" stroke="none" d="
M -49.4 -124.6
L -17.3 -132.6 -48.8 -127.7
Q -80.4 -122.15 -81.05 -118.85 -81.4 -116.95 -49.4 -124.6 Z"/>
</g>

<g id="Layer0_1_MEMBER_32_FILL">
<path fill="#B7A0EF" stroke="none" d="
M 22.45 -150.75
Q 22.5 -150.45 27.35 -151.6
L 32.25 -152.75 30.95 -154.45 26.5 -153.6
Q 22.15 -152.45 22.45 -150.75 Z"/>
</g>

<g id="Layer0_1_MEMBER_33_FILL">
<path fill="#9AAFE2" stroke="none" d="
M -24.8 -170.85
Q -25.6 -166.9 -18.75 -168.35 -12.05 -169.8 -11.05 -171.85 -10.25 -173.4 -17.35 -173.05 -24.45 -172.65 -24.8 -170.85 Z"/>
</g>

<g id="Layer0_1_MEMBER_34_FILL">
<path fill="#C0DDFF" stroke="none" d="
M -37.2 -9.5
Q -31.3 -11.05 -32.05 -12.75 -32.9 -14.75 -38.15 -13.8 -43.45 -12.85 -43.25 -9.75 -43.1 -7.95 -37.2 -9.5 Z"/>
</g>

<g id="Layer0_1_MEMBER_35_FILL">
<path fill="#C0DDFF" stroke="none" d="
M 77.4 143.75
Q 77.15 144.75 79.45 144.55 81.7 144.4 82.1 144 82.5 143.55 80.1 143 77.75 142.45 77.4 143.75 Z"/>
</g>

<g id="Layer0_1_MEMBER_36_FILL">
<path fill="#C0DDFF" stroke="none" d="
M -32 -104.3
Q -39.05 -103.9 -39.4 -101.95 -39.85 -99.35 -33.05 -100.7 -26.4 -102 -25.55 -103.45 -24.85 -104.75 -32 -104.3 Z"/>
</g>

<g id="Layer0_1_MEMBER_37_FILL">
<path fill="#B7A0EF" stroke="none" d="
M 12.35 -164.5
Q 4.4 -162.75 4.7 -161.1 4.95 -159.5 12.95 -160.8 20.95 -162.1 20.7 -163.7 20.25 -166.3 12.35 -164.5 Z"/>
</g>

<g id="Layer0_1_MEMBER_38_FILL">
<path fill="#B7A0EF" stroke="none" d="
M 8.3 -130.95
Q 24.05 -134.5 23.55 -135.45 23.2 -136.15 7.75 -133.75 -7.8 -131.3 -7.55 -129.1 -7.4 -127.45 8.3 -130.95 Z"/>
</g>

<g id="Layer0_1_MEMBER_39_FILL">
<path fill="#5AC6E2" stroke="none" d="
M -58.3 -31.05
L -49.05 -20.95
Q -44.1 -15.5 -42.95 -12.5 -42.05 -12.5 -41.05 -13.6 -41.45 -16.3 -46 -21.05
L -55.45 -30.4
Q -68.5 -43.75 -67.05 -53.85 -70 -44.65 -58.3 -31.05 Z"/>
</g>

<g id="Layer0_1_MEMBER_40_FILL">
<path fill="#5AC6E2" stroke="none" d="
M -69.5 -39.7
L -67.45 -39.6
Q -64.8 -39.1 -62 -37.25
L -62.9 -38.65
Q -63.6 -39.35 -64.8 -39.85
L -69.5 -39.7 Z"/>
</g>

<g id="Layer0_1_MEMBER_41_FILL">
<path fill="#5AC6E2" stroke="none" d="
M -68.55 -30.55
L -64.05 -31.3
Q -58.9 -31.65 -55.65 -29.5 -55.9 -30.25 -56.5 -30.75
L -57.2 -31.2
Q -58.6 -32.2 -60.65 -32.65 -64.7 -33.5 -68.55 -30.55 Z"/>
</g>

<g id="Layer0_1_MEMBER_42_FILL">
<path fill="#5AC6E2" stroke="none" d="
M -55.35 -23
L -49.55 -22.15 -50.4 -23.45
Q -54.05 -25.05 -57.7 -24.75 -62.6 -24.4 -65.75 -20.55 -61.95 -23.3 -55.35 -23 Z"/>
</g>

<g id="Layer0_1_MEMBER_43_FILL">
<path fill="#5AC6E2" stroke="none" d="
M -49.75 -14.95
L -43.15 -14.5 -44.25 -15.25
Q -47.2 -17.1 -52.3 -16.55 -57.85 -15.95 -60.05 -12.7 -57 -14.9 -49.75 -14.95 Z"/>
</g>

<g id="Layer0_1_MEMBER_44_FILL">
<path fill="#5AC6E2" stroke="none" d="
M -48.65 -23.1
Q -47.75 -24.3 -47.45 -26.05 -46.75 -29.6 -49.4 -32.35 -48.7 -31.3 -48.85 -28
L -49.25 -23.7 -48.65 -23.1 Z"/>
</g>

<g id="Layer0_1_MEMBER_45_FILL">
<path fill="#5AC6E2" stroke="none" d="
M -41.7 -19.05
Q -42.1 -17.3 -42.8 -16.15
L -56.75 -31.25 -50.85 -22.8
Q -44.45 -14.5 -42.25 -15.55 -39.75 -16.75 -40 -20.05 -40.2 -23 -42.25 -25.75 -40.85 -22.6 -41.7 -19.05 Z"/>
</g>

<g id="Layer0_1_MEMBER_46_FILL">
<path fill="#5AC6E2" stroke="none" d="
M -56.55 -30.75
Q -55.95 -32.1 -55.75 -33.95 -55.45 -37.65 -57.65 -40.1 -56.65 -38.3 -56.8 -35.8 -56.95 -33.75 -57.75 -32.15
L -56.55 -30.75 Z"/>
</g>

<g id="Layer0_1_MEMBER_47_FILL">
<path fill="#5AC6E2" stroke="none" d="
M -64.4 -44.95
Q -64.5 -41.05 -63.9 -39.85
L -63.4 -39.4
Q -62.8 -46.75 -64.3 -50.1 -64.2 -49.6 -64.4 -44.95 Z"/>
</g>

<g id="Layer0_1_MEMBER_48_FILL">
<path fill="#4FA3C1" stroke="none" d="
M -43.05 -44.25
Q -40.55 -34 -41.5 -24.9
L -40.3 -23.05
Q -39.8 -27.25 -40.2 -33.05 -41.05 -44.6 -45.75 -52.65
L -43.05 -44.25 Z"/>
</g>

<g id="Layer0_1_MEMBER_49_FILL">
<path fill="#4FA3C1" stroke="none" d="
M -41.2 -35.15
L -43.6 -36.55
Q -46.1 -38.25 -46.9 -39.9 -46.95 -38.15 -44.35 -35.75 -41.8 -33.35 -41.05 -34.35
L -41.2 -35.15 Z"/>
</g>

<g id="Layer0_1_MEMBER_50_FILL">
<path fill="#4FA3C1" stroke="none" d="
M -45.25 -45.05
L -46.55 -46.4
Q -45.6 -43.7 -43.7 -42.75 -42.75 -42.25 -42 -42.3
L -42.3 -43.6
Q -43.65 -43.7 -45.25 -45.05 Z"/>
</g>

<g id="Layer0_1_MEMBER_51_FILL">
<path fill="#4FA3C1" stroke="none" d="
M -44.95 -31.3
L -47.25 -33.8
Q -46 -30.25 -43.3 -28.45 -42 -27.55 -40.9 -27.35
L -41 -28.75
Q -42.35 -28.8 -44.95 -31.3 Z"/>
</g>

<g id="Layer0_1_MEMBER_52_FILL">
<path fill="#4FA3C1" stroke="none" d="
M -40.5 -34.65
Q -38.3 -34.05 -36.9 -39.1
L -40.7 -35.15 -40.5 -34.65 Z"/>
</g>

<g id="Layer0_1_MEMBER_53_FILL">
<path fill="#4FA3C1" stroke="none" d="
M -40.65 -46.6
L -42.3 -43.6 -42.15 -43.15
Q -40.85 -43.4 -40.6 -45
L -40.65 -46.6 Z"/>
</g>

<g id="Layer0_1_MEMBER_54_FILL">
<path fill="#4FA3C1" stroke="none" d="
M -34.9 -33.1
Q -35.9 -31.1 -39.95 -28.8
L -40.45 -27.75
Q -39.4 -26.6 -37.05 -29.15 -34.75 -31.65 -34.9 -33.1 Z"/>
</g>

<g id="Layer0_1_MEMBER_55_FILL">
<path fill="#4FA3C1" stroke="none" d="
M -36 -23
L -39.55 -21.05 -39.4 -20.1
Q -38.4 -19.25 -36.25 -21.6
L -36 -23 Z"/>
</g>

<g id="Layer0_1_MEMBER_56_FILL">
<path fill="#4FA3C1" stroke="none" d="
M -84.05 -18.25
L -82.7 -18.65 -78.65 -19.05
Q -71.45 -19 -62.65 -14.85
L -63.5 -16.45
Q -66.6 -17.9 -70.7 -18.9 -78.95 -20.8 -84.05 -18.25 Z"/>
</g>

<g id="Layer0_1_MEMBER_57_FILL">
<path fill="#4FA3C1" stroke="none" d="
M -75.15 -15.55
Q -72.55 -16.75 -68.95 -16.75
L -65.9 -16.5 -67.4 -17.45
Q -71.5 -17.8 -73.75 -16.7
L -75.15 -15.55 Z"/>
</g>

<g id="Layer0_1_MEMBER_58_FILL">
<path fill="#4FA3C1" stroke="none" d="
M -65.9 -12.05
L -67.25 -10.45
Q -64.25 -12.3 -61.8 -12.35
L -59.95 -12.05 -61.15 -13.25
Q -64 -13.55 -65.9 -12.05 Z"/>
</g>

<g id="Layer0_1_MEMBER_59_FILL">
<path fill="#4FA3C1" stroke="none" d="
M -59.25 -5.85
L -53.45 -7.85 -54.55 -8.3 -56.05 -8.2
Q -57.85 -7.7 -59.25 -5.85 Z"/>
</g>

<g id="Layer0_1_MEMBER_60_FILL">
<path fill="#7F5791" stroke="none" d="
M 0.1 -27.4
Q 1.35 -25.6 2.05 -26.6 4.75 -30.3 3.2 -37.45 1.65 -44.65 -1.2 -42.35 -4.05 -40.05 -1.85 -32.2 -1 -29.15 0.1 -27.4 Z"/>
</g>

<g id="Layer0_1_MEMBER_61_FILL">
<path fill="#7F5791" stroke="none" d="
M -8.05 -30.1
Q -10.1 -27.45 -7.2 -21.05 -4.35 -14.7 -1.8 -18.5 -0.45 -20.55 -3.4 -26.4 -6.4 -32.25 -8.05 -30.1 Z"/>
</g>

<g id="Layer0_1_MEMBER_62_FILL">
<path fill="#7F5791" stroke="none" d="
M 9.2 -46.85
Q 6.2 -45.85 5.7 -40.1 5.2 -34.4 7.8 -35 9.55 -35.4 10.75 -41.6 11.95 -47.8 9.2 -46.85 Z"/>
</g>

<g id="Layer0_1_MEMBER_63_FILL">
<path fill="#7F5791" stroke="none" d="
M 89.8 147.35
Q 88.45 145.45 87.95 146.45 87.45 147.55 88.9 149.1 90.35 150.7 90.8 149.85 91.15 149.3 89.8 147.35 Z"/>
</g>

<g id="Layer0_1_MEMBER_64_FILL">
<path fill="#7F5791" stroke="none" d="
M 21.35 -44.9
Q 14.05 -41.55 14.55 -39.65 14.95 -38.15 21.45 -39.75 28.1 -41.35 28.3 -44.75 28.5 -48.2 21.35 -44.9 Z"/>
</g>

<g id="Layer0_1_MEMBER_65_FILL">
<path fill="#7F5791" stroke="none" d="
M 9.8 -35.75
Q 8.55 -34.25 14.7 -32.75 20.8 -31.3 22.55 -33.5 24.45 -35.85 18.15 -37 11.85 -38.15 9.8 -35.75 Z"/>
</g>

<g id="Layer0_1_MEMBER_66_FILL">
<path fill="#7F5791" stroke="none" d="
M 12.15 -30.4
Q 5.4 -31.35 4.2 -29.45 2.9 -27.45 9.2 -26.2 15.45 -24.95 17.2 -27.25 18.9 -29.5 12.15 -30.4 Z"/>
</g>

<g id="Layer0_1_MEMBER_67_FILL">
<path fill="#7F5791" stroke="none" d="
M 5.55 -16.85
Q 12.7 -15.35 13.65 -17 14.45 -18.4 12.8 -19.65 11.35 -20.85 8.55 -21.4 1.75 -22.85 -0.6 -19.75 -1.6 -18.4 5.55 -16.85 Z"/>
</g>

<g id="Layer0_1_MEMBER_68_FILL">
<path fill="#7F5791" stroke="none" d="
M 6.5 -8.15
Q 9.85 -10.15 2.55 -12.45 -4.85 -14.8 -6.45 -12.7 -7.8 -11 -2.3 -8.6 3.3 -6.2 6.5 -8.15 Z"/>
</g>

<g id="Layer0_1_MEMBER_69_FILL">
<path fill="#A274BA" stroke="none" d="
M 8.7 -46.6
Q 7.8 -46 7.55 -42.1 7.25 -38.1 8.8 -38.7 10.6 -39.4 10.7 -43.7 10.85 -47.95 8.7 -46.6 Z"/>
</g>

<g id="Layer0_1_MEMBER_70_FILL">
<path fill="#A274BA" stroke="none" d="
M 17.05 -41.35
Q 16.9 -40.35 23.1 -42.3 29.1 -44.2 27.8 -45.6 26.4 -47.15 21.9 -45.4 17.35 -43.6 17.05 -41.35 Z"/>
</g>

<g id="Layer0_1_MEMBER_71_FILL">
<path fill="#A274BA" stroke="none" d="
M 12.05 -36
Q 11.5 -35.4 17.05 -34.15 22.45 -32.9 22.7 -34.5 22.95 -36.1 17.9 -36.5 12.95 -36.9 12.05 -36 Z"/>
</g>

<g id="Layer0_1_MEMBER_72_FILL">
<path fill="#A274BA" stroke="none" d="
M 6.05 -29.35
Q 5.4 -28.65 11 -27.3 16.5 -26 17.05 -27.75 17.75 -29.75 12.9 -30.6 8 -31.45 6.05 -29.35 Z"/>
</g>

<g id="Layer0_1_MEMBER_73_FILL">
<path fill="#A274BA" stroke="none" d="
M 2.2 -31.6
Q 3.9 -33 2.95 -38.7 1.95 -44.45 -0.55 -42.7 -1.85 -41.85 -0.55 -36.15 0.75 -30.45 2.2 -31.6 Z"/>
</g>

<g id="Layer0_1_MEMBER_74_FILL">
<path fill="#A274BA" stroke="none" d="
M -7.55 -30.6
Q -9 -29.65 -6.5 -24.5 -4 -19.35 -2.95 -20.35 -1.65 -21.5 -3.4 -26.8 -5.15 -32.1 -7.55 -30.6 Z"/>
</g>

<g id="Layer0_1_MEMBER_75_FILL">
<path fill="#A274BA" stroke="none" d="
M 8.75 -21.55
Q 4.4 -22.55 2.8 -20.25 2.4 -19.6 7.65 -18.3 12.85 -17.05 12.95 -18.6 13.05 -20.55 8.75 -21.55 Z"/>
</g>

<g id="Layer0_1_MEMBER_76_FILL">
<path fill="#A274BA" stroke="none" d="
M 7.05 -9.6
Q 8.05 -11.15 2.85 -12.5 -2.4 -13.85 -4.55 -12.25 5.8 -7.6 7.05 -9.6 Z"/>
</g>

<g id="Layer0_1_MEMBER_77_FILL">
<path fill="#A274BA" stroke="none" d="
M -10.8 -17.6
Q -8.95 -15 -8.55 -15.2 -7.4 -15.85 -9 -18.6 -10.6 -21.35 -11.7 -20.75 -12.6 -20.25 -10.8 -17.6 Z"/>
</g>
</defs>

<g transform="matrix( 0.5700225830078125, 0, 0, 0.5700225830078125, 85.1,125) ">
<g transform="matrix( 1, 0, 0, 1, 0,0) ">
<use xlink:href="#Carpeta_de_elementos_duplicados_S_mbolo_7_copia_0_Layer0_0_FILL"/>
</g>

<g transform="matrix( 1, 0, 0, 1, 0,0) ">
<use xlink:href="#Carpeta_de_elementos_duplicados_S_mbolo_7_copia_0_Layer0_1_FILL"/>
</g>

<g transform="matrix( 1, 0, 0, 1, 0,0) ">
<use xlink:href="#Carpeta_de_elementos_duplicados_S_mbolo_7_copia_0_Layer0_2_FILL"/>
</g>

<g transform="matrix( 1, 0, 0, 1, 0,0) ">
<use xlink:href="#Carpeta_de_elementos_duplicados_S_mbolo_7_copia_0_Layer0_3_FILL"/>
</g>

<g transform="matrix( 1, 0, 0, 1, 0,0) ">
<use xlink:href="#Carpeta_de_elementos_duplicados_S_mbolo_7_copia_0_Layer0_4_FILL"/>
</g>

<g transform="matrix( 1, 0, 0, 1, 0,0) ">
<use xlink:href="#Carpeta_de_elementos_duplicados_S_mbolo_7_copia_0_Layer0_5_FILL"/>
</g>

<g transform="matrix( 1, 0, 0, 1, 0,0) ">
<use xlink:href="#Carpeta_de_elementos_duplicados_S_mbolo_7_copia_0_Layer0_6_FILL"/>
</g>

<g transform="matrix( 1, 0, 0, 1, 0,0) ">
<use xlink:href="#Carpeta_de_elementos_duplicados_S_mbolo_7_copia_0_Layer0_7_FILL"/>
</g>

<g transform="matrix( 1, 0, 0, 1, 0,0) ">
<use xlink:href="#Carpeta_de_elementos_duplicados_S_mbolo_7_copia_0_Layer0_8_FILL"/>
</g>

<g transform="matrix( 1, 0, 0, 1, 0,0) ">
<use xlink:href="#Carpeta_de_elementos_duplicados_S_mbolo_7_copia_0_Layer0_9_FILL"/>
</g>

<g transform="matrix( 1, 0, 0, 1, 0,0) ">
<use xlink:href="#Carpeta_de_elementos_duplicados_S_mbolo_7_copia_0_Layer0_10_FILL"/>
</g>

<g transform="matrix( 1, 0, 0, 1, 0,0) ">
<use xlink:href="#Carpeta_de_elementos_duplicados_S_mbolo_7_copia_0_Layer0_11_FILL"/>
</g>

<g transform="matrix( 1, 0, 0, 1, 0,0) ">
<use xlink:href="#Carpeta_de_elementos_duplicados_S_mbolo_7_copia_0_Layer0_12_FILL"/>
</g>

<g transform="matrix( 1, 0, 0, 1, 0,0) ">
<use xlink:href="#Carpeta_de_elementos_duplicados_S_mbolo_7_copia_0_Layer0_13_FILL"/>
</g>

<g transform="matrix( 1, 0, 0, 1, 0,0) ">
<use xlink:href="#Carpeta_de_elementos_duplicados_S_mbolo_7_copia_0_Layer0_14_FILL"/>
</g>

<g transform="matrix( 1, 0, 0, 1, 0,0) ">
<use xlink:href="#Carpeta_de_elementos_duplicados_S_mbolo_7_copia_0_Layer0_15_FILL"/>
</g>

<g transform="matrix( 1, 0, 0, 1, 0,0) ">
<use xlink:href="#Carpeta_de_elementos_duplicados_S_mbolo_7_copia_0_Layer0_16_FILL"/>
</g>

<g transform="matrix( 1, 0, 0, 1, 0,0) ">
<use xlink:href="#Carpeta_de_elementos_duplicados_S_mbolo_7_copia_0_Layer0_17_FILL"/>
</g>

<g transform="matrix( 1, 0, 0, 1, 0,0) ">
<use xlink:href="#Carpeta_de_elementos_duplicados_S_mbolo_7_copia_0_Layer0_18_FILL"/>
</g>

<g transform="matrix( 1, 0, 0, 1, 0,0) ">
<use xlink:href="#Carpeta_de_elementos_duplicados_S_mbolo_7_copia_0_Layer0_19_FILL"/>
</g>

<g transform="matrix( 1, 0, 0, 1, 0,0) ">
<use xlink:href="#Carpeta_de_elementos_duplicados_S_mbolo_7_copia_0_Layer0_20_FILL"/>
</g>

<g transform="matrix( 1, 0, 0, 1, 0,0) ">
<use xlink:href="#Carpeta_de_elementos_duplicados_S_mbolo_7_copia_0_Layer0_21_FILL"/>
</g>

<g transform="matrix( 1, 0, 0, 1, 0,0) ">
<use xlink:href="#Carpeta_de_elementos_duplicados_S_mbolo_7_copia_0_Layer0_22_FILL"/>
</g>

<g transform="matrix( 1, 0, 0, 1, 0,0) ">
<use xlink:href="#Carpeta_de_elementos_duplicados_S_mbolo_7_copia_0_Layer0_23_FILL"/>
</g>

<g transform="matrix( 1, 0, 0, 1, 0,0) ">
<use xlink:href="#Carpeta_de_elementos_duplicados_S_mbolo_7_copia_0_Layer0_24_FILL"/>
</g>

<g transform="matrix( 1, 0, 0, 1, 0,0) ">
<use xlink:href="#Carpeta_de_elementos_duplicados_S_mbolo_7_copia_0_Layer0_25_FILL"/>
</g>

<g transform="matrix( 1, 0, 0, 1, 0,0) ">
<use xlink:href="#Carpeta_de_elementos_duplicados_S_mbolo_7_copia_0_Layer0_26_FILL"/>
</g>

<g transform="matrix( 1, 0, 0, 1, 0,0) ">
<use xlink:href="#Carpeta_de_elementos_duplicados_S_mbolo_7_copia_0_Layer0_27_FILL"/>
</g>

<g transform="matrix( 1, 0, 0, 1, 0,0) ">
<use xlink:href="#Carpeta_de_elementos_duplicados_S_mbolo_7_copia_0_Layer0_28_FILL"/>
</g>

<g transform="matrix( 1, 0, 0, 1, 0,0) ">
<use xlink:href="#Carpeta_de_elementos_duplicados_S_mbolo_7_copia_0_Layer0_29_FILL"/>
</g>
</g>

<g transform="matrix( 1, 0, 0, 1, 0,0) ">
<use xlink:href="#Layer0_1_FILL"/>
</g>

<g transform="matrix( 0.4926300048828125, -0.0020599365234375, 0.0020599365234375, 0.4926300048828125, 94.15,156.4) ">
<use xlink:href="#Layer0_1_MEMBER_0_FILL"/>
</g>

<g transform="matrix( 0.4926300048828125, -0.0020599365234375, 0.0020599365234375, 0.4926300048828125, 94.15,156.4) ">
<use xlink:href="#Layer0_1_MEMBER_1_FILL"/>
</g>

<g transform="matrix( 0.4926300048828125, -0.0020599365234375, 0.0020599365234375, 0.4926300048828125, 94.15,156.4) ">
<use xlink:href="#Layer0_1_MEMBER_2_FILL"/>
</g>

<g transform="matrix( 0.4926300048828125, -0.0020599365234375, 0.0020599365234375, 0.4926300048828125, 99.65,182.75) ">
<use xlink:href="#Layer0_1_MEMBER_3_FILL"/>
</g>

<g transform="matrix( 1, 0, 0, 1, 0,0) ">
<use xlink:href="#Layer0_1_MEMBER_4_FILL"/>
</g>

<g transform="matrix( 1, 0, 0, 1, 0,0) ">
<use xlink:href="#Layer0_1_MEMBER_5_FILL"/>
</g>

<g transform="matrix( 0.4926300048828125, -0.0020599365234375, 0.0020599365234375, 0.4926300048828125, 99.65,182.75) ">
<use xlink:href="#Layer0_1_MEMBER_6_FILL"/>
</g>

<g transform="matrix( 0.4926300048828125, -0.0020599365234375, 0.0020599365234375, 0.4926300048828125, 94.15,156.4) ">
<use xlink:href="#Layer0_1_MEMBER_7_FILL"/>
</g>

<g transform="matrix( 1, 0, 0, 1, 0,0) ">
<use xlink:href="#Layer0_1_MEMBER_8_FILL"/>
</g>

<g transform="matrix( 0.4926300048828125, -0.0020599365234375, 0.0020599365234375, 0.4926300048828125, 99.65,182.75) ">
<use xlink:href="#Layer0_1_MEMBER_9_FILL"/>
</g>

<g transform="matrix( 1, 0, 0, 1, 0,0) ">
<use xlink:href="#Layer0_1_MEMBER_10_FILL"/>
</g>

<g transform="matrix( 0.4926300048828125, -0.0020599365234375, 0.0020599365234375, 0.4926300048828125, 99.65,182.75) ">
<use xlink:href="#Layer0_1_MEMBER_11_FILL"/>
</g>

<g transform="matrix( 0.4926300048828125, -0.0020599365234375, 0.0020599365234375, 0.4926300048828125, 94.15,156.4) ">
<use xlink:href="#Layer0_1_MEMBER_12_FILL"/>
</g>

<g transform="matrix( 0.4926300048828125, -0.0020599365234375, 0.0020599365234375, 0.4926300048828125, 94.15,156.4) ">
<use xlink:href="#Layer0_1_MEMBER_13_FILL"/>
</g>

<g transform="matrix( 0.4926300048828125, -0.0020599365234375, 0.0020599365234375, 0.4926300048828125, 94.15,156.4) ">
<use xlink:href="#Layer0_1_MEMBER_14_FILL"/>
</g>

<g transform="matrix( 0.4926300048828125, -0.0020599365234375, 0.0020599365234375, 0.4926300048828125, 99.65,182.75) ">
<use xlink:href="#Layer0_1_MEMBER_15_FILL"/>
</g>

<g transform="matrix( 0.4926300048828125, -0.0020599365234375, 0.0020599365234375, 0.4926300048828125, 99.65,182.75) ">
<use xlink:href="#Layer0_1_MEMBER_16_FILL"/>
</g>

<g transform="matrix( 0.4926300048828125, -0.0020599365234375, 0.0020599365234375, 0.4926300048828125, 99.65,182.75) ">
<use xlink:href="#Layer0_1_MEMBER_17_FILL"/>
</g>

<g transform="matrix( 0.4926300048828125, -0.0020599365234375, 0.0020599365234375, 0.4926300048828125, 99.65,182.75) ">
<use xlink:href="#Layer0_1_MEMBER_18_FILL"/>
</g>

<g transform="matrix( 0.4926300048828125, -0.0020599365234375, 0.0020599365234375, 0.4926300048828125, 99.65,182.75) ">
<use xlink:href="#Layer0_1_MEMBER_19_FILL"/>
</g>

<g transform="matrix( 0.4926300048828125, -0.0020599365234375, 0.0020599365234375, 0.4926300048828125, 99.65,182.75) ">
<use xlink:href="#Layer0_1_MEMBER_20_FILL"/>
</g>

<g transform="matrix( 0.4926300048828125, -0.0020599365234375, 0.0020599365234375, 0.4926300048828125, 99.65,182.75) ">
<use xlink:href="#Layer0_1_MEMBER_21_FILL"/>
</g>

<g transform="matrix( 0.4926300048828125, -0.0020599365234375, 0.0020599365234375, 0.4926300048828125, 99.65,182.75) ">
<use xlink:href="#Layer0_1_MEMBER_22_FILL"/>
</g>

<g transform="matrix( 0.4926300048828125, -0.0020599365234375, 0.0020599365234375, 0.4926300048828125, 99.65,182.75) ">
<use xlink:href="#Layer0_1_MEMBER_23_FILL"/>
</g>

<g transform="matrix( 0.4926300048828125, -0.0020599365234375, 0.0020599365234375, 0.4926300048828125, 99.65,182.75) ">
<use xlink:href="#Layer0_1_MEMBER_24_FILL"/>
</g>

<g transform="matrix( 0.4926300048828125, -0.0020599365234375, 0.0020599365234375, 0.4926300048828125, 99.65,182.75) ">
<use xlink:href="#Layer0_1_MEMBER_25_FILL"/>
</g>

<g transform="matrix( 0.4926300048828125, -0.0020599365234375, 0.0020599365234375, 0.4926300048828125, 99.65,182.75) ">
<use xlink:href="#Layer0_1_MEMBER_26_FILL"/>
</g>

<g transform="matrix( 0.4926300048828125, -0.0020599365234375, 0.0020599365234375, 0.4926300048828125, 99.65,182.75) ">
<use xlink:href="#Layer0_1_MEMBER_27_FILL"/>
</g>

<g transform="matrix( 0.4926300048828125, -0.0020599365234375, 0.0020599365234375, 0.4926300048828125, 94.15,156.4) ">
<use xlink:href="#Layer0_1_MEMBER_28_FILL"/>
</g>

<g transform="matrix( 0.4926300048828125, -0.0020599365234375, 0.0020599365234375, 0.4926300048828125, 99.65,182.75) ">
<use xlink:href="#Layer0_1_MEMBER_29_FILL"/>
</g>

<g transform="matrix( 0.4926300048828125, -0.0020599365234375, 0.0020599365234375, 0.4926300048828125, 99.65,182.75) ">
<use xlink:href="#Layer0_1_MEMBER_30_FILL"/>
</g>

<g transform="matrix( 0.4926300048828125, -0.0020599365234375, 0.0020599365234375, 0.4926300048828125, 99.65,182.75) ">
<use xlink:href="#Layer0_1_MEMBER_31_FILL"/>
</g>

<g transform="matrix( 0.4926300048828125, -0.0020599365234375, 0.0020599365234375, 0.4926300048828125, 99.65,182.75) ">
<use xlink:href="#Layer0_1_MEMBER_32_FILL"/>
</g>

<g transform="matrix( 0.4926300048828125, -0.0020599365234375, 0.0020599365234375, 0.4926300048828125, 102.9,187.2) ">
<use xlink:href="#Layer0_1_MEMBER_33_FILL"/>
</g>

<g transform="matrix( 0.4926300048828125, -0.0020599365234375, 0.0020599365234375, 0.4926300048828125, 94.15,156.4) ">
<use xlink:href="#Layer0_1_MEMBER_34_FILL"/>
</g>

<g transform="matrix( 1, 0, 0, 1, 0,0) ">
<use xlink:href="#Layer0_1_MEMBER_35_FILL"/>
</g>

<g transform="matrix( 0.4926300048828125, -0.0020599365234375, 0.0020599365234375, 0.4926300048828125, 99.65,182.75) ">
<use xlink:href="#Layer0_1_MEMBER_36_FILL"/>
</g>

<g transform="matrix( 0.4926300048828125, -0.0020599365234375, 0.0020599365234375, 0.4926300048828125, 99.65,182.75) ">
<use xlink:href="#Layer0_1_MEMBER_37_FILL"/>
</g>

<g transform="matrix( 0.4926300048828125, -0.0020599365234375, 0.0020599365234375, 0.4926300048828125, 99.65,182.75) ">
<use xlink:href="#Layer0_1_MEMBER_38_FILL"/>
</g>

<g transform="matrix( 0.4926300048828125, -0.0020599365234375, 0.0020599365234375, 0.4926300048828125, 94.15,156.4) ">
<use xlink:href="#Layer0_1_MEMBER_39_FILL"/>
</g>

<g transform="matrix( 0.4926300048828125, -0.0020599365234375, 0.0020599365234375, 0.4926300048828125, 94.15,156.4) ">
<use xlink:href="#Layer0_1_MEMBER_40_FILL"/>
</g>

<g transform="matrix( 0.4926300048828125, -0.0020599365234375, 0.0020599365234375, 0.4926300048828125, 94.15,156.4) ">
<use xlink:href="#Layer0_1_MEMBER_41_FILL"/>
</g>

<g transform="matrix( 0.4926300048828125, -0.0020599365234375, 0.0020599365234375, 0.4926300048828125, 94.15,156.4) ">
<use xlink:href="#Layer0_1_MEMBER_42_FILL"/>
</g>

<g transform="matrix( 0.4926300048828125, -0.0020599365234375, 0.0020599365234375, 0.4926300048828125, 94.15,156.4) ">
<use xlink:href="#Layer0_1_MEMBER_43_FILL"/>
</g>

<g transform="matrix( 0.4926300048828125, -0.0020599365234375, 0.0020599365234375, 0.4926300048828125, 94.15,156.4) ">
<use xlink:href="#Layer0_1_MEMBER_44_FILL"/>
</g>

<g transform="matrix( 0.4926300048828125, -0.0020599365234375, 0.0020599365234375, 0.4926300048828125, 94.15,156.4) ">
<use xlink:href="#Layer0_1_MEMBER_45_FILL"/>
</g>

<g transform="matrix( 0.4926300048828125, -0.0020599365234375, 0.0020599365234375, 0.4926300048828125, 94.15,156.4) ">
<use xlink:href="#Layer0_1_MEMBER_46_FILL"/>
</g>

<g transform="matrix( 0.4926300048828125, -0.0020599365234375, 0.0020599365234375, 0.4926300048828125, 94.15,156.4) ">
<use xlink:href="#Layer0_1_MEMBER_47_FILL"/>
</g>

<g transform="matrix( 0.4926300048828125, -0.0020599365234375, 0.0020599365234375, 0.4926300048828125, 94.15,156.4) ">
<use xlink:href="#Layer0_1_MEMBER_48_FILL"/>
</g>

<g transform="matrix( 0.4926300048828125, -0.0020599365234375, 0.0020599365234375, 0.4926300048828125, 94.15,156.4) ">
<use xlink:href="#Layer0_1_MEMBER_49_FILL"/>
</g>

<g transform="matrix( 0.4926300048828125, -0.0020599365234375, 0.0020599365234375, 0.4926300048828125, 94.15,156.4) ">
<use xlink:href="#Layer0_1_MEMBER_50_FILL"/>
</g>

<g transform="matrix( 0.4926300048828125, -0.0020599365234375, 0.0020599365234375, 0.4926300048828125, 94.15,156.4) ">
<use xlink:href="#Layer0_1_MEMBER_51_FILL"/>
</g>

<g transform="matrix( 0.4926300048828125, -0.0020599365234375, 0.0020599365234375, 0.4926300048828125, 94.15,156.4) ">
<use xlink:href="#Layer0_1_MEMBER_52_FILL"/>
</g>

<g transform="matrix( 0.4926300048828125, -0.0020599365234375, 0.0020599365234375, 0.4926300048828125, 94.15,156.4) ">
<use xlink:href="#Layer0_1_MEMBER_53_FILL"/>
</g>

<g transform="matrix( 0.4926300048828125, -0.0020599365234375, 0.0020599365234375, 0.4926300048828125, 94.15,156.4) ">
<use xlink:href="#Layer0_1_MEMBER_54_FILL"/>
</g>

<g transform="matrix( 0.4926300048828125, -0.0020599365234375, 0.0020599365234375, 0.4926300048828125, 94.15,156.4) ">
<use xlink:href="#Layer0_1_MEMBER_55_FILL"/>
</g>

<g transform="matrix( 0.4926300048828125, -0.0020599365234375, 0.0020599365234375, 0.4926300048828125, 94.15,156.4) ">
<use xlink:href="#Layer0_1_MEMBER_56_FILL"/>
</g>

<g transform="matrix( 0.4926300048828125, -0.0020599365234375, 0.0020599365234375, 0.4926300048828125, 94.15,156.4) ">
<use xlink:href="#Layer0_1_MEMBER_57_FILL"/>
</g>

<g transform="matrix( 0.4926300048828125, -0.0020599365234375, 0.0020599365234375, 0.4926300048828125, 94.15,156.4) ">
<use xlink:href="#Layer0_1_MEMBER_58_FILL"/>
</g>

<g transform="matrix( 0.4926300048828125, -0.0020599365234375, 0.0020599365234375, 0.4926300048828125, 94.15,156.4) ">
<use xlink:href="#Layer0_1_MEMBER_59_FILL"/>
</g>

<g transform="matrix( 0.4926300048828125, -0.0020599365234375, 0.0020599365234375, 0.4926300048828125, 94.15,156.4) ">
<use xlink:href="#Layer0_1_MEMBER_60_FILL"/>
</g>

<g transform="matrix( 0.4926300048828125, -0.0020599365234375, 0.0020599365234375, 0.4926300048828125, 94.15,156.4) ">
<use xlink:href="#Layer0_1_MEMBER_61_FILL"/>
</g>

<g transform="matrix( 0.4926300048828125, -0.0020599365234375, 0.0020599365234375, 0.4926300048828125, 94.15,156.4) ">
<use xlink:href="#Layer0_1_MEMBER_62_FILL"/>
</g>

<g transform="matrix( 1, 0, 0, 1, 0,0) ">
<use xlink:href="#Layer0_1_MEMBER_63_FILL"/>
</g>

<g transform="matrix( 0.4926300048828125, -0.0020599365234375, 0.0020599365234375, 0.4926300048828125, 94.15,156.4) ">
<use xlink:href="#Layer0_1_MEMBER_64_FILL"/>
</g>

<g transform="matrix( 0.4926300048828125, -0.0020599365234375, 0.0020599365234375, 0.4926300048828125, 94.15,156.4) ">
<use xlink:href="#Layer0_1_MEMBER_65_FILL"/>
</g>

<g transform="matrix( 0.4926300048828125, -0.0020599365234375, 0.0020599365234375, 0.4926300048828125, 94.15,156.4) ">
<use xlink:href="#Layer0_1_MEMBER_66_FILL"/>
</g>

<g transform="matrix( 0.4926300048828125, -0.0020599365234375, 0.0020599365234375, 0.4926300048828125, 94.15,156.4) ">
<use xlink:href="#Layer0_1_MEMBER_67_FILL"/>
</g>

<g transform="matrix( 0.4926300048828125, -0.0020599365234375, 0.0020599365234375, 0.4926300048828125, 94.15,156.4) ">
<use xlink:href="#Layer0_1_MEMBER_68_FILL"/>
</g>

<g transform="matrix( 0.4926300048828125, -0.0020599365234375, 0.0020599365234375, 0.4926300048828125, 94.15,156.4) ">
<use xlink:href="#Layer0_1_MEMBER_69_FILL"/>
</g>

<g transform="matrix( 0.4926300048828125, -0.0020599365234375, 0.0020599365234375, 0.4926300048828125, 94.15,156.4) ">
<use xlink:href="#Layer0_1_MEMBER_70_FILL"/>
</g>

<g transform="matrix( 0.4926300048828125, -0.0020599365234375, 0.0020599365234375, 0.4926300048828125, 94.15,156.4) ">
<use xlink:href="#Layer0_1_MEMBER_71_FILL"/>
</g>

<g transform="matrix( 0.4926300048828125, -0.0020599365234375, 0.0020599365234375, 0.4926300048828125, 94.15,156.4) ">
<use xlink:href="#Layer0_1_MEMBER_72_FILL"/>
</g>

<g transform="matrix( 0.4926300048828125, -0.0020599365234375, 0.0020599365234375, 0.4926300048828125, 94.15,156.4) ">
<use xlink:href="#Layer0_1_MEMBER_73_FILL"/>
</g>

<g transform="matrix( 0.4926300048828125, -0.0020599365234375, 0.0020599365234375, 0.4926300048828125, 94.15,156.4) ">
<use xlink:href="#Layer0_1_MEMBER_74_FILL"/>
</g>

<g transform="matrix( 0.4926300048828125, -0.0020599365234375, 0.0020599365234375, 0.4926300048828125, 94.15,156.4) ">
<use xlink:href="#Layer0_1_MEMBER_75_FILL"/>
</g>

<g transform="matrix( 0.4926300048828125, -0.0020599365234375, 0.0020599365234375, 0.4926300048828125, 94.15,156.4) ">
<use xlink:href="#Layer0_1_MEMBER_76_FILL"/>
</g>

<g transform="matrix( 0.4926300048828125, -0.0020599365234375, 0.0020599365234375, 0.4926300048828125, 94.15,156.4) ">
<use xlink:href="#Layer0_1_MEMBER_77_FILL"/>
</g>
</svg>
