
<svg xmlns="http://www.w3.org/2000/svg" version="1.1" xmlns:xlink="http://www.w3.org/1999/xlink" preserveAspectRatio="none" x="0px" y="0px" width="406px" height="406px" viewBox="0 0 406 406">
<defs>
<radialGradient id="Gradient_1" gradientUnits="userSpaceOnUse" cx="0" cy="0" r="5.250535686956142" fx="0" fy="0" gradientTransform="matrix( 0.3713906763541037, 0.9284766908852593, 0.9284766908852593, -0.3713906763541037, 0.9,-1.05) " spreadMethod="pad">
<stop  offset="0%" stop-color="#5AE2EE"/>

<stop  offset="61.568627450980394%" stop-color="#4291EC"/>

<stop  offset="63.13725490196079%" stop-color="#498CE9"/>

<stop  offset="74.50980392156863%" stop-color="#6E68C9"/>

<stop  offset="83.92156862745098%" stop-color="#7D51B5"/>

<stop  offset="89.80392156862744%" stop-color="#8148AE"/>
</radialGradient>

<radialGradient id="Gradient_2" gradientUnits="userSpaceOnUse" cx="0" cy="0" r="5.250535686956141" fx="0" fy="0" gradientTransform="matrix( 0.3713906763541038, 0.9284766908852594, 0.9284766908852594, -0.3713906763541038, 0.55,-1.95) " spreadMethod="pad">
<stop  offset="0%" stop-color="#5AE2EE"/>

<stop  offset="61.568627450980394%" stop-color="#4291EC"/>

<stop  offset="63.13725490196079%" stop-color="#498CE9"/>

<stop  offset="74.50980392156863%" stop-color="#6E68C9"/>

<stop  offset="83.92156862745098%" stop-color="#7D51B5"/>

<stop  offset="89.80392156862744%" stop-color="#8148AE"/>
</radialGradient>

<radialGradient id="Gradient_3" gradientUnits="userSpaceOnUse" cx="0" cy="0" r="5.248109778767971" fx="0" fy="0" gradientTransform="matrix( -0.9122332042993007, -0.40967130845817157, -0.40967130845817157, 0.9122332042993007, 5.1,2.75) " spreadMethod="pad">
<stop  offset="0%" stop-color="#5AE2EE"/>

<stop  offset="61.568627450980394%" stop-color="#4291EC"/>

<stop  offset="63.13725490196079%" stop-color="#498CE9"/>

<stop  offset="74.50980392156863%" stop-color="#6E68C9"/>

<stop  offset="83.92156862745098%" stop-color="#7D51B5"/>

<stop  offset="89.80392156862744%" stop-color="#8148AE"/>
</radialGradient>

<radialGradient id="Gradient_4" gradientUnits="userSpaceOnUse" cx="0" cy="0" r="5.251487884400001" fx="0" fy="0" gradientTransform="matrix( 0.5807877818894506, -0.8140550057630823, -0.8140550057630823, -0.5807877818894506, 1.1,5.25) " spreadMethod="pad">
<stop  offset="0%" stop-color="#5AE2EE"/>

<stop  offset="61.568627450980394%" stop-color="#4291EC"/>

<stop  offset="63.13725490196079%" stop-color="#498CE9"/>

<stop  offset="74.50980392156863%" stop-color="#6E68C9"/>

<stop  offset="83.92156862745098%" stop-color="#7D51B5"/>

<stop  offset="89.80392156862744%" stop-color="#8148AE"/>
</radialGradient>

<radialGradient id="Gradient_5" gradientUnits="userSpaceOnUse" cx="0" cy="0" r="5.251487884400001" fx="0" fy="0" gradientTransform="matrix( 0.5807877818894506, -0.8140550057630823, -0.8140550057630823, -0.5807877818894506, 0.45,5.25) " spreadMethod="pad">
<stop  offset="0%" stop-color="#5AE2EE"/>

<stop  offset="61.568627450980394%" stop-color="#4291EC"/>

<stop  offset="63.13725490196079%" stop-color="#498CE9"/>

<stop  offset="74.50980392156863%" stop-color="#6E68C9"/>

<stop  offset="83.92156862745098%" stop-color="#7D51B5"/>

<stop  offset="89.80392156862744%" stop-color="#8148AE"/>
</radialGradient>

<radialGradient id="Gradient_6" gradientUnits="userSpaceOnUse" cx="0" cy="0" r="5.257212307868116" fx="0" fy="0" gradientTransform="matrix( -0.6229537268446488, -0.7822586875262957, -0.7822586875262957, 0.6229537268446488, 5.15,3.4) " spreadMethod="pad">
<stop  offset="0%" stop-color="#5AE2EE"/>

<stop  offset="61.568627450980394%" stop-color="#4291EC"/>

<stop  offset="63.13725490196079%" stop-color="#498CE9"/>

<stop  offset="74.50980392156863%" stop-color="#6E68C9"/>

<stop  offset="83.92156862745098%" stop-color="#7D51B5"/>

<stop  offset="89.80392156862744%" stop-color="#8148AE"/>
</radialGradient>

<radialGradient id="Gradient_7" gradientUnits="userSpaceOnUse" cx="0" cy="0" r="4.032679010285842" fx="0" fy="0" gradientTransform="matrix( -0.2975689354246279, 0.9547003344873478, 0.9547003344873478, 0.2975689354246279, 1.9,-0.9) " spreadMethod="pad">
<stop  offset="0%" stop-color="#5AE2EE"/>

<stop  offset="61.568627450980394%" stop-color="#4291EC"/>

<stop  offset="63.13725490196079%" stop-color="#498CE9"/>

<stop  offset="74.50980392156863%" stop-color="#6E68C9"/>

<stop  offset="83.92156862745098%" stop-color="#7D51B5"/>

<stop  offset="89.80392156862744%" stop-color="#8148AE"/>
</radialGradient>

<radialGradient id="Gradient_8" gradientUnits="userSpaceOnUse" cx="0" cy="0" r="4.032679010285842" fx="0" fy="0" gradientTransform="matrix( -0.2975689354246279, 0.9547003344873478, 0.9547003344873478, 0.2975689354246279, 1.9,-1.6) " spreadMethod="pad">
<stop  offset="0%" stop-color="#5AE2EE"/>

<stop  offset="61.568627450980394%" stop-color="#4291EC"/>

<stop  offset="63.13725490196079%" stop-color="#498CE9"/>

<stop  offset="74.50980392156863%" stop-color="#6E68C9"/>

<stop  offset="83.92156862745098%" stop-color="#7D51B5"/>

<stop  offset="89.80392156862744%" stop-color="#8148AE"/>
</radialGradient>

<radialGradient id="Gradient_9" gradientUnits="userSpaceOnUse" cx="0" cy="0" r="4.025582256022103" fx="0" fy="0" gradientTransform="matrix( -0.9781193749325738, 0.20804443847772205, 0.20804443847772205, 0.9781193749325738, 3.05,1) " spreadMethod="pad">
<stop  offset="0%" stop-color="#5AE2EE"/>

<stop  offset="61.568627450980394%" stop-color="#4291EC"/>

<stop  offset="63.13725490196079%" stop-color="#498CE9"/>

<stop  offset="74.50980392156863%" stop-color="#6E68C9"/>

<stop  offset="83.92156862745098%" stop-color="#7D51B5"/>

<stop  offset="89.80392156862744%" stop-color="#8148AE"/>
</radialGradient>

<radialGradient id="Gradient_10" gradientUnits="userSpaceOnUse" cx="0" cy="0" r="4.025582256022103" fx="0" fy="0" gradientTransform="matrix( -0.9781193749325738, 0.20804443847772205, 0.20804443847772205, 0.9781193749325738, 3.05,0.85) " spreadMethod="pad">
<stop  offset="0%" stop-color="#5AE2EE"/>

<stop  offset="61.568627450980394%" stop-color="#4291EC"/>

<stop  offset="63.13725490196079%" stop-color="#498CE9"/>

<stop  offset="74.50980392156863%" stop-color="#6E68C9"/>

<stop  offset="83.92156862745098%" stop-color="#7D51B5"/>

<stop  offset="89.80392156862744%" stop-color="#8148AE"/>
</radialGradient>

<radialGradient id="Gradient_11" gradientUnits="userSpaceOnUse" cx="0" cy="0" r="4.655322894279193" fx="0" fy="0" gradientTransform="matrix( 0.9800609116945979, 0.19869728072712395, -0.05101686937588318, -0.6256279244516201, -1.25,1.4) " spreadMethod="pad">
<stop  offset="0%" stop-color="#5AE2EE"/>

<stop  offset="61.568627450980394%" stop-color="#4291EC"/>

<stop  offset="63.13725490196079%" stop-color="#498CE9"/>

<stop  offset="74.50980392156863%" stop-color="#6E68C9"/>

<stop  offset="83.92156862745098%" stop-color="#7D51B5"/>

<stop  offset="89.80392156862744%" stop-color="#8148AE"/>
</radialGradient>

<radialGradient id="Gradient_12" gradientUnits="userSpaceOnUse" cx="0" cy="0" r="4.655322894279193" fx="0" fy="0" gradientTransform="matrix( 0.9800609116945979, 0.19869728072712395, -0.05101686937588318, -0.6256279244516201, -2.1,1.15) " spreadMethod="pad">
<stop  offset="0%" stop-color="#5AE2EE"/>

<stop  offset="61.568627450980394%" stop-color="#4291EC"/>

<stop  offset="63.13725490196079%" stop-color="#498CE9"/>

<stop  offset="74.50980392156863%" stop-color="#6E68C9"/>

<stop  offset="83.92156862745098%" stop-color="#7D51B5"/>

<stop  offset="89.80392156862744%" stop-color="#8148AE"/>
</radialGradient>

<radialGradient id="Gradient_13" gradientUnits="userSpaceOnUse" cx="0" cy="0" r="3.497878821514548" fx="0" fy="0" gradientTransform="matrix( -0.8719570218499963, 0.48958242620266185, 0.4538464826842194, 0.47528804879528486, 2.4,-0.1) " spreadMethod="pad">
<stop  offset="0%" stop-color="#5AE2EE"/>

<stop  offset="61.568627450980394%" stop-color="#4291EC"/>

<stop  offset="63.13725490196079%" stop-color="#498CE9"/>

<stop  offset="74.50980392156863%" stop-color="#6E68C9"/>

<stop  offset="83.92156862745098%" stop-color="#7D51B5"/>

<stop  offset="89.80392156862744%" stop-color="#8148AE"/>
</radialGradient>

<radialGradient id="Gradient_14" gradientUnits="userSpaceOnUse" cx="0" cy="0" r="3.497878821514548" fx="0" fy="0" gradientTransform="matrix( -0.8719570218499963, 0.48958242620266185, 0.4538464826842194, 0.47528804879528486, 2.4,-0.35) " spreadMethod="pad">
<stop  offset="0%" stop-color="#5AE2EE"/>

<stop  offset="61.568627450980394%" stop-color="#4291EC"/>

<stop  offset="63.13725490196079%" stop-color="#498CE9"/>

<stop  offset="74.50980392156863%" stop-color="#6E68C9"/>

<stop  offset="83.92156862745098%" stop-color="#7D51B5"/>

<stop  offset="89.80392156862744%" stop-color="#8148AE"/>
</radialGradient>

<radialGradient id="Gradient_15" gradientUnits="userSpaceOnUse" cx="0" cy="0" r="5.250014880931292" fx="0" fy="0" gradientTransform="matrix( 0.9999971655449311, -0.002380945632249836, -0.002380945632249836, -0.9999971655449311, -1.4,3.65) " spreadMethod="pad">
<stop  offset="0%" stop-color="#5AE2EE"/>

<stop  offset="61.568627450980394%" stop-color="#4291EC"/>

<stop  offset="63.13725490196079%" stop-color="#498CE9"/>

<stop  offset="74.50980392156863%" stop-color="#6E68C9"/>

<stop  offset="83.92156862745098%" stop-color="#7D51B5"/>

<stop  offset="89.80392156862744%" stop-color="#8148AE"/>
</radialGradient>

<radialGradient id="Gradient_16" gradientUnits="userSpaceOnUse" cx="0" cy="0" r="5.250014880931292" fx="0" fy="0" gradientTransform="matrix( 0.9999971655449311, -0.002380945632249836, -0.002380945632249836, -0.9999971655449311, -2.35,3.4) " spreadMethod="pad">
<stop  offset="0%" stop-color="#5AE2EE"/>

<stop  offset="61.568627450980394%" stop-color="#4291EC"/>

<stop  offset="63.13725490196079%" stop-color="#498CE9"/>

<stop  offset="74.50980392156863%" stop-color="#6E68C9"/>

<stop  offset="83.92156862745098%" stop-color="#7D51B5"/>

<stop  offset="89.80392156862744%" stop-color="#8148AE"/>
</radialGradient>

<radialGradient id="Gradient_17" gradientUnits="userSpaceOnUse" cx="0" cy="0" r="10.368409051055037" fx="0" fy="0" gradientTransform="matrix( 0.9994300908629338, 0.033756384251100294, 0.16757633610367648, -1.146511479385585, -6.85,-1.8) " spreadMethod="pad">
<stop  offset="0%" stop-color="#5AE2EE"/>

<stop  offset="61.568627450980394%" stop-color="#4291EC"/>

<stop  offset="63.13725490196079%" stop-color="#498CE9"/>

<stop  offset="74.50980392156863%" stop-color="#6E68C9"/>

<stop  offset="83.92156862745098%" stop-color="#7D51B5"/>

<stop  offset="89.80392156862744%" stop-color="#8148AE"/>
</radialGradient>

<radialGradient id="Gradient_18" gradientUnits="userSpaceOnUse" cx="0" cy="0" r="10.368409051055037" fx="0" fy="0" gradientTransform="matrix( 0.9994300908629338, 0.033756384251100294, 0.16757633610367648, -1.146511479385585, -7.15,0.15) " spreadMethod="pad">
<stop  offset="0%" stop-color="#5AE2EE"/>

<stop  offset="61.568627450980394%" stop-color="#4291EC"/>

<stop  offset="63.13725490196079%" stop-color="#498CE9"/>

<stop  offset="74.50980392156863%" stop-color="#6E68C9"/>

<stop  offset="83.92156862745098%" stop-color="#7D51B5"/>

<stop  offset="89.80392156862744%" stop-color="#8148AE"/>
</radialGradient>

<radialGradient id="Gradient_19" gradientUnits="userSpaceOnUse" cx="0" cy="0" r="5.687843396226729" fx="0" fy="0" gradientTransform="matrix( -0.4197548760895648, 0.9076375069371219, 0.9911489482533703, 0.5977661062636734, 3.5,-2.75) " spreadMethod="pad">
<stop  offset="0%" stop-color="#5AE2EE"/>

<stop  offset="61.568627450980394%" stop-color="#4291EC"/>

<stop  offset="63.13725490196079%" stop-color="#498CE9"/>

<stop  offset="74.50980392156863%" stop-color="#6E68C9"/>

<stop  offset="83.92156862745098%" stop-color="#7D51B5"/>

<stop  offset="89.80392156862744%" stop-color="#8148AE"/>
</radialGradient>

<radialGradient id="Gradient_20" gradientUnits="userSpaceOnUse" cx="0" cy="0" r="8.277274989391135" fx="0" fy="0" gradientTransform="matrix( -0.41982415764292697, 0.9076054631057521, 0.9921743581705144, 0.5995330596555467, 5.1,-4) " spreadMethod="pad">
<stop  offset="0%" stop-color="#5AE2EE"/>

<stop  offset="61.568627450980394%" stop-color="#4291EC"/>

<stop  offset="63.13725490196079%" stop-color="#498CE9"/>

<stop  offset="74.50980392156863%" stop-color="#6E68C9"/>

<stop  offset="83.92156862745098%" stop-color="#7D51B5"/>

<stop  offset="89.80392156862744%" stop-color="#8148AE"/>
</radialGradient>

<radialGradient id="Gradient_21" gradientUnits="userSpaceOnUse" cx="0" cy="0" r="5.41371233535732" fx="0" fy="0" gradientTransform="matrix( -0.4202291993133477, 0.9074179963194816, 0.9928492071688985, 0.6003274275904967, 3.35,-2.65) " spreadMethod="pad">
<stop  offset="0%" stop-color="#5AE2EE"/>

<stop  offset="61.568627450980394%" stop-color="#4291EC"/>

<stop  offset="63.13725490196079%" stop-color="#498CE9"/>

<stop  offset="74.50980392156863%" stop-color="#6E68C9"/>

<stop  offset="83.92156862745098%" stop-color="#7D51B5"/>

<stop  offset="89.80392156862744%" stop-color="#8148AE"/>
</radialGradient>

<radialGradient id="Gradient_22" gradientUnits="userSpaceOnUse" cx="0" cy="0" r="73.83419346752561" fx="0" fy="0" gradientTransform="matrix( 0.9849772386555091, -0.17268421853362312, -0.17268421853362312, -0.9849772386555091, -25.35,4.1) " spreadMethod="pad">
<stop  offset="0%" stop-color="#5AE2EE"/>

<stop  offset="61.568627450980394%" stop-color="#4291EC"/>

<stop  offset="63.13725490196079%" stop-color="#498CE9"/>

<stop  offset="74.50980392156863%" stop-color="#6E68C9"/>

<stop  offset="83.92156862745098%" stop-color="#7D51B5"/>

<stop  offset="89.80392156862744%" stop-color="#8148AE"/>
</radialGradient>

<filter id="Filter_1" x="-20%" y="-20%" width="140%" height="140%" color-interpolation-filters="sRGB">
<feColorMatrix in="SourceGraphic" type="matrix" values="0.83 0 0 0 0.10196078431372549 0 0.83 0 0 0 0 0 0.83 0 0.16862745098039217 0 0 0 1 0" result="result1"/>
</filter>

<filter id="Filter_2" x="NaN%" y="NaN%" width="NaN%" height="NaN%" color-interpolation-filters="sRGB">
<feColorMatrix in="SourceGraphic" type="matrix" values="0 0 0 0 255 0 0 0 0 255 0 0 0 0 255 0 0 0 255 0" result="result1"/>

<feComposite in2="result1" in="BackgroundImage" operator="in" result="result2"/>

<feBlend mode="screen" in2="result2" in="SourceGraphic" result="result3"/>
</filter>

<filter id="Filter_3" x="-20%" y="-20%" width="140%" height="140%" color-interpolation-filters="sRGB">
<feColorMatrix in="SourceGraphic" type="matrix" values="0 0 0 0 255 0 0 0 0 255 0 0 0 0 255 0 0 0 255 0" result="result1"/>

<feComposite in2="result1" in="BackgroundImage" operator="in" result="result2"/>

<feBlend mode="multiply" in2="result2" in="SourceGraphic" result="result3"/>
</filter>

<filter id="Filter_4" x="-20%" y="-20%" width="140%" height="140%" color-interpolation-filters="sRGB">
<feColorMatrix in="SourceGraphic" type="matrix" values="0.29 0 0 0 0.7098039215686275 0 0.29 0 0 0.7098039215686275 0 0 0.29 0 0.7098039215686275 0 0 0 0.5 0" result="result1"/>
</filter>

<filter id="Filter_5" x="-20%" y="-20%" width="140%" height="140%" color-interpolation-filters="sRGB">
<feColorMatrix in="SourceGraphic" type="matrix" values="0 0 0 0 255 0 0 0 0 255 0 0 0 0 255 0 0 0 255 0" result="result1"/>

<feComposite in2="result1" in="BackgroundImage" operator="in" result="result2"/>

<feBlend mode="multiply" in2="result2" in="SourceGraphic" result="result3"/>
</filter>

<filter id="Filter_6" x="-20%" y="-20%" width="140%" height="140%" color-interpolation-filters="sRGB">
<feColorMatrix in="SourceGraphic" type="matrix" values="0 0 0 0 255 0 0 0 0 255 0 0 0 0 255 0 0 0 255 0" result="result1"/>

<feComposite in2="result1" in="BackgroundImage" operator="in" result="result2"/>

<feBlend mode="multiply" in2="result2" in="SourceGraphic" result="result3"/>
</filter>

<filter id="Filter_7" x="-20%" y="-20%" width="140%" height="140%" color-interpolation-filters="sRGB">
<feColorMatrix in="SourceGraphic" type="matrix" values="0 0 0 0 255 0 0 0 0 255 0 0 0 0 255 0 0 0 255 0" result="result1"/>

<feComposite in2="result1" in="BackgroundImage" operator="in" result="result2"/>

<feBlend mode="multiply" in2="result2" in="SourceGraphic" result="result3"/>
</filter>

<filter id="Filter_8" x="-20%" y="-20%" width="140%" height="140%" color-interpolation-filters="sRGB">
<feColorMatrix in="SourceGraphic" type="matrix" values="0 0 0 0 255 0 0 0 0 255 0 0 0 0 255 0 0 0 255 0" result="result1"/>

<feComposite in2="result1" in="BackgroundImage" operator="in" result="result2"/>

<feBlend mode="multiply" in2="result2" in="SourceGraphic" result="result3"/>
</filter>

<filter id="Filter_9" x="-20%" y="-20%" width="140%" height="140%" color-interpolation-filters="sRGB">
<feColorMatrix in="SourceGraphic" type="matrix" values="0 0 0 0 255 0 0 0 0 255 0 0 0 0 255 0 0 0 255 0" result="result1"/>

<feComposite in2="result1" in="BackgroundImage" operator="in" result="result2"/>

<feBlend mode="multiply" in2="result2" in="SourceGraphic" result="result3"/>
</filter>

<filter id="Filter_10" x="-20%" y="-20%" width="140%" height="140%" color-interpolation-filters="sRGB">
<feColorMatrix in="SourceGraphic" type="matrix" values="0 0 0 0 255 0 0 0 0 255 0 0 0 0 255 0 0 0 255 0" result="result1"/>

<feComposite in2="result1" in="BackgroundImage" operator="in" result="result2"/>

<feBlend mode="multiply" in2="result2" in="SourceGraphic" result="result3"/>
</filter>

<filter id="Filter_11" x="-20%" y="-20%" width="140%" height="140%" color-interpolation-filters="sRGB">
<feColorMatrix in="SourceGraphic" type="matrix" values="0 0 0 0 255 0 0 0 0 255 0 0 0 0 255 0 0 0 255 0" result="result1"/>

<feComposite in2="result1" in="BackgroundImage" operator="in" result="result2"/>

<feBlend mode="multiply" in2="result2" in="SourceGraphic" result="result3"/>
</filter>

<filter id="Filter_12" x="-20%" y="-20%" width="140%" height="140%" color-interpolation-filters="sRGB">
<feColorMatrix in="SourceGraphic" type="matrix" values="0 0 0 0 255 0 0 0 0 255 0 0 0 0 255 0 0 0 255 0" result="result1"/>

<feComposite in2="result1" in="BackgroundImage" operator="in" result="result2"/>

<feBlend mode="multiply" in2="result2" in="SourceGraphic" result="result3"/>
</filter>

<filter id="Filter_13" x="-20%" y="-20%" width="140%" height="140%" color-interpolation-filters="sRGB">
<feColorMatrix in="SourceGraphic" type="matrix" values="0 0 0 0 255 0 0 0 0 255 0 0 0 0 255 0 0 0 255 0" result="result1"/>

<feComposite in2="result1" in="BackgroundImage" operator="in" result="result2"/>

<feBlend mode="multiply" in2="result2" in="SourceGraphic" result="result3"/>
</filter>

<filter id="Filter_14" x="-20%" y="-20%" width="140%" height="140%" color-interpolation-filters="sRGB">
<feColorMatrix in="SourceGraphic" type="matrix" values="0 0 0 0 255 0 0 0 0 255 0 0 0 0 255 0 0 0 255 0" result="result1"/>

<feComposite in2="result1" in="BackgroundImage" operator="in" result="result2"/>

<feBlend mode="multiply" in2="result2" in="SourceGraphic" result="result3"/>
</filter>

<filter id="Filter_15" x="-20%" y="-20%" width="140%" height="140%" color-interpolation-filters="sRGB">
<feColorMatrix in="SourceGraphic" type="matrix" values="0 0 0 0 255 0 0 0 0 255 0 0 0 0 255 0 0 0 255 0" result="result1"/>

<feComposite in2="result1" in="BackgroundImage" operator="in" result="result2"/>

<feBlend mode="multiply" in2="result2" in="SourceGraphic" result="result3"/>
</filter>

<filter id="Filter_16" x="-20%" y="-20%" width="140%" height="140%" color-interpolation-filters="sRGB">
<feColorMatrix in="SourceGraphic" type="matrix" values="0 0 0 0 255 0 0 0 0 255 0 0 0 0 255 0 0 0 255 0" result="result1"/>

<feComposite in2="result1" in="BackgroundImage" operator="in" result="result2"/>

<feBlend mode="multiply" in2="result2" in="SourceGraphic" result="result3"/>
</filter>

<filter id="Filter_17" x="-20%" y="-20%" width="140%" height="140%" color-interpolation-filters="sRGB">
<feColorMatrix in="SourceGraphic" type="matrix" values="0 0 0 0 255 0 0 0 0 255 0 0 0 0 255 0 0 0 255 0" result="result1"/>

<feComposite in2="result1" in="BackgroundImage" operator="in" result="result2"/>

<feBlend mode="multiply" in2="result2" in="SourceGraphic" result="result3"/>
</filter>

<filter id="Filter_18" x="-20%" y="-20%" width="140%" height="140%" color-interpolation-filters="sRGB">
<feColorMatrix in="SourceGraphic" type="matrix" values="0 0 0 0 255 0 0 0 0 255 0 0 0 0 255 0 0 0 255 0" result="result1"/>

<feComposite in2="result1" in="BackgroundImage" operator="in" result="result2"/>

<feBlend mode="multiply" in2="result2" in="SourceGraphic" result="result3"/>
</filter>

<filter id="Filter_19" x="-20%" y="-20%" width="140%" height="140%" color-interpolation-filters="sRGB">
<feColorMatrix in="SourceGraphic" type="matrix" values="0 0 0 0 255 0 0 0 0 255 0 0 0 0 255 0 0 0 255 0" result="result1"/>

<feComposite in2="result1" in="BackgroundImage" operator="in" result="result2"/>

<feBlend mode="multiply" in2="result2" in="SourceGraphic" result="result3"/>
</filter>

<filter id="Filter_20" x="-20%" y="-20%" width="140%" height="140%" color-interpolation-filters="sRGB">
<feColorMatrix in="SourceGraphic" type="matrix" values="0 0 0 0 255 0 0 0 0 255 0 0 0 0 255 0 0 0 255 0" result="result1"/>

<feComposite in2="result1" in="BackgroundImage" operator="in" result="result2"/>

<feBlend mode="multiply" in2="result2" in="SourceGraphic" result="result3"/>
</filter>

<filter id="Filter_21" x="-20%" y="-20%" width="140%" height="140%" color-interpolation-filters="sRGB">
<feColorMatrix in="SourceGraphic" type="matrix" values="0 0 0 0 255 0 0 0 0 255 0 0 0 0 255 0 0 0 255 0" result="result1"/>

<feComposite in2="result1" in="BackgroundImage" operator="in" result="result2"/>

<feBlend mode="multiply" in2="result2" in="SourceGraphic" result="result3"/>
</filter>

<filter id="Filter_22" x="-20%" y="-20%" width="140%" height="140%" color-interpolation-filters="sRGB">
<feColorMatrix in="SourceGraphic" type="matrix" values="0 0 0 0 255 0 0 0 0 255 0 0 0 0 255 0 0 0 255 0" result="result1"/>

<feComposite in2="result1" in="BackgroundImage" operator="in" result="result2"/>

<feBlend mode="multiply" in2="result2" in="SourceGraphic" result="result3"/>
</filter>

<filter id="Filter_23" x="-20%" y="-20%" width="140%" height="140%" color-interpolation-filters="sRGB">
<feColorMatrix in="SourceGraphic" type="matrix" values="0 0 0 0 255 0 0 0 0 255 0 0 0 0 255 0 0 0 255 0" result="result1"/>

<feComposite in2="result1" in="BackgroundImage" operator="in" result="result2"/>

<feBlend mode="multiply" in2="result2" in="SourceGraphic" result="result3"/>
</filter>

<filter id="Filter_24" x="-20%" y="-20%" width="140%" height="140%" color-interpolation-filters="sRGB">
<feColorMatrix in="SourceGraphic" type="matrix" values="0 0 0 0 255 0 0 0 0 255 0 0 0 0 255 0 0 0 255 0" result="result1"/>

<feComposite in2="result1" in="BackgroundImage" operator="in" result="result2"/>

<feBlend mode="multiply" in2="result2" in="SourceGraphic" result="result3"/>
</filter>

<filter id="Filter_25" x="-20%" y="-20%" width="140%" height="140%" color-interpolation-filters="sRGB">
<feColorMatrix in="SourceGraphic" type="matrix" values="0 0 0 0 255 0 0 0 0 255 0 0 0 0 255 0 0 0 255 0" result="result1"/>

<feComposite in2="result1" in="BackgroundImage" operator="in" result="result2"/>

<feBlend mode="multiply" in2="result2" in="SourceGraphic" result="result3"/>
</filter>

<filter id="Filter_26" x="-20%" y="-20%" width="140%" height="140%" color-interpolation-filters="sRGB">
<feColorMatrix in="SourceGraphic" type="matrix" values="0 0 0 0 255 0 0 0 0 255 0 0 0 0 255 0 0 0 255 0" result="result1"/>

<feComposite in2="result1" in="BackgroundImage" operator="in" result="result2"/>

<feBlend mode="multiply" in2="result2" in="SourceGraphic" result="result3"/>
</filter>

<filter id="Filter_27" x="-20%" y="-20%" width="140%" height="140%" color-interpolation-filters="sRGB">
<feColorMatrix in="SourceGraphic" type="matrix" values="0 0 0 0 255 0 0 0 0 255 0 0 0 0 255 0 0 0 255 0" result="result1"/>

<feComposite in2="result1" in="BackgroundImage" operator="in" result="result2"/>

<feBlend mode="screen" in2="result2" in="SourceGraphic" result="result3"/>
</filter>

<filter id="Filter_28" x="-20%" y="-20%" width="140%" height="140%" color-interpolation-filters="sRGB">
<feColorMatrix in="SourceGraphic" type="matrix" values="1 0 0 0 0 0 1 0 0 0 0 0 1 0 0 0 0 0 0.5 0" result="result1"/>
</filter>

<g id="Carpeta_de_elementos_duplicados_S_mbolo_26_0_Layer0_0_FILL">
<path fill="#3198BC" stroke="none" d="
M 150.8 87.8
Q 152.85 72.1 148.65 58.05 144.95 45.5 136.25 34.3 117.9 10.55 88.15 6.8 58.35 2.9 34.55 21.35 10.8 39.65 7.05 69.4 3.25 99.2 21.65 122.9 40 146.7 69.7 150.4 99.5 154.3 123.25 135.9 130.15 130.6 135.35 124.3 148.1 108.95 150.8 87.8 Z"/>
</g>

<g id="Carpeta_de_elementos_duplicados_circulo_celeste_0_Layer0_0_MEMBER_1_FILL">
<path fill="#48C4D8" stroke="none" d="
M 547.6 -57.35
Q 524 -39.75 519.8 -10.6 515.45 18.55 533.05 42.15 550.65 65.75 579.8 70.1 608.9 74.3 632.5 56.7 656.15 39.1 660.5 10 664.65 -19.15 647.1 -42.75 629.5 -66.35 600.35 -70.55 571.25 -74.9 547.6 -57.35 Z"/>
</g>

<g id="Carpeta_de_elementos_duplicados_circulo_celeste_0_Layer0_1_FILL">
<path fill="#55EAF2" stroke="none" d="
M 341.95 -47.7
Q 328.3 -31.15 334.15 -11.3 340 8.2 360.8 18.9 384.15 30.4 415.5 24.25 446.55 18.35 458.25 0.45 468.75 -15.1 461.3 -34.1 454.35 -52.5 435.2 -63.8 414.95 -75.55 391.1 -71.8 357.2 -66.2 341.95 -47.7 Z"/>
</g>

<g id="FlashAICB_2_Modo_de_aislamiento__Path__1_27_0_Layer0_0_FILL">
<path fill="url(#Gradient_1)" stroke="none" d="
M 5.65 1
Q 5.6 0.5 4.7 0.2 3.8 -0.1 2.65 0 1.5 0.15 0.75 0.65 -0.05 1.15 0 1.7 0.1 2.25 0.95 2.5 1.85 2.8 3 2.7 4.15 2.55 4.95 2.05 5.7 1.55 5.65 1 Z"/>
</g>

<g id="FlashAICB_2_Modo_de_aislamiento__Path__46_0_Layer0_0_FILL">
<path fill="url(#Gradient_2)" stroke="none" d="
M 2.55 0.05
Q 0.5 0.3 0 1.3 0.85 1.95 2.65 1.8 4.65 1.55 5.2 0.55 4.4 -0.2 2.55 0.05 Z"/>
</g>

<g id="FlashAICB_2_Modo_de_aislamiento__Path__1_28_0_Layer0_0_FILL">
<path fill="url(#Gradient_3)" stroke="none" d="
M 0.25 4.55
Q 0.7 4.9 1.55 4.5 2.35 4.1 3.1 3.2 3.85 2.3 4.05 1.4 4.25 0.55 3.85 0.15 3.4 -0.2 2.6 0.2 1.75 0.6 1 1.5 0.3 2.4 0.05 3.3 -0.15 4.2 0.25 4.55 Z"/>
</g>

<g id="FlashAICB_2_Modo_de_aislamiento__Path__47_0_Layer0_0_FILL">
<path fill="url(#Gradient_3)" stroke="none" d="
M 2.3 2.7
Q 3.6 1.1 3.25 0 2.2 0.1 1 1.5 -0.3 3.1 0.05 4.2 1.1 4.1 2.3 2.7 Z"/>
</g>

<g id="FlashAICB_2_Modo_de_aislamiento__Path__1_29_0_Layer0_0_FILL">
<path fill="url(#Gradient_4)" stroke="none" d="
M 0.3 0.15
Q -0.15 0.5 0.1 1.4 0.3 2.3 1.05 3.2 1.8 4.1 2.6 4.5 3.45 4.85 3.85 4.5 4.3 4.15 4.1 3.3 3.85 2.4 3.1 1.5 2.35 0.6 1.55 0.2 0.7 -0.2 0.3 0.15 Z"/>
</g>

<g id="FlashAICB_2_Modo_de_aislamiento__Path__48_0_Layer0_0_FILL">
<path fill="url(#Gradient_5)" stroke="none" d="
M 1.05 2.5
Q 2.4 4.1 3.5 3.95 3.6 2.8 2.45 1.5 1.2 -0.1 0 0 -0.1 1.15 1.05 2.5 Z"/>
</g>

<g id="FlashAICB_2_Modo_de_aislamiento__Path__1_30_0_Layer0_0_FILL">
<path fill="url(#Gradient_6)" stroke="none" d="
M 0.05 2.8
Q 0.3 3.3 1.2 3.3 2.1 3.35 3.2 2.9 4.25 2.4 4.85 1.75 5.45 1.05 5.25 0.55 5.05 0.05 4.1 0 3.2 -0.05 2.1 0.45 1.05 0.9 0.45 1.6 -0.15 2.3 0.05 2.8 Z"/>
</g>

<g id="FlashAICB_2_Modo_de_aislamiento__Path__49_0_Layer0_0_FILL">
<path fill="url(#Gradient_6)" stroke="none" d="
M 2.7 2.05
Q 4.6 1.2 4.8 0.15 3.8 -0.25 2.1 0.45 0.25 1.25 0 2.4 1.05 2.85 2.7 2.05 Z"/>
</g>

<g id="FlashAICB_2_Modo_de_aislamiento__Path__1_31_0_Layer0_0_FILL">
<path fill="url(#Gradient_7)" stroke="none" d="
M 3.75 2.6
Q 4 2.25 3.6 1.7 3.2 1.1 2.45 0.6 1.7 0.1 1 0 0.3 -0.05 0.05 0.3 -0.15 0.65 0.2 1.25 0.6 1.85 1.35 2.35 2.1 2.8 2.8 2.9 3.5 2.95 3.75 2.6 Z"/>
</g>

<g id="FlashAICB_2_Modo_de_aislamiento__Path__50_0_Layer0_0_FILL">
<path fill="url(#Gradient_8)" stroke="none" d="
M 3.5 2.15
Q 3.35 1.35 2.15 0.55 0.75 -0.3 0 0.05 0.15 0.85 1.35 1.65 2.7 2.5 3.5 2.15 Z"/>
</g>

<g id="FlashAICB_2_Modo_de_aislamiento__Path__1_32_0_Layer0_0_FILL">
<path fill="url(#Gradient_9)" stroke="none" d="
M 0.9 4.3
Q 1.35 4.35 1.7 3.7 2 3.1 2.05 2.2 2.1 1.3 1.85 0.65 1.55 0 1.15 0 0.7 -0.05 0.35 0.6 0.05 1.2 0 2.1 -0.05 3 0.25 3.65 0.5 4.3 0.9 4.3 Z"/>
</g>

<g id="FlashAICB_2_Modo_de_aislamiento__Path__51_0_Layer0_0_FILL">
<path fill="url(#Gradient_10)" stroke="none" d="
M 1.3 2.1
Q 1.4 0.5 0.7 0 0.1 0.65 0 1.95 -0.1 3.55 0.6 4.05 1.3 3.55 1.3 2.1 Z"/>
</g>

<g id="FlashAICB_2_Modo_de_aislamiento__Path__1_34_0_Layer0_0_FILL">
<path fill="url(#Gradient_11)" stroke="none" d="
M 1.75 0.05
Q 1.3 -0.1 0.8 0.2 0.3 0.45 0.1 1.05 -0.1 1.6 0.1 2.15 0.25 2.65 0.75 2.85 1.25 3 1.7 2.75 2.2 2.45 2.4 1.85 2.65 1.3 2.45 0.75 2.25 0.25 1.75 0.05 Z"/>
</g>

<g id="FlashAICB_2_Modo_de_aislamiento__Path__53_0_Layer0_0_FILL">
<path fill="url(#Gradient_12)" stroke="none" d="
M 1.25 0
Q 0.45 0.1 0.1 1 -0.3 2.05 0.4 2.65 1.25 2.5 1.55 1.6 1.95 0.6 1.25 0 Z"/>
</g>

<g id="FlashAICB_2_Modo_de_aislamiento__Path__1_36_0_Layer0_0_FILL">
<path fill="url(#Gradient_13)" stroke="none" d="
M 1.35 2.25
Q 1.7 2.15 1.85 1.7 2 1.3 1.8 0.85 1.65 0.4 1.3 0.15 0.9 -0.1 0.55 0.05 0.2 0.15 0.1 0.6 -0.05 1 0.1 1.45 0.3 1.9 0.65 2.15 1 2.4 1.35 2.25 Z"/>
</g>

<g id="FlashAICB_2_Modo_de_aislamiento__Path__55_0_Layer0_0_FILL">
<path fill="url(#Gradient_14)" stroke="none" d="
M 1.25 0.85
Q 0.95 0.1 0.25 0 -0.15 0.45 0.1 1.2 0.45 2.05 1.1 2.05 1.5 1.6 1.25 0.85 Z"/>
</g>

<g id="FlashAICB_2_Modo_de_aislamiento__Path__1_37_0_Layer0_0_FILL">
<path fill="url(#Gradient_15)" stroke="none" d="
M 1.1 0.55
Q 0.5 1.25 0.2 2.4 -0.1 3.55 0.05 4.45 0.25 5.35 0.8 5.45 1.35 5.6 1.9 4.9 2.5 4.2 2.8 3.1 3.1 1.95 2.95 1.05 2.75 0.15 2.2 0 1.7 -0.15 1.1 0.55 Z"/>
</g>

<g id="FlashAICB_2_Modo_de_aislamiento__Path__56_0_Layer0_0_FILL">
<path fill="url(#Gradient_16)" stroke="none" d="
M 0.2 2.25
Q -0.3 4.35 0.45 5.1 1.4 4.6 1.85 2.85 2.35 0.75 1.6 0 0.7 0.5 0.2 2.25 Z"/>
</g>

<g id="FlashAICB_2_Modo_de_aislamiento__Path__4_1_0_Layer0_0_FILL">
<path fill="url(#Gradient_17)" stroke="none" d="
M 0.15 0.75
Q -0.2 1.7 0.3 1.95 0.55 2.05 0.8 1.85 1.1 1.6 1.25 1.2 1.7 0.3 1.15 0 0.6 -0.2 0.15 0.75 Z"/>
</g>

<g id="FlashAICB_2_Modo_de_aislamiento__Path__3_3_0_Layer0_0_FILL">
<path fill="url(#Gradient_18)" stroke="none" d="
M 0.15 1.2
Q 0.5 1.35 0.75 0.75 0.95 0.15 0.65 0 0.3 -0.1 0.05 0.45 -0.2 1.05 0.15 1.2 Z"/>
</g>

<g id="FlashAICB_2_Modo_de_aislamiento__Path__2_6_0_Layer0_0_FILL">
<path fill="url(#Gradient_19)" stroke="none" d="
M 0.85 0.9
Q 1.1 0.65 0.7 0.25 0.3 -0.2 0.05 0.05 -0.15 0.25 0.2 0.7 0.65 1.1 0.85 0.9 Z"/>
</g>

<g id="FlashAICB_2_Modo_de_aislamiento__Path__1_39_0_Layer0_0_FILL">
<path fill="url(#Gradient_20)" stroke="none" d="
M 1.3 1.3
Q 1.6 1 1.05 0.35 0.4 -0.2 0.1 0.1 -0.25 0.35 0.35 1.05 0.95 1.65 1.3 1.3 Z"/>
</g>

<g id="FlashAICB_2_Modo_de_aislamiento__Path__58_0_Layer0_0_FILL">
<path fill="url(#Gradient_21)" stroke="none" d="
M 0.85 0.85
Q 1 0.6 0.7 0.2 0.3 -0.2 0.1 0.05 -0.15 0.25 0.25 0.65 0.6 1 0.85 0.85 Z"/>
</g>

<g id="FlashAICB_2_Modo_de_aislamiento__Compound_Path__1_0_Layer0_0_FILL">
<path fill="url(#Gradient_22)" stroke="none" d="
M 0.1 10.7
Q 0.4 10.9 0.75 10.35 1.05 9.85 0.8 9.6 0.5 9.4 0.15 9.95 -0.25 10.55 0.1 10.7
M 0.25 8.75
Q 0.7 9.1 1.35 8.2 1.9 7.25 1.4 7 1.2 6.85 0.9 7 0.55 7.2 0.35 7.55 0.1 7.9 0.05 8.25 0.05 8.6 0.25 8.75
M 2.5 6.3
Q 2.2 6.8 2.45 7.05 2.8 7.25 3.15 6.7 3.45 6.1 3.2 5.95 2.85 5.8 2.5 6.3
M 16.85 1
Q 16.9 1.25 17.3 1.3 17.6 1.35 18 1.2 19 0.85 18.8 0.3 18.6 -0.25 17.6 0.1 16.6 0.45 16.85 1
M 20.35 1.05
Q 20.95 0.9 20.85 0.5 20.7 0.15 20.1 0.4 19.5 0.6 19.65 0.95 19.75 1.35 20.35 1.05 Z"/>
</g>

<g id="S_mbolo_32_0_Layer0_0_FILL">
<path fill="#78F9FF" stroke="none" d="
M 259.9 571.65
Q 234.5 532.4 210.15 566.7 179.2 609.15 198.3 656.4 217.3 703.55 251.8 656.4 285.2 611.05 259.9 571.65 Z"/>
</g>

<g id="S_mbolo_32_0_Layer0_1_FILL">
<path fill="#78F9FF" stroke="none" d="
M 50.65 48.65
Q 60.7 42 66 25.65 71.3 8 53.05 13.6 41 17.1 41.75 35.55 42.2 54 50.65 48.65 Z"/>
</g>
</defs>

<g enable-background="new">
<g transform="matrix( 1, 0, 0, 1, 7.05,8.5) ">
<g transform="matrix( 2.45343017578125, -0.0108184814453125, 0.0106964111328125, 2.4261322021484375, -790.85,209.1) ">
<g transform="matrix( 1.1037750244140625, 0, 0, 1.1037750244140625, 315.65,-90.8) ">
<g transform="matrix( 1, 0, 0, 1, 0,0) ">
<use filter="url(#Filter_1)" xlink:href="#Carpeta_de_elementos_duplicados_S_mbolo_26_0_Layer0_0_FILL"/>
</g>
</g>

<g transform="matrix( 1, 0, 0, 1, -188.65,-4.55) ">
<use filter="url(#Filter_1)" xlink:href="#Carpeta_de_elementos_duplicados_circulo_celeste_0_Layer0_0_MEMBER_1_FILL"/>
</g>

<g transform="matrix( 0.9007568359375, 0, 0, 0.91522216796875, 41.7,-4.2) ">
<use filter="url(#Filter_1)" xlink:href="#Carpeta_de_elementos_duplicados_circulo_celeste_0_Layer0_1_FILL"/>
</g>
</g>

<g transform="matrix( 1.042694091796875, 0, 0, 1.042694091796875, 18.2,13.7) ">
<g transform="matrix( 8.82855224609375, 0, 0, 8.82855224609375, 3.75,1.4) ">
<g filter="url(#Filter_2)" transform="matrix( 0.1086273193359375, 0, 0, 0.1086273193359375, -3.15,-2.55) ">
<g transform="matrix( 9.205474853515625, 0, 0, 9.205474853515625, 29.15,178.3) "/>
</g>

<g filter="url(#Filter_2)" transform="matrix( 0.1086273193359375, 0, 0, 0.1086273193359375, -3.15,-2.55) ">
<g transform="matrix( 9.205474853515625, 0, 0, 9.205474853515625, 34.2,23.65) "/>
</g>

<g filter="url(#Filter_2)" transform="matrix( 0.1086273193359375, 0, 0, 0.1086273193359375, -3.15,-2.55) ">
<g transform="matrix( 9.205474853515625, 0, 0, 9.205474853515625, 213.7,23.65) "/>
</g>

<g filter="url(#Filter_2)" transform="matrix( 0.1086273193359375, 0, 0, 0.1086273193359375, -3.15,-2.55) ">
<g transform="matrix( 9.205474853515625, 0, 0, 9.205474853515625, 285.95,38.35) "/>
</g>
</g>

<g filter="url(#Filter_3)" transform="matrix( 0.95904541015625, 0, 0, 0.95904541015625, -24.2,-21.25) ">
<g transform="matrix( 9.200271606445312, 0, 0, 9.200271606445312, 168.4,21.8) ">
<g transform="matrix( 1, 0, 0, 1, 0,0) ">
<use filter="url(#Filter_4)" xlink:href="#FlashAICB_2_Modo_de_aislamiento__Path__1_27_0_Layer0_0_FILL"/>
</g>
</g>
</g>

<g filter="url(#Filter_5)" transform="matrix( 0.95904541015625, 0, 0, 0.95904541015625, -24.2,-21.25) ">
<g transform="matrix( 9.200271606445312, 0, 0, 9.200271606445312, 171.6,30.05) ">
<g transform="matrix( 1, 0, 0, 1, 0,0) ">
<use filter="url(#Filter_4)" xlink:href="#FlashAICB_2_Modo_de_aislamiento__Path__46_0_Layer0_0_FILL"/>
</g>
</g>
</g>

<g filter="url(#Filter_6)" transform="matrix( 0.95904541015625, 0, 0, 0.95904541015625, -24.2,-21.25) ">
<g transform="matrix( 9.200271606445312, 0, 0, 9.200271606445312, 334.55,285.5) ">
<g transform="matrix( 1, 0, 0, 1, 0,0) ">
<use filter="url(#Filter_4)" xlink:href="#FlashAICB_2_Modo_de_aislamiento__Path__1_28_0_Layer0_0_FILL"/>
</g>
</g>
</g>

<g filter="url(#Filter_7)" transform="matrix( 0.95904541015625, 0, 0, 0.95904541015625, -24.2,-21.25) ">
<g transform="matrix( 9.200271606445312, 0, 0, 9.200271606445312, 334.55,285.5) ">
<g transform="matrix( 1, 0, 0, 1, 0,0) ">
<use filter="url(#Filter_4)" xlink:href="#FlashAICB_2_Modo_de_aislamiento__Path__47_0_Layer0_0_FILL"/>
</g>
</g>
</g>

<g filter="url(#Filter_8)" transform="matrix( 0.95904541015625, 0, 0, 0.95904541015625, -24.2,-21.25) ">
<g transform="matrix( 9.200271606445312, 0, 0, 9.200271606445312, 58.4,294.75) ">
<g transform="matrix( 1, 0, 0, 1, 0,0) ">
<use filter="url(#Filter_4)" xlink:href="#FlashAICB_2_Modo_de_aislamiento__Path__1_29_0_Layer0_0_FILL"/>
</g>
</g>
</g>

<g filter="url(#Filter_9)" transform="matrix( 0.95904541015625, 0, 0, 0.95904541015625, -24.2,-21.25) ">
<g transform="matrix( 9.200271606445312, 0, 0, 9.200271606445312, 64.35,294.75) ">
<g transform="matrix( 1, 0, 0, 1, 0,0) ">
<use filter="url(#Filter_4)" xlink:href="#FlashAICB_2_Modo_de_aislamiento__Path__48_0_Layer0_0_FILL"/>
</g>
</g>
</g>

<g filter="url(#Filter_10)" transform="matrix( 0.95904541015625, 0, 0, 0.95904541015625, -24.2,-21.25) ">
<g transform="matrix( 9.200271606445312, 0, 0, 9.200271606445312, 259.5,349.95) ">
<g transform="matrix( 1, 0, 0, 1, 0,0) ">
<use filter="url(#Filter_4)" xlink:href="#FlashAICB_2_Modo_de_aislamiento__Path__1_30_0_Layer0_0_FILL"/>
</g>
</g>
</g>

<g filter="url(#Filter_11)" transform="matrix( 0.95904541015625, 0, 0, 0.95904541015625, -24.2,-21.25) ">
<g transform="matrix( 9.200271606445312, 0, 0, 9.200271606445312, 259.5,349.95) ">
<g transform="matrix( 1, 0, 0, 1, 0,0) ">
<use filter="url(#Filter_4)" xlink:href="#FlashAICB_2_Modo_de_aislamiento__Path__49_0_Layer0_0_FILL"/>
</g>
</g>
</g>

<g filter="url(#Filter_12)" transform="matrix( 0.95904541015625, 0, 0, 0.95904541015625, -24.2,-21.25) ">
<g transform="matrix( 9.200271606445312, 0, 0, 9.200271606445312, 313.35,59.05) ">
<g transform="matrix( 1, 0, 0, 1, 0,0) ">
<use filter="url(#Filter_4)" xlink:href="#FlashAICB_2_Modo_de_aislamiento__Path__1_31_0_Layer0_0_FILL"/>
</g>
</g>
</g>

<g filter="url(#Filter_13)" transform="matrix( 0.95904541015625, 0, 0, 0.95904541015625, -24.2,-21.25) ">
<g transform="matrix( 9.200271606445312, 0, 0, 9.200271606445312, 313.35,65.5) ">
<g transform="matrix( 1, 0, 0, 1, 0,0) ">
<use filter="url(#Filter_4)" xlink:href="#FlashAICB_2_Modo_de_aislamiento__Path__50_0_Layer0_0_FILL"/>
</g>
</g>
</g>

<g filter="url(#Filter_14)" transform="matrix( 0.95904541015625, 0, 0, 0.95904541015625, -24.2,-21.25) ">
<g transform="matrix( 9.200271606445312, 0, 0, 9.200271606445312, 377.35,185.15) ">
<g transform="matrix( 1, 0, 0, 1, 0,0) ">
<use filter="url(#Filter_4)" xlink:href="#FlashAICB_2_Modo_de_aislamiento__Path__1_32_0_Layer0_0_FILL"/>
</g>
</g>
</g>

<g filter="url(#Filter_15)" transform="matrix( 0.95904541015625, 0, 0, 0.95904541015625, -24.2,-21.25) ">
<g transform="matrix( 9.200271606445312, 0, 0, 9.200271606445312, 377.35,186.55) ">
<g transform="matrix( 1, 0, 0, 1, 0,0) ">
<use filter="url(#Filter_4)" xlink:href="#FlashAICB_2_Modo_de_aislamiento__Path__51_0_Layer0_0_FILL"/>
</g>
</g>
</g>

<g filter="url(#Filter_16)" transform="matrix( 0.95904541015625, 0, 0, 0.95904541015625, -24.2,-21.25) ">
<g transform="matrix( 9.200271606445312, 0, 0, 9.200271606445312, 117.75,156.65) ">
<g transform="matrix( 1, 0, 0, 1, 0,0) ">
<use filter="url(#Filter_4)" xlink:href="#FlashAICB_2_Modo_de_aislamiento__Path__1_34_0_Layer0_0_FILL"/>
</g>
</g>
</g>

<g filter="url(#Filter_17)" transform="matrix( 0.95904541015625, 0, 0, 0.95904541015625, -24.2,-21.25) ">
<g transform="matrix( 9.200271606445312, 0, 0, 9.200271606445312, 125.6,158.9) ">
<g transform="matrix( 1, 0, 0, 1, 0,0) ">
<use filter="url(#Filter_4)" xlink:href="#FlashAICB_2_Modo_de_aislamiento__Path__53_0_Layer0_0_FILL"/>
</g>
</g>
</g>

<g filter="url(#Filter_18)" transform="matrix( 0.95904541015625, 0, 0, 0.95904541015625, -24.2,-21.25) ">
<g transform="matrix( 9.200271606445312, 0, 0, 9.200271606445312, 313.35,124.9) ">
<g transform="matrix( 1, 0, 0, 1, 0,0) ">
<use filter="url(#Filter_4)" xlink:href="#FlashAICB_2_Modo_de_aislamiento__Path__1_36_0_Layer0_0_FILL"/>
</g>
</g>
</g>

<g filter="url(#Filter_19)" transform="matrix( 0.95904541015625, 0, 0, 0.95904541015625, -24.2,-21.25) ">
<g transform="matrix( 9.200271606445312, 0, 0, 9.200271606445312, 313.35,126.7) ">
<g transform="matrix( 1, 0, 0, 1, 0,0) ">
<use filter="url(#Filter_4)" xlink:href="#FlashAICB_2_Modo_de_aislamiento__Path__55_0_Layer0_0_FILL"/>
</g>
</g>
</g>

<g filter="url(#Filter_20)" transform="matrix( 0.95904541015625, 0, 0, 0.95904541015625, -24.2,-21.25) ">
<g transform="matrix( 9.200271606445312, 0, 0, 9.200271606445312, 24.8,132.25) ">
<g transform="matrix( 1, 0, 0, 1, 0,0) ">
<use filter="url(#Filter_4)" xlink:href="#FlashAICB_2_Modo_de_aislamiento__Path__1_37_0_Layer0_0_FILL"/>
</g>
</g>
</g>

<g filter="url(#Filter_21)" transform="matrix( 0.95904541015625, 0, 0, 0.95904541015625, -24.2,-21.25) ">
<g transform="matrix( 9.200271606445312, 0, 0, 9.200271606445312, 33.5,134.05) ">
<g transform="matrix( 1, 0, 0, 1, 0,0) ">
<use filter="url(#Filter_4)" xlink:href="#FlashAICB_2_Modo_de_aislamiento__Path__56_0_Layer0_0_FILL"/>
</g>
</g>
</g>

<g filter="url(#Filter_22)" transform="matrix( 0.95904541015625, 0, 0, 0.95904541015625, -24.2,-21.25) ">
<g transform="matrix( 9.205474853515625, 0, 0, 9.205474853515625, 350.95,251.5) ">
<g transform="matrix( 1, 0, 0, 1, 0,0) ">
<use filter="url(#Filter_4)" xlink:href="#FlashAICB_2_Modo_de_aislamiento__Path__4_1_0_Layer0_0_FILL"/>
</g>
</g>
</g>

<g filter="url(#Filter_23)" transform="matrix( 0.95904541015625, 0, 0, 0.95904541015625, -24.2,-21.25) ">
<g transform="matrix( 9.205474853515625, 0, 0, 9.205474853515625, 354.2,233.55) ">
<g transform="matrix( 1, 0, 0, 1, 0,0) ">
<use filter="url(#Filter_4)" xlink:href="#FlashAICB_2_Modo_de_aislamiento__Path__3_3_0_Layer0_0_FILL"/>
</g>
</g>
</g>

<g filter="url(#Filter_24)" transform="matrix( 0.95904541015625, 0, 0, 0.95904541015625, -24.2,-21.25) ">
<g transform="matrix( 9.205474853515625, 0, 0, 9.205474853515625, 92.25,305.35) ">
<g transform="matrix( 1, 0, 0, 1, 0,0) ">
<use filter="url(#Filter_4)" xlink:href="#FlashAICB_2_Modo_de_aislamiento__Path__2_6_0_Layer0_0_FILL"/>
</g>
</g>
</g>

<g filter="url(#Filter_25)" transform="matrix( 0.95904541015625, 0, 0, 0.95904541015625, -24.2,-21.25) ">
<g transform="matrix( 9.205474853515625, 0, 0, 9.205474853515625, 309.1,76.1) ">
<g transform="matrix( 1, 0, 0, 1, 0,0) ">
<use filter="url(#Filter_4)" xlink:href="#FlashAICB_2_Modo_de_aislamiento__Path__1_39_0_Layer0_0_FILL"/>
</g>
</g>
</g>

<g filter="url(#Filter_26)" transform="matrix( 0.95904541015625, 0, 0, 0.95904541015625, -24.2,-21.25) ">
<g transform="matrix( 9.205474853515625, 0, 0, 9.205474853515625, 319.7,94.05) ">
<g transform="matrix( 1, 0, 0, 1, 0,0) ">
<use filter="url(#Filter_4)" xlink:href="#FlashAICB_2_Modo_de_aislamiento__Path__58_0_Layer0_0_FILL"/>
</g>
</g>
</g>

<g filter="url(#Filter_27)" transform="matrix( 0.95904541015625, 0, 0, 0.95904541015625, -24.2,-21.25) ">
<g transform="matrix( 9.205474853515625, 0, 0, 9.205474853515625, 62.8,54.05) ">
<g transform="matrix( 1, 0, 0, 1, 0,0) ">
<use filter="url(#Filter_4)" xlink:href="#FlashAICB_2_Modo_de_aislamiento__Compound_Path__1_0_Layer0_0_FILL"/>
</g>
</g>
</g>
</g>

<g transform="matrix( 1, 0, 0, 1, 18.2,102.15) ">
<g transform="matrix( 1, 0, 0, 1, -191,-550.7) ">
<use filter="url(#Filter_28)" xlink:href="#S_mbolo_32_0_Layer0_0_FILL"/>
</g>

<g transform="matrix( 2.27392578125, 0, 0, 2.27392578125, 178.9,100.95) ">
<use filter="url(#Filter_28)" xlink:href="#S_mbolo_32_0_Layer0_1_FILL"/>
</g>
</g>
</g>
</g>
</svg>
