
<svg xmlns="http://www.w3.org/2000/svg" version="1.1" xmlns:xlink="http://www.w3.org/1999/xlink" preserveAspectRatio="none" x="0px" y="0px" width="480px" height="480px" viewBox="0 0 480 480">
<defs>
<filter id="Filter_1" x="-20%" y="-20%" width="140%" height="140%" color-interpolation-filters="sRGB">
<feColorMatrix in="SourceGraphic" type="matrix" values="0.49 0 0 0 0.20392156862745098 0 0.49 0 0 0 0 0 0.49 0 0.3058823529411765 0 0 0 1 0" result="result1"/>
</filter>

<filter id="Filter_2" x="-20%" y="-20%" width="140%" height="140%" color-interpolation-filters="sRGB">
<feColorMatrix in="SourceGraphic" type="matrix" values="0.49 0 0 0 0.20392156862745098 0 0.49 0 0 0 0 0 0.49 0 0.3058823529411765 0 0 0 0.7 0" result="result1"/>
</filter>

<g id="S_mbolo_16_0_Layer0_0_FILL">
<path fill="#A1A1A1" stroke="none" d="
M 3692.6 1612.35
L 3673.15 1669.95 3921.3 1569.15 3867.2 1541.4 3692.6 1612.35 Z"/>
</g>

<g id="S_mbolo_16_0_Layer0_1_FILL">
<path fill="#A1A1A1" stroke="none" d="
M 2985.45 2833.55
L 2951.05 2868.9 2964.55 3021.2 3004.6 3049.95 2985.45 2833.55 Z"/>
</g>

<g id="S_mbolo_16_0_Layer0_2_FILL">
<path fill="#A1A1A1" stroke="none" d="
M 3452.2 3866.8
L 3542.5 3937.7 3578.85 3930.55 3450.55 3829.8 3452.2 3866.8 Z"/>
</g>

<g id="S_mbolo_16_0_Layer0_3_FILL">
<path fill="#A1A1A1" stroke="none" d="
M 4614.75 4102.7
L 4667.55 4132.85 4845.2 4069.85 4867.2 4013.2 4614.75 4102.7 Z"/>
</g>

<g id="S_mbolo_16_0_Layer0_4_FILL">
<path fill="#A1A1A1" stroke="none" d="
M 5394.65 3560.25
L 5438.6 3551.95 5508.1 3431.8 5493.35 3389.55 5394.65 3560.25 Z"/>
</g>

<g id="S_mbolo_16_0_Layer0_5_FILL">
<path fill="#A1A1A1" stroke="none" d="
M 5493.75 2195.75
L 5458.1 2185.75 5527.15 2333.55 5542.35 2299.75 5493.75 2195.75 Z"/>
</g>

<g id="S_mbolo_16_0_Layer0_6_FILL">
<path fill="#B3B3B3" stroke="none" d="
M 750.25 81.15
Q 711.95 55.3 669.5 37.35 626.3 19.05 580.3 9.65 533.1 0 484.5 0 435.9 0 388.7 9.65 342.7 19.05 299.5 37.35 257.05 55.3 218.75 81.15 180.8 106.8 148.4 139.2 116 171.65 90.35 209.55 64.5 247.85 46.55 290.3 28.25 333.5 18.85 379.55 9.2 426.7 9.2 475.3 9.2 523.95 18.85 571.1 28.25 617.1 46.55 660.35 64.5 702.75 90.35 741.1 116 779 148.4 811.45 180.8 843.85 218.75 869.45 257.05 895.35 299.5 913.3 342.7 931.6 388.7 941 435.9 950.65 484.5 950.65 533.1 950.65 580.3 941 626.3 931.6 669.5 913.3 711.95 895.35 750.25 869.45 788.2 843.85 820.6 811.45 853.05 779 878.65 741.1 904.5 702.8 922.45 660.35 940.75 617.1 950.2 571.1 959.85 523.9 959.85 475.3 959.85 426.7 950.2 379.55 940.75 333.5 922.45 290.3 904.5 247.85 878.65 209.55 853.05 171.65 820.6 139.2 788.2 106.8 750.25 81.15 Z"/>
</g>

<g id="FlashAICB_3_Capa_11__Group__30_0_Layer0_0_MEMBER_0_FILL">
<path fill="#A1A1A1" stroke="none" d="
M 170.1 41.7
Q 177.9 26.3 179.15 16 180.5 5.35 174.65 1.7 162.75 -5.7 129.45 16.45 96.15 38.6 60.95 77.35 25.8 116.05 9.3 148.65 1.55 164.05 0.25 174.35 -1.1 185 4.75 188.65 16.7 196.05 50 173.9 83.3 151.75 118.45 113 153.65 74.3 170.1 41.7 Z"/>
</g>

<g id="FlashAICB_3_Capa_11__Group__30_0_Layer0_0_MEMBER_1_FILL">
<path fill="#929292" stroke="none" d="
M 174.65 1.7
Q 171.5 -0.25 166.5 0.05 169.9 13.1 153.2 42.35 136.25 72.1 106.05 105.35 75.9 138.6 46.05 160.3 16.7 181.7 0.55 182.6 1.6 186.6 4.75 188.65 16.7 196.05 50 173.9 83.3 151.75 118.45 113 153.65 74.3 170.1 41.7 177.9 26.3 179.15 16 180.5 5.35 174.65 1.7 Z"/>
</g>

<g id="S_mbolo_16_0_Layer0_8_MEMBER_0_FILL">
<path fill="#A1A1A1" stroke="none" d="
M 5291 2056.3
Q 5281.65 2046.35 5277.9 2048.5 5274.2 2050.7 5278.25 2063.75 5282.35 2076.8 5291.85 2093.05 5301.35 2109.35 5310.7 2119.3 5320.05 2129.3 5323.8 2127.1 5327.5 2124.9 5323.45 2111.9 5319.35 2098.8 5309.85 2082.55 5300.35 2066.25 5291 2056.3 Z"/>
</g>

<g id="S_mbolo_16_0_Layer0_8_MEMBER_1_FILL">
<path fill="#929292" stroke="none" d="
M 5277.9 2048.5
Q 5276.95 2049.1 5276.5 2050.55 5281.25 2051.7 5289.5 2061.2 5297.8 2070.8 5306 2084.8 5314.15 2098.8 5318.45 2110.75 5322.65 2122.6 5321.3 2127.3 5322.75 2127.65 5323.8 2127.1 5327.5 2124.9 5323.45 2111.9 5319.35 2098.8 5309.85 2082.55 5300.35 2066.25 5291 2056.3 5281.65 2046.35 5277.9 2048.5 Z"/>
</g>

<g id="S_mbolo_16_0_Layer0_9_MEMBER_0_FILL">
<path fill="#A1A1A1" stroke="none" d="
M 5487.85 3108.6
Q 5483.45 3097.45 5476.25 3095.75 5469 3094.05 5460.15 3102.2 5451.6 3110 5442.75 3125.9 5423.95 3159.45 5412.1 3210.4 5400.3 3261.3 5402.35 3299.7 5403.3 3317.9 5407.5 3328.7 5411.9 3339.9 5419.1 3341.55 5426.35 3343.25 5435.2 3335.1 5443.75 3327.25 5452.6 3311.4 5471.4 3277.8 5483.2 3226.9 5495.05 3176 5493 3137.55 5492.05 3119.4 5487.85 3108.6 Z"/>
</g>

<g id="S_mbolo_16_0_Layer0_9_MEMBER_1_FILL">
<path fill="#929292" stroke="none" d="
M 5476.25 3095.75
Q 5475.55 3095.55 5474.1 3095.45 5487.5 3101.5 5488.95 3139.15 5490.45 3177 5479.05 3225.95 5467.7 3274.9 5449.7 3308.2 5431.75 3341.35 5417.1 3340.85 5418.2 3341.35 5419.1 3341.55 5426.35 3343.25 5435.2 3335.1 5443.75 3327.25 5452.6 3311.4 5471.4 3277.8 5483.2 3226.9 5495.05 3176 5493 3137.55 5492.05 3119.4 5487.85 3108.6 5483.45 3097.45 5476.25 3095.75 Z"/>
</g>

<g id="S_mbolo_16_0_Layer0_10_MEMBER_0_FILL">
<path fill="#A1A1A1" stroke="none" d="
M 5486.45 2421.5
Q 5473.4 2393.4 5462.95 2395.4 5452.5 2397.4 5450.7 2428.3 5448.9 2459.25 5456.85 2501 5464.75 2542.75 5477.8 2570.85 5490.8 2599 5501.25 2597 5511.7 2595 5513.5 2564.1 5515.3 2533.1 5507.35 2491.4 5499.45 2449.65 5486.45 2421.5 Z"/>
</g>

<g id="S_mbolo_16_0_Layer0_10_MEMBER_1_FILL">
<path fill="#929292" stroke="none" d="
M 5462.95 2395.4
Q 5462.4 2395.45 5461.5 2395.85 5471.9 2396.25 5484.3 2423.95 5496.75 2451.75 5504.4 2491.95 5512.05 2532.1 5510.65 2562.6 5509.25 2592.9 5499.75 2597.1
L 5501.25 2597
Q 5511.7 2595 5513.5 2564.1 5515.3 2533.1 5507.35 2491.4 5499.45 2449.65 5486.45 2421.5 5473.4 2393.4 5462.95 2395.4 Z"/>
</g>

<g id="S_mbolo_16_0_Layer0_11_MEMBER_0_FILL">
<path fill="#A1A1A1" stroke="none" d="
M 5463.85 2794.5
Q 5459.55 2782.7 5451.75 2781.85 5444 2781.05 5437.3 2791.65 5430.6 2802.3 5428.9 2818.2 5427.2 2834.1 5431.5 2845.9 5435.8 2857.75 5443.6 2858.55 5451.35 2859.4 5458.05 2848.75 5464.75 2838.1 5466.45 2822.2 5468.15 2806.3 5463.85 2794.5 Z"/>
</g>

<g id="S_mbolo_16_0_Layer0_11_MEMBER_1_FILL">
<path fill="#929292" stroke="none" d="
M 5450.65 2781.8
Q 5458 2783.45 5461.95 2795.05 5465.9 2806.7 5464.25 2821.95 5462.65 2837.25 5456.3 2847.8 5450 2858.3 5442.5 2858.35
L 5443.6 2858.55
Q 5451.35 2859.4 5458.05 2848.75 5464.75 2838.1 5466.45 2822.2 5468.15 2806.3 5463.85 2794.5 5459.55 2782.7 5451.75 2781.85
L 5450.65 2781.8 Z"/>
</g>

<g id="S_mbolo_16_0_Layer0_12_MEMBER_0_FILL">
<path fill="#A1A1A1" stroke="none" d="
M 5303.4 3054.25
Q 5302.55 3046.55 5298 3044.95 5293.5 3043.35 5287.95 3048.7 5282.45 3054.1 5279.1 3063.3 5275.8 3072.55 5276.65 3080.2 5277.5 3087.9 5282.05 3089.5 5286.55 3091.1 5292.1 3085.75 5297.6 3080.4 5300.95 3071.15 5304.25 3061.9 5303.4 3054.25 Z"/>
</g>

<g id="S_mbolo_16_0_Layer0_12_MEMBER_1_FILL">
<path fill="#929292" stroke="none" d="
M 5297.35 3044.75
Q 5301.5 3046.8 5302.15 3054.3 5302.85 3061.8 5299.65 3070.7 5296.45 3079.55 5291.2 3084.95 5285.9 3090.25 5281.4 3089.25
L 5282.05 3089.5
Q 5286.55 3091.1 5292.1 3085.75 5297.6 3080.4 5300.95 3071.15 5304.25 3061.9 5303.4 3054.25 5302.55 3046.55 5298 3044.95
L 5297.35 3044.75 Z"/>
</g>

<g id="FlashAICB_3_Capa_11__Path__1_0_Layer0_0_FILL">
<path fill="#A1A1A1" stroke="none" d="
M 72.85 41.8
Q 60.75 19.6 48.85 8.9 36.5 -2.2 26.15 0.6 15.8 3.4 9.2 19.65 2.85 35.35 0.85 61.35 -3.35 116.4 11.85 188.55 27 260.65 52.65 307.6 64.75 329.8 76.7 340.5 89.05 351.6 99.4 348.8 109.75 346 116.35 329.75 122.7 314.05 124.65 288 128.85 232.95 113.7 160.85 98.5 88.75 72.85 41.8 Z"/>
</g>

<g id="FlashAICB_3_Capa_11__Path__0_Layer0_0_FILL">
<path fill="#929292" stroke="none" d="
M 21.85 13
Q 10.2 0.55 0 0 18.45 15.5 36.45 56.65 54.9 98.8 66.35 153.25 81.55 225.4 77.35 280.45 75.35 306.45 69 322.15 62.4 338.4 52.05 341.2 49.5 341.9 46.95 341.75 58.55 351.4 68.2 348.75 78.55 345.95 85.15 329.7 91.5 314 93.45 287.95 97.65 232.9 82.5 160.8 68.3 93.25 44.45 47 33.2 25.15 21.85 13 Z"/>
</g>

<g id="FlashAICB_3_Capa_11__Group__23_0_Layer0_0_MEMBER_0_FILL">
<path fill="#A1A1A1" stroke="none" d="
M 26.95 0.1
Q 17.05 1.6 9.25 29.05 1.4 56.45 0.2 93.8 -1 131.1 5.15 156.4 11.3 181.75 21.2 180.25 31.05 178.75 38.9 151.3 46.75 123.85 47.9 86.55 49.1 49.25 42.95 23.9 36.8 -1.4 26.95 0.1 Z"/>
</g>

<g id="FlashAICB_3_Capa_11__Group__23_0_Layer0_0_MEMBER_1_FILL">
<path fill="#929292" stroke="none" d="
M 26.95 0.1
Q 17.05 1.6 9.25 29.05 1.4 56.45 0.2 93.8 -1 131.1 5.15 156.4 11.3 181.75 21.2 180.25 23.9 179.8 26.4 177.35 18.5 171.85 14 148.2 9.45 124.25 10.45 92.2 11.5 60.2 17.65 34.6 23.7 9.35 32 1.4 29.55 -0.25 26.95 0.1 Z"/>
</g>

<g id="FlashAICB_3_Capa_11__Group__22_0_Layer0_0_MEMBER_0_FILL">
<path fill="#A1A1A1" stroke="none" d="
M 133.55 40.45
Q 137.4 23.6 136.2 13.3 134.95 2.65 128.4 0.5 115.1 -3.8 88.05 25.65 61 55.1 36.05 101.1 11.15 147.1 2.95 182.7 -0.95 199.5 0.25 209.8 1.5 220.5 8.05 222.6 21.4 226.95 48.45 197.5 75.45 168.05 100.4 122 125.35 76.05 133.55 40.45 Z"/>
</g>

<g id="FlashAICB_3_Capa_11__Group__22_0_Layer0_0_MEMBER_1_FILL">
<path fill="#929292" stroke="none" d="
M 133.95 5.35
Q 131.85 1.65 128.4 0.5 115.1 -3.8 88.05 25.65 61 55.1 36.05 101.1 11.15 147.1 2.95 182.7 -0.95 199.5 0.25 209.8 1.5 220.5 8.05 222.6 11.6 223.8 16.4 222.25 9.95 210.45 19.2 178 28.55 145.05 49.9 105.6 71.3 66.1 95.1 37.9 118.5 10.1 133.95 5.35 Z"/>
</g>

<g id="FlashAICB_3_Capa_11__Group__21_0_Layer0_0_MEMBER_0_FILL">
<path fill="#A1A1A1" stroke="none" d="
M 223.8 194.7
Q 236.55 195.15 240.2 187.85 243.85 180.55 237.85 166.8 232 153.5 217.95 136 188.25 99 138.8 61.5 89.35 24.05 49.1 8.05 30.05 0.5 17.75 0.05 5.05 -0.4 1.35 6.9 -2.3 14.2 3.7 27.95 9.55 41.25 23.6 58.75 53.3 95.75 102.75 133.2 152.2 170.7 192.5 186.7 211.5 194.25 223.8 194.7 Z"/>
</g>

<g id="FlashAICB_3_Capa_11__Group__21_0_Layer0_0_MEMBER_1_FILL">
<path fill="#929292" stroke="none" d="
M 240.2 187.85
Q 242.15 184 241.3 178 226.25 183.45 189.9 166.8 153 149.95 110.5 117.75 68.05 85.6 39.25 52.65 10.8 20.2 8.05 1.25 3.35 3 1.35 6.9 -2.3 14.2 3.7 27.95 9.55 41.25 23.6 58.75 53.3 95.75 102.75 133.2 152.2 170.7 192.5 186.7 211.5 194.25 223.8 194.7 236.55 195.15 240.2 187.85 Z"/>
</g>

<g id="S_mbolo_16_0_Layer0_17_MEMBER_0_FILL">
<path fill="#A1A1A1" stroke="none" d="
M 3228.95 2551.9
Q 3224.65 2551.4 3220.15 2564.35 3215.6 2577.25 3213.55 2595.95 3211.5 2614.7 3213.05 2628.3 3214.65 2641.85 3218.9 2642.35 3223.2 2642.8 3227.75 2629.9 3232.25 2617 3234.3 2598.25 3236.35 2579.55 3234.8 2565.95 3233.25 2552.35 3228.95 2551.9 Z"/>
</g>

<g id="S_mbolo_16_0_Layer0_17_MEMBER_1_FILL">
<path fill="#929292" stroke="none" d="
M 3228.95 2551.9
Q 3224.65 2551.4 3220.15 2564.35 3215.6 2577.25 3213.55 2595.95 3211.5 2614.7 3213.05 2628.3 3214.65 2641.85 3218.9 2642.35 3220.1 2642.45 3221.25 2641.5 3218.1 2637.75 3217.15 2625.25 3216.2 2612.55 3218 2596.45 3219.8 2580.35 3223.5 2568.2 3227.15 2556.2 3231.05 2553.2 3230.05 2552 3228.95 2551.9 Z"/>
</g>

<g id="S_mbolo_16_0_Layer0_18_MEMBER_0_FILL">
<path fill="#A1A1A1" stroke="none" d="
M 4971.35 3850.35
Q 4980.75 3840.4 4978.3 3836.8 4975.9 3833.2 4963.15 3838.1 4950.4 3842.95 4934.7 3853.45 4919.05 3863.95 4909.7 3873.9 4900.3 3883.85 4902.7 3887.45 4905.15 3891.05 4917.9 3886.2 4930.65 3881.3 4946.35 3870.8 4962 3860.3 4971.35 3850.35 Z"/>
</g>

<g id="S_mbolo_16_0_Layer0_18_MEMBER_1_FILL">
<path fill="#929292" stroke="none" d="
M 4978.3 3836.8
Q 4977.75 3835.9 4976.2 3835.5 4975.35 3840.35 4966.35 3849.15 4957.25 3858.05 4943.85 3867.05 4930.35 3876.05 4918.7 3881.1 4907.15 3886.05 4902.35 3885 4902.1 3886.5 4902.7 3887.45 4905.15 3891.05 4917.9 3886.2 4930.65 3881.3 4946.35 3870.8 4962 3860.3 4971.35 3850.35 4980.75 3840.4 4978.3 3836.8 Z"/>
</g>

<g id="S_mbolo_16_0_Layer0_19_MEMBER_0_FILL">
<path fill="#A1A1A1" stroke="none" d="
M 3143.65 3098
Q 3133.25 3083.05 3124 3076.05 3114.4 3068.85 3107.35 3071.2 3100.3 3073.6 3097.05 3085.15 3093.9 3096.3 3094.7 3114.5 3096.4 3152.9 3113.1 3202.45 3129.85 3252 3151.75 3283.6 3162.1 3298.5 3171.4 3305.5 3180.95 3312.75 3188 3310.35 3195.05 3307.95 3198.3 3296.4 3201.45 3285.25 3200.65 3267.1 3199 3228.65 3182.3 3179.1 3165.55 3129.6 3143.65 3098 Z"/>
</g>

<g id="S_mbolo_16_0_Layer0_19_MEMBER_1_FILL">
<path fill="#929292" stroke="none" d="
M 3097.05 3085.15
Q 3093.9 3096.3 3094.7 3114.5 3096.4 3152.9 3113.1 3202.45 3129.85 3252 3151.75 3283.6 3162.1 3298.5 3171.4 3305.5 3180.95 3312.75 3188 3310.35 3189.05 3310.05 3189.95 3309.45 3175.4 3311.35 3154.35 3280.1 3133.25 3248.75 3117.15 3201.1 3101.05 3153.45 3098.9 3115.7 3096.7 3078.1 3109.45 3070.75
L 3107.35 3071.2
Q 3100.3 3073.6 3097.05 3085.15 Z"/>
</g>

<g id="S_mbolo_16_0_Layer0_20_MEMBER_0_FILL">
<path fill="#A1A1A1" stroke="none" d="
M 3938.3 4034.7
Q 3969.55 4035.35 3973.2 4023.6 3976.85 4011.85 3950.75 3994.65 3924.6 3977.45 3884 3964.8 3843.4 3952.2 3812.15 3951.6 3780.9 3950.95 3777.25 3962.7 3773.6 3974.45 3799.7 3991.7 3825.8 4008.9 3866.4 4021.5 3907 4034.1 3938.3 4034.7 Z"/>
</g>

<g id="S_mbolo_16_0_Layer0_20_MEMBER_1_FILL">
<path fill="#929292" stroke="none" d="
M 3973.2 4023.6
Q 3973.45 4022.85 3973.55 4021.9 3967.85 4032.4 3937.25 4031.35 3906.5 4030.3 3867.45 4018.2 3828.4 4006.1 3802.5 3989.5 3776.65 3973 3777.9 3961.1 3777.35 3962.3 3777.25 3962.7 3773.6 3974.45 3799.7 3991.7 3825.8 4008.9 3866.4 4021.5 3907 4034.1 3938.3 4034.7 3969.55 4035.35 3973.2 4023.6 Z"/>
</g>

<g id="S_mbolo_16_0_Layer0_21_MEMBER_0_FILL">
<path fill="#A1A1A1" stroke="none" d="
M 3387.45 3325.3
Q 3369.7 3312.95 3361.75 3318.85 3353.75 3324.7 3360.25 3345.35 3366.75 3365.95 3383.95 3389.3 3401.15 3412.65 3418.9 3425 3436.65 3437.35 3444.65 3431.45 3452.6 3425.6 3446.1 3404.95 3439.55 3384.3 3422.4 3361 3405.2 3337.65 3387.45 3325.3 Z"/>
</g>

<g id="S_mbolo_16_0_Layer0_21_MEMBER_1_FILL">
<path fill="#929292" stroke="none" d="
M 3362.95 3318.1
Q 3362.3 3318.4 3361.75 3318.85 3353.75 3324.7 3360.25 3345.35 3366.75 3365.95 3383.95 3389.3 3401.15 3412.65 3418.9 3425 3436.65 3437.35 3444.65 3431.45
L 3445.7 3430.55
Q 3437.15 3434.85 3420 3422.5 3402.75 3410.1 3386.2 3387.65 3369.7 3365.2 3362.95 3345.05 3356.3 3325 3362.95 3318.1 Z"/>
</g>

<g id="S_mbolo_16_0_Layer0_22_MEMBER_0_FILL">
<path fill="#A1A1A1" stroke="none" d="
M 4371.65 4034.75
Q 4341.85 4026.4 4299.35 4025.15 4256.85 4023.95 4226.6 4030.65 4196.35 4037.3 4196.05 4047.95 4195.75 4058.55 4225.6 4066.95 4255.45 4075.35 4297.9 4076.55 4340.4 4077.8 4370.65 4071.1 4400.9 4064.45 4401.2 4053.8 4401.5 4043.15 4371.65 4034.75 Z"/>
</g>

<g id="S_mbolo_16_0_Layer0_22_MEMBER_1_FILL">
<path fill="#929292" stroke="none" d="
M 4401.2 4053.8
Q 4401.2 4053.05 4401.05 4052.3 4398.4 4062.4 4368.7 4068.55 4338.8 4074.75 4297.95 4073.55 4257.15 4072.4 4227.65 4064.5 4198.3 4056.65 4196.25 4046.45 4196.05 4047.45 4196.05 4047.95 4195.75 4058.55 4225.6 4066.95 4255.45 4075.35 4297.9 4076.55 4340.4 4077.8 4370.65 4071.1 4400.9 4064.45 4401.2 4053.8 Z"/>
</g>

<g id="S_mbolo_16_0_Layer0_23_MEMBER_0_FILL">
<path fill="#A1A1A1" stroke="none" d="
M 3181.25 2881.95
Q 3173.6 2883.7 3170.8 2896 3167.95 2908.2 3171.55 2923.8 3175.2 2939.35 3183.15 2949.1 3191.1 2958.85 3198.7 2957.1 3206.3 2955.35 3209.15 2943.1 3212 2930.8 3208.35 2915.25 3204.75 2899.7 3196.8 2889.95 3188.85 2880.2 3181.25 2881.95 Z"/>
</g>

<g id="S_mbolo_16_0_Layer0_23_MEMBER_1_FILL">
<path fill="#929292" stroke="none" d="
M 3181.25 2881.95
Q 3173.6 2883.7 3170.8 2896 3167.95 2908.2 3171.55 2923.8 3175.2 2939.35 3183.15 2949.1 3191.1 2958.85 3198.7 2957.1
L 3199.75 2956.8
Q 3192.25 2957.65 3184.75 2947.95 3177.2 2938.25 3173.7 2923.3 3170.25 2908.35 3172.75 2896.3 3175.3 2884.3 3182.35 2881.75
L 3181.25 2881.95 Z"/>
</g>

<g id="S_mbolo_16_0_Layer0_24_MEMBER_0_FILL">
<path fill="#A1A1A1" stroke="none" d="
M 3300.9 3540.95
Q 3289.5 3535.65 3283.4 3540.6 3277.3 3545.5 3280.1 3557.8 3282.9 3570.05 3292.95 3582.45 3303.05 3594.85 3314.45 3600.15 3325.85 3605.45 3331.95 3600.55 3338.05 3595.65 3335.2 3583.4 3332.4 3571.1 3322.35 3558.7 3312.3 3546.25 3300.9 3540.95 Z"/>
</g>

<g id="S_mbolo_16_0_Layer0_24_MEMBER_1_FILL">
<path fill="#929292" stroke="none" d="
M 3284.3 3539.95
Q 3283.7 3540.3 3283.4 3540.6 3277.3 3545.5 3280.1 3557.8 3282.9 3570.05 3292.95 3582.45 3303.05 3594.85 3314.45 3600.15 3325.85 3605.45 3331.95 3600.55
L 3332.75 3599.8
Q 3326.4 3603.85 3315.4 3598.45 3304.35 3593 3294.7 3581.05 3285 3569.1 3282 3557.2 3279.05 3545.35 3284.3 3539.95 Z"/>
</g>

<g id="S_mbolo_16_0_Layer0_25_MEMBER_0_FILL">
<path fill="#A1A1A1" stroke="none" d="
M 5140.7 3322.2
Q 5133.45 3319.3 5124.1 3327.7 5114.75 3336.15 5108.85 3351 5102.95 3365.8 5103.85 3378.35 5104.8 3390.9 5112.05 3393.85 5119.35 3396.75 5128.7 3388.3 5138.05 3379.85 5143.95 3365.05 5149.9 3350.2 5148.95 3337.65 5147.95 3325.1 5140.7 3322.2 Z"/>
</g>

<g id="S_mbolo_16_0_Layer0_25_MEMBER_1_FILL">
<path fill="#929292" stroke="none" d="
M 5140.7 3322.2
L 5139.65 3321.85
Q 5146.25 3325.4 5146.95 3337.65 5147.6 3349.95 5141.9 3364.2 5136.2 3378.5 5127.25 3386.9 5118.3 3395.3 5111.05 3393.35
L 5112.05 3393.85
Q 5119.35 3396.75 5128.7 3388.3 5138.05 3379.85 5143.95 3365.05 5149.9 3350.2 5148.95 3337.65 5147.95 3325.1 5140.7 3322.2 Z"/>
</g>

<g id="S_mbolo_16_0_Layer0_26_MEMBER_0_FILL">
<path fill="#A1A1A1" stroke="none" d="
M 4129.3 3889.85
Q 4118.65 3883.15 4102.75 3881.45 4086.85 3879.75 4075.05 3884.1 4063.25 3888.4 4062.4 3896.15 4061.6 3903.95 4072.2 3910.65 4082.85 3917.35 4098.75 3919.05 4114.6 3920.75 4126.45 3916.45 4138.3 3912.1 4139.1 3904.35 4139.95 3896.55 4129.3 3889.85 Z"/>
</g>

<g id="S_mbolo_16_0_Layer0_26_MEMBER_1_FILL">
<path fill="#929292" stroke="none" d="
M 4062.55 3895.05
L 4062.4 3896.15
Q 4061.6 3903.95 4072.2 3910.65 4082.85 3917.35 4098.75 3919.05 4114.6 3920.75 4126.45 3916.45 4138.3 3912.1 4139.1 3904.35
L 4139.15 3903.25
Q 4137.5 3910.55 4125.9 3914.5 4114.25 3918.45 4098.95 3916.85 4083.7 3915.2 4073.15 3908.9 4062.65 3902.55 4062.55 3895.05 Z"/>
</g>

<g id="S_mbolo_16_0_Layer0_27_MEMBER_0_FILL">
<path fill="#A1A1A1" stroke="none" d="
M 4665.5 4003.65
Q 4674.4 3999.5 4679.25 3993.5 4684.1 3987.5 4682.05 3983.15 4680 3978.8 4672.3 3978.65 4664.6 3978.5 4655.7 3982.65 4646.8 3986.8 4641.95 3992.85 4637.15 3998.85 4639.15 4003.2 4641.2 4007.55 4648.95 4007.7 4656.65 4007.8 4665.5 4003.65 Z"/>
</g>

<g id="S_mbolo_16_0_Layer0_27_MEMBER_1_FILL">
<path fill="#929292" stroke="none" d="
M 4678.35 3992.65
Q 4673.5 3998.45 4664.95 4002.45 4656.4 4006.45 4648.85 4006.5 4641.35 4006.5 4638.9 4002.55
L 4639.15 4003.2
Q 4641.2 4007.55 4648.95 4007.7 4656.65 4007.8 4665.5 4003.65 4674.4 3999.5 4679.25 3993.5 4684.1 3987.5 4682.05 3983.15 4681.9 3982.75 4681.7 3982.55 4683.15 3986.9 4678.35 3992.65 Z"/>
</g>

<g id="FlashAICB_3_Capa_11__Path__1_0_0_Layer0_0_FILL">
<path fill="#A1A1A1" stroke="none" d="
M 306.5 33.85
Q 312.85 18.5 306.75 9.65 300.65 0.85 283.1 0.05 266.2 -0.7 241 6.1 187.7 20.55 124.8 58.95 61.9 97.35 26.25 137.2 9.35 156.05 3.25 170.85 -3.1 186.2 3 195 9.1 203.8 26.65 204.6 43.55 205.35 68.75 198.55 122.05 184.1 184.9 145.7 247.8 107.35 283.5 67.5 300.4 48.65 306.5 33.85 Z"/>
</g>

<g id="FlashAICB_3_Capa_11__Path__0_0_Layer0_0_FILL">
<path fill="#929292" stroke="none" d="
M 304 24.95
Q 311.85 9.8 308.95 0 300.55 22.55 267.75 53.25 234.2 84.7 186.65 113.7 123.7 152.05 70.45 166.5 45.25 173.35 28.35 172.6 10.8 171.8 4.7 163 3.3 160.95 2.5 158.35 -2.75 172.45 3 180.7 9.1 189.5 26.65 190.3 43.55 191.05 68.75 184.25 122.05 169.8 184.9 131.4 243.85 95.45 279.5 57.6 296.3 39.7 304 24.95 Z"/>
</g>

<g id="FlashAICB_3_Capa_11__Group__8_0_Layer0_0_MEMBER_0_FILL">
<path fill="#A1A1A1" stroke="none" d="
M 163.8 41.55
Q 170.85 25.8 171.7 15.45 172.55 4.75 166.55 1.4 154.35 -5.45 122.05 18.2 89.85 41.8 56.4 82.05 23 122.35 8 155.65 0.95 171.4 0.1 181.7 -0.75 192.45 5.25 195.8 17.5 202.65 49.75 179 82.05 155.35 115.4 115.1 148.8 74.85 163.8 41.55 Z"/>
</g>

<g id="FlashAICB_3_Capa_11__Group__8_0_Layer0_0_MEMBER_1_FILL">
<path fill="#929292" stroke="none" d="
M 171.05 7.2
Q 169.7 3.15 166.55 1.4 154.35 -5.45 122.05 18.2 89.85 41.8 56.4 82.05 23 122.35 8 155.65 0.95 171.4 0.1 181.7 -0.75 192.45 5.25 195.8 8.45 197.55 13.5 197.1 9.5 184.25 24.85 154.2 40.45 123.8 69.1 89.2 97.8 54.65 126.6 31.6 155 8.85 171.05 7.2 Z"/>
</g>

<g id="FlashAICB_3_Capa_11__Group__7_0_Layer0_0_MEMBER_0_FILL">
<path fill="#A1A1A1" stroke="none" d="
M 200.1 178.6
Q 219.45 185.3 231.75 185.2 244.5 185.05 247.85 177.6 251.2 170.15 244.55 156.7 238.1 143.65 223.3 126.85 192 91.2 140.9 56 89.75 20.8 48.85 6.6 29.5 -0.1 17.2 0 4.45 0.15 1.1 7.6 -2.25 15.05 4.4 28.5 10.85 41.55 25.65 58.35 56.95 94 108.05 129.2 159.2 164.4 200.1 178.6 Z"/>
</g>

<g id="FlashAICB_3_Capa_11__Group__7_0_Layer0_0_MEMBER_1_FILL">
<path fill="#929292" stroke="none" d="
M 207.95 133.55
Q 237.8 164.7 241.45 183.5 246.1 181.55 247.85 177.6 251.2 170.15 244.55 156.7 238.1 143.65 223.3 126.85 192 91.2 140.9 56 89.75 20.8 48.85 6.6 29.5 -0.1 17.2 0 4.45 0.15 1.1 7.6 -0.7 11.6 0.45 17.45 15.2 11.35 52.3 26.35 89.95 41.55 133.8 71.75 177.65 101.95 207.95 133.55 Z"/>
</g>

<g id="S_mbolo_16_0_Layer0_31_MEMBER_0_FILL">
<path fill="#A1A1A1" stroke="none" d="
M 3643.3 1797.2
Q 3640.75 1793.7 3628.2 1799.15 3615.7 1804.6 3600.5 1815.75 3585.35 1827 3576.45 1837.35 3567.5 1847.7 3570.1 1851.15 3572.65 1854.65 3585.2 1849.2 3597.7 1843.8 3612.9 1832.6 3628.05 1821.4 3636.95 1811 3645.9 1800.65 3643.3 1797.2 Z"/>
</g>

<g id="S_mbolo_16_0_Layer0_31_MEMBER_1_FILL">
<path fill="#929292" stroke="none" d="
M 3643.3 1797.2
Q 3640.75 1793.7 3628.2 1799.15 3615.7 1804.6 3600.5 1815.75 3585.35 1827 3576.45 1837.35 3567.5 1847.7 3570.1 1851.15 3570.75 1852.1 3572.25 1852.35 3572.9 1847.45 3581.45 1838.3 3590.15 1829 3603.2 1819.4 3616.2 1809.8 3627.65 1804.25 3638.95 1798.75 3643.8 1799.6 3644.05 1798.1 3643.3 1797.2 Z"/>
</g>

<g id="S_mbolo_16_0_Layer0_32_MEMBER_0_FILL">
<path fill="#A1A1A1" stroke="none" d="
M 4764.3 1671.25
Q 4767.4 1659.35 4740.55 1643.35 4713.65 1627.3 4672.55 1616.55 4631.45 1605.8 4600.15 1606.6 4568.85 1607.4 4565.75 1619.3 4562.65 1631.2 4589.5 1647.2 4616.4 1663.25 4657.5 1674 4698.6 1684.75 4729.9 1683.95 4761.2 1683.15 4764.3 1671.25 Z"/>
</g>

<g id="S_mbolo_16_0_Layer0_32_MEMBER_1_FILL">
<path fill="#929292" stroke="none" d="
M 4764.3 1671.25
Q 4767.4 1659.35 4740.55 1643.35 4713.65 1627.3 4672.55 1616.55 4631.45 1605.8 4600.15 1606.6 4568.85 1607.4 4565.75 1619.3 4565.6 1619.85 4565.5 1621 4570.7 1610.25 4601.35 1609.9 4632.1 1609.55 4671.65 1619.9 4711.2 1630.25 4737.85 1645.65 4764.35 1660.95 4763.65 1672.9 4764.05 1672.2 4764.3 1671.25 Z"/>
</g>

<g id="S_mbolo_16_0_Layer0_33_MEMBER_0_FILL">
<path fill="#A1A1A1" stroke="none" d="
M 4342.05 1605
Q 4341.85 1594.35 4311.7 1587.3 4281.55 1580.3 4239.05 1581 4196.55 1581.7 4166.6 1589.7 4136.65 1597.75 4136.85 1608.4 4137.05 1619.05 4167.2 1626.1 4197.4 1633.1 4239.9 1632.4 4282.35 1631.75 4312.3 1623.7 4342.25 1615.65 4342.05 1605 Z"/>
</g>

<g id="S_mbolo_16_0_Layer0_33_MEMBER_1_FILL">
<path fill="#929292" stroke="none" d="
M 4341.9 1606.5
Q 4342.05 1605.75 4342.05 1605 4341.85 1594.35 4311.7 1587.3 4281.55 1580.3 4239.05 1581 4196.55 1581.7 4166.6 1589.7 4136.65 1597.75 4136.85 1608.4 4136.85 1608.9 4137.05 1609.9 4139.25 1599.7 4168.65 1592.2 4198.25 1584.65 4239.1 1584 4279.95 1583.35 4309.75 1589.9 4339.4 1596.4 4341.9 1606.5 Z"/>
</g>

<g id="S_mbolo_16_0_Layer0_34_MEMBER_0_FILL">
<path fill="#A1A1A1" stroke="none" d="
M 3194.5 2280.35
Q 3180 2275.3 3162.45 2292.65 3144.9 2310 3134.6 2339.6 3124.3 2369.2 3127.25 2393.7 3130.2 2418.2 3144.7 2423.25 3159.2 2428.3 3176.75 2410.95 3194.3 2393.6 3204.6 2364 3214.9 2334.35 3211.95 2309.9 3209 2285.35 3194.5 2280.35 Z"/>
</g>

<g id="S_mbolo_16_0_Layer0_34_MEMBER_1_FILL">
<path fill="#929292" stroke="none" d="
M 3194.5 2280.35
Q 3180 2275.3 3162.45 2292.65 3144.9 2310 3134.6 2339.6 3124.3 2369.2 3127.25 2393.7 3130.2 2418.2 3144.7 2423.25 3144.85 2423.3 3146.75 2423.85 3133.5 2417.4 3131.15 2393.45 3128.75 2369.45 3138.7 2341 3148.6 2312.55 3165.4 2295.2 3182.1 2277.95 3196.5 2281.15 3195.2 2280.55 3194.5 2280.35 Z"/>
</g>

<g id="S_mbolo_16_0_Layer0_35_MEMBER_0_FILL">
<path fill="#A1A1A1" stroke="none" d="
M 4415.85 1759.9
Q 4426.8 1766.15 4442.75 1767.1 4458.7 1768.1 4470.3 1763.25 4481.95 1758.45 4482.4 1750.6 4482.9 1742.8 4471.95 1736.6 4461 1730.4 4445.05 1729.4 4429.1 1728.45 4417.5 1733.25 4405.9 1738.1 4405.4 1745.9 4404.9 1753.7 4415.85 1759.9 Z"/>
</g>

<g id="S_mbolo_16_0_Layer0_35_MEMBER_1_FILL">
<path fill="#929292" stroke="none" d="
M 4405.4 1745.9
L 4405.4 1747
Q 4406.75 1739.6 4418.15 1735.15 4429.6 1730.65 4444.95 1731.6 4460.25 1732.55 4471.1 1738.4 4481.85 1744.2 4482.3 1751.7
L 4482.4 1750.6
Q 4482.9 1742.8 4471.95 1736.6 4461 1730.4 4445.05 1729.4 4429.1 1728.45 4417.5 1733.25 4405.9 1738.1 4405.4 1745.9 Z"/>
</g>

<g id="S_mbolo_16_0_Layer0_36_MEMBER_0_FILL">
<path fill="#A1A1A1" stroke="none" d="
M 3875.05 1670.4
Q 3866.35 1674.95 3861.8 1681.2 3857.25 1687.4 3859.45 1691.65 3861.7 1695.9 3869.4 1695.7 3877.15 1695.45 3885.8 1690.9 3894.5 1686.35 3899.05 1680.15 3903.6 1673.95 3901.4 1669.65 3899.15 1665.4 3891.45 1665.6 3883.7 1665.85 3875.05 1670.4 Z"/>
</g>

<g id="S_mbolo_16_0_Layer0_36_MEMBER_1_FILL">
<path fill="#929292" stroke="none" d="
M 3862.75 1681.95
Q 3867.3 1675.95 3875.65 1671.6 3884.05 1667.25 3891.55 1666.85 3899.05 1666.5 3901.65 1670.3
L 3901.4 1669.65
Q 3899.15 1665.4 3891.45 1665.6 3883.7 1665.85 3875.05 1670.4 3866.35 1674.95 3861.8 1681.2 3857.25 1687.4 3859.45 1691.65
L 3859.8 1692.25
Q 3858.2 1687.9 3862.75 1681.95 Z"/>
</g>

<g id="FlashAICB_3_Capa_11__Path__1_1_0_Layer0_0_FILL">
<path fill="#A1A1A1" stroke="none" d="
M 299.4 32.7
Q 305.05 17.1 298.55 8.55 292.05 0 274.5 0 257.55 0.05 232.7 8 180.15 24.8 119 66 57.9 107.2 24.05 148.6 8.05 168.15 2.6 183.2 -3.05 198.85 3.45 207.35 9.95 215.9 27.5 215.9 44.4 215.9 69.25 207.95 121.85 191.1 182.95 149.95 244.05 108.8 277.95 67.35 293.95 47.8 299.4 32.7 Z"/>
</g>

<g id="FlashAICB_3_Capa_11__Path__2_0_Layer0_0_FILL">
<path fill="#929292" stroke="none" d="
M 300.05 30.85
Q 304.65 16.55 298.55 8.55 292.05 0 274.5 0 257.55 0.05 232.7 8 180.15 24.8 119 66 61.75 104.55 27.9 144 11.85 162.65 4.9 177.7 -2.3 193.2 1.05 202.85 8.45 179.95 39.8 147.8 71.95 114.85 118.1 83.75 179.2 42.6 231.8 25.75 256.65 17.8 273.6 17.8 291.15 17.75 297.65 26.3 299.1 28.25 300.05 30.85 Z"/>
</g>
</defs>

<g transform="matrix( 0.46875, 0, 0, 0.4686737060546875, 16,16.45) ">
<g transform="matrix( 0.35955810546875, 0, 0, 0.35955810546875, -1061.1,-539.95) ">
<use filter="url(#Filter_1)" xlink:href="#S_mbolo_16_0_Layer0_0_FILL"/>
</g>

<g transform="matrix( 0.35955810546875, 0, 0, 0.35955810546875, -1061.1,-539.95) ">
<use filter="url(#Filter_1)" xlink:href="#S_mbolo_16_0_Layer0_1_FILL"/>
</g>

<g transform="matrix( 0.35955810546875, 0, 0, 0.35955810546875, -1061.1,-539.95) ">
<use filter="url(#Filter_1)" xlink:href="#S_mbolo_16_0_Layer0_2_FILL"/>
</g>

<g transform="matrix( 0.35955810546875, 0, 0, 0.35955810546875, -1061.1,-539.95) ">
<use filter="url(#Filter_1)" xlink:href="#S_mbolo_16_0_Layer0_3_FILL"/>
</g>

<g transform="matrix( 0.35955810546875, 0, 0, 0.35955810546875, -1061.1,-539.95) ">
<use filter="url(#Filter_1)" xlink:href="#S_mbolo_16_0_Layer0_4_FILL"/>
</g>

<g transform="matrix( 0.35955810546875, 0, 0, 0.35955810546875, -1061.1,-539.95) ">
<use filter="url(#Filter_1)" xlink:href="#S_mbolo_16_0_Layer0_5_FILL"/>
</g>

<g transform="matrix( 1, 0, 0, 1, 0,0) ">
<use filter="url(#Filter_1)" xlink:href="#S_mbolo_16_0_Layer0_6_FILL"/>
</g>

<g transform="matrix( 0.35955810546875, 0, 0, 0.35955810546875, 767.25,737.9) ">
<g transform="matrix( 1, 0, 0, 1, 0,0) ">
<use filter="url(#Filter_2)" xlink:href="#FlashAICB_3_Capa_11__Group__30_0_Layer0_0_MEMBER_0_FILL"/>
</g>

<g transform="matrix( 1, 0, 0, 1, 0,0) ">
<use filter="url(#Filter_2)" xlink:href="#FlashAICB_3_Capa_11__Group__30_0_Layer0_0_MEMBER_1_FILL"/>
</g>
</g>

<g transform="matrix( 0.359466552734375, 0, 0, 0.359466552734375, -1061.1,-539.95) ">
<use filter="url(#Filter_1)" xlink:href="#S_mbolo_16_0_Layer0_8_MEMBER_0_FILL"/>
</g>

<g transform="matrix( 0.359466552734375, 0, 0, 0.359466552734375, -1061.1,-539.95) ">
<use filter="url(#Filter_1)" xlink:href="#S_mbolo_16_0_Layer0_8_MEMBER_1_FILL"/>
</g>

<g transform="matrix( 0.359466552734375, 0, 0, 0.359466552734375, -1061.1,-539.95) ">
<use filter="url(#Filter_1)" xlink:href="#S_mbolo_16_0_Layer0_9_MEMBER_0_FILL"/>
</g>

<g transform="matrix( 0.359466552734375, 0, 0, 0.359466552734375, -1061.1,-539.95) ">
<use filter="url(#Filter_1)" xlink:href="#S_mbolo_16_0_Layer0_9_MEMBER_1_FILL"/>
</g>

<g transform="matrix( 0.359466552734375, 0, 0, 0.359466552734375, -1061.1,-539.95) ">
<use filter="url(#Filter_1)" xlink:href="#S_mbolo_16_0_Layer0_10_MEMBER_0_FILL"/>
</g>

<g transform="matrix( 0.359466552734375, 0, 0, 0.359466552734375, -1061.1,-539.95) ">
<use filter="url(#Filter_1)" xlink:href="#S_mbolo_16_0_Layer0_10_MEMBER_1_FILL"/>
</g>

<g transform="matrix( 0.359466552734375, 0, 0, 0.359466552734375, -1061.1,-539.95) ">
<use filter="url(#Filter_1)" xlink:href="#S_mbolo_16_0_Layer0_11_MEMBER_0_FILL"/>
</g>

<g transform="matrix( 0.359466552734375, 0, 0, 0.359466552734375, -1061.1,-539.95) ">
<use filter="url(#Filter_1)" xlink:href="#S_mbolo_16_0_Layer0_11_MEMBER_1_FILL"/>
</g>

<g transform="matrix( 0.359466552734375, 0, 0, 0.359466552734375, -1061.1,-539.95) ">
<use filter="url(#Filter_1)" xlink:href="#S_mbolo_16_0_Layer0_12_MEMBER_0_FILL"/>
</g>

<g transform="matrix( 0.359466552734375, 0, 0, 0.359466552734375, -1061.1,-539.95) ">
<use filter="url(#Filter_1)" xlink:href="#S_mbolo_16_0_Layer0_12_MEMBER_1_FILL"/>
</g>

<g transform="matrix( 0.359466552734375, 0, 0, 0.359466552734375, 807.2,303.6) ">
<g transform="matrix( 1, 0, 0, 1, 0,0) ">
<use filter="url(#Filter_2)" xlink:href="#FlashAICB_3_Capa_11__Path__1_0_Layer0_0_FILL"/>
</g>
</g>

<g transform="matrix( 0.359466552734375, 0, 0, 0.359466552734375, 818.45,303.65) ">
<g transform="matrix( 1, 0, 0, 1, 0,0) ">
<use filter="url(#Filter_2)" xlink:href="#FlashAICB_3_Capa_11__Path__0_Layer0_0_FILL"/>
</g>
</g>

<g transform="matrix( 0.35955810546875, 0, 0, 0.35955810546875, 21.25,410.5) ">
<g transform="matrix( 1, 0, 0, 1, 0,0) ">
<use filter="url(#Filter_2)" xlink:href="#FlashAICB_3_Capa_11__Group__23_0_Layer0_0_MEMBER_0_FILL"/>
</g>

<g transform="matrix( 1, 0, 0, 1, 0,0) ">
<use filter="url(#Filter_2)" xlink:href="#FlashAICB_3_Capa_11__Group__23_0_Layer0_0_MEMBER_1_FILL"/>
</g>
</g>

<g transform="matrix( 0.35955810546875, 0, 0, 0.35955810546875, 153.3,265.45) ">
<g transform="matrix( 1, 0, 0, 1, 0,0) ">
<use filter="url(#Filter_2)" xlink:href="#FlashAICB_3_Capa_11__Group__22_0_Layer0_0_MEMBER_0_FILL"/>
</g>

<g transform="matrix( 1, 0, 0, 1, 0,0) ">
<use filter="url(#Filter_2)" xlink:href="#FlashAICB_3_Capa_11__Group__22_0_Layer0_0_MEMBER_1_FILL"/>
</g>
</g>

<g transform="matrix( 0.35955810546875, 0, 0, 0.35955810546875, 181.8,748.95) ">
<g transform="matrix( 1, 0, 0, 1, 0,0) ">
<use filter="url(#Filter_2)" xlink:href="#FlashAICB_3_Capa_11__Group__21_0_Layer0_0_MEMBER_0_FILL"/>
</g>

<g transform="matrix( 1, 0, 0, 1, 0,0) ">
<use filter="url(#Filter_2)" xlink:href="#FlashAICB_3_Capa_11__Group__21_0_Layer0_0_MEMBER_1_FILL"/>
</g>
</g>

<g transform="matrix( 0.359466552734375, 0, 0, 0.359466552734375, -1061.1,-539.95) ">
<use filter="url(#Filter_1)" xlink:href="#S_mbolo_16_0_Layer0_17_MEMBER_0_FILL"/>
</g>

<g transform="matrix( 0.359466552734375, 0, 0, 0.359466552734375, -1061.1,-539.95) ">
<use filter="url(#Filter_1)" xlink:href="#S_mbolo_16_0_Layer0_17_MEMBER_1_FILL"/>
</g>

<g transform="matrix( 0.359466552734375, 0, 0, 0.359466552734375, -1061.1,-539.95) ">
<use filter="url(#Filter_1)" xlink:href="#S_mbolo_16_0_Layer0_18_MEMBER_0_FILL"/>
</g>

<g transform="matrix( 0.359466552734375, 0, 0, 0.359466552734375, -1061.1,-539.95) ">
<use filter="url(#Filter_1)" xlink:href="#S_mbolo_16_0_Layer0_18_MEMBER_1_FILL"/>
</g>

<g transform="matrix( 0.359466552734375, 0, 0, 0.359466552734375, -1061.1,-539.95) ">
<use filter="url(#Filter_1)" xlink:href="#S_mbolo_16_0_Layer0_19_MEMBER_0_FILL"/>
</g>

<g transform="matrix( 0.359466552734375, 0, 0, 0.359466552734375, -1061.1,-539.95) ">
<use filter="url(#Filter_1)" xlink:href="#S_mbolo_16_0_Layer0_19_MEMBER_1_FILL"/>
</g>

<g transform="matrix( 0.359466552734375, 0, 0, 0.359466552734375, -1061.1,-539.95) ">
<use filter="url(#Filter_1)" xlink:href="#S_mbolo_16_0_Layer0_20_MEMBER_0_FILL"/>
</g>

<g transform="matrix( 0.359466552734375, 0, 0, 0.359466552734375, -1061.1,-539.95) ">
<use filter="url(#Filter_1)" xlink:href="#S_mbolo_16_0_Layer0_20_MEMBER_1_FILL"/>
</g>

<g transform="matrix( 0.359466552734375, 0, 0, 0.359466552734375, -1061.1,-539.95) ">
<use filter="url(#Filter_1)" xlink:href="#S_mbolo_16_0_Layer0_21_MEMBER_0_FILL"/>
</g>

<g transform="matrix( 0.359466552734375, 0, 0, 0.359466552734375, -1061.1,-539.95) ">
<use filter="url(#Filter_1)" xlink:href="#S_mbolo_16_0_Layer0_21_MEMBER_1_FILL"/>
</g>

<g transform="matrix( 0.359466552734375, 0, 0, 0.359466552734375, -1061.1,-539.95) ">
<use filter="url(#Filter_1)" xlink:href="#S_mbolo_16_0_Layer0_22_MEMBER_0_FILL"/>
</g>

<g transform="matrix( 0.359466552734375, 0, 0, 0.359466552734375, -1061.1,-539.95) ">
<use filter="url(#Filter_1)" xlink:href="#S_mbolo_16_0_Layer0_22_MEMBER_1_FILL"/>
</g>

<g transform="matrix( 0.359466552734375, 0, 0, 0.359466552734375, -1061.1,-539.95) ">
<use filter="url(#Filter_1)" xlink:href="#S_mbolo_16_0_Layer0_23_MEMBER_0_FILL"/>
</g>

<g transform="matrix( 0.359466552734375, 0, 0, 0.359466552734375, -1061.1,-539.95) ">
<use filter="url(#Filter_1)" xlink:href="#S_mbolo_16_0_Layer0_23_MEMBER_1_FILL"/>
</g>

<g transform="matrix( 0.359466552734375, 0, 0, 0.359466552734375, -1061.1,-539.95) ">
<use filter="url(#Filter_1)" xlink:href="#S_mbolo_16_0_Layer0_24_MEMBER_0_FILL"/>
</g>

<g transform="matrix( 0.359466552734375, 0, 0, 0.359466552734375, -1061.1,-539.95) ">
<use filter="url(#Filter_1)" xlink:href="#S_mbolo_16_0_Layer0_24_MEMBER_1_FILL"/>
</g>

<g transform="matrix( 0.359466552734375, 0, 0, 0.359466552734375, -1061.1,-539.95) ">
<use filter="url(#Filter_1)" xlink:href="#S_mbolo_16_0_Layer0_25_MEMBER_0_FILL"/>
</g>

<g transform="matrix( 0.359466552734375, 0, 0, 0.359466552734375, -1061.1,-539.95) ">
<use filter="url(#Filter_1)" xlink:href="#S_mbolo_16_0_Layer0_25_MEMBER_1_FILL"/>
</g>

<g transform="matrix( 0.359466552734375, 0, 0, 0.359466552734375, -1061.1,-539.95) ">
<use filter="url(#Filter_1)" xlink:href="#S_mbolo_16_0_Layer0_26_MEMBER_0_FILL"/>
</g>

<g transform="matrix( 0.359466552734375, 0, 0, 0.359466552734375, -1061.1,-539.95) ">
<use filter="url(#Filter_1)" xlink:href="#S_mbolo_16_0_Layer0_26_MEMBER_1_FILL"/>
</g>

<g transform="matrix( 0.359466552734375, 0, 0, 0.359466552734375, -1061.1,-539.95) ">
<use filter="url(#Filter_1)" xlink:href="#S_mbolo_16_0_Layer0_27_MEMBER_0_FILL"/>
</g>

<g transform="matrix( 0.359466552734375, 0, 0, 0.359466552734375, -1061.1,-539.95) ">
<use filter="url(#Filter_1)" xlink:href="#S_mbolo_16_0_Layer0_27_MEMBER_1_FILL"/>
</g>

<g transform="matrix( 0.359466552734375, 0, 0, 0.359466552734375, 587.65,772.25) ">
<g transform="matrix( 1, 0, 0, 1, 0,0) ">
<use filter="url(#Filter_2)" xlink:href="#FlashAICB_3_Capa_11__Path__1_0_0_Layer0_0_FILL"/>
</g>
</g>

<g transform="matrix( 0.359466552734375, 0, 0, 0.359466552734375, 587.65,777.45) ">
<g transform="matrix( 1, 0, 0, 1, 0,0) ">
<use filter="url(#Filter_2)" xlink:href="#FlashAICB_3_Capa_11__Path__0_0_Layer0_0_FILL"/>
</g>
</g>

<g transform="matrix( 0.35955810546875, 0, 0, 0.35955810546875, 124.25,160.9) ">
<g transform="matrix( 1, 0, 0, 1, 0,0) ">
<use filter="url(#Filter_2)" xlink:href="#FlashAICB_3_Capa_11__Group__8_0_Layer0_0_MEMBER_0_FILL"/>
</g>

<g transform="matrix( 1, 0, 0, 1, 0,0) ">
<use filter="url(#Filter_2)" xlink:href="#FlashAICB_3_Capa_11__Group__8_0_Layer0_0_MEMBER_1_FILL"/>
</g>
</g>

<g transform="matrix( 0.35955810546875, 0, 0, 0.35955810546875, 683.55,125.35) ">
<g transform="matrix( 1, 0, 0, 1, 0,0) ">
<use filter="url(#Filter_2)" xlink:href="#FlashAICB_3_Capa_11__Group__7_0_Layer0_0_MEMBER_0_FILL"/>
</g>

<g transform="matrix( 1, 0, 0, 1, 0,0) ">
<use filter="url(#Filter_2)" xlink:href="#FlashAICB_3_Capa_11__Group__7_0_Layer0_0_MEMBER_1_FILL"/>
</g>
</g>

<g transform="matrix( 0.359466552734375, 0, 0, 0.359466552734375, -1061.1,-539.95) ">
<use filter="url(#Filter_1)" xlink:href="#S_mbolo_16_0_Layer0_31_MEMBER_0_FILL"/>
</g>

<g transform="matrix( 0.359466552734375, 0, 0, 0.359466552734375, -1061.1,-539.95) ">
<use filter="url(#Filter_1)" xlink:href="#S_mbolo_16_0_Layer0_31_MEMBER_1_FILL"/>
</g>

<g transform="matrix( 0.359466552734375, 0, 0, 0.359466552734375, -1061.1,-539.95) ">
<use filter="url(#Filter_1)" xlink:href="#S_mbolo_16_0_Layer0_32_MEMBER_0_FILL"/>
</g>

<g transform="matrix( 0.359466552734375, 0, 0, 0.359466552734375, -1061.1,-539.95) ">
<use filter="url(#Filter_1)" xlink:href="#S_mbolo_16_0_Layer0_32_MEMBER_1_FILL"/>
</g>

<g transform="matrix( 0.359466552734375, 0, 0, 0.359466552734375, -1061.1,-539.95) ">
<use filter="url(#Filter_1)" xlink:href="#S_mbolo_16_0_Layer0_33_MEMBER_0_FILL"/>
</g>

<g transform="matrix( 0.359466552734375, 0, 0, 0.359466552734375, -1061.1,-539.95) ">
<use filter="url(#Filter_1)" xlink:href="#S_mbolo_16_0_Layer0_33_MEMBER_1_FILL"/>
</g>

<g transform="matrix( 0.359466552734375, 0, 0, 0.359466552734375, -1061.1,-539.95) ">
<use filter="url(#Filter_1)" xlink:href="#S_mbolo_16_0_Layer0_34_MEMBER_0_FILL"/>
</g>

<g transform="matrix( 0.359466552734375, 0, 0, 0.359466552734375, -1061.1,-539.95) ">
<use filter="url(#Filter_1)" xlink:href="#S_mbolo_16_0_Layer0_34_MEMBER_1_FILL"/>
</g>

<g transform="matrix( 0.359466552734375, 0, 0, 0.359466552734375, -1061.1,-539.95) ">
<use filter="url(#Filter_1)" xlink:href="#S_mbolo_16_0_Layer0_35_MEMBER_0_FILL"/>
</g>

<g transform="matrix( 0.359466552734375, 0, 0, 0.359466552734375, -1061.1,-539.95) ">
<use filter="url(#Filter_1)" xlink:href="#S_mbolo_16_0_Layer0_35_MEMBER_1_FILL"/>
</g>

<g transform="matrix( 0.359466552734375, 0, 0, 0.359466552734375, -1061.1,-539.95) ">
<use filter="url(#Filter_1)" xlink:href="#S_mbolo_16_0_Layer0_36_MEMBER_0_FILL"/>
</g>

<g transform="matrix( 0.359466552734375, 0, 0, 0.359466552734375, -1061.1,-539.95) ">
<use filter="url(#Filter_1)" xlink:href="#S_mbolo_16_0_Layer0_36_MEMBER_1_FILL"/>
</g>

<g transform="matrix( 0.359466552734375, 0, 0, 0.359466552734375, 254.65,113.05) ">
<g transform="matrix( 1, 0, 0, 1, 0,0) ">
<use filter="url(#Filter_2)" xlink:href="#FlashAICB_3_Capa_11__Path__1_1_0_Layer0_0_FILL"/>
</g>
</g>

<g transform="matrix( 0.359466552734375, 0, 0, 0.359466552734375, 254.65,113.05) ">
<g transform="matrix( 1, 0, 0, 1, 0,0) ">
<use filter="url(#Filter_2)" xlink:href="#FlashAICB_3_Capa_11__Path__2_0_Layer0_0_FILL"/>
</g>
</g>
</g>
</svg>
