
<svg xmlns="http://www.w3.org/2000/svg" version="1.1" xmlns:xlink="http://www.w3.org/1999/xlink" preserveAspectRatio="none" x="0px" y="0px" width="120px" height="40px" viewBox="0 0 120 40">
<defs>
<linearGradient id="Gradient_1" gradientUnits="userSpaceOnUse" x1="31.7875" y1="18.762499999999996" x2="15.012499999999998" y2="35.5375" spreadMethod="pad">
<stop  offset="0%" stop-color="#00A0FF"/>

<stop  offset="1.1764705882352942%" stop-color="#00A1FF"/>

<stop  offset="25.88235294117647%" stop-color="#00BEFF"/>

<stop  offset="50.98039215686274%" stop-color="#00D2FF"/>

<stop  offset="76.07843137254902%" stop-color="#00DFFF"/>

<stop  offset="100%" stop-color="#00E3FF"/>
</linearGradient>

<linearGradient id="Gradient_2" gradientUnits="userSpaceOnUse" x1="43.7875" y1="30" x2="19.612499999999997" y2="30" spreadMethod="pad">
<stop  offset="0%" stop-color="#FFE000"/>

<stop  offset="41.1764705882353%" stop-color="#FFBD00"/>

<stop  offset="78.03921568627452%" stop-color="#FFA500"/>

<stop  offset="100%" stop-color="#FF9C00"/>
</linearGradient>

<linearGradient id="Gradient_3" gradientUnits="userSpaceOnUse" x1="34.775" y1="32.337500000000006" x2="12.024999999999999" y2="55.0625" spreadMethod="pad">
<stop  offset="0%" stop-color="#FF3A44"/>

<stop  offset="100%" stop-color="#C31162"/>
</linearGradient>

<linearGradient id="Gradient_4" gradientUnits="userSpaceOnUse" x1="17.2875" y1="10.2375" x2="27.4125" y2="20.3625" spreadMethod="pad">
<stop  offset="0%" stop-color="#32A071"/>

<stop  offset="7.0588235294117645%" stop-color="#2DA771"/>

<stop  offset="47.84313725490196%" stop-color="#15CF74"/>

<stop  offset="80%" stop-color="#06E775"/>

<stop  offset="100%" stop-color="#00F076"/>
</linearGradient>

<filter id="Filter_1" x="-20%" y="-20%" width="140%" height="140%" color-interpolation-filters="sRGB">
<feColorMatrix in="SourceGraphic" type="matrix" values="1 0 0 0 0 0 1 0 0 0 0 0 1 0 0 0 0 0 0.2 0" result="result1"/>
</filter>

<filter id="Filter_2" x="-20%" y="-20%" width="140%" height="140%" color-interpolation-filters="sRGB">
<feColorMatrix in="SourceGraphic" type="matrix" values="1 0 0 0 0 0 1 0 0 0 0 0 1 0 0 0 0 0 0.12 0" result="result1"/>
</filter>

<filter id="Filter_3" x="-20%" y="-20%" width="140%" height="140%" color-interpolation-filters="sRGB">
<feColorMatrix in="SourceGraphic" type="matrix" values="1 0 0 0 0 0 1 0 0 0 0 0 1 0 0 0 0 0 0.25 0" result="result1"/>
</filter>

<g id="S_mbolo_2_0_Layer0_0_FILL">
<path fill="#000000" stroke="none" d="
M 128.55 48.55
Q 130 47.1 130 45
L 130 15
Q 130 12.95 128.55 11.45 127.2 10.15 125.35 10
L 15 10
Q 12.9 10 11.45 11.45 10 12.95 10 15
L 10 45
Q 10 47.1 11.45 48.55 12.9 50 15 50
L 125.35 50
Q 127.2 49.85 128.55 48.55 Z"/>
</g>

<g id="S_mbolo_2_0_Layer0_1_FILL">
<path fill="#A6A6A6" stroke="none" d="
M 130 15
Q 130 12.95 128.55 11.45 127.068359375 10.0177734375 125.05 10
L 15 10
Q 12.9 10 11.45 11.45 10 12.95 10 15
L 10 45
Q 10 47.1 11.45 48.55 12.9 50 15 50
L 125.05 50
Q 127.068359375 49.9822265625 128.55 48.55 130 47.1 130 45
L 130 15
M 127.95 12.05
Q 129.15 13.3 129.15 15
L 129.15 45
Q 129.15 46.75 127.95 48 126.76875 49.23046875 125.05 49.25
L 15 49.25
Q 13.25 49.25 12 48 10.8 46.75 10.8 45
L 10.8 15
Q 10.8 13.25 12 12.05 13.25 10.85 15 10.85
L 125.05 10.85
Q 126.7671875 10.8671875 127.95 12.05 Z"/>
</g>

<g id="S_mbolo_2_0_Layer0_2_FILL">
<path fill="#FFFFFF" stroke="none" d="
M 56.1 18.35
L 56.6 17.8
Q 56.25 17.35 55.65 17.15 54.8 16.8 53.85 16.95 52.9 17.15 52.25 17.8 51.3 18.7 51.3 20 51.3 21.3 52.25 22.25 53.1 23.15 54.45 23.15 55.7 23.25 56.65 22.25 57.5 21.4 57.4 20.25
L 57.35 19.8 54.45 19.8 54.45 20.55 56.6 20.55
Q 56.6 21.25 56.1 21.75 55.45 22.4 54.5 22.4 53.5 22.4 52.75 21.7 52.05 21.05 52.05 20.05 52.05 19.05 52.75 18.3 53.45 17.6 54.45 17.6 55.5 17.6 56.1 18.35 Z"/>
</g>

<g id="S_mbolo_2_0_Layer0_3_FILL">
<path fill="#FFFFFF" stroke="none" d="
M 62 17.75
L 62 17 58.5 17 58.5 23 62 23 62 22.3 59.25 22.3 59.25 20.4 61.75 20.4 61.75 19.65 59.25 19.65 59.25 17.75 62 17.75 Z"/>
</g>

<g id="S_mbolo_2_0_Layer0_4_FILL">
<path fill="#FFFFFF" stroke="none" d="
M 65.25 23
L 65.25 17.75 67 17.75 67 17 62.8 17 62.8 17.75 64.5 17.75 64.5 23 65.25 23 Z"/>
</g>

<g id="S_mbolo_2_0_Layer0_5_FILL">
<path fill="#FFFFFF" stroke="none" d="
M 69.9 23
L 70.7 23 70.7 17 69.9 17 69.9 23 Z"/>
</g>

<g id="S_mbolo_2_0_Layer0_6_FILL">
<path fill="#FFFFFF" stroke="none" d="
M 74.1 23
L 74.1 17.75 75.8 17.75 75.8 17 71.65 17 71.65 17.75 73.35 17.75 73.35 23 74.1 23 Z"/>
</g>

<g id="S_mbolo_2_0_Layer0_7_FILL">
<path fill="#FFFFFF" stroke="none" d="
M 83.6 22.25
Q 84.5 21.25 84.45 20 84.55 18.8 83.6 17.8 82.7 16.9 81.4 16.9 80.1 16.8 79.2 17.8 78.3 18.75 78.3 20.05 78.3 21.3 79.2 22.25 80.1 23.15 81.4 23.15 82.65 23.15 83.6 22.25
M 81.4 17.65
Q 82.35 17.65 83 18.3 83.7 19.05 83.7 20.05 83.7 21 83 21.75 82.35 22.45 81.4 22.45 80.45 22.45 79.75 21.75 79.1 21 79.1 20.05 79.1 19.05 79.75 18.3
L 79.8 18.3
Q 80.5 17.65 81.4 17.65 Z"/>
</g>

<g id="S_mbolo_2_0_Layer0_8_FILL">
<path fill="#FFFFFF" stroke="none" d="
M 90.15 17
L 89.4 17 89.4 21.7 86.5 17 85.55 17 85.55 23 86.3 23 86.3 18.15 89.35 23 90.15 23 90.15 17 Z"/>
</g>

<g id="S_mbolo_2_0_Layer0_9_FILL">
<path fill="#FFFFFF" stroke="none" d="
M 73.05 36
Q 73.1 34.3 71.9 33.05 70.7 31.8 68.95 31.75
L 68.8 31.8
Q 67.05 31.8 65.8 33.05 64.55 34.3 64.55 36.05 64.55 37.8 65.8 39.05 67.05 40.3 68.8 40.3 70.55 40.3 71.8 39.05 73.05 37.8 73.05 36
M 71.2 35.85
L 71.2 36
Q 71.25 37.05 70.55 37.8 69.85 38.55 68.85 38.6
L 68.8 38.6
Q 67.7 38.7 66.9 38 66.15 37.3 66.05 36.2 66 35.15 66.65 34.35 67.35 33.55 68.45 33.45 69.5 33.4 70.3 34.1 71.15 34.8 71.2 35.85
M 57.7 33.1
L 57.7 34.9 62.05 34.9
Q 61.9 36.25 61.05 37.15 59.6 38.6 57.7 38.5 55.7 38.5 54.3 37.1 52.9 35.7 52.9 33.7 52.9 31.7 54.3 30.3 55.7 28.9 57.7 28.9 59.6 28.8 61 30.15
L 62.25 28.9
Q 60.4 27.05 57.7 27.05 54.95 27 52.95 28.85 50.95 30.7 50.85 33.4 50.75 36.15 52.6 38.15 54.45 40.2 57.2 40.3
L 57.7 40.3
Q 60.4 40.4 62.35 38.45 64 36.65 63.9 34.2
L 63.8 33.1 57.7 33.1
M 115 28.85
Q 113.95 27.65 112.35 27.5
L 107.3 27.5 107.3 40 109.15 40 109.15 35.3 111.8 35.3
Q 113.4 35.4 114.65 34.35 115.85 33.3 115.95 31.7 116.05 30.1 115 28.85
M 111.8 29.25
Q 112.7 29.25 113.35 29.9 113.95 30.5 113.95 31.4 113.95 32.3 113.35 32.95 112.7 33.55 111.8 33.55
L 111.8 33.5 109.15 33.5 109.15 29.25 111.8 29.25
M 118.8 27.5
L 116.9 27.5 116.9 40 118.8 40 118.8 27.5
M 82.4 36
Q 82.4 34.3 81.2 33.05 80 31.8 78.25 31.75
L 78.1 31.75
Q 76.35 31.8 75.1 33.05 73.85 34.3 73.85 36.05 73.85 37.8 75.1 39.05 76.4 40.3 78.15 40.3 79.9 40.3 81.15 39.05 82.4 37.8 82.4 36
M 80.5 35.85
L 80.5 36
Q 80.6 37.05 79.9 37.8 79.2 38.55 78.2 38.6
L 78.1 38.6
Q 77.05 38.7 76.25 38 75.45 37.3 75.35 36.2 75.3 35.15 76 34.35 76.7 33.55 77.75 33.45 78.85 33.4 79.65 34.1 80.45 34.8 80.5 35.85
M 84.3 33.15
Q 83.1 34.45 83.2 36.2 83.3 37.85 84.45 39 85.6 40.2 87.25 40.25 88.6 40.25 89.5 39.25
L 89.55 39.25 89.55 39.85
Q 89.55 42.35 87.3 42.35 85.6 42.25 85.15 40.85
L 83.5 41.5
Q 83.95 42.65 85 43.35 86 44.05 87.25 44 89.05 44 90.1 43 91.25 41.85 91.25 39.6
L 91.25 32 89.55 32 89.55 32.75 89.5 32.75
Q 88.5 31.7 87.25 31.75 85.5 31.85 84.3 33.15
M 85 35.85
Q 85.05 34.9 85.75 34.2 86.4 33.55 87.4 33.45 88.4 33.5 89.05 34.25 89.75 35 89.7 35.95
L 89.65 36
Q 89.75 37 89.1 37.75 88.5 38.55 87.5 38.6
L 87.4 38.6
Q 86.3 38.55 85.6 37.75 84.95 36.95 85 35.85
M 95.4 35.75
L 95.4 36.05
Q 95.35 37.75 96.6 39 97.85 40.25 99.6 40.3 101.9 40.3 103.15 38.4
L 101.7 37.4
Q 101 38.55 99.6 38.55 98.1 38.65 97.55 37.25
L 103.25 34.95 103.05 34.5
Q 102.65 33.3 101.65 32.55 100.65 31.85 99.4 31.8 97.75 31.75 96.6 32.95 95.4 34.1 95.4 35.75
M 97.25 35.9
Q 97.2 34.95 97.8 34.2 98.45 33.5 99.4 33.4
L 99.45 33.4
Q 100.5 33.3 101.05 34.3
L 97.25 35.9
M 94.5 27.5
L 92.6 27.5 92.6 40 94.5 40 94.5 27.5
M 121.65 34.35
Q 122.2 33.3 123.35 33.4 124.1 33.35 124.7 33.8 125.3 34.25 125.35 35
L 125.35 35.15
Q 124.35 34.65 123.4 34.65 122 34.65 120.95 35.4 119.8 36.2 119.8 37.5 119.9 38.7 120.75 39.5 121.65 40.3 122.8 40.25
L 122.9 40.25
Q 124.5 40.35 125.3 39
L 125.35 39 125.35 40 127.15 40 127.15 35.2
Q 127.15 33.6 126.05 32.65 125 31.75 123.35 31.75
L 123.3 31.75
Q 122.3 31.7 121.35 32.2 120.45 32.7 120 33.65
L 121.65 34.35
M 123.65 36.2
Q 124.5 36.15 125.35 36.6 125.25 37.45 124.6 38.05 124 38.6 123.15 38.6
L 123.1 38.6
Q 122.6 38.6 122.15 38.35 121.65 38 121.65 37.5 121.65 36.2 123.65 36.2
M 135.8 32
L 133.7 32 131.6 37.45 131.5 37.45 129.3 32 127.3 32 130.65 39.6 128.75 43.8 130.7 43.8 135.8 32 Z"/>
</g>

<g id="S_mbolo_2_0_Layer0_10_FILL">
<path fill="url(#Gradient_1)" stroke="none" d="
M 20.5 17.5
L 20.4 17.55
Q 19.9 18.25 19.95 18.95
L 19.95 41.1
Q 19.9 41.8 20.4 42.5
L 20.5 42.55 32.9 30.15 32.9 29.9 20.5 17.5 Z"/>
</g>

<g id="S_mbolo_2_0_Layer0_11_FILL">
<path fill="url(#Gradient_2)" stroke="none" d="
M 42 31.45
Q 43.05 30.85 43.05 30.05 43.05 29.2 42 28.6
L 37.05 25.8 37 25.75 32.9 29.9 32.9 30.15 37 34.3 42 31.45 Z"/>
</g>

<g id="S_mbolo_2_0_Layer0_12_FILL">
<path fill="url(#Gradient_3)" stroke="none" d="
M 22.5 42.55
L 37.1 34.25 32.9 30 20.4 42.5
Q 21.45 43.35 22.5 42.55 Z"/>
</g>

<g id="S_mbolo_2_0_Layer0_13_FILL">
<path fill="url(#Gradient_4)" stroke="none" d="
M 32.9 30
L 37.1 25.8 22.5 17.5
Q 22 17.15 21.45 17.15 20.85 17.15 20.4 17.55
L 32.9 30 Z"/>
</g>

<g id="download_google_svg_artwork__Path__3_0_Layer0_0_FILL">
<path fill="#000000" stroke="none" d="
M 16.7 0.1
L 16.6 0 2.1 8.25
Q 1.1 9 0.1 8.25
L 0 8.35 0.1 8.4
Q 1.1 9.15 2.1 8.4
L 16.7 0.1 Z"/>
</g>

<g id="download_google_svg_artwork__Path__2_0_Layer0_0_FILL">
<path fill="#000000" stroke="none" d="
M 0.55 1.45
L 0.45 1.4
Q 0.0453125 0.8154296875 0.05 0.15 -0.05 0.95 0.5 1.55
L 0.55 1.45 Z"/>
</g>

<g id="download_google_svg_artwork__Path__1_0_Layer0_0_FILL">
<path fill="#000000" stroke="none" d="
M 6.05 0
Q 5.8 1 5 1.3
L 0 4.15 0.05 4.25 5 1.45
Q 5.9 1.05 6.05 0 Z"/>
</g>

<g id="download_google_svg_artwork__Path__0_Layer0_0_FILL">
<path fill="#FFFFFF" stroke="none" d="
M 22.05 11.6
Q 22.85 11.9 23.1 12.85 22.95 11.85 22.05 11.45
L 2.55 0.35
Q 1.5 -0.25 0.75 0.2 0 0.6 0 1.8
L 0 1.95
Q 0.05 0.75 0.75 0.35 1.5 -0.1 2.55 0.5
L 22.05 11.6 Z"/>
</g>

<path id="S_mbolo_2_0_Layer0_2_1_STROKES" stroke="#FFFFFF" stroke-width="0.2" stroke-linejoin="miter" stroke-linecap="butt" stroke-miterlimit="10" fill="none" d="
M 42.6350830078125 11.133587646484376
Q 42.72808837890625 12.203149414062498 41.93754272460937 12.993695068359376 41.053991699218756 13.923748779296876 39.89142456054688 13.830743408203123 38.63585205078125 13.830743408203123 37.845306396484375 12.993695068359376 36.961755371093744 12.110144042968752 36.961755371093744 10.90107421875 36.961755371093744 9.69200439453125 37.845306396484375 8.854956054687502 38.44984130859375 8.250421142578123 39.33339233398438 8.064410400390624 40.216943359374994 7.924902343750001 41.00748901367187 8.250421142578123 41.565521240234375 8.436431884765629 41.8910400390625 8.854956054687502
L 41.42601318359375 9.366485595703129
Q 40.86798095703125 8.668945312500004 39.89142456054688 8.668945312500004 38.96137084960938 8.668945312500004 38.310333251953125 9.319982910156252 37.65929565429687 10.017523193359377 37.65929565429687 10.947576904296877 37.65929565429687 11.877630615234377 38.310333251953125 12.48216552734375 39.00787353515625 13.133203124999998 39.93792724609375 13.133203124999998 40.82147827148438 13.133203124999998 41.42601318359375 12.528668212890626 41.8910400390625 12.063641357421876 41.8910400390625 11.412603759765627
L 39.89142456054688 11.412603759765627 39.89142456054688 10.715063476562502 42.58858032226563 10.715063476562502 42.6350830078125 11.133587646484376 Z"/>

<path id="S_mbolo_2_0_Layer0_3_1_STROKES" stroke="#FFFFFF" stroke-width="0.2" stroke-linejoin="miter" stroke-linecap="butt" stroke-miterlimit="10" fill="none" d="
M 46.913330078125 8.808453369140626
L 44.355682373046875 8.808453369140626 44.355682373046875 10.575555419921873 46.680816650390625 10.575555419921873 46.680816650390625 11.273095703124998 44.355682373046875 11.273095703124998 44.355682373046875 13.040197753906252 46.913330078125 13.040197753906252 46.913330078125 13.6912353515625 43.65814208984375 13.6912353515625 43.65814208984375 8.1109130859375 46.913330078125 8.1109130859375 46.913330078125 8.808453369140626 Z"/>

<path id="S_mbolo_2_0_Layer0_4_1_STROKES" stroke="#FFFFFF" stroke-width="0.2" stroke-linejoin="miter" stroke-linecap="butt" stroke-miterlimit="10" fill="none" d="
M 49.936004638671875 13.6912353515625
L 49.23846435546875 13.6912353515625 49.23846435546875 8.808453369140626 47.657373046874994 8.808453369140626 47.657373046874994 8.1109130859375 51.5635986328125 8.1109130859375 51.5635986328125 8.808453369140626 49.936004638671875 8.808453369140626 49.936004638671875 13.6912353515625 Z"/>

<path id="S_mbolo_2_0_Layer0_5_1_STROKES" stroke="#FFFFFF" stroke-width="0.2" stroke-linejoin="miter" stroke-linecap="butt" stroke-miterlimit="10" fill="none" d="
M 54.26075439453126 13.6912353515625
L 54.26075439453126 8.1109130859375 55.004797363281256 8.1109130859375 55.004797363281256 13.6912353515625 54.26075439453126 13.6912353515625 Z"/>

<path id="S_mbolo_2_0_Layer0_6_1_STROKES" stroke="#FFFFFF" stroke-width="0.2" stroke-linejoin="miter" stroke-linecap="butt" stroke-miterlimit="10" fill="none" d="
M 58.16697998046874 13.6912353515625
L 57.469439697265614 13.6912353515625 57.469439697265614 8.808453369140626 55.888348388671886 8.808453369140626 55.888348388671886 8.1109130859375 59.748071289062494 8.1109130859375 59.748071289062494 8.808453369140626 58.16697998046874 8.808453369140626 58.16697998046874 13.6912353515625 Z"/>

<path id="S_mbolo_2_0_Layer0_7_1_STROKES" stroke="#FFFFFF" stroke-width="0.2" stroke-linejoin="miter" stroke-linecap="butt" stroke-miterlimit="10" fill="none" d="
M 63.421783447265625 12.528668212890626
Q 64.07282104492188 13.179705810546874 64.95637207031251 13.179705810546874 65.83992309570311 13.179705810546874 66.4444580078125 12.528668212890626 67.09549560546876 11.8311279296875 67.09549560546876 10.947576904296877 67.09549560546876 10.017523193359377 66.4444580078125 9.319982910156252 65.83992309570311 8.715447998046873 64.95637207031251 8.715447998046873 64.11932373046875 8.715447998046873 63.468286132812494 9.319982910156252
L 63.421783447265625 9.319982910156252
Q 62.81724853515624 10.017523193359377 62.81724853515624 10.947576904296877 62.81724853515624 11.8311279296875 63.421783447265625 12.528668212890626 Z
M 67.00249023437499 12.993695068359376
Q 66.11893920898439 13.830743408203123 64.95637207031251 13.830743408203123 63.74730224609374 13.830743408203123 62.910253906250006 12.993695068359376 62.073205566406244 12.110144042968752 62.073205566406244 10.947576904296877 62.073205566406244 9.738507080078126 62.910253906250006 8.854956054687502 63.74730224609374 7.924902343750001 64.95637207031251 8.017907714843748 66.16544189453126 8.017907714843748 67.00249023437499 8.854956054687502 67.88604125976562 9.785009765625002 67.79303588867188 10.90107421875 67.83953857421875 12.063641357421876 67.00249023437499 12.993695068359376 Z"/>

<path id="S_mbolo_2_0_Layer0_8_1_STROKES" stroke="#FFFFFF" stroke-width="0.2" stroke-linejoin="miter" stroke-linecap="butt" stroke-miterlimit="10" fill="none" d="
M 68.81609497070312 13.6912353515625
L 68.81609497070312 8.1109130859375 69.69964599609375 8.1109130859375 72.39680175781251 12.48216552734375 72.39680175781251 8.1109130859375 73.09434204101564 8.1109130859375 73.09434204101564 13.6912353515625 72.35029907226561 13.6912353515625 69.51363525390624 9.180474853515623 69.51363525390624 13.6912353515625 68.81609497070312 13.6912353515625 Z"/>
</defs>

<g transform="matrix( 1, 0, 0, 1, 0,0) ">
<g transform="matrix( 1, 0, 0, 1, -10,-10) ">
<use xlink:href="#S_mbolo_2_0_Layer0_0_FILL"/>
</g>

<g transform="matrix( 1, 0, 0, 1, -10,-10) ">
<use xlink:href="#S_mbolo_2_0_Layer0_1_FILL"/>
</g>

<g transform="matrix( 0.9300537109375, 0, 0, 0.9300537109375, -10.75,-7.7) ">
<use xlink:href="#S_mbolo_2_0_Layer0_2_FILL"/>

<use xlink:href="#S_mbolo_2_0_Layer0_2_1_STROKES" transform="matrix( 1.0751953125, 0, 0, 1.0751953125, 11.55,8.25) "/>
</g>

<g transform="matrix( 0.9300537109375, 0, 0, 0.9300537109375, -10.75,-7.7) ">
<use xlink:href="#S_mbolo_2_0_Layer0_3_FILL"/>

<use xlink:href="#S_mbolo_2_0_Layer0_3_1_STROKES" transform="matrix( 1.0751953125, 0, 0, 1.0751953125, 11.55,8.25) "/>
</g>

<g transform="matrix( 0.9300537109375, 0, 0, 0.9300537109375, -10.75,-7.7) ">
<use xlink:href="#S_mbolo_2_0_Layer0_4_FILL"/>

<use xlink:href="#S_mbolo_2_0_Layer0_4_1_STROKES" transform="matrix( 1.0751953125, 0, 0, 1.0751953125, 11.55,8.25) "/>
</g>

<g transform="matrix( 0.9300537109375, 0, 0, 0.9300537109375, -10.75,-7.7) ">
<use xlink:href="#S_mbolo_2_0_Layer0_5_FILL"/>

<use xlink:href="#S_mbolo_2_0_Layer0_5_1_STROKES" transform="matrix( 1.0751953125, 0, 0, 1.0751953125, 11.55,8.25) "/>
</g>

<g transform="matrix( 0.9300537109375, 0, 0, 0.9300537109375, -10.75,-7.7) ">
<use xlink:href="#S_mbolo_2_0_Layer0_6_FILL"/>

<use xlink:href="#S_mbolo_2_0_Layer0_6_1_STROKES" transform="matrix( 1.0751953125, 0, 0, 1.0751953125, 11.55,8.25) "/>
</g>

<g transform="matrix( 0.9300537109375, 0, 0, 0.9300537109375, -10.75,-7.7) ">
<use xlink:href="#S_mbolo_2_0_Layer0_7_FILL"/>

<use xlink:href="#S_mbolo_2_0_Layer0_7_1_STROKES" transform="matrix( 1.0751953125, 0, 0, 1.0751953125, 11.55,8.25) "/>
</g>

<g transform="matrix( 0.9300537109375, 0, 0, 0.9300537109375, -10.75,-7.7) ">
<use xlink:href="#S_mbolo_2_0_Layer0_8_FILL"/>

<use xlink:href="#S_mbolo_2_0_Layer0_8_1_STROKES" transform="matrix( 1.0751953125, 0, 0, 1.0751953125, 11.55,8.25) "/>
</g>

<g transform="matrix( 0.9300537109375, 0, 0, 0.9300537109375, -12.65,-7.7) ">
<use xlink:href="#S_mbolo_2_0_Layer0_9_FILL"/>
</g>

<g transform="matrix( 0.915313720703125, 0, 0, 0.915313720703125, -9.45,-7.25) ">
<use xlink:href="#S_mbolo_2_0_Layer0_10_FILL"/>
</g>

<g transform="matrix( 0.915313720703125, 0, 0, 0.915313720703125, -9.45,-7.25) ">
<use xlink:href="#S_mbolo_2_0_Layer0_11_FILL"/>
</g>

<g transform="matrix( 0.915313720703125, 0, 0, 0.915313720703125, -9.45,-7.25) ">
<use xlink:href="#S_mbolo_2_0_Layer0_12_FILL"/>
</g>

<g transform="matrix( 0.915313720703125, 0, 0, 0.915313720703125, -9.45,-7.25) ">
<use xlink:href="#S_mbolo_2_0_Layer0_13_FILL"/>
</g>

<g transform="matrix( 1, 0, 0, 1, 10.4,24.15) ">
<g transform="matrix( 1, 0, 0, 1, 0,0) ">
<use filter="url(#Filter_1)" xlink:href="#download_google_svg_artwork__Path__3_0_Layer0_0_FILL"/>
</g>
</g>

<g transform="matrix( 1, 0, 0, 1, 9.95,30.95) ">
<g transform="matrix( 1, 0, 0, 1, 0,0) ">
<use filter="url(#Filter_2)" xlink:href="#download_google_svg_artwork__Path__2_0_Layer0_0_FILL"/>
</g>
</g>

<g transform="matrix( 1, 0, 0, 1, 27,20) ">
<g transform="matrix( 1, 0, 0, 1, 0,0) ">
<use filter="url(#Filter_2)" xlink:href="#download_google_svg_artwork__Path__1_0_Layer0_0_FILL"/>
</g>
</g>

<g transform="matrix( 1, 0, 0, 1, 9.95,7.15) ">
<g transform="matrix( 1, 0, 0, 1, 0,0) ">
<use filter="url(#Filter_3)" xlink:href="#download_google_svg_artwork__Path__0_Layer0_0_FILL"/>
</g>
</g>
</g>
</svg>
