
<svg xmlns="http://www.w3.org/2000/svg" version="1.1" xmlns:xlink="http://www.w3.org/1999/xlink" preserveAspectRatio="none" x="0px" y="0px" width="120px" height="40px" viewBox="0 0 120 40">
<defs>
<g id="S_mbolo_1_0_Layer0_0_FILL">
<path fill="#000000" stroke="none" d="
M 128.55 48.55
Q 130 47.1 130 45
L 130 15
Q 130 12.95 128.55 11.45 127.2 10.15 125.35 10
L 15 10
Q 12.9 10 11.45 11.45 10 12.95 10 15
L 10 45
Q 10 47.1 11.45 48.55 12.9 50 15 50
L 125.35 50
Q 127.2 49.85 128.55 48.55 Z"/>
</g>

<g id="S_mbolo_1_0_Layer0_1_FILL">
<path fill="#A6A6A6" stroke="none" d="
M 130 15
Q 130 12.95 128.55 11.45 127.068359375 10.0177734375 125.05 10
L 15 10
Q 12.9 10 11.45 11.45 10 12.95 10 15
L 10 45
Q 10 47.1 11.45 48.55 12.9 50 15 50
L 125.05 50
Q 127.068359375 49.9822265625 128.55 48.55 130 47.1 130 45
L 130 15
M 127.95 12.05
Q 129.15 13.3 129.15 15
L 129.15 45
Q 129.15 46.75 127.95 48 126.76875 49.23046875 125.05 49.25
L 15 49.25
Q 13.25 49.25 12 48 10.8 46.75 10.8 45
L 10.8 15
Q 10.8 13.25 12 12.05 13.25 10.85 15 10.85
L 125.05 10.85
Q 126.7671875 10.8671875 127.95 12.05 Z"/>
</g>

<g id="S_mbolo_1_0_Layer0_2_MEMBER_0_MEMBER_0_MEMBER_0_MEMBER_0_MEMBER_0_FILL">
<path fill="#FFFFFF" stroke="none" d="
M 25.55 23
Q 24.75 21.8 24.75 20.35 24.75 17.6 27.1 16.15 25.65 14.1 23.1 14 22.15 13.9 20.75 14.45 19.25 15 18.95 15 18.55 15 17.35 14.55 16.1 14.05 15.35 14.05 13.95 14.1 12.75 14.85 11.55 15.55 10.85 16.8 9.55 19.15 10.15 22.5 10.65 25.45 12.25 27.75 14.1 30.55 15.65 30.5 16.3 30.5 17.35 30.05 18.35 29.65 19.25 29.65 20.1 29.65 21.1 30.1 22.15 30.5 22.8 30.5 23.8 30.45 24.7 29.65 25.3 29.1 26.15 27.8 27.15 26.35 27.65 24.7 26.35 24.2 25.55 23 Z"/>
</g>

<g id="S_mbolo_1_0_Layer0_2_MEMBER_0_MEMBER_0_MEMBER_0_MEMBER_0_MEMBER_1_FILL">
<path fill="#FFFFFF" stroke="none" d="
M 18.8 13.75
Q 20.7 13.85 22 12.25 23.25 10.7 23.15 8.75 21.15 9 19.9 10.4 18.65 11.9 18.8 13.75 Z"/>
</g>

<g id="S_mbolo_1_0_Layer0_2_MEMBER_0_MEMBER_0_MEMBER_1_MEMBER_0_FILL">
<path fill="#FFFFFF" stroke="none" d="
M 42.3 27.15
L 43.4 30.5 45.45 30.5 40.95 18.1 38.9 18.1 34.4 30.5 36.4 30.5 37.55 27.15 42.3 27.15
M 38.05 25.6
L 39.9 20.15 39.95 20.15 41.8 25.6 38.05 25.6 Z"/>
</g>

<g id="S_mbolo_1_0_Layer0_2_MEMBER_0_MEMBER_0_MEMBER_1_MEMBER_1_FILL">
<path fill="#FFFFFF" stroke="none" d="
M 54.1 22.65
Q 53.05 21.35 51.3 21.35 49.4 21.35 48.45 22.95
L 48.4 22.95 48.4 21.45 46.6 21.45 46.6 33.5 48.45 33.5 48.45 29.05 48.5 29.05
Q 49.55 30.75 51.35 30.6 53.1 30.6 54.1 29.35 55.15 28.1 55.15 26 55.15 23.9 54.1 22.65
M 49.1 23.8
Q 49.75 22.95 50.85 22.95 51.95 22.95 52.55 23.8 53.2 24.6 53.2 26 53.2 27.4 52.55 28.2 51.95 29.05 50.85 29.05 49.75 29.05 49.1 28.2 48.45 27.35 48.45 26 48.45 24.65 49.1 23.8 Z"/>
</g>

<g id="S_mbolo_1_0_Layer0_2_MEMBER_0_MEMBER_0_MEMBER_1_MEMBER_2_FILL">
<path fill="#FFFFFF" stroke="none" d="
M 64.05 22.65
Q 63 21.35 61.3 21.35 59.35 21.35 58.4 22.95
L 58.35 22.95 58.35 21.45 56.55 21.45 56.55 33.5 58.45 33.5 58.45 29.05
Q 59.5 30.75 61.3 30.6 63.05 30.6 64.05 29.35 65.1 28.1 65.1 26 65.1 23.9 64.05 22.65
M 60.8 22.95
Q 61.9 22.95 62.55 23.8 63.2 24.6 63.2 26 63.2 27.4 62.55 28.2 61.9 29.05 60.8 29.05 59.75 29.05 59.1 28.2 58.4 27.35 58.4 26 58.4 24.65 59.1 23.8 59.75 22.95 60.8 22.95 Z"/>
</g>

<g id="S_mbolo_1_0_Layer0_2_MEMBER_0_MEMBER_0_MEMBER_1_MEMBER_3_FILL">
<path fill="#FFFFFF" stroke="none" d="
M 74.35 23.15
Q 72.1 22.65 72.1 21.4 72.1 20.55 72.8 20.05 73.5 19.5 74.6 19.5 77 19.5 77.25 21.5
L 79.1 21.5
Q 79.05 19.9 77.85 18.9 76.6 17.9 74.65 17.9 72.65 17.9 71.4 18.9 70.1 19.9 70.1 21.5 70.1 24.05 73.45 24.85
L 75.05 25.25
Q 77.35 25.85 77.35 27.2 77.35 28 76.6 28.55 75.8 29.1 74.65 29.1 73.4 29.1 72.6 28.55 71.8 28 71.7 27.05
L 69.8 27.05
Q 69.9 28.75 71.15 29.75 72.45 30.75 74.5 30.75 76.7 30.75 78 29.7 79.3 28.7 79.3 26.95 79.3 25.6 78.45 24.8 77.6 23.95 75.7 23.5
L 74.35 23.15 Z"/>
</g>

<g id="S_mbolo_1_0_Layer0_2_MEMBER_0_MEMBER_0_MEMBER_1_MEMBER_4_FILL">
<path fill="#FFFFFF" stroke="none" d="
M 83.3 19.3
L 81.45 19.3 81.45 21.45 80.15 21.45 80.15 22.95 81.45 22.95 81.45 28.15
Q 81.45 29.45 82.05 30 82.6 30.55 84 30.55 84.35 30.6 85.05 30.5
L 85.05 29 84.4 29.05
Q 83.3 29.05 83.3 27.95
L 83.3 22.95 85.05 22.95 85.05 21.45 83.3 21.45 83.3 19.3 Z"/>
</g>

<g id="S_mbolo_1_0_Layer0_2_MEMBER_0_MEMBER_0_MEMBER_1_MEMBER_5_FILL">
<path fill="#FFFFFF" stroke="none" d="
M 90.35 21.35
Q 88.35 21.35 87.2 22.6 86.05 23.85 86.05 26 86.05 28.15 87.2 29.4 88.35 30.65 90.35 30.65 92.3 30.65 93.5 29.4 94.65 28.15 94.65 26 94.65 23.85 93.5 22.6 92.3 21.35 90.35 21.35
M 88.6 23.7
Q 89.2 22.9 90.35 22.9 91.5 22.9 92.1 23.7 92.75 24.55 92.75 26 92.75 27.45 92.1 28.3 91.5 29.1 90.35 29.1 89.2 29.1 88.6 28.3 87.95 27.45 87.95 26 87.95 24.55 88.6 23.7 Z"/>
</g>

<g id="S_mbolo_1_0_Layer0_2_MEMBER_0_MEMBER_0_MEMBER_1_MEMBER_6_FILL">
<path fill="#FFFFFF" stroke="none" d="
M 97.95 23
L 97.95 21.45 96.15 21.45 96.15 30.5 98 30.5 98 24.85
Q 98.05 24.1 98.6 23.6 99.15 23.05 99.95 23.05 100.35 23.05 100.8 23.2
L 100.8 21.45 100.15 21.35
Q 99.4 21.35 98.8 21.8 98.15 22.25 98 23
L 97.95 23 Z"/>
</g>

<g id="S_mbolo_1_0_Layer0_2_MEMBER_0_MEMBER_0_MEMBER_1_MEMBER_7_FILL">
<path fill="#FFFFFF" stroke="none" d="
M 105.4 21.35
Q 103.5 21.35 102.35 22.65 101.2 23.9 101.2 26.05 101.2 28.15 102.35 29.4 103.5 30.65 105.45 30.65 107 30.65 108.1 29.85 109.15 29.1 109.35 27.85
L 107.6 27.85
Q 107.05 29.25 105.5 29.15
L 105.2 29.15
Q 104.25 29.05 103.6 28.3 103 27.55 103.05 26.55
L 103.05 26.45 109.45 26.45 109.45 25.8
Q 109.45 23.75 108.35 22.55 107.25 21.35 105.4 21.35
M 103.75 23.5
Q 104.45 22.85 105.4 22.85
L 105.55 22.85
Q 106.45 22.95 107.05 23.6 107.65 24.25 107.6 25.15
L 103.1 25.15
Q 103.1 24.2 103.75 23.5 Z"/>
</g>

<g id="S_mbolo_1_0_Layer0_2_MEMBER_1_MEMBER_0_MEMBER_0_FILL">
<path fill="#FFFFFF" stroke="none" d="
M 40.6 11.7
Q 40.7 11.45 40.6 11.2 40.55 10.1 39.7 9.4 38.9 8.7 37.8 8.75
L 35.65 8.75 35.65 14.7 37.8 14.7
Q 40.6 14.7 40.6 11.7
M 36.55 9.6
L 38.05 9.6
Q 38.85 9.7 39.3 10.35 39.75 10.95 39.65 11.75
L 39.7 12.1
Q 39.65 12.9 39.05 13.4 38.5 13.95 37.7 13.9
L 36.55 13.9 36.55 9.6 Z"/>
</g>

<g id="S_mbolo_1_0_Layer0_2_MEMBER_1_MEMBER_0_MEMBER_1_FILL">
<path fill="#FFFFFF" stroke="none" d="
M 45.9 12.05
Q 45.85 11.2 45.15 10.65 44.45 10.1 43.6 10.15 42.7 10.25 42.15 10.9 41.6 11.6 41.65 12.45
L 41.65 12.9
Q 41.75 13.75 42.4 14.3 43.1 14.9 44 14.8 44.85 14.75 45.4 14.05 46 13.35 45.9 12.45
L 45.9 12.05
M 45 12.45
Q 45 14 43.8 14 42.55 14 42.55 12.45 42.55 10.9 43.8 10.9 45 10.9 45 12.45 Z"/>
</g>

<g id="S_mbolo_1_0_Layer0_2_MEMBER_1_MEMBER_0_MEMBER_2_FILL">
<path fill="#FFFFFF" stroke="none" d="
M 52.8 10.2
L 51.9 10.2 51.1 13.65 51 13.65 50.1 10.2 49.25 10.2 48.3 13.65 48.25 13.65 47.45 10.2 46.55 10.2 47.8 14.7 48.7 14.7 49.65 11.4 49.7 11.4 50.65 14.7 51.55 14.7 52.8 10.2 Z"/>
</g>

<g id="S_mbolo_1_0_Layer0_2_MEMBER_1_MEMBER_0_MEMBER_3_FILL">
<path fill="#FFFFFF" stroke="none" d="
M 54.7 10.2
L 53.85 10.2 53.85 14.7 54.7 14.7 54.7 11.95
Q 54.75 11.5 55.05 11.2 55.35 10.9 55.8 10.95 56.75 10.95 56.75 12.05
L 56.75 14.7 57.65 14.7 57.65 11.5
Q 57.6 10.9 57.15 10.5 56.7 10.1 56.1 10.15 55.15 10.05 54.75 10.95
L 54.7 10.95 54.7 10.2 Z"/>
</g>

<g id="S_mbolo_1_0_Layer0_2_MEMBER_1_MEMBER_0_MEMBER_4_FILL">
<path fill="#FFFFFF" stroke="none" d="
M 59.05 8.45
L 59.05 14.7 59.95 14.7 59.95 8.45 59.05 8.45 Z"/>
</g>

<g id="S_mbolo_1_0_Layer0_2_MEMBER_1_MEMBER_0_MEMBER_5_FILL">
<path fill="#FFFFFF" stroke="none" d="
M 65.45 12.05
Q 65.4 11.2 64.7 10.65 64 10.1 63.1 10.15 62.25 10.25 61.7 10.9 61.15 11.6 61.2 12.45
L 61.2 12.9
Q 61.3 13.75 61.95 14.3 62.65 14.9 63.5 14.8 64.4 14.75 64.95 14.05 65.55 13.35 65.45 12.45
L 65.45 12.05
M 64.55 12.45
Q 64.55 14 63.3 14 62.1 14 62.1 12.45 62.1 10.9 63.3 10.9 64.55 10.9 64.55 12.45 Z"/>
</g>

<g id="S_mbolo_1_0_Layer0_2_MEMBER_1_MEMBER_0_MEMBER_6_FILL">
<path fill="#FFFFFF" stroke="none" d="
M 70.15 11.65
Q 70.15 10.15 68.4 10.15 66.7 10.15 66.55 11.4
L 67.4 11.4
Q 67.55 10.9 68.35 10.9 69.25 10.9 69.25 11.65
L 69.25 12.05 68.05 12.1
Q 66.4 12.2 66.4 13.45
L 66.4 13.6
Q 66.45 14.15 66.9 14.5 67.35 14.85 67.9 14.8 68.8 14.8 69.25 14.1
L 69.3 14.1 69.3 14.7 70.15 14.7 70.15 11.65
M 69.25 13.1
Q 69.2 13.55 68.9 13.8 68.55 14.1 68.1 14.05 67.25 14.05 67.25 13.4 67.25 12.85 68.15 12.75
L 69.25 12.7 69.25 13.1 Z"/>
</g>

<g id="S_mbolo_1_0_Layer0_2_MEMBER_1_MEMBER_0_MEMBER_7_FILL">
<path fill="#FFFFFF" stroke="none" d="
M 75.55 8.45
L 74.65 8.45 74.65 10.95 74.55 10.95
Q 74.1 10.05 73.2 10.15 72.35 10.15 71.8 10.8 71.3 11.4 71.3 12.45 71.3 13.55 71.8 14.15 72.35 14.8 73.2 14.8 74.1 14.8 74.6 14
L 74.7 14 74.7 14.7 75.55 14.7 75.55 8.45
M 74.65 12.45
Q 74.65 14 73.45 14 72.25 14 72.25 12.45 72.25 10.95 73.45 10.95 74.65 10.95 74.65 12.45 Z"/>
</g>

<g id="S_mbolo_1_0_Layer0_2_MEMBER_1_MEMBER_0_MEMBER_8_FILL">
<path fill="#FFFFFF" stroke="none" d="
M 81.55 14.8
Q 82.4 14.75 82.95 14.05 83.55 13.35 83.45 12.45
L 83.45 12.05
Q 83.4 11.2 82.7 10.65 82 10.1 81.15 10.15 80.25 10.25 79.7 10.9 79.15 11.6 79.2 12.45
L 79.2 12.9
Q 79.3 13.75 79.95 14.3 80.65 14.9 81.55 14.8
M 82.55 12.45
Q 82.55 14 81.35 14 80.1 14 80.1 12.45 80.1 10.9 81.35 10.9 82.55 10.9 82.55 12.45 Z"/>
</g>

<g id="S_mbolo_1_0_Layer0_2_MEMBER_1_MEMBER_0_MEMBER_9_FILL">
<path fill="#FFFFFF" stroke="none" d="
M 85.55 11.95
Q 85.55 11.5 85.85 11.2 86.2 10.9 86.6 10.95 87.6 10.95 87.6 12.05
L 87.6 14.7 88.45 14.7 88.45 11.8 88.5 11.5
Q 88.45 10.9 87.95 10.5 87.5 10.1 86.9 10.15 85.95 10.05 85.55 10.95
L 85.5 10.95 85.5 10.2 84.65 10.2 84.65 14.7 85.55 14.7 85.55 11.95 Z"/>
</g>

<g id="S_mbolo_1_0_Layer0_2_MEMBER_1_MEMBER_0_MEMBER_10_FILL">
<path fill="#FFFFFF" stroke="none" d="
M 93.5 9.1
L 92.6 9.1 92.6 10.25 91.9 10.25 91.9 11 92.6 11 92.6 13.55
Q 92.6 14.75 94 14.75
L 94.45 14.7 94.45 13.95 94.15 14
Q 93.5 14 93.5 13.3
L 93.5 11 94.45 11 94.45 10.25 93.5 10.25 93.5 9.1 Z"/>
</g>

<g id="S_mbolo_1_0_Layer0_2_MEMBER_1_MEMBER_0_MEMBER_11_FILL">
<path fill="#FFFFFF" stroke="none" d="
M 96.55 10.95
L 96.55 8.45 95.7 8.45 95.7 14.7 96.55 14.7 96.55 11.9
Q 96.6 11.5 96.9 11.2 97.25 10.9 97.7 10.95 98.65 10.95 98.65 12.05
L 98.65 14.7 99.55 14.7 99.55 11.55
Q 99.5 10.9 99.05 10.5 98.6 10.1 98 10.15 96.95 10.05 96.65 10.95
L 96.55 10.95 Z"/>
</g>

<g id="S_mbolo_1_0_Layer0_2_MEMBER_1_MEMBER_0_MEMBER_12_FILL">
<path fill="#FFFFFF" stroke="none" d="
M 102.8 10.15
L 102.5 10.15
Q 101.65 10.25 101.1 10.95 100.6 11.65 100.7 12.5
L 100.7 12.8
Q 100.7 13.65 101.3 14.25 101.95 14.85 102.8 14.8 103.45 14.9 104 14.5 104.55 14.15 104.75 13.5
L 103.9 13.5
Q 103.5 14.15 102.8 14.05
L 102.7 14.05
Q 102.2 14 101.9 13.65 101.55 13.25 101.6 12.75
L 101.6 12.7 104.8 12.7 104.8 12.4
Q 104.8 10.15 102.8 10.15
M 101.6 12.05
Q 101.6 11.55 101.95 11.25 102.3 10.9 102.8 10.9
L 102.9 10.9
Q 103.35 10.95 103.65 11.25 103.95 11.6 103.9 12.05
L 101.6 12.05 Z"/>
</g>
</defs>

<g transform="matrix( 1, 0, 0, 1, 0,0) ">
<g transform="matrix( 1, 0, 0, 1, -10,-10) ">
<use xlink:href="#S_mbolo_1_0_Layer0_0_FILL"/>
</g>

<g transform="matrix( 1, 0, 0, 1, -10,-10) ">
<use xlink:href="#S_mbolo_1_0_Layer0_1_FILL"/>
</g>

<g transform="matrix( 1.0015869140625, 0, 0, 1.0011749267578125, 0.3,-0.4) ">
<use xlink:href="#S_mbolo_1_0_Layer0_2_MEMBER_0_MEMBER_0_MEMBER_0_MEMBER_0_MEMBER_0_FILL"/>
</g>

<g transform="matrix( 1.0015869140625, 0, 0, 1.0011749267578125, 0.3,-0.4) ">
<use xlink:href="#S_mbolo_1_0_Layer0_2_MEMBER_0_MEMBER_0_MEMBER_0_MEMBER_0_MEMBER_1_FILL"/>
</g>

<g transform="matrix( 1.001617431640625, 0, 0, 1.001190185546875, 0.3,-0.4) ">
<use xlink:href="#S_mbolo_1_0_Layer0_2_MEMBER_0_MEMBER_0_MEMBER_1_MEMBER_0_FILL"/>
</g>

<g transform="matrix( 1.001617431640625, 0, 0, 1.001190185546875, 0.3,-0.4) ">
<use xlink:href="#S_mbolo_1_0_Layer0_2_MEMBER_0_MEMBER_0_MEMBER_1_MEMBER_1_FILL"/>
</g>

<g transform="matrix( 1.001617431640625, 0, 0, 1.001190185546875, 0.3,-0.4) ">
<use xlink:href="#S_mbolo_1_0_Layer0_2_MEMBER_0_MEMBER_0_MEMBER_1_MEMBER_2_FILL"/>
</g>

<g transform="matrix( 1.001617431640625, 0, 0, 1.001190185546875, 0.3,-0.4) ">
<use xlink:href="#S_mbolo_1_0_Layer0_2_MEMBER_0_MEMBER_0_MEMBER_1_MEMBER_3_FILL"/>
</g>

<g transform="matrix( 1.001617431640625, 0, 0, 1.001190185546875, 0.3,-0.4) ">
<use xlink:href="#S_mbolo_1_0_Layer0_2_MEMBER_0_MEMBER_0_MEMBER_1_MEMBER_4_FILL"/>
</g>

<g transform="matrix( 1.001617431640625, 0, 0, 1.001190185546875, 0.3,-0.4) ">
<use xlink:href="#S_mbolo_1_0_Layer0_2_MEMBER_0_MEMBER_0_MEMBER_1_MEMBER_5_FILL"/>
</g>

<g transform="matrix( 1.001617431640625, 0, 0, 1.001190185546875, 0.3,-0.4) ">
<use xlink:href="#S_mbolo_1_0_Layer0_2_MEMBER_0_MEMBER_0_MEMBER_1_MEMBER_6_FILL"/>
</g>

<g transform="matrix( 1.001617431640625, 0, 0, 1.001190185546875, 0.3,-0.4) ">
<use xlink:href="#S_mbolo_1_0_Layer0_2_MEMBER_0_MEMBER_0_MEMBER_1_MEMBER_7_FILL"/>
</g>

<g transform="matrix( 1.001617431640625, 0, 0, 1.001190185546875, 0.3,-0.4) ">
<use xlink:href="#S_mbolo_1_0_Layer0_2_MEMBER_1_MEMBER_0_MEMBER_0_FILL"/>
</g>

<g transform="matrix( 1.001617431640625, 0, 0, 1.001190185546875, 0.3,-0.4) ">
<use xlink:href="#S_mbolo_1_0_Layer0_2_MEMBER_1_MEMBER_0_MEMBER_1_FILL"/>
</g>

<g transform="matrix( 1.001617431640625, 0, 0, 1.001190185546875, 0.3,-0.4) ">
<use xlink:href="#S_mbolo_1_0_Layer0_2_MEMBER_1_MEMBER_0_MEMBER_2_FILL"/>
</g>

<g transform="matrix( 1.001617431640625, 0, 0, 1.001190185546875, 0.3,-0.4) ">
<use xlink:href="#S_mbolo_1_0_Layer0_2_MEMBER_1_MEMBER_0_MEMBER_3_FILL"/>
</g>

<g transform="matrix( 1.001617431640625, 0, 0, 1.001190185546875, 0.3,-0.4) ">
<use xlink:href="#S_mbolo_1_0_Layer0_2_MEMBER_1_MEMBER_0_MEMBER_4_FILL"/>
</g>

<g transform="matrix( 1.001617431640625, 0, 0, 1.001190185546875, 0.3,-0.4) ">
<use xlink:href="#S_mbolo_1_0_Layer0_2_MEMBER_1_MEMBER_0_MEMBER_5_FILL"/>
</g>

<g transform="matrix( 1.001617431640625, 0, 0, 1.001190185546875, 0.3,-0.4) ">
<use xlink:href="#S_mbolo_1_0_Layer0_2_MEMBER_1_MEMBER_0_MEMBER_6_FILL"/>
</g>

<g transform="matrix( 1.001617431640625, 0, 0, 1.001190185546875, 0.3,-0.4) ">
<use xlink:href="#S_mbolo_1_0_Layer0_2_MEMBER_1_MEMBER_0_MEMBER_7_FILL"/>
</g>

<g transform="matrix( 1.001617431640625, 0, 0, 1.001190185546875, 0.3,-0.4) ">
<use xlink:href="#S_mbolo_1_0_Layer0_2_MEMBER_1_MEMBER_0_MEMBER_8_FILL"/>
</g>

<g transform="matrix( 1.001617431640625, 0, 0, 1.001190185546875, 0.3,-0.4) ">
<use xlink:href="#S_mbolo_1_0_Layer0_2_MEMBER_1_MEMBER_0_MEMBER_9_FILL"/>
</g>

<g transform="matrix( 1.001617431640625, 0, 0, 1.001190185546875, 0.3,-0.4) ">
<use xlink:href="#S_mbolo_1_0_Layer0_2_MEMBER_1_MEMBER_0_MEMBER_10_FILL"/>
</g>

<g transform="matrix( 1.001617431640625, 0, 0, 1.001190185546875, 0.3,-0.4) ">
<use xlink:href="#S_mbolo_1_0_Layer0_2_MEMBER_1_MEMBER_0_MEMBER_11_FILL"/>
</g>

<g transform="matrix( 1.001617431640625, 0, 0, 1.001190185546875, 0.3,-0.4) ">
<use xlink:href="#S_mbolo_1_0_Layer0_2_MEMBER_1_MEMBER_0_MEMBER_12_FILL"/>
</g>
</g>
</svg>
